<?xml version="1.0" encoding="utf-8"?>
<!-- Generator: Adobe Illustrator 16.0.0, SVG Export Plug-In . SVG Version: 6.00 Build 0)  -->
<!DOCTYPE svg PUBLIC "-//W3C//DTD SVG 1.1//EN" "http://www.w3.org/Graphics/SVG/1.1/DTD/svg11.dtd">
<svg version="1.1" xmlns="http://www.w3.org/2000/svg" xmlns:xlink="http://www.w3.org/1999/xlink" x="0px" y="0px"
	 width="647.541px" height="424.59px" viewBox="0 0 647.541 424.59" enable-background="new 0 0 647.541 424.59"
	 xml:space="preserve">
<g id="Layer_1">
	<rect x="6.089" y="6.287" fill="#F1F2F2" width="639.553" height="27.128"/>
	<rect x="6.089" y="33.415" fill="#414851" width="94.618" height="385.309"/>
	<rect x="100.707" y="33.415" fill="#FFFFFF" width="544.935" height="41.978"/>
	<rect x="100.707" y="73.701" width="405.753" height="345.021"/>
	<rect x="506.46" y="73.701" fill="#414851" width="139.182" height="345.021"/>
	<g>
		<path fill="#FFFFFF" d="M24.285,68.335l9.225,0.802l-4.054,4.051c-0.722,0.724-1.895,0.724-2.618,0l-3.655-3.655l-0.716-0.838
			l1.89,1.159l-1.688-1.439l2.049,0.851l-1.692-1.038l0.478,0.043l1.479,0.354L24.285,68.335z M21.941,65.383l1.439-1.686
			l-1.158,1.891l1.684-1.441l-1.439,1.686l1.89-1.16L22.67,66.11h0.002l2.045-0.849L23.6,65.946l15.924-2.823l2.155-2.156
			c0.724-0.724,0.724-1.896,0-2.619L29.456,46.127c-0.722-0.725-1.895-0.725-2.618,0l-1.848,1.848l-2.907,16.521l0.708-1.161
			L21.941,65.383z M18.199,63.697l1.44,1.686l-0.851-2.049l1.002,1.637l-0.052-0.61l-0.311-1.29l0.25,0.606l-0.828-9.562
			l-4.235,4.232c-0.722,0.723-0.722,1.896,0,2.619l3.905,3.903l0.839,0.718L18.199,63.697z"/>
	</g>
	<rect x="596.734" y="45.584" fill="#171E25" width="36.189" height="17.64"/>
	<rect x="615.284" y="45.584" fill="#73A3B7" width="17.64" height="17.64"/>
	<g>
		<rect x="488.82" y="74.21" fill="#414851" width="17.64" height="17.638"/>
		<rect x="488.82" y="96.186" fill="#414851" width="17.64" height="17.64"/>
		<rect x="488.82" y="118.162" fill="#414851" width="17.64" height="17.64"/>
	</g>
	<g>
		<path fill="none" stroke="#5EA3D9" stroke-width="1.8298" stroke-miterlimit="10" d="M286.23,248.115"/>
		
			<line fill="none" stroke="#5EA3D9" stroke-width="1.8298" stroke-miterlimit="10" x1="288.952" y1="250.632" x2="340.465" y2="334.896"/>
		
			<line fill="none" stroke="#5EA3D9" stroke-width="1.8298" stroke-miterlimit="10" x1="286.23" y1="248.115" x2="279.887" y2="333.043"/>
		<path fill="none" stroke="#5EA3D9" stroke-width="1.8298" stroke-miterlimit="10" d="M279.887,333.043"/>
		<path fill="none" stroke="#5EA3D9" stroke-width="1.8298" stroke-miterlimit="10" d="M286.23,248.115"/>
		<path fill="none" stroke="#5EA3D9" stroke-width="1.8298" stroke-miterlimit="10" d="M286.23,248.115"/>
		<path fill="none" stroke="#5EA3D9" stroke-width="1.8298" stroke-miterlimit="10" d="M286.23,248.115"/>
		
			<line fill="none" stroke="#5EA3D9" stroke-width="1.8298" stroke-miterlimit="10" x1="332.689" y1="250.91" x2="286.408" y2="247.142"/>
		<circle fill="#D1D3D4" cx="340.466" cy="334.895" r="12.779"/>
		<g>
			<path fill="#D1D3D4" d="M286.005,341.201c-0.175,1.825-1.539,2.448-3.032,1.384l-10.508-7.49
				c-1.493-1.064-1.351-2.557,0.317-3.318l11.734-5.354c1.668-0.762,2.891,0.109,2.716,1.935L286.005,341.201z"/>
		</g>
		<g>
			<path fill="#FFFFFF" d="M332.687,246.702c0.105-1.215,1.01-1.638,2.01-0.938l7.036,4.924c1,0.699,0.914,1.694-0.191,2.21
				l-7.78,3.635c-1.105,0.516-1.924-0.057-1.818-1.271L332.687,246.702z"/>
		</g>
		<g>
			<g>
				
					<line fill="none" stroke="#5EA3D9" stroke-width="1.8298" stroke-miterlimit="10" x1="408.67" y1="190.426" x2="349.787" y2="224.897"/>
				
					<line fill="none" stroke="#5EA3D9" stroke-width="1.8298" stroke-miterlimit="10" x1="349.787" y1="224.897" x2="381.725" y2="245.13"/>
			</g>
			
				<line fill="none" stroke="#5EA3D9" stroke-width="1.8298" stroke-miterlimit="10" x1="349.787" y1="224.897" x2="286.727" y2="247.586"/>
			
				<line fill="none" stroke="#5EA3D9" stroke-width="1.8298" stroke-miterlimit="10" x1="286.727" y1="247.586" x2="219.645" y2="175.1"/>
			
				<line fill="none" stroke="#5EA3D9" stroke-width="1.8298" stroke-miterlimit="10" x1="286.727" y1="247.586" x2="308.672" y2="165.299"/>
			
				<line fill="none" stroke="#5EA3D9" stroke-width="1.8298" stroke-miterlimit="10" x1="308.672" y1="165.299" x2="349.787" y2="224.897"/>
			
				<line fill="none" stroke="#5EA3D9" stroke-width="1.8298" stroke-miterlimit="10" x1="286.727" y1="247.586" x2="253.529" y2="294.292"/>
			
				<line fill="none" stroke="#5EA3D9" stroke-width="1.8298" stroke-miterlimit="10" x1="203.201" y1="265.134" x2="286.727" y2="247.586"/>
			
				<line fill="none" stroke="#5EA3D9" stroke-width="1.8298" stroke-miterlimit="10" x1="286.727" y1="247.586" x2="337.2" y2="272.991"/>
			
				<line fill="none" stroke="#5EA3D9" stroke-width="1.8298" stroke-miterlimit="10" x1="203.201" y1="265.134" x2="252.025" y2="296.588"/>
			
				<line fill="none" stroke="#5EA3D9" stroke-width="1.8298" stroke-miterlimit="10" x1="241.585" y1="236.242" x2="286.37" y2="248.508"/>
		</g>
		<g>
			<circle fill="#D1D3D4" cx="219.643" cy="175.101" r="12.779"/>
			<circle fill="#D1D3D4" cx="203.201" cy="265.133" r="6.939"/>
			<path fill="#D1D3D4" d="M293.491,268.551c-11.579,3.734-23.992-2.623-27.727-14.197c-3.736-11.581,2.621-23.993,14.195-27.73
				c11.58-3.734,23.993,2.622,27.729,14.2C311.426,252.4,305.067,264.812,293.491,268.551z"/>
			<circle fill="#D1D3D4" cx="408.671" cy="190.425" r="8.334"/>
			<path fill="#FFFFFF" d="M352.471,233.21c-4.59,1.481-9.511-1.038-10.99-5.626c-1.483-4.593,1.037-9.513,5.627-10.994
				c4.587-1.48,9.51,1.038,10.991,5.629C359.58,226.805,357.059,231.729,352.471,233.21z"/>
			<g>
				<path fill="#D1D3D4" d="M304.17,156.149c0.509-1.762,1.966-2.121,3.235-0.799l8.941,9.302c1.271,1.321,0.854,2.763-0.926,3.202
					l-12.525,3.094c-1.78,0.438-2.819-0.643-2.311-2.404L304.17,156.149z"/>
			</g>
			<g>
				<path fill="#D1D3D4" d="M378.159,231.847c1.562-2.151,3.725-1.926,4.808,0.502l7.619,17.086
					c1.083,2.429-0.194,4.189-2.839,3.913l-18.604-1.943c-2.645-0.276-3.53-2.263-1.97-4.413L378.159,231.847z"/>
			</g>
			<g>
				<path fill="#FFFFFF" d="M240.809,240.378c-0.328,1.176-1.296,1.423-2.148,0.551l-6.004-6.14
					c-0.853-0.872-0.584-1.834,0.599-2.137l8.317-2.131c1.183-0.303,1.88,0.411,1.552,1.586L240.809,240.378z"/>
			</g>
			<g>
				<path fill="#FFFFFF" d="M241.88,287.646c0.033-3.271,2.364-4.584,5.18-2.92l19.809,11.707c2.815,1.664,2.789,4.34-0.06,5.946
					l-20.045,11.304c-2.849,1.606-5.151,0.245-5.118-3.024L241.88,287.646z"/>
			</g>
			<path fill="#FFFFFF" d="M340.12,280.364c-3.521,1.14-7.3-0.797-8.437-4.321c-1.137-3.52,0.798-7.298,4.317-8.435
				c3.524-1.137,7.302,0.8,8.438,4.319C345.576,275.451,343.642,279.229,340.12,280.364z"/>
		</g>
	</g>
	
		<line fill="none" stroke="#414851" stroke-width="1.1833" stroke-miterlimit="10" x1="123.985" y1="45.584" x2="163.036" y2="45.584"/>
	
		<line fill="none" stroke="#414851" stroke-width="1.1833" stroke-miterlimit="10" x1="178.242" y1="45.584" x2="217.293" y2="45.584"/>
	
		<line fill="none" stroke="#414851" stroke-width="1.1833" stroke-miterlimit="10" x1="232.5" y1="45.584" x2="271.551" y2="45.584"/>
	<rect x="14.074" y="95.107" fill="#73A3B7" width="78.648" height="17.64"/>
	<rect x="14.074" y="117.084" fill="#171E25" width="78.648" height="17.639"/>
	<rect x="14.074" y="139.06" fill="#171E25" width="78.648" height="17.64"/>
	<rect x="14.074" y="171.824" fill="#171E25" width="78.648" height="17.639"/>
	<rect x="14.074" y="193.801" fill="#171E25" width="78.648" height="17.64"/>
</g>
<g id="Layer_2">
</g>
<g id="Layer_3">
</g>
</svg>
