<?xml version="1.0" encoding="utf-8"?>
<!-- Generator: Adobe Illustrator 16.0.0, SVG Export Plug-In . SVG Version: 6.00 Build 0)  -->
<!DOCTYPE svg PUBLIC "-//W3C//DTD SVG 1.1//EN" "http://www.w3.org/Graphics/SVG/1.1/DTD/svg11.dtd">
<svg version="1.1" xmlns="http://www.w3.org/2000/svg" xmlns:xlink="http://www.w3.org/1999/xlink" x="0px" y="0px"
	 width="472.131px" height="108.196px" viewBox="0 0 472.131 108.196" enable-background="new 0 0 472.131 108.196"
	 xml:space="preserve">
<g id="Layer_1">
	<g>
		<g>
			<g>
				<path fill="#FFFFFF" d="M122.951,100.02c0,2.725-2.206,4.932-4.929,4.932H9.035c-2.722,0-4.929-2.207-4.929-4.932V18.867
					c0-2.723,2.207-4.93,4.929-4.93h108.987c2.723,0,4.929,2.207,4.929,4.93V100.02z"/>
			</g>
			<g>
				<g>
					<path fill="#D7D6D6" d="M46.947,62.873c0,1.299-1.063,2.361-2.364,2.361H20.962c-1.299,0-2.362-1.062-2.362-2.361V44.92
						c0-1.299,1.063-2.363,2.362-2.363h23.621c1.301,0,2.364,1.064,2.364,2.363V62.873z M20.962,44.447
						c-0.251,0-0.472,0.221-0.472,0.473v17.953c0,0.25,0.221,0.471,0.472,0.471h23.621c0.252,0,0.475-0.221,0.475-0.471V44.92
						c0-0.252-0.223-0.473-0.475-0.473H20.962z M25.215,52.006c-1.564,0-2.836-1.27-2.836-2.834s1.271-2.836,2.836-2.836
						s2.834,1.271,2.834,2.836S26.779,52.006,25.215,52.006z M43.167,61.455H22.379v-2.836l4.725-4.723l2.362,2.361l7.56-7.559
						l6.142,6.141V61.455z"/>
				</g>
			</g>
			<g>
				<rect x="7.508" y="17.344" fill="#D7D6D6" width="112" height="15"/>
			</g>
			<g>
				<rect x="18.754" y="72.992" fill="#D7D6D6" width="89.549" height="5.342"/>
			</g>
			<g>
				<rect x="18.754" y="84.789" fill="#D7D6D6" width="89.549" height="5.342"/>
			</g>
			<g>
				<rect x="54.826" y="49.432" fill="#D7D6D6" width="53.477" height="5.342"/>
			</g>
			<g>
				<rect x="54.826" y="61.229" fill="#D7D6D6" width="53.477" height="5.34"/>
			</g>
			<g>
				<g>
					<circle fill="#C4C4C4" cx="11.25" cy="21.469" r="2.469"/>
				</g>
				<g>
					<circle fill="#C4C4C4" cx="17.609" cy="21.469" r="2.469"/>
				</g>
				<g>
					<circle fill="#C4C4C4" cx="23.97" cy="21.469" r="2.47"/>
				</g>
				<g>
					<path fill="#FFFFFF" d="M118.276,22.561c0,1.721-1.396,3.117-3.116,3.117H53.289c-1.721,0-3.115-1.396-3.115-3.117v-0.443
						c0-1.721,1.395-3.117,3.115-3.117h61.871c1.721,0,3.116,1.396,3.116,3.117V22.561z"/>
				</g>
			</g>
			<g>
				<path fill="#D7D6D6" d="M118.022,17.943c0.508,0,0.922,0.414,0.922,0.924v81.152c0,0.51-0.414,0.926-0.922,0.926H9.035
					c-0.508,0-0.922-0.416-0.922-0.926V18.867c0-0.51,0.414-0.924,0.922-0.924H118.022 M118.022,13.938H9.035
					c-2.722,0-4.929,2.207-4.929,4.93v81.152c0,2.725,2.207,4.932,4.929,4.932h108.987c2.723,0,4.929-2.207,4.929-4.932V18.867
					C122.951,16.145,120.745,13.938,118.022,13.938L118.022,13.938z"/>
			</g>
		</g>
		<g>
			<g>
				<path fill="#FFFFFF" d="M313.951,100.674c0,2.363-1.914,4.277-4.275,4.277h-94.538c-2.36,0-4.274-1.914-4.274-4.277V30.281
					c0-2.363,1.914-4.277,4.274-4.277h94.538c2.361,0,4.275,1.914,4.275,4.277V100.674z"/>
			</g>
			<g>
				<g>
					<path fill="#D7D6D6" d="M248.024,68.451c0,1.127-0.923,2.047-2.052,2.047h-20.489c-1.126,0-2.049-0.92-2.049-2.047V52.879
						c0-1.127,0.923-2.051,2.049-2.051h20.489c1.129,0,2.052,0.924,2.052,2.051V68.451z M225.483,52.469
						c-0.218,0-0.409,0.191-0.409,0.41v15.572c0,0.217,0.191,0.408,0.409,0.408h20.489c0.219,0,0.412-0.191,0.412-0.408V52.879
						c0-0.219-0.193-0.41-0.412-0.41H225.483z M229.173,59.025c-1.356,0-2.461-1.102-2.461-2.459s1.104-2.459,2.461-2.459
						s2.458,1.102,2.458,2.459S230.529,59.025,229.173,59.025z M244.744,67.221h-18.032v-2.459l4.099-4.098l2.049,2.049l6.558-6.557
						l5.327,5.326V67.221z"/>
				</g>
			</g>
			<g>
				<rect x="213.508" y="29.344" fill="#D7D6D6" width="98" height="13"/>
			</g>
			<g>
				<rect x="223.568" y="77.23" fill="#D7D6D6" width="77.676" height="4.633"/>
			</g>
			<g>
				<rect x="223.568" y="87.463" fill="#D7D6D6" width="77.676" height="4.631"/>
			</g>
			<g>
				<rect x="254.858" y="56.793" fill="#D7D6D6" width="46.386" height="4.633"/>
			</g>
			<g>
				<rect x="254.858" y="67.025" fill="#D7D6D6" width="46.386" height="4.633"/>
			</g>
			<g>
				<g>
					<path fill="#C4C4C4" d="M214.918,32.537c0-1.182,0.959-2.141,2.143-2.141c1.181,0,2.142,0.959,2.142,2.141
						c0,1.186-0.961,2.143-2.142,2.143C215.877,34.68,214.918,33.723,214.918,32.537z"/>
				</g>
				<g>
					<path fill="#C4C4C4" d="M220.434,32.537c0-1.182,0.959-2.141,2.144-2.141c1.183,0,2.141,0.959,2.141,2.141
						c0,1.186-0.958,2.143-2.141,2.143C221.393,34.68,220.434,33.723,220.434,32.537z"/>
				</g>
				<g>
					<path fill="#C4C4C4" d="M225.951,32.537c0-1.182,0.958-2.141,2.142-2.141c1.182,0,2.143,0.959,2.143,2.141
						c0,1.186-0.961,2.143-2.143,2.143C226.909,34.68,225.951,33.723,225.951,32.537z"/>
				</g>
				<g>
					<path fill="#FFFFFF" d="M309.896,33.484c0,1.492-1.211,2.703-2.703,2.703h-53.669c-1.492,0-2.701-1.211-2.701-2.703v-0.387
						c0-1.492,1.209-2.701,2.701-2.701h53.669c1.492,0,2.703,1.209,2.703,2.701V33.484z"/>
				</g>
			</g>
			<g>
				<path fill="#D7D6D6" d="M309.676,29.479c0.44,0,0.8,0.359,0.8,0.803v70.393c0,0.441-0.359,0.803-0.8,0.803h-94.538
					c-0.44,0-0.799-0.361-0.799-0.803V30.281c0-0.443,0.358-0.803,0.799-0.803H309.676 M309.676,26.004h-94.538
					c-2.36,0-4.274,1.914-4.274,4.277v70.393c0,2.363,1.914,4.277,4.274,4.277h94.538c2.361,0,4.275-1.914,4.275-4.277V30.281
					C313.951,27.918,312.037,26.004,309.676,26.004L309.676,26.004z"/>
			</g>
		</g>
		<g>
			<g>
				<path fill="#FFFFFF" d="M468.951,101.557c0,1.875-1.52,3.395-3.393,3.395h-75.012c-1.872,0-3.392-1.52-3.392-3.395V45.703
					c0-1.875,1.52-3.393,3.392-3.393h75.012c1.873,0,3.393,1.518,3.393,3.393V101.557z"/>
			</g>
			<g>
				<g>
					<path fill="#D7D6D6" d="M416.641,75.99c0,0.895-0.731,1.623-1.627,1.623h-16.258c-0.894,0-1.626-0.729-1.626-1.623V63.633
						c0-0.895,0.732-1.627,1.626-1.627h16.258c0.896,0,1.627,0.732,1.627,1.627V75.99z M398.756,63.309
						c-0.173,0-0.324,0.152-0.324,0.324V75.99c0,0.172,0.151,0.324,0.324,0.324h16.258c0.173,0,0.326-0.152,0.326-0.324V63.633
						c0-0.172-0.153-0.324-0.326-0.324H398.756z M401.683,68.512c-1.075,0-1.952-0.875-1.952-1.951s0.877-1.953,1.952-1.953
						c1.076,0,1.951,0.877,1.951,1.953S402.759,68.512,401.683,68.512z M414.039,75.014H399.73v-1.951l3.252-3.252l1.626,1.627
						l5.203-5.203l4.228,4.227V75.014z"/>
				</g>
			</g>
			<g>
				<rect x="388.508" y="45.344" fill="#D7D6D6" width="79" height="10"/>
			</g>
			<g>
				<rect x="397.236" y="82.955" fill="#D7D6D6" width="61.632" height="3.676"/>
			</g>
			<g>
				<rect x="397.236" y="91.074" fill="#D7D6D6" width="61.632" height="3.676"/>
			</g>
			<g>
				<rect x="422.062" y="66.738" fill="#D7D6D6" width="36.806" height="3.678"/>
			</g>
			<g>
				<rect x="422.062" y="74.859" fill="#D7D6D6" width="36.806" height="3.676"/>
			</g>
			<g>
				<g>
					<circle fill="#C4C4C4" cx="392.072" cy="47.494" r="1.7"/>
				</g>
				<g>
					<circle fill="#C4C4C4" cx="396.449" cy="47.494" r="1.7"/>
				</g>
				<g>
					<circle fill="#C4C4C4" cx="400.827" cy="47.494" r="1.7"/>
				</g>
				<g>
					<path fill="#FFFFFF" d="M465.734,48.246c0,1.184-0.962,2.143-2.145,2.143h-42.584c-1.185,0-2.144-0.959-2.144-2.143v-0.309
						c0-1.184,0.959-2.143,2.144-2.143h42.584c1.183,0,2.145,0.959,2.145,2.143V48.246z"/>
				</g>
			</g>
			<g>
				<path fill="#D7D6D6" d="M465.559,45.066c0.35,0,0.635,0.285,0.635,0.637v55.854c0,0.352-0.285,0.637-0.635,0.637h-75.012
					c-0.35,0-0.634-0.285-0.634-0.637V45.703c0-0.352,0.284-0.637,0.634-0.637H465.559 M465.559,42.311h-75.012
					c-1.872,0-3.392,1.518-3.392,3.393v55.854c0,1.875,1.52,3.395,3.392,3.395h75.012c1.873,0,3.393-1.52,3.393-3.395V45.703
					C468.951,43.828,467.432,42.311,465.559,42.311L465.559,42.311z"/>
			</g>
		</g>
		<g>
			<g>
				<path fill="#FFFFFF" d="M182.893,61.902c0,1.896-1.537,3.436-3.434,3.436H103.54c-1.896,0-3.434-1.539-3.434-3.436V5.371
					c0-1.896,1.537-3.434,3.434-3.434h75.919c1.896,0,3.434,1.537,3.434,3.434V61.902z"/>
			</g>
			<g>
				<g>
					<path fill="#D7D6D6" d="M129.948,36.025c0,0.904-0.739,1.645-1.646,1.645h-16.454c-0.904,0-1.646-0.74-1.646-1.645V23.52
						c0-0.906,0.742-1.646,1.646-1.646h16.454c0.907,0,1.646,0.74,1.646,1.646V36.025z M111.848,23.191
						c-0.176,0-0.328,0.152-0.328,0.328v12.506c0,0.174,0.152,0.328,0.328,0.328h16.454c0.177,0,0.33-0.154,0.33-0.328V23.52
						c0-0.176-0.153-0.328-0.33-0.328H111.848z M114.811,28.455c-1.09,0-1.977-0.885-1.977-1.975c0-1.088,0.887-1.973,1.977-1.973
						s1.975,0.885,1.975,1.973C116.785,27.57,115.9,28.455,114.811,28.455z M127.316,35.037h-14.482v-1.975l3.292-3.291l1.646,1.646
						l5.267-5.266l4.278,4.277V35.037z"/>
				</g>
			</g>
			<g>
				<rect x="102.508" y="4.344" fill="#D7D6D6" width="77" height="11"/>
			</g>
			<g>
				<rect x="110.31" y="43.076" fill="#D7D6D6" width="62.38" height="3.719"/>
			</g>
			<g>
				<rect x="110.31" y="51.293" fill="#D7D6D6" width="62.38" height="3.721"/>
			</g>
			<g>
				<rect x="135.438" y="26.664" fill="#D7D6D6" width="37.252" height="3.721"/>
			</g>
			<g>
				<rect x="135.438" y="34.881" fill="#D7D6D6" width="37.252" height="3.719"/>
			</g>
			<g>
				<g>
					<circle fill="#C4C4C4" cx="105.083" cy="7.184" r="1.72"/>
				</g>
				<g>
					<circle fill="#C4C4C4" cx="109.512" cy="7.184" r="1.72"/>
				</g>
				<g>
					<circle fill="#C4C4C4" cx="113.943" cy="7.184" r="1.72"/>
				</g>
				<g>
					<path fill="#FFFFFF" d="M179.637,7.945c0,1.197-0.972,2.17-2.17,2.17h-43.1c-1.199,0-2.17-0.973-2.17-2.17V7.635
						c0-1.199,0.971-2.17,2.17-2.17h43.1c1.198,0,2.17,0.971,2.17,2.17V7.945z"/>
				</g>
			</g>
			<g>
				<path fill="#D7D6D6" d="M179.459,4.729c0.354,0,0.643,0.287,0.643,0.643v56.531c0,0.354-0.288,0.645-0.643,0.645H103.54
					c-0.354,0-0.643-0.291-0.643-0.645V5.371c0-0.355,0.288-0.643,0.643-0.643H179.459 M179.459,1.938H103.54
					c-1.896,0-3.434,1.537-3.434,3.434v56.531c0,1.896,1.537,3.436,3.434,3.436h75.919c1.896,0,3.434-1.539,3.434-3.436V5.371
					C182.893,3.475,181.355,1.938,179.459,1.938L179.459,1.938z"/>
			</g>
		</g>
		<g>
			<g>
				<path fill="#FFFFFF" d="M404.893,82.184c0,2.539-2.057,4.598-4.595,4.598H298.701c-2.538,0-4.595-2.059-4.595-4.598V6.533
					c0-2.539,2.057-4.596,4.595-4.596h101.597c2.538,0,4.595,2.057,4.595,4.596V82.184z"/>
			</g>
			<g>
				<g>
					<path fill="#D7D6D6" d="M334.041,47.555c0,1.211-0.989,2.201-2.203,2.201h-22.02c-1.21,0-2.203-0.99-2.203-2.201V30.818
						c0-1.211,0.993-2.203,2.203-2.203h22.02c1.214,0,2.203,0.992,2.203,2.203V47.555z M309.818,30.379
						c-0.234,0-0.438,0.203-0.438,0.439v16.736c0,0.232,0.204,0.439,0.438,0.439h22.02c0.236,0,0.441-0.207,0.441-0.439V30.818
						c0-0.236-0.205-0.439-0.441-0.439H309.818z M313.783,37.424c-1.458,0-2.645-1.184-2.645-2.643c0-1.457,1.187-2.641,2.645-2.641
						c1.459,0,2.643,1.184,2.643,2.641C316.426,36.24,315.242,37.424,313.783,37.424z M330.52,46.232h-19.381V43.59l4.405-4.404
						l2.202,2.203l7.048-7.047l5.726,5.725V46.232z"/>
				</g>
			</g>
			<g>
				<rect x="297.508" y="5.344" fill="#D7D6D6" width="103" height="15"/>
			</g>
			<g>
				<rect x="307.761" y="56.99" fill="#D7D6D6" width="83.478" height="4.977"/>
			</g>
			<g>
				<rect x="307.761" y="67.986" fill="#D7D6D6" width="83.478" height="4.979"/>
			</g>
			<g>
				<rect x="341.387" y="35.025" fill="#D7D6D6" width="49.852" height="4.98"/>
			</g>
			<g>
				<rect x="341.387" y="46.023" fill="#D7D6D6" width="49.852" height="4.977"/>
			</g>
			<g>
				<g>
					<circle fill="#C4C4C4" cx="300.766" cy="8.959" r="2.301"/>
				</g>
				<g>
					<circle fill="#C4C4C4" cx="306.693" cy="8.959" r="2.302"/>
				</g>
				<g>
					<circle fill="#C4C4C4" cx="312.623" cy="8.959" r="2.302"/>
				</g>
				<g>
					<path fill="#FFFFFF" d="M400.535,9.977c0,1.604-1.3,2.904-2.903,2.904h-57.677c-1.605,0-2.904-1.301-2.904-2.904V9.562
						c0-1.605,1.299-2.904,2.904-2.904h57.677c1.604,0,2.903,1.299,2.903,2.904V9.977z"/>
				</g>
			</g>
			<g>
				<path fill="#D7D6D6" d="M400.298,5.672c0.474,0,0.859,0.385,0.859,0.861v75.65c0,0.475-0.386,0.863-0.859,0.863H298.701
					c-0.475,0-0.859-0.389-0.859-0.863V6.533c0-0.477,0.385-0.861,0.859-0.861H400.298 M400.298,1.938H298.701
					c-2.538,0-4.595,2.057-4.595,4.596v75.65c0,2.539,2.057,4.598,4.595,4.598h101.597c2.538,0,4.595-2.059,4.595-4.598V6.533
					C404.893,3.994,402.836,1.938,400.298,1.938L400.298,1.938z"/>
			</g>
		</g>
	</g>
</g>
<g id="Layer_2">
</g>
<g id="Layer_3">
</g>
</svg>
