<?xml version="1.0" encoding="utf-8"?>
<!-- Generator: Adobe Illustrator 16.0.0, SVG Export Plug-In . SVG Version: 6.00 Build 0)  -->
<!DOCTYPE svg PUBLIC "-//W3C//DTD SVG 1.1//EN" "http://www.w3.org/Graphics/SVG/1.1/DTD/svg11.dtd">
<svg version="1.1" id="Layer_1" xmlns="http://www.w3.org/2000/svg" xmlns:xlink="http://www.w3.org/1999/xlink" x="0px" y="0px"
	 width="360px" height="360px" viewBox="0 0 360 360" enable-background="new 0 0 360 360" xml:space="preserve">
<g>
	<g opacity="0.5">
		<defs>
			<filter id="Adobe_OpacityMaskFilter" filterUnits="userSpaceOnUse" x="8.329" y="286.392" width="343.497" height="66.653">
				<feFlood  style="flood-color:white;flood-opacity:1" result="back"/>
				<feBlend  in="SourceGraphic" in2="back" mode="normal"/>
			</filter>
		</defs>
		<mask maskUnits="userSpaceOnUse" x="8.329" y="286.392" width="343.497" height="66.653" id="SVGID_1_">
			<g filter="url(#Adobe_OpacityMaskFilter)">
				
					<image overflow="visible" width="1157" height="205" xlink:href="7AD079CBA7700A45.jpg"  transform="matrix(0.3013 0 0 0.3548 5.8174 283.4351)">
				</image>
			</g>
		</mask>
		<g mask="url(#SVGID_1_)">
			
				<radialGradient id="SVGID_2_" cx="180.0771" cy="369.7261" r="200.7898" gradientTransform="matrix(1 0.0013 -3.157731e-04 0.3477 0.117 225.6767)" gradientUnits="userSpaceOnUse">
				<stop  offset="0" style="stop-color:#000000"/>
				<stop  offset="0.9768" style="stop-color:#000000;stop-opacity:0"/>
			</radialGradient>
			<path fill="url(#SVGID_2_)" d="M345.206,316.618c8.825,1.713,8.825,4.489,0,6.202c-49.716,9.646-99.433,19.294-149.148,28.941
				c-8.826,1.712-23.136,1.712-31.962,0c-49.716-9.647-99.432-19.295-149.148-28.941c-8.826-1.713-8.826-4.489,0-6.202
				c49.716-9.646,99.432-19.294,149.148-28.941c8.826-1.712,23.136-1.712,31.962,0C245.773,297.324,295.49,306.971,345.206,316.618z
				"/>
		</g>
	</g>
	<g>
		
			<radialGradient id="SVGID_3_" cx="696.8359" cy="1694.2534" r="315.3805" gradientTransform="matrix(0.7071 0.7071 -0.7071 0.7071 797.0816 -1422.1003)" gradientUnits="userSpaceOnUse">
			<stop  offset="0.05" style="stop-color:#FFFFFF"/>
			<stop  offset="0.2804" style="stop-color:#63CAE1"/>
			<stop  offset="0.3424" style="stop-color:#4EBADE"/>
			<stop  offset="0.4416" style="stop-color:#00A0DB"/>
			<stop  offset="0.6909" style="stop-color:#00549F"/>
			<stop  offset="0.7599" style="stop-color:#0F4683"/>
			<stop  offset="0.9036" style="stop-color:#122C55"/>
			<stop  offset="0.9717" style="stop-color:#0E2245"/>
		</radialGradient>
		<path fill="url(#SVGID_3_)" d="M345.039,160.572c8.829,8.829,8.829,23.143,0,31.971l-149.2,149.2
			c-8.829,8.829-23.143,8.829-31.971,0l-149.2-149.2c-8.829-8.829-8.829-23.143,0-31.971l149.2-149.2
			c8.829-8.829,23.143-8.829,31.971,0L345.039,160.572z"/>
		<g>
			<defs>
				<path id="SVGID_4_" d="M345.037,160.662c8.829,8.829,8.829,23.143,0,31.971L195.839,341.831c-8.829,8.829-23.143,8.829-31.971,0
					L14.67,192.633c-8.829-8.829-8.829-23.143,0-31.971L163.868,11.463c8.829-8.829,23.143-8.829,31.971,0L345.037,160.662z"/>
			</defs>
			<clipPath id="SVGID_5_">
				<use xlink:href="#SVGID_4_"  overflow="visible"/>
			</clipPath>
			<g clip-path="url(#SVGID_5_)">
				<g>
					<g>
						<polygon fill="#FFFFFF" points="64.918,107.513 77.837,256.568 78.946,257.654 78.95,93.211 						"/>
						<polygon fill="#FFFFFF" points="82.907,89.253 78.95,93.211 78.946,257.654 79.669,258.353 88.844,153.655 						"/>
						<polygon fill="#FFFFFF" points="95.5,76.841 82.907,89.253 88.844,153.655 						"/>
						<polygon fill="#FFFFFF" points="98.558,73.783 95.5,76.841 79.669,258.353 98.378,155.994 						"/>
						<polygon fill="#FFFFFF" points="115.648,56.693 98.558,73.783 98.558,155.094 						"/>
						<polygon fill="#FFFFFF" points="117.087,55.434 115.648,56.693 98.558,155.094 98.918,258.353 						"/>
						<polygon fill="#FFFFFF" points="139.934,32.767 65.323,109.122 78.667,264.442 100.357,257.542 						"/>
					</g>
					<polygon fill="#FFFFFF" points="98.378,156.533 79.669,258.353 89.743,268.426 99.368,258.802 					"/>
				</g>
				<g>
					<g>
						<polygon fill="#FFFFFF" points="249.264,291.859 100.269,278.953 99.195,277.879 263.565,277.827 						"/>
						<polygon fill="#FFFFFF" points="267.523,273.87 263.565,277.827 99.195,277.879 98.424,277.108 203.122,267.933 						"/>
						<polygon fill="#FFFFFF" points="279.936,261.277 267.523,273.87 203.122,267.933 						"/>
						<polygon fill="#FFFFFF" points="282.994,258.218 279.936,261.277 98.424,277.108 200.783,258.399 						"/>
						<polygon fill="#FFFFFF" points="300.084,241.128 282.994,258.218 201.683,258.218 						"/>
						<polygon fill="#FFFFFF" points="301.343,239.69 300.084,241.128 201.683,258.218 98.424,257.859 						"/>
						<polygon fill="#FFFFFF" points="324.01,216.843 256.405,292.198 91.477,276.718 100.376,256.497 						"/>
						<polyline fill="#FFFFFF" points="263.565,277.827 99.159,277.843 98.424,277.108 						"/>
						<polyline fill="#FFFFFF" points="263.565,277.827 99.159,277.843 98.424,277.108 						"/>
					</g>
					<polygon fill="#FFFFFF" points="200.243,258.399 98.424,277.108 88.35,267.034 97.974,257.409 					"/>
				</g>
			</g>
			<g opacity="0.4" clip-path="url(#SVGID_5_)">
				<radialGradient id="SVGID_6_" cx="88.981" cy="268.562" r="255.8992" gradientUnits="userSpaceOnUse">
					<stop  offset="0.1939" style="stop-color:#FFFFFF"/>
					<stop  offset="0.4635" style="stop-color:#0E2245;stop-opacity:0.5"/>
				</radialGradient>
				<path fill="url(#SVGID_6_)" d="M179.8,350.171c-6.594,0-12.793-2.567-17.457-7.23L13.508,194.105
					c-9.625-9.625-9.625-25.287,0-34.913L162.343,10.357c4.663-4.663,10.863-7.23,17.457-7.23c6.595,0,12.794,2.567,17.456,7.23
					l148.836,148.835c9.625,9.625,9.625,25.287,0,34.913L197.256,342.941C192.594,347.604,186.395,350.171,179.8,350.171z
					 M179.8,7.397c-5.454,0-10.58,2.124-14.438,5.979L16.527,162.212c-7.96,7.961-7.96,20.914,0,28.875l148.835,148.836
					c3.857,3.855,8.984,5.979,14.438,5.979c5.454,0,10.581-2.124,14.437-5.979l148.835-148.836c7.961-7.961,7.961-20.914,0-28.875
					L194.237,13.376C190.381,9.521,185.254,7.397,179.8,7.397z"/>
			</g>
			<g clip-path="url(#SVGID_5_)">
				<g>
					<path fill="#FFFFFF" d="M88.844,153.655l-9.175,104.698l-0.723-0.699L78.95,93.211l3.958-3.958L88.844,153.655z M98.558,73.783
						L95.5,76.841L79.669,258.353l18.709-102.359L98.558,73.783z M117.087,55.434l-1.439,1.259l-17.09,98.401l0.36,103.259
						L117.087,55.434z"/>
					<linearGradient id="SVGID_7_" gradientUnits="userSpaceOnUse" x1="102.4258" y1="258.353" x2="102.4258" y2="32.7676">
						<stop  offset="0.25" style="stop-color:#FFFFFF"/>
						<stop  offset="1" style="stop-color:#00A0DB;stop-opacity:0.7"/>
					</linearGradient>
					<path fill="url(#SVGID_7_)" d="M78.95,93.211l-0.003,164.442l-1.109-1.086L64.918,107.513L78.95,93.211z M95.5,76.841
						L82.907,89.253l5.937,64.402L95.5,76.841z M115.648,56.693l-17.09,17.089v81.312L115.648,56.693z M139.934,32.767
						l-22.847,22.667L98.918,258.353l1.439-0.812L139.934,32.767z"/>
				</g>
				<polygon fill="#FFFFFF" points="98.378,156.533 79.669,258.353 89.743,268.426 99.368,258.802 				"/>
			</g>
			<g clip-path="url(#SVGID_5_)">
				<path fill="#FFFFFF" d="M267.523,273.87l-3.958,3.957l-164.37,0.053l-0.771-0.771l104.697-9.175L267.523,273.87z
					 M200.783,258.399L98.424,277.108l181.511-15.831l3.059-3.059L200.783,258.399z M98.424,257.859l103.258,0.359l98.401-17.09
					l1.259-1.438L98.424,257.859z"/>
				<linearGradient id="SVGID_8_" gradientUnits="userSpaceOnUse" x1="98.8813" y1="254.3511" x2="324.0098" y2="254.3511">
					<stop  offset="0.25" style="stop-color:#FFFFFF"/>
					<stop  offset="1" style="stop-color:#00A0DB;stop-opacity:0.7"/>
				</linearGradient>
				<path fill="url(#SVGID_8_)" d="M249.264,291.859l-148.995-12.906l-1.073-1.073l164.37-0.053L249.264,291.859z M203.122,267.933
					l64.402,5.937l12.412-12.593L203.122,267.933z M201.683,258.218h81.312l17.09-17.09L201.683,258.218z M100.376,256.497
					l-1.495,1.399l202.461-18.206l22.667-22.847L100.376,256.497z"/>
				<polygon fill="#FFFFFF" points="200.243,258.399 98.424,277.108 88.35,267.034 97.974,257.409 				"/>
			</g>
			<radialGradient id="SVGID_9_" cx="89.8828" cy="266.8931" r="64.377" gradientUnits="userSpaceOnUse">
				<stop  offset="0.2756" style="stop-color:#FFFFFF"/>
				<stop  offset="0.3503" style="stop-color:#FFFFFF;stop-opacity:0.8969"/>
				<stop  offset="1" style="stop-color:#FFFFFF;stop-opacity:0"/>
			</radialGradient>
			<polygon clip-path="url(#SVGID_5_)" fill="url(#SVGID_9_)" points="89.883,202.517 90.947,253.373 99.954,203.31 93.049,253.706 
				109.776,205.667 95.073,254.364 119.109,209.534 96.969,255.33 127.723,214.812 98.691,256.581 135.404,221.373 100.196,258.085 
				141.965,229.054 101.447,259.807 147.243,237.667 102.413,261.704 151.109,247 103.071,263.727 153.467,256.823 103.404,265.83 
				154.26,266.894 103.404,267.958 153.467,276.964 103.071,270.06 151.109,286.787 102.413,272.083 147.243,296.12 101.447,273.98 
				141.965,304.733 100.196,275.702 135.404,312.415 98.691,277.207 127.723,318.975 96.969,278.458 119.109,324.253 
				95.073,279.423 109.776,328.12 93.049,280.082 99.954,330.478 90.947,280.415 89.883,331.27 88.819,280.415 79.812,330.478 
				86.717,280.082 69.99,328.12 84.693,279.423 60.657,324.253 82.797,278.458 52.043,318.975 81.075,277.207 44.362,312.415 
				79.57,275.702 37.801,304.733 78.319,273.98 32.523,296.12 77.353,272.083 28.657,286.787 76.695,270.06 26.299,276.964 
				76.362,267.958 25.506,266.894 76.362,265.83 26.299,256.823 76.695,263.727 28.657,247 77.353,261.704 32.523,237.667 
				78.319,259.807 37.801,229.054 79.57,258.085 44.362,221.373 81.075,256.581 52.043,214.812 82.797,255.33 60.657,209.534 
				84.693,254.364 69.99,205.667 86.717,253.706 79.812,203.31 88.819,253.373 			"/>
		</g>
	</g>
</g>
</svg>
