<?xml version="1.0" encoding="UTF-8" standalone="no"?>
<svg width="150px" height="150px" viewBox="0 0 150 150" version="1.1" xmlns="http://www.w3.org/2000/svg" xmlns:xlink="http://www.w3.org/1999/xlink" xmlns:sketch="http://www.bohemiancoding.com/sketch/ns">
    <!-- Generator: Sketch 3.1.1 (8761) - http://www.bohemiancoding.com/sketch -->
    <title>desktop</title>
    <desc>Created with Sketch.</desc>
    <defs></defs>
    <g id="Page-1" stroke="none" stroke-width="1" fill="none" fill-rule="evenodd" sketch:type="MSPage">
        <g id="desktop" sketch:type="MSLayerGroup">
            <path d="M0,75 C0,116.421875 33.578125,150 75,150 C116.421875,150 150,116.421875 150,75 C150,33.578125 116.421875,0 75,0 C33.578125,0 0,33.578125 0,75 Z" id="Fill-1" fill="#9999FF" sketch:type="MSShapeGroup"></path>
            <g id="Imported-Layers" transform="translate(25.000000, 37.000000)">
                <path d="M65.625,78.625 L65.625,66.125 L34.375,66.125 L34.375,78.625 L28.125,81.75 L28.125,88 L71.875,88 L71.875,81.75 L65.625,78.625" id="Fill-2" fill="#BABABA" sketch:type="MSShapeGroup"></path>
                <path d="M65.625,78.625 L34.375,78.625 L28.125,81.75 L28.125,88 L71.875,88 L71.875,81.75 L65.625,78.625" id="Fill-3" fill="#FFFFFF" sketch:type="MSShapeGroup"></path>
                <path d="M93.75,0.5 L6.25,0.5 C2.796875,0.5 0,3.296875 0,6.75 L0,59.875 C0,63.328125 2.796875,66.125 6.25,66.125 L93.75,66.125 C97.203125,66.125 100,63.328125 100,59.875 L100,6.75 C100,3.296875 97.203125,0.5 93.75,0.5" id="Fill-4" fill="#FFFFFF" sketch:type="MSShapeGroup"></path>
                <path d="M6,7 L93.5,7 L93.5,60.125 L6,60.125 L6,7 Z" id="Fill-5" fill="#68747A" sketch:type="MSShapeGroup"></path>
                <path d="M93.75,6.75 L6.25,6.75 L6.25,59.875 L93.75,6.75" id="Fill-6" fill="#707B81" sketch:type="MSShapeGroup"></path>
                <text id="" sketch:type="MSTextLayer" font-family="FontAwesome" font-size="24" font-weight="normal" fill="#FFFFFF">
                    <tspan x="40" y="43"></tspan>
                </text>
            </g>
        </g>
    </g>
</svg>