<?xml version="1.0" encoding="UTF-8" standalone="no"?>
<svg width="32px" height="28px" viewBox="0 0 32 28" version="1.1" xmlns="http://www.w3.org/2000/svg" xmlns:xlink="http://www.w3.org/1999/xlink" xmlns:sketch="http://www.bohemiancoding.com/sketch/ns">
    <!-- Generator: Sketch 3.1.1 (8761) - http://www.bohemiancoding.com/sketch -->
    <title>free-sm-icon</title>
    <desc>Created with Sketch.</desc>
    <defs></defs>
    <g id="Page-1" stroke="none" stroke-width="1" fill="none" fill-rule="evenodd" sketch:type="MSPage">
        <g id="Landing-Page-Bright-Pattern-Iteration-3" sketch:type="MSArtboardGroup" transform="translate(-193.000000, -1008.000000)" fill="#636462">
            <g id="Group" sketch:type="MSLayerGroup" transform="translate(193.000000, 1002.000000)">
                <path d="M22.9496471,6 C20.185098,6 17.6144314,7.30709091 15.6850196,9.68836364 C13.7574902,7.309 11.1918431,6.00381818 8.43105882,6.00381818 C4.34384314,6.00381818 0,9.11627273 0,14.8868182 C0,20.8221818 5.18964706,24.9649091 8.97882353,27.9889091 C10.4144314,29.1369091 11.4666667,29.9501818 12.3231373,30.6126364 C13.676549,31.6575455 14.355451,32.1819091 15.0876863,32.9200909 C15.2464314,33.0817273 15.4591373,33.1708182 15.6850196,33.1708182 C15.9102745,33.1708182 16.1223529,33.0823636 16.2823529,32.9207273 C17.2505098,31.9445455 18.1295686,31.2687273 20.4850196,29.4576364 L22.3792941,27.9984545 C25.5215686,25.5764545 31.3706667,21.0678182 31.3706667,14.8276364 C31.3706667,9.09336364 27.0318431,6 22.9496471,6 L22.9496471,6 Z M8.43105882,7.72136364 C10.963451,7.72136364 13.350902,9.13727273 14.9810196,11.6057273 C15.2809412,12.062 16.0884706,12.062 16.3890196,11.6057273 C18.0197647,9.13536364 20.4109804,7.71754545 22.9496471,7.71754545 C26.2105098,7.71754545 29.6771765,10.2095455 29.6771765,14.8276364 C29.6771765,19.7989091 25.3803922,23.528 21.3527843,26.6321818 L19.4616471,28.0888182 C17.4939608,29.6014545 16.5364706,30.3370909 15.6812549,31.1287273 C15.0569412,30.5636364 14.3623529,30.0265455 13.3483922,29.2444545 C12.5289412,28.6119091 11.4741961,27.7973636 10.0185098,26.6321818 C6.50478431,23.8277273 1.6934902,19.9872727 1.6934902,14.8868182 C1.6934902,10.2324545 5.16517647,7.72136364 8.43105882,7.72136364 L8.43105882,7.72136364 Z" id="free-sm-icon" sketch:type="MSShapeGroup"></path>
            </g>
        </g>
    </g>
</svg>