<?xml version="1.0" encoding="UTF-8" standalone="no"?>
<svg width="154px" height="110px" viewBox="0 0 154 110" version="1.1" xmlns="http://www.w3.org/2000/svg" xmlns:xlink="http://www.w3.org/1999/xlink" xmlns:sketch="http://www.bohemiancoding.com/sketch/ns">
    <!-- Generator: Sketch 3.1.1 (8761) - http://www.bohemiancoding.com/sketch -->
    <title>gallery-md-icon</title>
    <desc>Created with Sketch.</desc>
    <defs></defs>
    <g id="Page-1" stroke="none" stroke-width="1" fill="none" fill-rule="evenodd" sketch:type="MSPage">
        <g id="Landing-Page-Bright-Pattern-Iteration-3" sketch:type="MSArtboardGroup" transform="translate(-265.000000, -1655.000000)">
            <g id="gallery-md-icon" sketch:type="MSLayerGroup" transform="translate(265.000000, 1655.000000)">
                <path d="M152.796839,106.241474 C152.796839,108.317 149.964854,110 146.468996,110 L6.57124345,110 C3.07653933,110 0.243400749,108.317 0.243400749,106.241474 L0.243400749,3.817 C0.243400749,1.74089474 3.07653933,0.0584736842 6.57124345,0.0584736842 L146.469573,0.0584736842 C149.965431,0.0584736842 152.797416,1.74089474 152.797416,3.817 L152.797416,106.241474 L152.796839,106.241474 Z" id="Shape" fill="#FFFFFF" sketch:type="MSShapeGroup"></path>
                <g id="Group" transform="translate(7.498127, 17.947368)" sketch:type="MSShapeGroup">
                    <g transform="translate(0.000000, 44.578947)" id="Rectangle-path">
                        <rect fill="#739AB1" x="107.857678" y="0" width="31.7228464" height="20.2631579"></rect>
                        <rect fill="#D6D6D6" x="0" y="20.2631579" width="31.7228464" height="20.2631579"></rect>
                        <rect fill="#739AB1" x="0" y="0" width="31.7228464" height="20.2631579"></rect>
                        <rect fill="#D6D6D6" x="35.7602996" y="20.2631579" width="31.7228464" height="20.2631579"></rect>
                        <rect fill="#FF6969" x="35.7602996" y="0" width="31.7228464" height="20.2631579"></rect>
                        <rect fill="#D6D6D6" x="71.5205993" y="20.2631579" width="32.2996255" height="20.2631579"></rect>
                        <rect fill="#00CEB8" x="71.5205993" y="0" width="32.2996255" height="20.2631579"></rect>
                    </g>
                    <rect id="Rectangle-path" fill="#D6D6D6" x="107.857678" y="20.2631579" width="31.7228464" height="20.2631579"></rect>
                    <rect id="Rectangle-path" fill="#D6D6D6" x="107.857678" y="64.8421053" width="31.7228464" height="20.2631579"></rect>
                    <rect id="Rectangle-path" fill="#00CEB8" x="107.857678" y="0" width="31.7228464" height="20.2631579"></rect>
                    <g id="Rectangle-path">
                        <rect fill="#D6D6D6" x="0" y="20.2631579" width="31.7228464" height="20.2631579"></rect>
                        <rect fill="#FF6969" x="0" y="0" width="31.7228464" height="20.2631579"></rect>
                    </g>
                    <g transform="translate(35.760300, 0.000000)" id="Rectangle-path">
                        <rect fill="#D6D6D6" x="0" y="20.2631579" width="31.7228464" height="20.2631579"></rect>
                        <rect fill="#00CEB8" x="0" y="0" width="31.7228464" height="20.2631579"></rect>
                    </g>
                    <g transform="translate(71.520599, 0.000000)" id="Rectangle-path">
                        <rect fill="#D6D6D6" x="0" y="20.2631579" width="32.2996255" height="20.2631579"></rect>
                        <rect fill="#739AB1" x="0" y="0" width="32.2996255" height="20.2631579"></rect>
                    </g>
                </g>
                <rect id="Rectangle-path" fill="#D6D6D6" sketch:type="MSShapeGroup" x="2.88389513" y="1.73684211" width="149.385768" height="12.1578947"></rect>
                <ellipse id="Oval" fill="#C4C4C4" sketch:type="MSShapeGroup" cx="5.91313858" cy="5.93536842" rx="1.87568539" ry="1.88273684"></ellipse>
                <ellipse id="Oval" fill="#C4C4C4" sketch:type="MSShapeGroup" cx="10.526794" cy="5.93478947" rx="1.87510861" ry="1.88215789"></ellipse>
                <ellipse id="Oval" fill="#C4C4C4" sketch:type="MSShapeGroup" cx="15.141603" cy="5.93536842" rx="1.87568539" ry="1.88273684"></ellipse>
                <path d="M150.413011,6.59768421 C150.413011,7.91015789 149.352891,8.97368421 148.04591,8.97368421 L66.2621049,8.97368421 C64.9551236,8.97368421 63.8961573,7.91015789 63.8961573,6.59768421 L63.8961573,6.13857895 C63.8961573,4.82610526 64.9551236,3.76257895 66.2621049,3.76257895 L148.046487,3.76257895 C149.353468,3.76257895 150.413588,4.82610526 150.413588,6.13857895 L150.413588,6.59768421 L150.413011,6.59768421 Z" id="Shape" fill="#FFFFFF" sketch:type="MSShapeGroup"></path>
                <path d="M150.256704,3.11242105 C150.643146,3.11242105 150.958067,3.42852632 150.958067,3.817 L150.958067,106.241474 C150.958067,106.629947 150.643146,106.946053 150.256704,106.946053 L3.98785019,106.946053 C3.60083146,106.946053 3.28591011,106.629947 3.28591011,106.241474 L3.28591011,3.817 C3.28591011,3.42852632 3.60083146,3.11242105 3.98785019,3.11242105 L150.256704,3.11242105 L150.256704,3.11242105 Z M150.256704,0.0584736842 L3.98785019,0.0584736842 C1.9195206,0.0584736842 0.243400749,1.74089474 0.243400749,3.817 L0.243400749,106.241474 C0.243400749,108.317 1.9195206,110 3.98785019,110 L150.256704,110 C152.325034,110 154,108.317 154,106.241474 L154,3.817 C154,1.74089474 152.325034,0.0584736842 150.256704,0.0584736842 L150.256704,0.0584736842 L150.256704,0.0584736842 Z" id="Shape" fill="#D6D6D6" sketch:type="MSShapeGroup"></path>
            </g>
        </g>
    </g>
</svg>