<?xml version="1.0" encoding="UTF-8" standalone="no"?>
<svg width="152px" height="120px" viewBox="0 0 152 120" version="1.1" xmlns="http://www.w3.org/2000/svg" xmlns:xlink="http://www.w3.org/1999/xlink" xmlns:sketch="http://www.bohemiancoding.com/sketch/ns">
    <!-- Generator: Sketch 3.1.1 (8761) - http://www.bohemiancoding.com/sketch -->
    <title>learntoteach-md-icon</title>
    <desc>Created with Sketch.</desc>
    <defs></defs>
    <g id="Page-1" stroke="none" stroke-width="1" fill="none" fill-rule="evenodd" sketch:type="MSPage">
        <g id="Landing-Page-Bright-Pattern-Iteration-3" sketch:type="MSArtboardGroup" transform="translate(-578.000000, -1645.000000)">
            <g id="Group" sketch:type="MSLayerGroup" transform="translate(189.000000, 1624.000000)">
                <g id="learntoteach-md-icon" transform="translate(390.000000, 22.000000)" sketch:type="MSShapeGroup">
                    <g id="resources-illustration">
                        <path d="M87.841573,115.323972 C87.841573,117.345844 86.2095506,118.985336 84.1949438,118.985336 L3.57134831,118.985336 C1.55786517,118.985336 -0.0747191011,117.345844 -0.0747191011,115.323972 L-0.0747191011,15.5472654 C-0.0747191011,13.5248294 1.55786517,11.8853365 3.57134831,11.8853365 L84.1949438,11.8853365 C86.2095506,11.8853365 87.841573,13.5248294 87.841573,15.5472654 L87.841573,115.323972" id="Fill-1" fill="#FFFFFF"></path>
                        <path d="M1.68539326,25.64591 L85.3932584,25.64591 L85.3932584,51.5890379 L1.68539326,51.5890379 L1.68539326,25.64591 L1.68539326,25.64591 Z" id="Fill-2" fill="#739AB1"></path>
                        <path d="M2.24719101,13.8023081 L86.5168539,13.8023081 L86.5168539,25.64591 L2.24719101,25.64591 L2.24719101,13.8023081 L2.24719101,13.8023081 Z" id="Fill-3" fill="#D6D6D6"></path>
                        <path d="M3.38258427,17.4794645 C3.38258427,16.4665545 4.2005618,15.6453981 5.20955056,15.6453981 C6.21797753,15.6453981 7.03539326,16.4665545 7.03539326,17.4794645 C7.03539326,18.4923744 6.21797753,19.3129668 5.20955056,19.3129668 C4.2005618,19.3129668 3.38258427,18.4923744 3.38258427,17.4794645" id="Fill-4" fill="#C4C4C4"></path>
                        <path d="M8.08707865,17.4794645 C8.08707865,16.4665545 8.90561798,15.6453981 9.91404494,15.6453981 C10.9230337,15.6453981 11.7404494,16.4665545 11.7404494,17.4794645 C11.7404494,18.4923744 10.9230337,19.3129668 9.91404494,19.3129668 C8.90561798,19.3129668 8.08707865,18.4923744 8.08707865,17.4794645" id="Fill-5" fill="#C4C4C4"></path>
                        <path d="M12.791573,17.4794645 C12.791573,16.4665545 13.6095506,15.6453981 14.6179775,15.6453981 C15.6269663,15.6453981 16.4449438,16.4665545 16.4449438,17.4794645 C16.4449438,18.4923744 15.6269663,19.3129668 14.6179775,19.3129668 C13.6095506,19.3129668 12.791573,18.4923744 12.791573,17.4794645" id="Fill-6" fill="#C4C4C4"></path>
                        <path d="M28.0786517,66.7567441 L77.4696629,66.7567441 M28.0786517,75.5176256 L77.4696629,75.5176256" id="Stroke-7" stroke="#D6D6D6" stroke-width="7.033"></path>
                        <path d="M12.4938202,64.9395972 C12.4938202,62.9306967 14.1151685,61.3030474 16.1162921,61.3030474 C18.1168539,61.3030474 19.7376404,62.9306967 19.7376404,64.9395972 C19.7376404,66.9479336 18.1168539,68.5755829 16.1162921,68.5755829 C14.1151685,68.5755829 12.4938202,66.9479336 12.4938202,64.9395972" id="Fill-8" fill="#739AB1"></path>
                        <path d="M16.1162921,74.1939621 C14.1151685,74.1939621 12.4938202,75.8216114 12.4938202,77.8299479 C12.4938202,79.8388483 14.1151685,81.4664976 16.1162921,81.4664976 C18.1168539,81.4664976 19.7376404,79.8388483 19.7376404,77.8299479 C19.7376404,75.8216114 18.1168539,74.1939621 16.1162921,74.1939621 L16.1162921,74.1939621 L16.1162921,74.1939621 Z M16.1162921,75.1860047 C17.5679775,75.1860047 18.75,76.3714929 18.75,77.8299479 C18.75,79.2884028 17.5679775,80.475019 16.1162921,80.475019 C14.6634831,80.475019 13.4820225,79.2884028 13.4820225,77.8299479 C13.4820225,76.3714929 14.6634831,75.1860047 16.1162921,75.1860047 L16.1162921,75.1860047 L16.1162921,75.1860047 Z" id="Fill-9" fill="#739AB1"></path>
                        <path d="M16.1151685,74.7116967 L16.1151685,66.5926256" id="Stroke-10" stroke="#739AB1" stroke-width="2.638"></path>
                        <path d="M28.0786517,91.8770237 L77.4696629,91.8770237 M28.0786517,100.637905 L77.4696629,100.637905" id="Stroke-11" stroke="#D6D6D6" stroke-width="7.033"></path>
                        <path d="M12.4938202,90.0593128 C12.4938202,88.0509763 14.1151685,86.423327 16.1162921,86.423327 C18.1168539,86.423327 19.7376404,88.0509763 19.7376404,90.0593128 C19.7376404,92.0676493 18.1168539,93.6958626 16.1162921,93.6958626 C14.1151685,93.6958626 12.4938202,92.0676493 12.4938202,90.0593128" id="Fill-13" fill="#739AB1"></path>
                        <path d="M16.1162921,99.3136777 C14.1151685,99.3136777 12.4938202,100.941891 12.4938202,102.950227 C12.4938202,104.958564 14.1151685,106.586213 16.1162921,106.586213 C18.1168539,106.586213 19.7376404,104.958564 19.7376404,102.950227 C19.7376404,100.941891 18.1168539,99.3136777 16.1162921,99.3136777 L16.1162921,99.3136777 L16.1162921,99.3136777 Z M16.1162921,100.30572 C17.5679775,100.30572 18.75,101.491773 18.75,102.950227 C18.75,104.408682 17.5679775,105.594735 16.1162921,105.594735 C14.6634831,105.594735 13.4820225,104.408682 13.4820225,102.950227 C13.4820225,101.491773 14.6634831,100.30572 16.1162921,100.30572 L16.1162921,100.30572 L16.1162921,100.30572 Z" id="Fill-14" fill="#739AB1"></path>
                        <path d="M16.1151685,99.8319763 L16.1151685,91.7123412" id="Stroke-15" stroke="#739AB1" stroke-width="2.638"></path>
                        <path d="M84.3831461,18.2899052 C84.3831461,19.5678863 83.3511236,20.6039194 82.0792135,20.6039194 L36.3078652,20.6039194 C35.0353933,20.6039194 34.0033708,19.5678863 34.0033708,18.2899052 L34.0033708,17.9594123 C34.0033708,16.6819953 35.0353933,15.6453981 36.3078652,15.6453981 L82.0792135,15.6453981 C83.3511236,15.6453981 84.3831461,16.6819953 84.3831461,17.9594123 L84.3831461,18.2899052" id="Fill-16" fill="#FFFFFF"></path>
                        <path d="M84.1949438,11.8853365 L3.57134831,11.8853365 C1.55786517,11.8853365 -0.0747191011,13.5248294 -0.0747191011,15.5472654 L-0.0747191011,115.323972 C-0.0747191011,117.345844 1.55786517,118.985336 3.57134831,118.985336 L84.1949438,118.985336 C86.2095506,118.985336 87.841573,117.345844 87.841573,115.323972 L87.841573,15.5472654 C87.841573,13.5248294 86.2095506,11.8853365 84.1949438,11.8853365 L84.1949438,11.8853365 L84.1949438,11.8853365 Z M84.1949438,14.8603365 C84.5719101,14.8603365 84.8780899,15.1682701 84.8780899,15.5472654 L84.8780899,115.323972 C84.8780899,115.702403 84.5719101,116.009773 84.1949438,116.009773 L3.57134831,116.009773 C3.19494382,116.009773 2.88876404,115.702403 2.88876404,115.323972 L2.88876404,15.5472654 C2.88876404,15.1682701 3.19494382,14.8603365 3.57134831,14.8603365 L84.1949438,14.8603365 L84.1949438,14.8603365 Z" id="Fill-17" fill="#D6D6D6"></path>
                        <path d="M119.452247,103.423408 C119.452247,105.445844 117.820225,107.085336 115.80618,107.085336 L35.1820225,107.085336 C33.1685393,107.085336 31.5353933,105.445844 31.5353933,103.423408 L31.5353933,3.64670142 C31.5353933,1.62482938 33.1685393,-0.0146635071 35.1820225,-0.0146635071 L115.80618,-0.0146635071 C117.820225,-0.0146635071 119.452247,1.62482938 119.452247,3.64670142 L119.452247,103.423408" id="Fill-18" fill="#FFFFFF"></path>
                        <path d="M33.1460674,13.8023081 L116.853933,13.8023081 L116.853933,39.745436 L33.1460674,39.745436 L33.1460674,13.8023081 L33.1460674,13.8023081 Z" id="Fill-19" fill="#FF6969"></path>
                        <path d="M34.2696629,1.95870616 L117.977528,1.95870616 L117.977528,13.8023081 L34.2696629,13.8023081 L34.2696629,1.95870616 L34.2696629,1.95870616 Z" id="Fill-20" fill="#D6D6D6"></path>
                        <path d="M34.9932584,5.57946445 C34.9932584,4.56711848 35.811236,3.7453981 36.8202247,3.7453981 C37.8286517,3.7453981 38.6460674,4.56711848 38.6460674,5.57946445 C38.6460674,6.59237441 37.8286517,7.41296682 36.8202247,7.41296682 C35.811236,7.41296682 34.9932584,6.59237441 34.9932584,5.57946445" id="Fill-21" fill="#C4C4C4"></path>
                        <path d="M39.6977528,5.57946445 C39.6977528,4.56711848 40.5157303,3.7453981 41.5247191,3.7453981 C42.5331461,3.7453981 43.3511236,4.56711848 43.3511236,5.57946445 C43.3511236,6.59237441 42.5331461,7.41296682 41.5247191,7.41296682 C40.5157303,7.41296682 39.6977528,6.59237441 39.6977528,5.57946445" id="Fill-22" fill="#C4C4C4"></path>
                        <path d="M44.4022472,5.57946445 C44.4022472,4.56711848 45.2202247,3.7453981 46.2286517,3.7453981 C47.2376404,3.7453981 48.055618,4.56711848 48.055618,5.57946445 C48.055618,6.59237441 47.2376404,7.41296682 46.2286517,7.41296682 C45.2202247,7.41296682 44.4022472,6.59237441 44.4022472,5.57946445" id="Fill-23" fill="#C4C4C4"></path>
                        <path d="M59.688764,54.8573081 L109.079775,54.8573081 M59.688764,63.6176256 L109.079775,63.6176256" id="Stroke-24" stroke="#D6D6D6" stroke-width="7.033"></path>
                        <path d="M44.1044944,53.0395972 C44.1044944,51.0312607 45.7258427,49.4036114 47.7269663,49.4036114 C49.7275281,49.4036114 51.3477528,51.0312607 51.3477528,53.0395972 C51.3477528,55.0479336 49.7275281,56.6755829 47.7269663,56.6755829 C45.7258427,56.6755829 44.1044944,55.0479336 44.1044944,53.0395972" id="Fill-25" fill="#FF6969"></path>
                        <path d="M47.7269663,62.2933981 C45.7258427,62.2933981 44.1044944,63.9216114 44.1044944,65.9305118 C44.1044944,67.9388483 45.7258427,69.5664976 47.7269663,69.5664976 C49.7275281,69.5664976 51.3477528,67.9388483 51.3477528,65.9305118 C51.3477528,63.9216114 49.7275281,62.2933981 47.7269663,62.2933981 L47.7269663,62.2933981 L47.7269663,62.2933981 Z M47.7269663,63.2854408 C49.1786517,63.2854408 50.3601124,64.4720569 50.3601124,65.9305118 C50.3601124,67.3889668 49.1786517,68.574455 47.7269663,68.574455 C46.2741573,68.574455 45.0921348,67.3889668 45.0921348,65.9305118 C45.0921348,64.4720569 46.2741573,63.2854408 47.7269663,63.2854408 L47.7269663,63.2854408 L47.7269663,63.2854408 Z" id="Fill-26" fill="#FF6969"></path>
                        <path d="M47.7258427,62.8116967 L47.7258427,54.6926256" id="Stroke-27" stroke="#FF6969" stroke-width="2.638"></path>
                        <path d="M59.688764,79.9770237 L109.079775,79.9770237 M59.688764,88.7373412 L109.079775,88.7373412" id="Stroke-28" stroke="#D6D6D6" stroke-width="7.033"></path>
                        <path d="M44.1044944,78.1593128 C44.1044944,76.1509763 45.7258427,74.522763 47.7269663,74.522763 C49.7275281,74.522763 51.3477528,76.1509763 51.3477528,78.1593128 C51.3477528,80.1682133 49.7275281,81.7958626 47.7269663,81.7958626 C45.7258427,81.7958626 44.1044944,80.1682133 44.1044944,78.1593128" id="Fill-29" fill="#FF6969"></path>
                        <path d="M47.7269663,87.4136777 C45.7258427,87.4136777 44.1044944,89.041327 44.1044944,91.0502275 C44.1044944,93.058564 45.7258427,94.6867773 47.7269663,94.6867773 C49.7275281,94.6867773 51.3477528,93.058564 51.3477528,91.0502275 C51.3477528,89.041327 49.7275281,87.4136777 47.7269663,87.4136777 L47.7269663,87.4136777 L47.7269663,87.4136777 Z M47.7269663,88.4057204 C49.1786517,88.4057204 50.3601124,89.5917725 50.3601124,91.0502275 C50.3601124,92.5086825 49.1786517,93.6947346 47.7269663,93.6947346 C46.2741573,93.6947346 45.0921348,92.5086825 45.0921348,91.0502275 C45.0921348,89.5917725 46.2741573,88.4057204 47.7269663,88.4057204 L47.7269663,88.4057204 L47.7269663,88.4057204 Z" id="Fill-30" fill="#FF6969"></path>
                        <path d="M47.7258427,87.9314123 L47.7258427,79.8123412" id="Stroke-31" stroke="#FF6969" stroke-width="2.638"></path>
                        <path d="M115.99382,6.38990521 C115.99382,7.66788626 114.961798,8.70391943 113.689326,8.70391943 L67.9185393,8.70391943 C66.6460674,8.70391943 65.6134831,7.66788626 65.6134831,6.38990521 L65.6134831,6.05941232 C65.6134831,4.78199526 66.6460674,3.7453981 67.9185393,3.7453981 L113.689326,3.7453981 C114.961798,3.7453981 115.99382,4.78199526 115.99382,6.05941232 L115.99382,6.38990521" id="Fill-32" fill="#FFFFFF"></path>
                        <path d="M115.80618,-0.0146635071 L35.1820225,-0.0146635071 C33.1685393,-0.0146635071 31.5353933,1.62482938 31.5353933,3.64670142 L31.5353933,103.423408 C31.5353933,105.445844 33.1685393,107.085336 35.1820225,107.085336 L115.80618,107.085336 C117.820225,107.085336 119.452247,105.445844 119.452247,103.423408 L119.452247,3.64670142 C119.452247,1.62482938 117.820225,-0.0146635071 115.80618,-0.0146635071 L115.80618,-0.0146635071 L115.80618,-0.0146635071 Z M115.80618,2.96033649 C116.182584,2.96033649 116.488764,3.26827014 116.488764,3.64670142 L116.488764,103.423408 C116.488764,103.802403 116.182584,104.110336 115.80618,104.110336 L35.1820225,104.110336 C34.805618,104.110336 34.4988764,103.802403 34.4988764,103.423408 L34.4988764,3.64670142 C34.4988764,3.26827014 34.805618,2.96033649 35.1820225,2.96033649 L115.80618,2.96033649 L115.80618,2.96033649 Z" id="Fill-33" fill="#D6D6D6"></path>
                        <path d="M150.075281,115.323972 C150.075281,117.345844 148.443258,118.985336 146.428652,118.985336 L65.8044944,118.985336 C63.7910112,118.985336 62.158427,117.345844 62.158427,115.323972 L62.158427,15.5472654 C62.158427,13.5248294 63.7910112,11.8853365 65.8044944,11.8853365 L146.428652,11.8853365 C148.443258,11.8853365 150.075281,13.5248294 150.075281,15.5472654 L150.075281,115.323972" id="Fill-34" fill="#FFFFFF"></path>
                        <path d="M63.4831461,25.64591 L147.752809,25.64591 L147.752809,51.5890379 L63.4831461,51.5890379 L63.4831461,25.64591 L63.4831461,25.64591 Z" id="Fill-35" fill="#00CEB8"></path>
                        <path d="M64.6067416,13.8023081 L148.314607,13.8023081 L148.314607,25.64591 L64.6067416,25.64591 L64.6067416,13.8023081 L64.6067416,13.8023081 Z" id="Fill-36" fill="#D6D6D6"></path>
                        <path d="M65.6157303,17.4794645 C65.6157303,16.4665545 66.4337079,15.6453981 67.4426966,15.6453981 C68.4511236,15.6453981 69.2691011,16.4665545 69.2691011,17.4794645 C69.2691011,18.4923744 68.4511236,19.3129668 67.4426966,19.3129668 C66.4337079,19.3129668 65.6157303,18.4923744 65.6157303,17.4794645" id="Fill-37" fill="#C4C4C4"></path>
                        <path d="M70.3202247,17.4794645 C70.3202247,16.4665545 71.1382022,15.6453981 72.147191,15.6453981 C73.1561798,15.6453981 73.9735955,16.4665545 73.9735955,17.4794645 C73.9735955,18.4923744 73.1561798,19.3129668 72.147191,19.3129668 C71.1382022,19.3129668 70.3202247,18.4923744 70.3202247,17.4794645" id="Fill-38" fill="#C4C4C4"></path>
                        <path d="M75.0247191,17.4794645 C75.0247191,16.4665545 75.8426966,15.6453981 76.8511236,15.6453981 C77.8606742,15.6453981 78.6786517,16.4665545 78.6786517,17.4794645 C78.6786517,18.4923744 77.8606742,19.3129668 76.8511236,19.3129668 C75.8426966,19.3129668 75.0247191,18.4923744 75.0247191,17.4794645" id="Fill-39" fill="#C4C4C4"></path>
                        <path d="M90.311236,66.7567441 L139.702809,66.7567441 M90.311236,75.5176256 L139.702809,75.5176256" id="Stroke-40" stroke="#D6D6D6" stroke-width="7.033"></path>
                        <path d="M74.7269663,64.9395972 C74.7269663,62.9306967 76.3483146,61.3030474 78.3494382,61.3030474 C80.35,61.3030474 81.9707865,62.9306967 81.9707865,64.9395972 C81.9707865,66.9479336 80.35,68.5755829 78.3494382,68.5755829 C76.3483146,68.5755829 74.7269663,66.9479336 74.7269663,64.9395972" id="Fill-41" fill="#00CEB8"></path>
                        <path d="M78.3494382,74.1939621 C76.3483146,74.1939621 74.7269663,75.8216114 74.7269663,77.8299479 C74.7269663,79.8388483 76.3483146,81.4664976 78.3494382,81.4664976 C80.35,81.4664976 81.9707865,79.8388483 81.9707865,77.8299479 C81.9707865,75.8216114 80.35,74.1939621 78.3494382,74.1939621 L78.3494382,74.1939621 L78.3494382,74.1939621 Z M78.3494382,75.1860047 C79.8016854,75.1860047 80.9825843,76.3714929 80.9825843,77.8299479 C80.9825843,79.2884028 79.8016854,80.475019 78.3494382,80.475019 C76.8966292,80.475019 75.7146067,79.2884028 75.7146067,77.8299479 C75.7146067,76.3714929 76.8966292,75.1860047 78.3494382,75.1860047 L78.3494382,75.1860047 L78.3494382,75.1860047 Z" id="Fill-42" fill="#00CEB8"></path>
                        <path d="M78.3483146,74.7116967 L78.3483146,66.5926256" id="Stroke-43" stroke="#00CEB8" stroke-width="2.638"></path>
                        <path d="M90.311236,91.8770237 L139.702809,91.8770237 M90.311236,100.637905 L139.702809,100.637905" id="Stroke-44" stroke="#D6D6D6" stroke-width="7.033"></path>
                        <path d="M74.7269663,90.0593128 C74.7269663,88.0509763 76.3483146,86.423327 78.3494382,86.423327 C80.35,86.423327 81.9707865,88.0509763 81.9707865,90.0593128 C81.9707865,92.0676493 80.35,93.6958626 78.3494382,93.6958626 C76.3483146,93.6958626 74.7269663,92.0676493 74.7269663,90.0593128" id="Fill-46" fill="#00CEB8"></path>
                        <path d="M78.3494382,99.3136777 C76.3483146,99.3136777 74.7269663,100.941891 74.7269663,102.950227 C74.7269663,104.958564 76.3483146,106.586213 78.3494382,106.586213 C80.35,106.586213 81.9707865,104.958564 81.9707865,102.950227 C81.9707865,100.941891 80.35,99.3136777 78.3494382,99.3136777 L78.3494382,99.3136777 L78.3494382,99.3136777 Z M78.3494382,100.30572 C79.8016854,100.30572 80.9825843,101.491773 80.9825843,102.950227 C80.9825843,104.408682 79.8016854,105.594735 78.3494382,105.594735 C76.8966292,105.594735 75.7146067,104.408682 75.7146067,102.950227 C75.7146067,101.491773 76.8966292,100.30572 78.3494382,100.30572 L78.3494382,100.30572 L78.3494382,100.30572 Z" id="Fill-47" fill="#00CEB8"></path>
                        <path d="M78.3483146,99.8319763 L78.3483146,91.7123412" id="Stroke-48" stroke="#00CEB8" stroke-width="2.638"></path>
                        <path d="M146.616854,18.2899052 C146.616854,19.5678863 145.584831,20.6039194 144.311798,20.6039194 L98.5410112,20.6039194 C97.2685393,20.6039194 96.2365169,19.5678863 96.2365169,18.2899052 L96.2365169,17.9594123 C96.2365169,16.6819953 97.2685393,15.6453981 98.5410112,15.6453981 L144.311798,15.6453981 C145.584831,15.6453981 146.616854,16.6819953 146.616854,17.9594123 L146.616854,18.2899052" id="Fill-49" fill="#FFFFFF"></path>
                        <path d="M146.428652,11.8853365 L65.8044944,11.8853365 C63.7910112,11.8853365 62.158427,13.5248294 62.158427,15.5472654 L62.158427,115.323972 C62.158427,117.345844 63.7910112,118.985336 65.8044944,118.985336 L146.428652,118.985336 C148.443258,118.985336 150.075281,117.345844 150.075281,115.323972 L150.075281,15.5472654 C150.075281,13.5248294 148.443258,11.8853365 146.428652,11.8853365 L146.428652,11.8853365 L146.428652,11.8853365 Z M146.428652,14.8603365 C146.805056,14.8603365 147.111236,15.1682701 147.111236,15.5472654 L147.111236,115.323972 C147.111236,115.702403 146.805056,116.009773 146.428652,116.009773 L65.8044944,116.009773 C65.4280899,116.009773 65.1219101,115.702403 65.1219101,115.323972 L65.1219101,15.5472654 C65.1219101,15.1682701 65.4280899,14.8603365 65.8044944,14.8603365 L146.428652,14.8603365 L146.428652,14.8603365 Z" id="Fill-50" fill="#D6D6D6"></path>
                    </g>
                </g>
            </g>
        </g>
    </g>
</svg>