<?xml version="1.0" encoding="UTF-8" standalone="no"?>
<svg width="302px" height="302px" viewBox="0 0 302 302" version="1.1" xmlns="http://www.w3.org/2000/svg" xmlns:xlink="http://www.w3.org/1999/xlink" xmlns:sketch="http://www.bohemiancoding.com/sketch/ns">
    <!-- Generator: Sketch 3.2.1 (9971) - http://www.bohemiancoding.com/sketch -->
    <title>light-grey-earth</title>
    <desc>Created with Sketch.</desc>
    <defs></defs>
    <g id="Page-1" stroke="none" stroke-width="1" fill="none" fill-rule="evenodd" sketch:type="MSPage">
        <g id="Landing-Page-Bright-Pattern-Iteration-3" sketch:type="MSArtboardGroup" transform="translate(-709.000000, -1030.000000)">
            <g id="light-grey-earth" sketch:type="MSLayerGroup" transform="translate(709.000000, 1030.000000)">
                <g id="Group-4" sketch:type="MSShapeGroup">
                    <circle id="Globe" fill="#E3EAEE" cx="151" cy="151" r="150"></circle>
                    <path d="M151.394032,1.86146439 C121.288086,1.74904615 105.430443,9.18724952 92.6679915,13.7516806 C78.1686808,18.9372912 58.2197493,33.5685184 51.4360465,39.9411564 C48.5243556,42.6764108 45.1402538,45.6630605 42.2063953,48.7018305 C38.3049048,52.7428339 35.2126181,56.5256859 35.2126181,56.5256859 L28.8626908,64.8480423 L23.2498779,71.8748779 C23.2498779,71.8748779 22.2186279,73.4998779 19.5317383,78.3436279 C16.8770706,83.1200687 15.6567383,85.9686279 15.6567383,85.9686279 L18.8769531,88.9995117 L21.8769531,90.3745117 L22.1269531,93.7495117 L25.1269531,97.4995117 L28.7402344,99.2392578 L26.9902344,105.239258 L29.4902344,110.239258 L30.2402344,115.989258 L28.2402344,122.75 L32.7734829,130.374818 L36.9902344,128.75 L40.9902344,132 L47.4902344,133 L54.2402344,132.5 L59.0748092,129.457304 L64.6889081,121.433594 L68.2021484,118.180664 L67.6289063,112.038086 L66.6497047,107.022047 C66.4381227,105.938201 66.2411689,104.16469 66.2097888,103.060543 L66.1298961,100.249415 C66.1142228,99.6979301 66.5188945,99.4051514 67.0409567,99.5981378 L74.2910156,102.278207 L81.3381632,103.787336 L86.0466506,103.583071 C87.1469791,103.535336 87.9313764,104.380197 87.7974251,105.480186 L87.1010174,111.198992 L86.3901708,119.043287 L94.344613,122.187591 L99.7160504,123.23744 C100.802067,123.449702 101.903013,124.493691 102.173959,125.564815 L103.48115,130.732513 L106.611816,135.161621 L107.631541,140.290334 L109.571039,148.329942 L109.096191,153.050781 L111.520758,157.335892 L112.31543,162.084961 L115.290898,163.809879 C116.24236,164.361454 117.697718,165.399793 118.525937,166.115595 L121.517578,168.701172 L125.65918,169.106445 L130.607422,171.571289 L133.790078,170.23941 C134.807792,169.813517 136.417316,169.023459 137.369047,168.483841 L138.741699,167.705566 L142.276367,167.610352 L146.749023,166.567383 L150.34375,163.963867 L153.169202,161.583162 C153.589207,161.229269 153.905716,160.491896 153.876669,159.946006 L153.679687,156.244141 L149.883789,156.244629 L146.075684,157.796387 L141.863149,155.722982 C141.372422,155.481447 140.63183,154.996668 140.204993,154.636827 L137.260254,152.154297 L135.329133,149.486745 C134.680828,148.591209 133.904879,146.999394 133.600279,145.946114 L132.354469,141.638218 L132.354469,133.5248 L132.570305,127.749506 C132.61165,126.643203 133.543289,125.7309 134.647184,125.71189 L138.558594,125.644531 L143.601971,122.9995 L151.445131,118.75486 L153.685971,116.982335 C154.554953,116.294962 155.806481,116.456819 156.474143,117.334398 L159.578988,121.415425 L159.012207,127.612793 L162.130859,131.625488 L164.048828,135.461914 L166.027344,139.789062 L168.251465,144.164062 L167.102539,148.745605 C167.102539,148.745605 166.073796,153.305634 166.208008,154.950195 C166.330483,156.450944 167.16748,158.415527 167.16748,158.415527 L166.727539,164.669434 L167.87207,169.132812 L167.890625,173.657227 L169.826172,176.713867 L169.854004,180.896973 L172.078125,186.666504 L174.88623,188.213379 L176.865234,191.974609 L178.311035,196.459473 L180.410156,201.217773 L183.750977,204.961914 L186.595703,208.621094 L187.599059,209.129977 C189.072841,209.877451 191.515616,209.976214 193.042137,209.355857 L193.504081,209.16813 C194.013931,208.960934 194.839166,208.620974 195.341641,208.41117 L197.825976,207.373854 C198.848135,206.94706 200.339668,206.012945 201.167681,205.278338 L203.291016,203.394531 L208.782227,198.60791 L212.154785,194.521973 L214.906738,190.287109 L217.135254,185.765625 L219.109375,180.865234 L220.257812,174.53125 L222.361328,168.572266 L222.137695,160.119141 L224.732422,153.317383 L225.322266,147.25 L228.578033,143.718471 C228.951308,143.31358 229.116019,142.563895 228.944319,142.039088 L227.759766,138.418457 L227.787356,136.190065 C227.794231,135.634746 227.486516,134.872842 227.085401,134.473724 L224.269531,131.671875 L220.981445,128.085938 L217.201172,124.611328 L216.046418,121.451691 C215.668053,120.41641 215.924019,118.89177 216.63018,118.031637 L218.768895,115.426599 L224.177462,109.577444 L230.006177,104.319904 L234.175872,99.5688136 L236.68703,96.0570743 C237.328954,95.1593721 237.237868,93.7684039 236.492506,92.9599383 L231.223474,87.2448219 L224.96439,82.9241007 L220.975302,80.7765553 C220.006339,80.2549091 218.989609,78.9674057 218.702226,77.8928074 L217.927462,74.9957758 L214.910338,70.0289335 L214.434026,67.5940314 C214.221086,66.5054867 214.891083,65.9291519 215.935109,66.3084242 L220.39385,67.9281886 L225.500363,71.3120912 L230.542151,73.2606741 L236.069949,77.5813953 L240.544604,81.0755913 C241.413469,81.7540763 242.057469,81.4013364 241.984163,80.3048591 L241.609102,74.6948583 L236.069949,70.2991915 L232.331759,65.6877725 L230.440122,63.8395098 C229.65234,63.0697918 229.028168,61.5422339 229.045718,60.4447784 L229.056662,59.7604815 C229.074335,58.655341 229.931527,57.4533675 230.959476,57.0800752 L233.063045,56.3161791 L234.115895,55.9828506 C235.170631,55.6489251 235.444626,54.7011704 234.722127,53.8592762 L231.208712,49.7652616 L225.670694,43.5811228 L221.210302,38.9799237 L219.730023,36.025017 C219.233073,35.0330123 217.938387,34.1852517 216.823549,34.1307717 L211.557095,33.8734102 L209.901114,33.4772674 C208.823262,33.2194245 207.697522,32.1449784 207.387823,31.0812751 L206.571901,28.2788827 C206.416471,27.7450389 206.517412,26.9176867 206.789054,26.4453797 L208.3128,23.7960213 C208.863436,22.8386239 208.887432,21.2833481 208.359939,20.3103029 L202.872314,10.1875 C202.872314,10.1875 181.499977,1.97388263 151.394032,1.86146439 Z" id="Land-2" fill="#FF6969"></path>
                    <path d="M110.430641,295.487816 C106.135604,294.424204 100.05722,292.132585 100.05722,292.132585 L91.4841933,288.729946 C91.4841933,288.729946 97.3123664,283.675051 100.71062,280.729106 C103.124459,278.636549 107.150073,268.168196 107.150073,268.168196 L118.950439,264.917009 L130.986146,261.272075 L145.209893,265.096566 C145.209893,265.096566 155.121197,261.002044 158.458735,260.059287 C161.674652,259.150885 175.260765,259.301917 175.260765,259.301917 L189.098428,246.07063 L205.421784,248.722111 L216.61767,253.478412 C217.633922,253.910142 218.217824,255.120622 217.919992,256.188757 L215.525799,264.775209 L214.663926,273.986691 L209.987782,281.389262 L204.192564,291.368368 L191.566804,295.594556 C191.566804,295.594556 178.736164,298.539291 177.366904,298.714446 C174.583984,299.070437 173.685784,299.280685 171.491915,299.597611 C167.582553,300.162356 163.593398,300.618743 163.593398,300.618743 C163.593398,300.618743 158.346308,300.79426 155.706236,300.923351 C151.46384,301.130791 147.183743,301.06584 143.365779,300.967069 C137.784866,300.822691 132.877231,299.932025 129.278298,299.477812 C118.9943,298.179892 115.626532,296.774512 110.430641,295.487816 Z" id="Land" fill="#FF6969"></path>
                    <path d="M16.7703488,218.10347 C18.1939883,220.980392 19.7812199,223.740544 21.3474178,226.464719 C25.8252585,234.253276 30.7412931,241.003165 33.8187455,244.663699 C39.5767737,251.512695 44.416212,257.047939 47.8295785,260.092819 C56.3023937,267.650958 61.4565997,271.284112 61.4565997,271.284112 L55.626181,258.93968 L55.626181,250.280069 L47.9976381,244.506995 L42.8059593,236.276617 L47.2867914,229.772257 L46.6111464,222.127816 L40.3690952,218.544059 L39.7876999,210.18423 L35.178552,206.265489 L34.7459121,199.821312 L37.8504724,189.175645 L36.2607195,179.911928 L41.1480741,175.263036 L43.3067315,169.371866 L45.5187591,162.914062 L51.0363372,159.315543 L51.4826036,154.433866 L51.3417969,145.95367 L41.6636083,144.920331 L34.7402344,145.499023 L28.4902344,141.749023 L23.2402344,140.499023 L17.9902344,138.499023 L15.4995117,135.5 L12.4995117,136.375 L9.49951172,135.369629 L7.62451172,137.244629 L5.62451172,139.869629 L3.62451172,141.244629 L1.87475586,135.122314 C1.87475586,135.122314 1.72537647,136.075053 1.32391215,140.660645 C0.13507907,154.239691 1.15458407,169.748484 4.83982104,185.014751 C5.90998421,189.447952 7.11595807,194.094391 8.59248955,198.680664 C9.31748567,200.932584 10.0496684,203.117494 11.0568904,205.310218 C12.8756639,209.26969 14.648641,213.815877 16.7703488,218.10347 Z" id="Land" fill="#FF6969"></path>
                    <path d="M292.80454,200.047284 C294.893296,194.033636 296.921603,186.717963 298.411542,179.343307 C301.630223,163.411996 301.600606,143.314462 299.901083,132.445313 C299.381291,129.121026 298.961184,124.721779 297.928938,120.401231 C296.959686,116.344351 296.033849,111.909062 294.626226,107.487044 C292.598508,101.117005 290.356156,94.558189 287.410451,88.3733875 C280.242085,73.3226858 273.135322,63.9104969 273.135322,63.9104969 L273.409838,73.250863 L270.673192,78.7139353 L271.244368,84.0362009 L271.039971,89.4243278 L270.749273,96.3204488 L274.271711,102.074219 L273.194086,107.807549 L276.071539,113.916742 L283.117551,119.670512 L280.757903,121.759902 L279.680278,127.729424 L285.583939,132.54524 L289.323265,139.667333 L285.689544,145.712936 L278.783203,147.005178 L278.341479,159.590343 L285.75427,167.358557 L296.013854,164.997774 L295.798101,169.81359 L295.291652,175.276662 L293.126181,179.446357 L286.381086,175.762673 L280.251453,177.938363 C280.251453,177.938363 279.53103,180.554725 279.170819,181.862906 C278.719121,183.503338 277.815725,186.784202 277.815725,186.784202 L280.411564,191.439907 L286.887536,193.444132 L288.040107,204.059139 L287.985601,212.158362 C287.985601,212.158362 290.381001,207.024791 292.80454,200.047284 Z" id="Land" fill="#FF6969"></path>
                    <path d="M262.285835,50.3787409 C286.745044,77.2579303 301,111.357216 301,150.993194 C301,234.593637 234.011245,301.045898 150.734375,301.045898 C94.2091812,301.045898 45.4329742,270.604655 19.9284983,224.903529 C47.3189107,253.674567 85.8634615,271.586286 128.561074,271.586286 C211.676333,271.586286 279.054564,203.714139 279.054564,119.989602 C279.054564,94.8949334 273.001475,71.224403 262.285835,50.3787409 Z" id="Bottom-Shadow" opacity="0.5" fill="#BECCD4"></path>
                    <path d="M298.576151,178.865219 C300.168409,170.013848 301,160.894532 301,151.578944 C301,125.49232 294.918215,100.207598 283.254883,78.9633789 C267.689431,50.6116286 242.988685,28.2165418 213.297572,14.9283019 C193.840904,6.22048229 172.241265,1.42333984 149.665039,1.42333984 C73.6948747,1.42333984 12.0382456,57.2977291 2.33114322,131.12899 C14.8401039,60.1800765 76.1952369,6.31578835 150,6.31578835 C177.290889,6.31578835 202.879528,13.6806992 224.925741,26.550972 C269.801792,52.7489879 300,101.758153 300,157.894732 C300,165.010055 299.514847,172.010871 298.576146,178.865245 Z" id="Top-Shadow" fill="#D1DBE1"></path>
                    <path d="M2.42074845,136.946908 L1.87487793,135.154907 C1.87487793,135.154907 1.86184697,135.183405 1.83833307,135.245091 L1.83833307,135.245091 C1.26392623,140.63574 0.969238281,146.11073 0.969238281,151.654907 C0.969238281,152.955179 0.985447296,154.251609 1.01767222,155.544002 C1.11244967,149.24431 1.58753281,143.03781 2.42074845,136.946908 Z" id="Shade" fill="#CC5C61"></path>
                    <path d="M17.1590166,87.4298594 L15.5616455,85.9686279 C15.5616455,85.9686279 18.1057016,80.7934604 19.4991455,78.2498779 C20.6849659,76.0852899 23.2397461,71.875 23.2397461,71.875 C23.2397461,71.875 26.1078082,67.1795266 28.7451172,63.25 C31.3824262,59.3204734 35.2451172,54.875 35.2451172,54.875 L42.2451172,47.125 C42.2451172,47.125 47.5243556,41.6764108 50.4360465,38.9411564 C57.2197493,32.5685184 77.1686808,17.9372912 91.6679915,12.7516806 C104.430443,8.18724952 120.288086,0.749046148 150.394032,0.86146439 C180.499977,0.973882631 202.747314,10.1875 202.747314,10.1875 L206.802543,17.561326 C189.282359,10.3120525 170.103007,6.31578835 150,6.31578835 C92.3306519,6.31578835 42.2624267,39.2026345 17.1590166,87.4298594 Z" id="Shade" fill="#CC5C61"></path>
                    <path d="M55.626181,252.625148 L55.626181,258.93968 L61.4565997,271.284112 C61.4565997,271.284112 56.3023937,267.650958 47.8295785,260.092819 C44.416212,257.047939 39.5767737,251.512695 33.8187455,244.663699 C30.7412931,241.003165 25.8252585,234.253276 21.3474178,226.464719 C21.3052031,226.391293 21.2629732,226.31784 21.2207316,226.24436 C31.3340389,236.610198 42.9156396,245.517741 55.626181,252.625148 Z" id="Shade" fill="#CC5C61"></path>
                    <path d="M279.011274,116.317328 L283.117551,119.670512 L280.757903,121.759902 L279.680278,127.729424 L285.583939,132.54524 L289.323265,139.667333 L285.689544,145.712936 L278.783203,147.005178 L278.341479,159.590343 L285.75427,167.358557 L296.013854,164.997774 L295.798101,169.81359 L295.291652,175.276662 L293.126181,179.446357 L286.381086,175.762673 L280.251453,177.938363 C280.251453,177.938363 279.53103,180.554725 279.170819,181.862906 C278.719121,183.503338 277.815725,186.784202 277.815725,186.784202 L280.411564,191.439907 L286.887536,193.444132 L288.040107,204.059139 L287.985601,212.158362 C287.985601,212.158362 290.381001,207.024791 292.80454,200.047284 C294.591698,194.901954 296.334604,188.803454 297.733906,182.530381 L297.733906,182.530381 C299.874497,172.377681 301,161.829494 301,150.993194 C301,144.738201 300.630881,138.573939 299.912999,132.521847 C299.909036,132.496285 299.905064,132.470774 299.901083,132.445312 C299.561218,130.271733 299.26397,127.638589 298.810364,124.868378 C298.701104,124.224814 298.58787,123.582668 298.470687,122.941972 C298.310045,122.097826 298.131248,121.248017 297.928938,120.401231 C297.524598,118.708835 297.181517,116.912391 296.816759,115.072202 C293.810303,102.42845 289.247502,90.4150606 283.337958,79.2528039 C282.312588,77.3478722 281.17273,75.3520717 279.693115,72.8811035 C277.710681,69.5704234 275.021973,65.638916 275.021973,65.638916 L273.30542,63.5612793 L273.409838,73.250863 L272.399093,75.2685788 C276.384273,88.2899745 278.674799,102.059984 279.011274,116.317328 Z" id="Shade" fill="#CC5C61"></path>
                    <path d="M110.430641,295.487816 C106.135604,294.424204 100.05722,292.132585 100.05722,292.132585 L91.4841933,288.729946 C91.4841933,288.729946 97.3123664,283.675051 100.71062,280.729106 C103.124459,278.636549 106.390015,269.927856 106.390015,269.927856 C106.390015,269.927856 110.047828,270.479534 111.897949,270.655151 C113.915707,270.846681 118.014038,271.182129 118.014038,271.182129 C118.014038,271.182129 121.994737,271.410694 123.984131,271.476318 C126.208442,271.549692 130.61499,271.566528 130.61499,271.566528 C130.61499,271.566528 132.09604,271.575409 133.707764,271.477905 C134.741339,271.415378 135.903785,271.42896 136.684753,271.381714 C138.078977,271.297368 140.182475,271.138179 141.870178,270.988403 C143.403219,270.852354 144.593384,270.720886 144.593384,270.720886 L147.548889,270.362122 C147.548889,270.362122 150.730341,269.95947 151.882263,269.772949 C153.274545,269.547509 157.137695,268.853821 157.137695,268.853821 L160.792908,268.097839 C160.792908,268.097839 162.920166,267.585999 164.141052,267.300415 C164.16436,267.294963 166.704143,266.672909 167.890625,266.346558 C168.715052,266.119792 169.72047,265.838486 170.817261,265.536804 C171.82558,265.259457 172.907122,264.90907 173.768066,264.634888 C175.072717,264.2194 175.95282,263.927979 175.95282,263.927979 C175.95282,263.927979 177.266968,263.455994 178.853943,262.880859 C180.440918,262.305725 183.127004,261.332491 184.638733,260.715271 C185.915948,260.1938 187.721476,259.441095 189.364807,258.704346 C191.747445,257.636145 193.832336,256.627991 193.832336,256.627991 C193.832336,256.627991 198.082083,254.481058 200.15271,253.343506 C201.339313,252.691615 203.132094,251.664348 204.570618,250.825867 C205.932576,250.032014 206.974365,249.408081 206.974365,249.408081 L216.612752,253.480564 C217.631721,253.911106 218.217824,255.120622 217.919992,256.188757 L215.525799,264.775209 L214.663926,273.986691 L209.987782,281.389262 L204.192564,291.368368 L191.566804,295.594556 C191.566804,295.594556 178.736164,298.539291 177.366904,298.714446 C174.583984,299.070437 173.685784,299.280685 171.491915,299.597611 C167.582553,300.162356 163.593398,300.618743 163.593398,300.618743 C163.593398,300.618743 158.346308,300.79426 155.706236,300.923351 C151.46384,301.130791 147.183743,301.06584 143.365779,300.967069 C137.784866,300.822691 132.877231,299.932025 129.278298,299.477812 C118.9943,298.179892 115.626532,296.774512 110.430641,295.487816 Z" id="Shade" fill="#CC5C61"></path>
                </g>
                <g id="Clouds-2" transform="translate(14.000000, 58.000000)" fill="#B1E1FC" sketch:type="MSShapeGroup">
                    <path d="M233.454545,6.62068966 L235.3125,6.62068966 C237.890458,6.62068966 240,8.72031979 240,11.3103448 C240,13.8950997 237.901335,16 235.3125,16 L214.6875,16 C212.109542,16 210,13.9003699 210,11.3103448 C210,8.72558997 212.098665,6.62068966 214.6875,6.62068966 L217.115002,6.62068966 C217.360622,4.14530985 219.453962,2.20689655 222,2.20689655 C222.773061,2.20689655 223.505116,2.38605655 224.156491,2.7051435 C224.963511,1.10194211 226.625809,0 228.545455,0 C231.251154,0 233.454545,2.19468853 233.454545,4.90197404 L233.454545,6.62068966 Z" id="Rectangle-856"></path>
                    <path d="M23.4545455,166.62069 L25.3125,166.62069 C27.8904583,166.62069 30,168.72032 30,171.310345 C30,173.8951 27.9013348,176 25.3125,176 L4.6875,176 C2.10954174,176 0,173.90037 0,171.310345 C0,168.72559 2.09866524,166.62069 4.6875,166.62069 L7.11500205,166.62069 C7.36062174,164.14531 9.45396245,162.206897 12,162.206897 C12.7730607,162.206897 13.5051163,162.386057 14.1564908,162.705144 C14.9635113,161.101942 16.6258092,160 18.5454545,160 C21.2511538,160 23.4545455,162.194689 23.4545455,164.901974 L23.4545455,166.62069 Z" id="Rectangle-855"></path>
                    <path d="M81.0909091,42.5862069 L83.9943671,42.5862069 C88.424189,42.5862069 92,46.1636873 92,50.576733 L92,51.0094739 C92,55.418206 88.415756,59 83.9943671,59 L50.0056329,59 C45.575811,59 42,55.4225196 42,51.0094739 L42,50.576733 C42,46.1680009 45.584244,42.5862069 50.0056329,42.5862069 L53.8228441,42.5862069 C53.9680697,38.293316 57.487682,34.862069 61.8082542,34.862069 L62.1917458,34.862069 C63.367572,34.862069 64.4856746,35.1179746 65.4929039,35.5773599 C66.7738543,32.8705497 69.5272775,31 72.7173452,31 L73.1008367,31 C77.4998396,31 81.0909091,34.5818057 81.0909091,39.000187 L81.0909091,42.5862069 Z" id="Rectangle-853"></path>
                </g>
            </g>
        </g>
    </g>
</svg>