<?xml version="1.0" encoding="utf-8"?>
<!-- Generator: Adobe Illustrator 16.0.0, SVG Export Plug-In . SVG Version: 6.00 Build 0)  -->
<!DOCTYPE svg PUBLIC "-//W3C//DTD SVG 1.1//EN" "http://www.w3.org/Graphics/SVG/1.1/DTD/svg11.dtd">
<svg version="1.1" xmlns="http://www.w3.org/2000/svg" xmlns:xlink="http://www.w3.org/1999/xlink" x="0px" y="0px" width="600px"
	 height="600px" viewBox="0 0 600 600" enable-background="new 0 0 600 600" xml:space="preserve">
<g id="Layer_3">
	<g>
		<path fill="#00B0B7" d="M148.76,452.528l-48.921-28.243c-5.89-3.4-10.165-10.806-10.165-17.607V185.343
			c0-6.802,4.275-14.207,10.165-17.607L291.518,57.074c2.829-1.633,6.439-2.533,10.166-2.533c3.726,0,7.336,0.899,10.165,2.532
			l191.681,110.662c5.891,3.4,10.166,10.805,10.166,17.607l-0.012,221.335c0,6.803-4.275,14.208-10.167,17.607L311.85,534.947
			c-2.83,1.634-6.44,2.533-10.166,2.533c-3.727,0-7.337-0.9-10.166-2.533l-60.47-34.911l-80.886,55.479L148.76,452.528z"/>
		<path fill="#FFFFFF" d="M301.683,62.042c2.326,0,4.651,0.509,6.417,1.528l191.68,110.661c3.529,2.037,6.416,7.038,6.416,11.112
			l-0.012,221.335c0,4.074-2.887,9.075-6.416,11.112L308.1,528.452c-1.766,1.019-4.091,1.528-6.417,1.528
			c-2.326,0-4.651-0.51-6.416-1.528l-64.563-37.274l-73.234,50.23l-1.27-93.244l-52.612-30.374
			c-3.528-2.037-6.416-7.038-6.416-11.112V185.343c0-4.075,2.887-9.075,6.416-11.112L295.267,63.569
			C297.031,62.551,299.357,62.042,301.683,62.042 M301.683,47.042c-5.096,0-9.907,1.223-13.916,3.538L96.089,161.24
			c-8.194,4.73-13.916,14.642-13.916,24.103v221.335c0,9.461,5.722,19.372,13.916,24.103l45.229,26.112l1.153,84.72l0.381,28.011
			l23.102-15.845l65.438-44.883l56.375,32.547c4.008,2.314,8.82,3.538,13.915,3.538c5.095,0,9.907-1.224,13.915-3.537
			l191.67-110.663c8.192-4.729,13.916-14.641,13.916-24.103l0.012-221.334c0-9.463-5.724-19.375-13.918-24.104L315.599,50.579
			C311.59,48.265,306.778,47.042,301.683,47.042L301.683,47.042z"/>
	</g>
</g>
<g id="Layer_2">
</g>
<g id="Layer_1">
	<g>
		<path fill="#FFE600" d="M318.122,276.547l4.653-2.78l11.487,22.228H352l-18.011-32.087l18.328-26.051h-17.18l-12.204,17.815
			c-2.413,3.394-4.026,5.87-4.812,7.435v-25.25h-15.793v58.138h15.793V276.547z"/>
		<polygon fill="#FFE600" points="392.803,283.193 373.994,283.193 373.994,272.214 391.41,272.214 391.41,259.608 373.994,259.608 
			373.994,250.46 392.803,250.46 392.803,237.857 358.285,237.857 358.285,295.995 392.803,295.995 		"/>
		<polygon fill="#FFE600" points="321.937,321.359 336.142,321.359 336.142,366.656 351.84,366.656 351.84,321.359 365.999,321.359 
			365.999,308.511 321.937,308.511 		"/>
		<g>
			<path fill="#FFE600" d="M276.834,237.62H271l-3.57,14.021c0.2,0.849,0.423,1.774,0.675,2.797
				c0.838,3.364,1.547,6.111,2.131,8.235l2.51,9.54H262.19l-3.281,12.885h17.097l2.858,10.896h17.177L276.834,237.62z"/>
			<path fill="#FFE600" d="M266.417,247.409c0.012-0.069,0.026-0.146,0.038-0.211c0.002,0.011,0.005,0.024,0.007,0.035l2.447-9.613
				h-13.029l-18.969,58.375h17.138L266.417,247.409z"/>
		</g>
		<g>
			<polygon fill="#FFE600" points="394.326,328.447 385.129,308.511 368.025,308.511 386.704,343.574 			"/>
			<polygon fill="#FFE600" points="406.644,308.511 387.153,347.188 387.153,366.656 402.979,366.656 402.979,343.946 
				422.115,308.511 			"/>
		</g>
		<g>
			<path fill="#FFE600" d="M234.832,319.772c0.157-0.764,0.281-1.402,0.372-1.913c0.014,0.08,0.033,0.175,0.049,0.26l2.507-9.848
				h-13.131l-18.969,58.385h17.235L234.832,319.772z"/>
			<path fill="#FFE600" d="M245.584,308.271h-5.732l-3.626,14.242c0.188,0.788,0.397,1.642,0.629,2.576
				c0.833,3.363,1.542,6.116,2.128,8.235l2.505,9.545h-10.445l-3.28,12.882h16.987l2.864,10.904h17.18L245.584,308.271z"/>
		</g>
		<g>
			<polygon fill="#FFE600" points="417.385,237.857 402.986,237.857 402.986,295.995 417.161,295.995 			"/>
			<path fill="#FFE600" d="M435.877,270.665c6.574-3.686,9.855-8.896,9.855-15.63c0-11.458-7.896-17.177-23.699-17.177h-2.625
				l-0.046,11.891h2.431c5.385,0,8.078,1.993,8.078,6.007c0,4.846-2.753,7.276-8.236,7.276h-2.324l-0.047,11.81h3.409l12.326,21.155
				h17.817L435.877,270.665z"/>
		</g>
		<g>
			<path fill="#FFE600" d="M209.707,237.857l-11.801,40.992l4.377,17.146h2.453l11.735-41.794h0.354
				c-0.314,6.305-0.496,10.271-0.539,11.891c-0.032,1.614-0.057,3.086-0.057,4.418v25.485h14.438v-58.138H209.707z"/>
			<path fill="#FFE600" d="M189.784,295.995h10.408l-14.846-58.138h-20.895v58.138h13.919v-25.253c0-3.948-0.274-9.491-0.83-16.625
				h0.359L189.784,295.995z"/>
		</g>
		<g>
			<polygon fill="#FFE600" points="286.242,308.511 271.074,308.511 271.074,366.656 286.021,366.656 			"/>
			<path fill="#FFE600" d="M303.956,341.319c6.579-3.687,9.867-8.896,9.867-15.629c0-11.451-7.902-17.18-23.696-17.18h-1.863
				l-0.044,11.894h1.666c5.381,0,8.071,1.999,8.071,5.996c0,4.854-2.741,7.285-8.23,7.285h-1.556l-0.046,11.805h2.637l12.325,21.166
				h17.818L303.956,341.319z"/>
		</g>
		<g>
			<polygon fill="#FFE600" points="179.274,308.511 164.451,308.511 164.451,366.656 179.047,366.656 			"/>
			<path fill="#FFE600" d="M201.12,313.322c-3.687-3.206-9.202-4.812-16.545-4.812h-3.271l-0.049,12.69h2.963
				c4.341,0,6.526,1.955,6.526,5.882c0,2.331-0.701,4.161-2.092,5.482c-1.392,1.328-3.267,1.994-5.626,1.994h-1.825l-0.047,12.8
				h3.42c7.057,0,12.494-1.765,16.325-5.309c3.831-3.537,5.753-8.558,5.753-15.05C206.652,321.092,204.806,316.526,201.12,313.322z"
				/>
		</g>
	</g>
</g>
</svg>
