<?xml version="1.0" encoding="UTF-8" standalone="no"?>
<svg width="62px" height="117px" viewBox="0 0 62 117" version="1.1" xmlns="http://www.w3.org/2000/svg" xmlns:xlink="http://www.w3.org/1999/xlink" xmlns:sketch="http://www.bohemiancoding.com/sketch/ns">
    <!-- Generator: Sketch 3.2.1 (9971) - http://www.bohemiancoding.com/sketch -->
    <title>mobile</title>
    <desc>Created with Sketch.</desc>
    <defs></defs>
    <g id="Page-1" stroke="none" stroke-width="1" fill="none" fill-rule="evenodd" sketch:type="MSPage">
        <g id="Landing-Page-Bright-Pattern-Iteration-3" sketch:type="MSArtboardGroup" transform="translate(-191.000000, -621.000000)">
            <g id="iMac-+-Browser-3-+-Group-3-+-iPad-+-Group-2" sketch:type="MSLayerGroup" transform="translate(163.000000, 481.000000)">
                <g id="mobile" transform="translate(29.000000, 141.000000)" sketch:type="MSShapeGroup">
                    <g id="google-nexus-4-2" stroke="#82919E" fill="#545E66">
                        <g id="Page-1">
                            <path d="M50.6379675,1.38171282 C59.0365689,3.83471391 59.0338954,8.29453341 59.0338946,8.2957162 L59.033895,105.354574 C59.033895,105.354574 59.0154926,110.708705 50.6379666,113.559907 C46.0910682,115.107396 34.7230408,114.999185 29.5338922,114.999185 C24.3447447,114.999185 12.5729916,115.107396 8.02609404,113.559907 C-0.351430673,110.708706 0.0338945836,105.354574 0.0338945836,105.354574 L0.0338945834,8.2957162 C0.0338945834,8.2957162 -0.373622393,3.83503805 8.02609422,1.38171282 C12.5625018,0.0567528899 24.3614033,-0.000812960726 29.5338968,-0.000814483062 C34.7063896,-0.000814483062 46.1015604,0.05675288 50.6379675,1.38171282 L50.6379675,1.38171282 Z M2.61968308,13.4595525 L2.61968308,103.12311 L56.2560467,103.12311 L56.2560467,13.4595525 L2.61968308,13.4595525 Z" id="Google-Nexus-4"></path>
                            <path d="M50.5944305,6.92771084 C51.3075659,6.92771084 51.8856763,6.3516917 51.8856763,5.64113597 C51.8856763,4.93058025 51.3075659,4.3545611 50.5944305,4.3545611 C49.8812951,4.3545611 49.3031847,4.93058025 49.3031847,5.64113597 C49.3031847,6.3516917 49.8812951,6.92771084 50.5944305,6.92771084 L50.5944305,6.92771084 Z" id="Google-Nexus-4-path"></path>
                            <path d="M29.5418572,3.11089113 C26.2065384,3.1108912 23.2083002,3.29558982 23.2083002,3.29558982 C22.9903224,3.3079362 22.917777,3.46043537 23.0465093,3.63653966 L23.7315797,4.57370774 C23.8602029,4.74966276 24.143719,4.89230249 24.3604023,4.89230249 L34.6931222,4.89230249 C34.9117879,4.89230249 35.1937906,4.74701266 35.3214642,4.5699087 L35.991588,3.64033872 C36.119946,3.46228554 36.0449064,3.30739243 35.8270782,3.29519426 C35.8270782,3.29519426 32.8771759,3.11089113 29.5418572,3.11089113 L29.5418572,3.11089113 Z" id="Google-Nexus-4-path"></path>
                        </g>
                    </g>
                    <rect id="Rectangle-651" fill="#F5F8FC" x="3.31460674" y="13.9595376" width="52.3707865" height="88.4104046"></rect>
                    <rect id="Rectangle-505" fill="#00CEB8" x="5.88187" y="17.1474678" width="47.1518379" height="13.2947977"></rect>
                    <rect id="Rectangle-506" fill="#E5E8EE" x="5.88187" y="33.7659649" width="47.1518379" height="20.0779657"></rect>
                    <rect id="Rectangle-507" fill="#75CFB8" x="6.1683175" y="56.9879112" width="46.4044944" height="3.98843931" rx="2"></rect>
                    <rect id="Rectangle-508" fill="#E5E8EE" x="6.1683175" y="63.63531" width="46.4044944" height="3.98843931" rx="2"></rect>
                    <rect id="Rectangle-509" fill="#E5E8EE" x="6.1683175" y="70.2827088" width="46.4044944" height="3.98843931" rx="2"></rect>
                    <rect id="Rectangle-510" fill="#75CFB8" x="6.1683175" y="76.9301077" width="46.4044944" height="3.98843931" rx="2"></rect>
                    <rect id="Rectangle-514" fill="#75CFB8" x="6.1683175" y="83.5775065" width="46.4044944" height="3.98843931" rx="2"></rect>
                    <rect id="Rectangle-513" fill="#E5E8EE" x="6.1683175" y="90.2249054" width="46.4044944" height="3.98843931" rx="2"></rect>
                    <rect id="Rectangle-512" fill="#E5E8EE" x="6.1683175" y="96.8723042" width="46.4044944" height="3.98843931" rx="2"></rect>
                </g>
            </g>
        </g>
    </g>
</svg>