<?xml version="1.0" encoding="UTF-8" standalone="no"?>
<svg width="30px" height="30px" viewBox="0 0 30 30" version="1.1" xmlns="http://www.w3.org/2000/svg" xmlns:xlink="http://www.w3.org/1999/xlink" xmlns:sketch="http://www.bohemiancoding.com/sketch/ns">
    <!-- Generator: Sketch 3.1.1 (8761) - http://www.bohemiancoding.com/sketch -->
    <title>morethancode-sm-icon</title>
    <desc>Created with Sketch.</desc>
    <defs></defs>
    <g id="Page-1" stroke="none" stroke-width="1" fill="none" fill-rule="evenodd" sketch:type="MSPage">
        <g id="Landing-Page-Bright-Pattern-Iteration-3" sketch:type="MSArtboardGroup" transform="translate(-193.000000, -1306.000000)" fill="#545E66">
            <g id="Group" sketch:type="MSLayerGroup" transform="translate(193.000000, 1002.000000)">
                <g id="Aenean-lacinia-biben-+-Empowered-+-Imported-Layers" transform="translate(0.000000, 297.000000)" sketch:type="MSShapeGroup">
                    <path d="M19.2,24.1171429 C19.2,22.1135714 23.4688,22.0942857 23.4688,13.42 C23.4688,9.415 18.9290667,7 14.9333333,7 C10.9397333,7 6.4,9.415 6.4,13.42 C6.4,22.0942857 10.6688,22.1135714 10.6688,24.1171429 C10.6688,26.2557143 0.932266667,29.5342857 0,30.9935714 L0,37 L29.8688,37 L29.8688,30.9935714 C28.9365333,29.5342857 19.2,26.2557143 19.2,24.1171429 L19.2,24.1171429 Z M27.7333333,34.8614286 L2.13333333,34.8614286 L2.13333333,32.0007143 C2.8672,31.5657143 4.1728,30.9292857 5.1904,30.4342857 C9.90933333,28.135 12.8,26.5985714 12.8,24.1171429 C12.8,22.5678571 11.8592,21.6421429 11.104,20.9007143 C10.0202667,19.8357143 8.53333333,18.3785714 8.53333333,13.42 C8.53333333,10.8957143 11.9082667,9.13857143 14.9333333,9.13857143 C17.9605333,9.13857143 21.3333333,10.8957143 21.3333333,13.42 C21.3333333,18.3785714 19.8485333,19.8357143 18.7648,20.9007143 C18.0096,21.6421429 17.0688,22.5678571 17.0688,24.1171429 C17.0688,26.5985714 19.9594667,28.135 24.6784,30.4342857 C25.696,30.9292857 27.0016,31.5657143 27.7333333,32.0007143 L27.7333333,34.8614286 L27.7333333,34.8614286 Z" id="morethancode-sm-icon"></path>
                </g>
            </g>
        </g>
    </g>
</svg>