<?xml version="1.0" encoding="utf-8"?>
<!-- Generator: Adobe Illustrator 16.0.0, SVG Export Plug-In . SVG Version: 6.00 Build 0)  -->
<!DOCTYPE svg PUBLIC "-//W3C//DTD SVG 1.1//EN" "http://www.w3.org/Graphics/SVG/1.1/DTD/svg11.dtd">
<svg version="1.1" id="Layer_1" xmlns="http://www.w3.org/2000/svg" xmlns:xlink="http://www.w3.org/1999/xlink" x="0px" y="0px"
	 width="113.471px" height="219px" viewBox="0 0 113.471 219" enable-background="new 0 0 113.471 219" xml:space="preserve">
<g>
	<g>
		<g>
			<defs>
				<path id="SVGID_1_" d="M32.561,109.456c0,52.821,42.839,95.659,95.659,95.659c52.823,0,95.659-42.838,95.659-95.659
					c0-52.825-42.836-95.661-95.659-95.661C75.399,13.795,32.56,56.631,32.561,109.456z"/>
			</defs>
			<clipPath id="SVGID_2_">
				<use xlink:href="#SVGID_1_"  overflow="visible"/>
			</clipPath>
			<path opacity="0.4" clip-path="url(#SVGID_2_)" fill="#6D2F00" enable-background="new    " d="M124.996,212.5
				c-7.5-1.5-8.747-4.713-6.5-3.5c-4.027-0.583-10.934-10.454-14.896-11.171c-0.057-3.683-0.595-10.445-3.419-16.942
				c-3.617-8.309-15.812-14.236-15.812-14.236s-3.659,11.518,1.619,21.977c1.314,2.604,3.064,4.653,4.946,6.264
				c-1.733-0.514-3.465-1.074-5.194-1.709c-2.807-1.033-5.558-2.18-8.247-3.438c0.788-2.892,2.275-9.708,1.151-16.892
				c-1.29-8.228-10.758-16.326-10.758-16.326s-5.929,9.396-3.658,19.92c0.771,3.566,2.495,6.41,4.438,8.613
				c-4.554-2.699-8.89-5.733-12.939-9.104c1.212-2.649,3.604-8.713,3.685-15.506c0.088-7.903-7.496-16.972-7.496-16.972
				s-7.027,7.857-6.561,18.062c0.1,2.132,0.591,4.05,1.288,5.773c-2.828-3.066-5.454-6.33-7.859-9.773
				c1.523-1.867,5.511-7.215,7.222-13.941c1.85-7.289-3.135-17.375-3.135-17.375s-8.255,5.695-10.106,15.237
				c-0.425,2.194-0.355,4.257-0.018,6.149c-2.13-4.067-3.966-8.329-5.499-12.728c2.299-1.899,6.351-5.712,9.045-10.854
				c3.415-6.53,0.948-17.278,0.948-17.278s-9.164,3.558-13.092,12.235c-0.27,0.591-0.49,1.181-0.677,1.768
				c-0.704-3.729-1.195-7.499-1.467-11.281c2.596-1.075,1.518-4.607,4.991-7.971c4.787-4.644,4-15.5,4-15.5
				s-1.951,2.839-7.791,9.184c-0.483,0.526-0.894,1.073-1.272,1.628c0.179-2.882,0.491-5.747,0.949-8.577
				c1.938-0.508,16.71-9.88,12.088-6.041C27.666,88.267,13.491-37.499,37.496,67.5c0,0-4.539,0.877-10.623,6.557
				c-0.195,0.183-0.362,0.377-0.547,0.566c0.836-2.324,1.795-4.63,2.881-6.902c2.097-0.005,3.73-5.168,8.287-7.216
				c5.252-2.364,8-6,8-6s-3.126-1.451-9.68,1.841c1.395-2.02,2.877-3.984,4.433-5.884c1.938,0.504,5.513,1.187,9.28,0.658
				c4.853-0.68,1.467-10.615,1.467-10.615s2.822,1.091-3.335,2.565c-0.016,0.004-0.03,0.007-0.048,0.011
				c1.436-2.398,3.268-3.285,4.998-4.694c1.028,0.381-0.159,0.499,3.885,0.118c4.125-0.391,12-11,12-11s-2.502,4.351-7.217,4.528
				c1.471-0.887,2.957-1.718,4.459-2.472c1.371,0.033,4.393-0.063,7.309-1.268c3.409-1.408,5.913-6.33,5.913-6.33
				s-0.059-0.022-0.152-0.05l0.092-0.043c0,0-4.885-2.449-9.183-0.377c-2.838,1.368-4.112,4.004-4.655,5.638
				c-2.133,1.058-4.222,2.234-6.263,3.513c1.938-3.511,1.265-9.119,1.265-9.119s-5.338,1.449-8.045,6.073
				c-1.865,3.181-1.288,6.589-0.746,8.407c-2.111,1.693-4.143,3.497-6.09,5.393c0.041-0.109,0.086-0.213,0.125-0.322
				c1.659-4.61-0.936-11.468-0.936-11.468s-5.717,3.174-7.521,9.246c-1.247,4.206,0.407,7.976,1.545,9.897
				c-2,2.432-3.855,4.967-5.575,7.564c0.055-0.363,0.107-0.727,0.145-1.098C33.57,49.21,28.42,41.79,28.42,41.79
				s-5.884,5.498-6.228,13.296c-0.238,5.433,2.902,9.46,4.832,11.402c-0.136,0.283-0.285,0.561-0.417,0.846
				c-1.178,2.525-2.208,5.099-3.104,7.704c-0.043-0.481-0.095-0.966-0.166-1.454c-0.935-6.366-8.188-12.694-8.188-12.694
				s-4.653,7.212-2.978,15.359c1.214,5.903,5.802,9.277,8.242,10.694c-0.637,3.517-1.047,7.071-1.241,10.637
				c-0.25-1.019-0.555-2.053-0.938-3.085C15.807,87.955,6.684,82.88,6.684,82.88s-3.305,8.7,0.312,16.963
				c3.046,6.964,10.162,9.271,12.331,9.826c0.287,3.636,0.797,7.263,1.497,10.856c-0.267-0.441-0.552-0.881-0.849-1.314
				c-4.177-6.072-14.828-8.918-14.828-8.918s-1.142,9.764,4.692,17.294c4.655,6.009,11.985,6.804,14.761,6.879
				c1.5,4.3,3.294,8.499,5.35,12.563c-0.783-0.83-1.625-1.646-2.533-2.417c-5.996-5.099-17.77-5.061-17.77-5.061
				s1.546,10.384,9.66,16.517c6.937,5.248,15.371,3.466,17.674,2.839c3.017,4.387,6.373,8.522,10.035,12.338
				c-2.068-1.397-4.503-2.771-7.209-3.793c-7.393-2.792-18.512,1.223-18.512,1.223s4.972,9.293,14.717,12.354
				c8.537,2.68,16.072-2.151,17.809-3.387c1.606,1.366,3.245,2.691,4.938,3.938c2.728,2.006,5.539,3.843,8.422,5.54
				c-2.336-0.786-4.961-1.452-7.749-1.752c-8.281-0.891-18.561,6.15-18.561,6.15s7.535,8.164,18.287,8.703
				c9.561,0.479,16.013-6.658,17.325-8.246c4.216,1.938,8.549,3.598,12.975,4.998c-1.712-0.01-3.487,0.082-5.294,0.33
				c-8.977,1.236-17.979,11.371-17.979,11.371s10.098,6.641,21.594,4.385c9.178-1.805,14.094-9.434,15.704-12.434
				c0.037,0.005,0.062,0.01,0.062,0.01s0.006-0.044,0.009-0.106c2.99,0.575,5.907,10.094,8.942,10.471
				c0.322,0.041-1.334-0.536-1-0.5c-1.444,0.315,0.469-2.515-1-2c-8.548,3.004-16.646,9.534-16.646,9.534s11.22,4.49,22.034-0.012
				c1.127-0.469,2.157-1.025,3.108-1.639c0.127,5.762,4.911,10.891,10.896,10.733c7.575-0.198,14.336-8.663,10.405-14.446
				C139.496,211.5,122.364,224.177,124.996,212.5z"/>
		</g>
	</g>
	<g>
		<path fill="#FFCE36" d="M78.823,9.605c3.18-2.658,4.209-8.774,4.209-8.774s-5.53-0.122-9.438,3.543
			c-3.908,3.665-3.009,9.255-3.009,9.255S75.155,12.669,78.823,9.605z"/>
		<path fill="#FFCE36" d="M79.188,18.324c4.067,0.794,9.465-2.26,9.465-2.26s-3.388-4.37-8.697-5.097
			c-5.309-0.726-9.082,3.495-9.082,3.495S74.498,17.405,79.188,18.324z"/>
		<path fill="#FFCE36" d="M63.339,15.398c2.899-3.951,2.353-11.263,2.353-11.263S59.31,5.557,55.86,10.87
			s-0.836,11.474-0.836,11.474S59.995,19.95,63.339,15.398z"/>
		<path fill="#FFCE36" d="M64.54,26.228c4.848,0.723,11.062-3.173,11.062-3.173s-4.236-4.981-10.545-5.555
			c-6.31-0.574-10.539,4.612-10.539,4.612S58.955,25.395,64.54,26.228z"/>
		<path fill="#FFCE36" d="M47.493,25.462c2.286-5.587-0.55-14.164-0.55-14.164s-7.202,3.604-9.741,10.984
			c-2.538,7.379,2.424,13.964,2.424,13.964S44.856,31.901,47.493,25.462z"/>
		<path fill="#FFCE36" d="M51.978,37.405c5.708-0.777,11.439-7.215,11.439-7.215s-6.416-4.231-13.727-2.805
			c-7.31,1.425-10.381,8.67-10.381,8.67S45.397,38.301,51.978,37.405z"/>
		<path fill="#FFCE36" d="M33.056,40.348c0.908-6.37-4.254-14.496-4.254-14.496s-6.508,5.599-7.21,13.888
			c-0.703,8.287,6.139,13.802,6.139,13.802S32.006,47.69,33.056,40.348z"/>
		<path fill="#FFCE36" d="M41.769,51.903c5.909-2.543,10.155-11.184,10.155-11.184s-8.169-2.636-15.609,1.082
			c-7.441,3.719-8.582,12.432-8.582,12.432S34.953,54.833,41.769,51.903z"/>
		<path fill="#FFCE36" d="M22.236,58.956c-0.474-6.96-7.785-14.413-7.785-14.413S8.815,51.95,9.94,60.899
			c1.125,8.948,9.629,13.251,9.629,13.251S22.78,66.979,22.236,58.956z"/>
		<path fill="#FFCE36" d="M33.243,71.04c5.908-3.095,9.615-12.362,9.615-12.362s-8.652-2.08-16.051,2.349
			c-7.398,4.431-7.89,13.528-7.89,13.528S26.43,74.604,33.243,71.04z"/>
		<path fill="#FFCE36" d="M16.898,83.15C14.615,76.143,5.205,70.395,5.205,70.395s-3.86,9.041-0.399,17.917
			c3.461,8.875,13.278,11.09,13.278,11.09S19.524,91.229,16.898,83.15z"/>
		<path fill="#FFCE36" d="M31.178,92.395c5.127-5.294,5.809-16.3,5.809-16.3s-9.796,0.815-16.023,8.023
			c-6.229,7.209-3.596,16.924-3.596,16.924S25.267,98.493,31.178,92.395z"/>
		<path fill="#FFCE36" d="M16.834,109.62c-4.304-6.588-15.606-9.889-15.606-9.889s-1.459,10.394,4.582,18.58
			c6.041,8.184,16.778,7.729,16.778,7.729S21.793,117.213,16.834,109.62z"/>
		<path fill="#FFCE36" d="M34.948,113.916c3.84-6.466,1.918-17.55,1.918-17.55s-9.531,3.121-14.01,11.747
			c-4.481,8.625,0.424,17.646,0.424,17.646S30.518,121.364,34.948,113.916z"/>
		<path fill="#FFCE36" d="M22.243,135.034c-6.298-4.771-18.1-4.074-18.1-4.074s2.133,10.323,10.611,16.021
			c8.479,5.695,18.478,1.637,18.478,1.637S29.498,140.539,22.243,135.034z"/>
		<path fill="#FFCE36" d="M43.028,133.876c2.323-7.554-2.379-18.399-2.379-18.399s-8.966,5.543-11.41,15.461
			c-2.442,9.918,4.8,17.918,4.8,17.918S40.346,142.578,43.028,133.876z"/>
		<path fill="#FFCE36" d="M35.986,157.781c-7.689-3.199-19.543,0.64-19.543,0.64s4.911,9.965,15.07,13.529
			c10.156,3.562,19.281-3.228,19.281-3.228S44.844,161.473,35.986,157.781z"/>
		<path fill="#FFCE36" d="M57.956,151.225c1.096-8.258-5.688-18.709-5.688-18.709s-8.348,7.33-9.154,18.065
			c-0.803,10.733,8.121,17.784,8.121,17.784S56.692,160.736,57.956,151.225z"/>
		<path fill="#FFCE36" d="M56.319,176.236c-8.959-1.357-20.465,5.811-20.465,5.811s7.803,9.229,19.466,10.326
			c11.661,1.089,19.511-8.475,19.511-8.475S66.642,177.807,56.319,176.236z"/>
		<path fill="#FFCE36" d="M76.332,165.034c-1.113-8.992-11.127-18.134-11.127-18.134s-6.775,10.009-4.678,21.533
			c2.103,11.521,13.434,16.492,13.434,16.492S77.612,175.395,76.332,165.034z"/>
		<path fill="#FFE394" d="M83.032,0.831c0,0-5.53-0.122-9.438,3.543c-3.908,3.665-3.009,9.255-3.009,9.255L83.032,0.831z"/>
		<path fill="#FFCE36" d="M93.564,10.995c3.67-0.385,7.467-4.392,7.467-4.392s-4.025-2.836-8.732-2.067
			c-4.704,0.769-6.814,5.344-6.814,5.344S89.334,11.438,93.564,10.995z"/>
		<path fill="#FFE394" d="M88.653,16.064c0,0-3.388-4.37-8.697-5.097c-5.309-0.726-9.082,3.495-9.082,3.495L88.653,16.064z"/>
		<path fill="#FFE394" d="M65.692,4.135c0,0-6.382,1.422-9.832,6.735s-0.836,11.474-0.836,11.474L65.692,4.135z"/>
		<path fill="#FFE394" d="M75.602,23.055c0,0-4.236-4.981-10.545-5.555c-6.31-0.574-10.539,4.612-10.539,4.612L75.602,23.055z"/>
		<path fill="#FFE394" d="M46.944,11.298c0,0-7.202,3.604-9.741,10.984c-2.538,7.379,2.424,13.964,2.424,13.964L46.944,11.298z"/>
		<path fill="#FFE394" d="M63.417,30.19c0,0-6.416-4.231-13.727-2.805c-7.31,1.425-10.381,8.67-10.381,8.67L63.417,30.19z"/>
		<path fill="#FFE394" d="M28.802,25.852c0,0-6.508,5.599-7.21,13.888c-0.703,8.287,6.139,13.802,6.139,13.802L28.802,25.852z"/>
		<path fill="#FFE394" d="M51.924,40.719c0,0-8.169-2.636-15.609,1.082c-7.441,3.719-8.582,12.432-8.582,12.432L51.924,40.719z"/>
		<path fill="#FFE394" d="M14.45,44.543c0,0-5.636,7.407-4.511,16.356c1.125,8.948,9.629,13.251,9.629,13.251L14.45,44.543z"/>
		<path fill="#FFE394" d="M42.859,58.678c0,0-8.652-2.08-16.051,2.349c-7.398,4.431-7.89,13.528-7.89,13.528L42.859,58.678z"/>
		<path fill="#FFE394" d="M5.205,70.395c0,0-3.86,9.041-0.399,17.917c3.461,8.875,13.278,11.09,13.278,11.09L5.205,70.395z"/>
		<path fill="#FFE394" d="M36.987,76.095c0,0-9.796,0.815-16.023,8.023c-6.229,7.209-3.596,16.924-3.596,16.924L36.987,76.095z"/>
		<path fill="#FFE394" d="M1.228,99.731c0,0-1.459,10.394,4.582,18.58c6.041,8.184,16.778,7.729,16.778,7.729L1.228,99.731z"/>
		<path fill="#FFE394" d="M36.865,96.366c0,0-9.531,3.121-14.01,11.747c-4.481,8.625,0.424,17.646,0.424,17.646L36.865,96.366z"/>
		<path fill="#FFE394" d="M4.144,130.96c0,0,2.133,10.323,10.611,16.021c8.479,5.695,18.478,1.637,18.478,1.637L4.144,130.96z"/>
		<path fill="#FFE394" d="M40.649,115.477c0,0-8.966,5.543-11.41,15.461c-2.442,9.918,4.8,17.918,4.8,17.918L40.649,115.477z"/>
		<path fill="#FFE394" d="M16.443,158.421c0,0,4.911,9.965,15.07,13.529c10.156,3.562,19.281-3.228,19.281-3.228L16.443,158.421z"/>
		<path fill="#FFE394" d="M52.268,132.516c0,0-8.348,7.33-9.154,18.065c-0.803,10.733,8.121,17.784,8.121,17.784L52.268,132.516z"/>
		<path fill="#FFE394" d="M35.854,182.047c0,0,7.803,9.229,19.466,10.326c11.661,1.089,19.511-8.475,19.511-8.475L35.854,182.047z"
			/>
		<path fill="#FFE394" d="M65.205,146.9c0,0-6.775,10.009-4.678,21.533c2.103,11.521,13.434,16.492,13.434,16.492L65.205,146.9z"/>
		<path fill="#FFCE36" d="M78.625,189.087c-9.051,0.456-18.896,9.774-18.896,9.774s9.488,7.488,21.135,6.236
			c11.645-1.258,17.428-12.195,17.428-12.195S89.054,188.566,78.625,189.087z"/>
		<path fill="#FFCE36" d="M96.002,174.117c-2.886-8.59-14.52-15.551-14.52-15.551s-4.644,11.158-0.289,22.035
			c4.357,10.869,16.452,13.48,16.452,13.48S99.323,184.016,96.002,174.117z"/>
		<path fill="#FFE394" d="M59.73,198.861c0,0,9.488,7.488,21.135,6.236c11.645-1.258,17.428-12.195,17.428-12.195L59.73,198.861z"/>
		<path fill="#FFE394" d="M81.483,158.566c0,0-4.644,11.158-0.289,22.035c4.357,10.869,16.452,13.48,16.452,13.48L81.483,158.566z"
			/>
		<path fill="none" stroke="#FFCE36" stroke-width="4" stroke-linecap="round" stroke-miterlimit="10" d="M93.246,207.751
			c0,0,3.25-0.25,2.25-4c-1.041-3.901-6-4.5-8.75-2.25c-3.438,2.813-4,10,2.338,13.735c4.669,2.75,14.941,0.705,15.412-9.235
			c0.616-13.031-19.168-14.394-39.168-27.334c-26.076-16.873-50.469-46.741-46.744-91.431C24.468,16.647,89.172,8.412,89.172,8.412"
			/>
		<path fill="#FFE394" d="M100.996,6.5c0,0-3.99-3.732-8.698-2.964c-4.704,0.769-6.814,5.344-6.814,5.344L100.996,6.5z"/>
	</g>
</g>
</svg>
