<?xml version="1.0" encoding="utf-8"?>
<!-- Generator: Adobe Illustrator 16.0.0, SVG Export Plug-In . SVG Version: 6.00 Build 0)  -->
<!DOCTYPE svg PUBLIC "-//W3C//DTD SVG 1.1//EN" "http://www.w3.org/Graphics/SVG/1.1/DTD/svg11.dtd">
<svg version="1.1" id="Layer_1" xmlns="http://www.w3.org/2000/svg" xmlns:xlink="http://www.w3.org/1999/xlink" x="0px" y="0px"
	 width="71.932px" height="69.079px" viewBox="0 0 71.932 69.079" enable-background="new 0 0 71.932 69.079" xml:space="preserve">
<circle fill="#FFFFFF" cx="36.015" cy="34.106" r="32.554"/>
<g>
	<path fill="#F5A9CA" d="M56.08,31.172c-0.363-0.364-1.295-1.2-2.014-1.586L27.662,14.588c-0.867-0.428-2.099-0.628-3.045,0.318
		c-0.949,0.948-0.806,2.117-0.368,2.962l15,26.41c0.362,0.564,1.267,1.731,1.632,2.092c4.199,4.197,11.002,4.198,15.199,0
		C60.278,42.175,60.278,35.368,56.08,31.172z"/>
	<path fill="#54B9E5" d="M47.678,14.909c-0.946-0.949-2.247-0.749-3.014-0.339L18.452,29.454c-0.804,0.511-1.876,1.355-2.238,1.719
		c-4.2,4.196-4.2,11.003,0,15.198c4.196,4.197,11.001,4.197,15.196,0c0.365-0.361,1.17-1.431,1.473-1.832l15.114-26.596
		C48.488,17.18,48.625,15.854,47.678,14.909z"/>
	<polygon fill="#4F7DB9" points="36.141,38.802 44.477,24.135 36.146,19.403 27.811,24.137 	"/>
	<path fill="#25A8E0" d="M16.214,46.37c-4.2-4.195-4.2-11.002,0-15.198c4.196-4.198,11.001-4.198,15.196,0
		c4.197,4.196,4.197,11.003,0,15.198C27.215,50.567,20.41,50.567,16.214,46.37z"/>
	<circle fill="#F072AB" cx="48.491" cy="38.771" r="10.748"/>
	<g>
		<circle fill="#FFFFFF" cx="48.567" cy="39.213" r="5.691"/>
		<path fill="#F072AB" d="M48.563,36.215c-2.32,0-4.201,1.994-4.201,2.803c0,0.206,0.124,0.4,0.343,0.575
			c0.209-0.427,0.473-0.833,0.83-1.19c0.386-0.386,0.826-0.682,1.297-0.898c-0.939,0.954-0.938,2.486,0.013,3.434
			c0.95,0.951,2.493,0.951,3.448,0c0.951-0.954,0.951-2.499,0-3.45c-0.08-0.08-0.17-0.145-0.258-0.21
			c0.686,0.207,1.334,0.582,1.877,1.124c0.295,0.293,0.521,0.624,0.715,0.966c0.084-0.112,0.137-0.23,0.137-0.351
			C52.764,38.209,50.883,36.215,48.563,36.215z M50.062,38.569c0,0.357-0.291,0.646-0.648,0.646s-0.646-0.289-0.646-0.646
			c0-0.356,0.289-0.646,0.646-0.646S50.062,38.213,50.062,38.569z"/>
	</g>
	<g>
		<circle fill="#FFFFFF" cx="23.483" cy="39.213" r="5.69"/>
		<path fill="#25A8E0" d="M23.482,36.215c-2.322,0-4.2,1.994-4.2,2.803c0,0.206,0.12,0.4,0.335,0.575
			c0.213-0.427,0.479-0.833,0.831-1.19c0.386-0.385,0.828-0.681,1.294-0.897c-0.935,0.955-0.93,2.485,0.015,3.433
			c0.954,0.951,2.499,0.951,3.449,0c0.954-0.954,0.954-2.499,0-3.45c-0.08-0.081-0.171-0.146-0.261-0.213
			c0.691,0.208,1.341,0.583,1.886,1.127c0.292,0.293,0.518,0.624,0.716,0.966c0.078-0.112,0.135-0.23,0.135-0.351
			C27.682,38.209,25.8,36.215,23.482,36.215z M24.978,38.569c0,0.357-0.289,0.646-0.646,0.646c-0.354,0-0.646-0.289-0.646-0.646
			c0-0.356,0.291-0.646,0.646-0.646C24.688,37.923,24.978,38.213,24.978,38.569z"/>
	</g>
</g>
</svg>
