<?xml version="1.0" encoding="utf-8"?>
<!-- Generator: Adobe Illustrator 16.0.0, SVG Export Plug-In . SVG Version: 6.00 Build 0)  -->
<!DOCTYPE svg PUBLIC "-//W3C//DTD SVG 1.1//EN" "http://www.w3.org/Graphics/SVG/1.1/DTD/svg11.dtd">
<svg version="1.1" id="Layer_1" xmlns="http://www.w3.org/2000/svg" xmlns:xlink="http://www.w3.org/1999/xlink" x="0px" y="0px"
	 width="454.135px" height="264px" viewBox="0 0 454.135 264" enable-background="new 0 0 454.135 264" xml:space="preserve">
<g>
	<g>
		<path fill="#FFFFFF" d="M448.822,251.123c0,4.878-8.233,8.834-18.396,8.834H23.737c-10.156,0-18.393-3.956-18.393-8.834V10.393
			c0-4.879,8.236-8.834,18.393-8.834h406.689c10.162,0,18.396,3.955,18.396,8.834V251.123z"/>
	</g>
	<g>
		<rect x="6.636" y="4.958" fill="#D6D6D6" width="443" height="21"/>
		<circle fill="#C4C4C4" cx="11.65" cy="11.477" r="3.251"/>
		<circle fill="#C4C4C4" cx="20.024" cy="11.477" r="3.251"/>
		<circle fill="#C4C4C4" cx="28.398" cy="11.477" r="3.252"/>
		<path fill="#FFFFFF" d="M322.636,12.854c0,2.266-1.837,4.104-4.103,4.104H66.738c-2.266,0-4.103-1.837-4.103-4.104v-0.793
			c0-2.266,1.837-4.104,4.103-4.104h251.795c2.266,0,4.103,1.837,4.103,4.104V12.854z"/>
		<path fill="#FFFFFF" d="M445.636,12.854c0,2.266-1.837,4.104-4.103,4.104h-80.795c-2.266,0-4.103-1.837-4.103-4.104v-0.793
			c0-2.266,1.837-4.104,4.103-4.104h80.795c2.266,0,4.103,1.837,4.103,4.104V12.854z"/>
	</g>
	<g>
		<path fill="#D6D6D6" d="M445.432,6.834c0.671,0,1.217,0.546,1.217,1.217v246.97c0,0.671-0.546,1.217-1.217,1.217H8.734
			c-0.67,0-1.215-0.546-1.215-1.217V8.051c0-0.671,0.545-1.217,1.215-1.217H445.432 M445.432,1.559H8.734
			c-3.584,0-6.49,2.906-6.49,6.492v246.97c0,3.585,2.906,6.492,6.49,6.492h436.697c3.586,0,6.491-2.907,6.491-6.492V8.051
			C451.923,4.465,449.018,1.559,445.432,1.559L445.432,1.559z"/>
	</g>
	<g>
		<g>
			<g>
				
					<line fill="none" stroke="#D6D6D6" stroke-width="7" stroke-miterlimit="10" x1="235.636" y1="213.458" x2="379.636" y2="213.458"/>
				
					<line fill="none" stroke="#D6D6D6" stroke-width="7" stroke-miterlimit="10" x1="235.636" y1="229.458" x2="379.636" y2="229.458"/>
			</g>
			<g>
				
					<line fill="none" stroke="#D6D6D6" stroke-width="7" stroke-miterlimit="10" x1="73.636" y1="213.458" x2="218.636" y2="213.458"/>
				
					<line fill="none" stroke="#D6D6D6" stroke-width="7" stroke-miterlimit="10" x1="73.636" y1="229.458" x2="218.636" y2="229.458"/>
			</g>
		</g>
		<g>
			<g>
				
					<line fill="none" stroke="#D6D6D6" stroke-width="7" stroke-miterlimit="10" x1="235.636" y1="182.458" x2="379.636" y2="182.458"/>
				
					<line fill="none" stroke="#D6D6D6" stroke-width="7" stroke-miterlimit="10" x1="235.636" y1="198.458" x2="379.636" y2="198.458"/>
			</g>
			<g>
				
					<line fill="none" stroke="#D6D6D6" stroke-width="7" stroke-miterlimit="10" x1="73.636" y1="182.458" x2="218.636" y2="182.458"/>
				
					<line fill="none" stroke="#D6D6D6" stroke-width="7" stroke-miterlimit="10" x1="73.636" y1="198.458" x2="218.636" y2="198.458"/>
			</g>
		</g>
	</g>
	<rect x="73.636" y="50.958" fill="#E3EAEE" width="306" height="117"/>
	<g>
		<path fill="#C4C4C4" d="M265.636,137.065c0,3.601-2.678,6.893-6.281,6.893h-65.477c-3.6,0-6.242-3.292-6.242-6.893V87.301
			c0-3.6,2.643-6.344,6.242-6.344h65.477c3.604,0,6.281,2.744,6.281,6.344V137.065z M193.878,85.958
			c-0.693,0-1.242,0.648-1.242,1.344v49.764c0,0.694,0.549,0.893,1.242,0.893h65.477c0.697,0,1.281-0.198,1.281-0.893V87.301
			c0-0.695-0.584-1.344-1.281-1.344H193.878z M205.665,106.946c-4.338,0-7.859-3.521-7.859-7.857c0-4.338,3.521-7.857,7.859-7.857
			s7.855,3.52,7.855,7.857C213.521,103.424,210.003,106.946,205.665,106.946z M255.636,132.958h-58v-7.679l13.181-13.095
			l6.589,6.547l21.081-20.953l17.149,17.023V132.958z"/>
	</g>
	<g>
		<path fill="#C4C4C4" d="M449.923,253.077c0,3.554-2.88,6.437-6.434,6.437H10.677c-3.552,0-6.433-2.883-6.433-6.437V26.065h445.679
			V253.077z"/>
	</g>
	<rect x="57.636" y="49.958" fill="#FFFFFF" width="346" height="184"/>
	<rect x="57.636" y="49.958" fill="#E3EAEE" width="173" height="184"/>
	<g>
		<rect x="244.636" y="86.958" fill="#FFCD36" width="146" height="56"/>
		<g>
			<path fill="#DDA61B" d="M336.636,126.578c0,1.724-1.107,3.38-2.832,3.38h-31.34c-1.722,0-2.828-1.656-2.828-3.38v-23.818
				c0-1.724,1.106-2.802,2.828-2.802h31.34c1.725,0,2.832,1.078,2.832,2.802V126.578z M302.464,101.958
				c-0.331,0-0.828,0.469-0.828,0.802v23.818c0,0.332,0.497,0.38,0.828,0.38h31.34c0.334,0,0.832-0.048,0.832-0.38v-23.818
				c0-0.333-0.498-0.802-0.832-0.802H302.464z M308.106,112.162c-2.076,0-3.762-1.686-3.762-3.761c0-2.076,1.686-3.761,3.762-3.761
				s3.76,1.685,3.76,3.761C311.866,110.476,310.183,112.162,308.106,112.162z M331.636,124.958h-27v-4.021l6.122-6.268l3.062,3.134
				l9.849-10.028l7.968,8.147V124.958z"/>
		</g>
	</g>
	<g>
		<path fill="#D6D6D6" d="M74.719,100.913l18.065-8.727l-0.039,2.862l-12.344,5.926l12.17,6.346l-0.039,2.823L74.719,100.913z"/>
		<path fill="#D6D6D6" d="M97.28,110.986l-3.021-0.042l16.674-26.945l2.928,0.042L97.28,110.986z"/>
		<path fill="#D6D6D6" d="M133.265,101.736l-18.066,8.727l0.039-2.854l12.349-5.934l-12.175-6.346l0.039-2.824L133.265,101.736z"/>
	</g>
	<g>
		<rect x="145.636" y="86.958" fill="#D6D6D6" width="69" height="10"/>
		<rect x="145.636" y="106.958" fill="#D6D6D6" width="69" height="10"/>
		<rect x="73.636" y="127.958" fill="#D6D6D6" width="111" height="10"/>
		<rect x="73.636" y="147.958" fill="#D6D6D6" width="82" height="10"/>
		<rect x="73.636" y="168.958" fill="#D6D6D6" width="53" height="10"/>
	</g>
	<g>
		<rect x="353.636" y="59.958" fill="#C4C4C4" width="37" height="15"/>
	</g>
	<g>
		<g>
			<path fill="#D6D6D6" d="M445.432,6.834c0.671,0,1.217,0.546,1.217,1.217v246.97c0,0.671-0.546,1.217-1.217,1.217H8.734
				c-0.67,0-1.215-0.546-1.215-1.217V8.051c0-0.671,0.545-1.217,1.215-1.217H445.432 M445.432,1.559H8.734
				c-3.584,0-6.49,2.906-6.49,6.492v246.97c0,3.585,2.906,6.492,6.49,6.492h436.697c3.586,0,6.491-2.907,6.491-6.492V8.051
				C451.923,4.465,449.018,1.559,445.432,1.559L445.432,1.559z"/>
		</g>
	</g>
</g>
</svg>
