<?xml version="1.0" encoding="utf-8"?>
<!-- Generator: Adobe Illustrator 16.0.0, SVG Export Plug-In . SVG Version: 6.00 Build 0)  -->
<!DOCTYPE svg PUBLIC "-//W3C//DTD SVG 1.1//EN" "http://www.w3.org/Graphics/SVG/1.1/DTD/svg11.dtd">
<svg version="1.1" id="Layer_1" xmlns="http://www.w3.org/2000/svg" xmlns:xlink="http://www.w3.org/1999/xlink" x="0px" y="0px"
	 width="454.135px" height="264px" viewBox="0 0 454.135 264" enable-background="new 0 0 454.135 264" xml:space="preserve">
<g>
	<g>
		<path fill="#FFFFFF" d="M448.822,251.43c0,4.878-8.233,8.834-18.396,8.834H23.737c-10.156,0-18.393-3.956-18.393-8.834V10.701
			c0-4.879,8.236-8.834,18.393-8.834h406.689c10.162,0,18.396,3.955,18.396,8.834V251.43z"/>
	</g>
	<rect x="410.135" y="108.5" fill="#C4C4C4" width="37" height="148"/>
	<g>
		<g>
			<rect x="6.135" y="5.5" fill="#D6D6D6" width="443" height="21"/>
			<circle fill="#C4C4C4" cx="11.65" cy="11.785" r="3.251"/>
			<circle fill="#C4C4C4" cx="20.024" cy="11.785" r="3.251"/>
			<circle fill="#C4C4C4" cx="28.398" cy="11.785" r="3.252"/>
			<path fill="#FFFFFF" d="M323.135,13.396c0,2.266-1.837,4.104-4.103,4.104H67.237c-2.266,0-4.103-1.837-4.103-4.104v-0.793
				c0-2.266,1.837-4.104,4.103-4.104h251.795c2.266,0,4.103,1.837,4.103,4.104V13.396z"/>
			<path fill="#FFFFFF" d="M446.135,13.396c0,2.266-1.837,4.104-4.103,4.104h-80.795c-2.266,0-4.103-1.837-4.103-4.104v-0.793
				c0-2.266,1.837-4.104,4.103-4.104h80.795c2.266,0,4.103,1.837,4.103,4.104V13.396z"/>
		</g>
		<g>
			<path fill="#D6D6D6" d="M445.432,7.142c0.671,0,1.217,0.546,1.217,1.217v246.97c0,0.671-0.546,1.217-1.217,1.217H8.734
				c-0.67,0-1.215-0.546-1.215-1.217V8.359c0-0.671,0.545-1.217,1.215-1.217H445.432 M445.432,1.867H8.734
				c-3.584,0-6.49,2.906-6.49,6.492v246.97c0,3.585,2.906,6.492,6.49,6.492h436.697c3.586,0,6.491-2.907,6.491-6.492V8.359
				C451.923,4.773,449.018,1.867,445.432,1.867L445.432,1.867z"/>
		</g>
	</g>
	<rect x="73.135" y="51.5" fill="#E3EAEE" width="306" height="117"/>
	<g>
		<path fill="#C4C4C4" d="M266.135,137.373c0,3.601-3.177,6.127-6.78,6.127h-65.477c-3.6,0-6.743-2.527-6.743-6.127V87.609
			c0-3.6,3.144-6.109,6.743-6.109h65.477c3.604,0,6.78,2.509,6.78,6.109V137.373z M193.878,86.5c-0.693,0-1.743,0.414-1.743,1.109
			v49.764c0,0.694,1.05,1.127,1.743,1.127h65.477c0.697,0,1.78-0.433,1.78-1.127V87.609c0-0.695-1.083-1.109-1.78-1.109H193.878z
			 M205.665,107.253c-4.338,0-7.859-3.521-7.859-7.857c0-4.338,3.521-7.857,7.859-7.857s7.855,3.52,7.855,7.857
			C213.521,103.732,210.003,107.253,205.665,107.253z M255.135,133.5h-57v-7.914l12.932-13.095l6.464,6.547l20.769-20.953
			l16.836,17.023V133.5z"/>
	</g>
	<g>
		<rect x="74.135" y="179.5" fill="#D6D6D6" width="145" height="10"/>
		<rect x="74.135" y="199.5" fill="#D6D6D6" width="145" height="10"/>
		<g>
			<rect x="74.135" y="219.5" fill="#D6D6D6" width="145" height="10"/>
		</g>
		<rect x="235.135" y="179.5" fill="#D6D6D6" width="145" height="10"/>
		<rect x="235.135" y="199.5" fill="#D6D6D6" width="145" height="10"/>
		<g>
			<rect x="235.135" y="219.5" fill="#D6D6D6" width="145" height="10"/>
		</g>
	</g>
</g>
</svg>
