<?xml version="1.0" encoding="utf-8"?>
<!-- Generator: Adobe Illustrator 16.0.0, SVG Export Plug-In . SVG Version: 6.00 Build 0)  -->
<!DOCTYPE svg PUBLIC "-//W3C//DTD SVG 1.1//EN" "http://www.w3.org/Graphics/SVG/1.1/DTD/svg11.dtd">
<svg version="1.1" id="Layer_1" xmlns="http://www.w3.org/2000/svg" xmlns:xlink="http://www.w3.org/1999/xlink" x="0px" y="0px"
	 width="454.135px" height="264px" viewBox="0 0 454.135 264" enable-background="new 0 0 454.135 264" xml:space="preserve">
<g>
	<g>
		<path fill="#FFFFFF" d="M447.776,253.476c0,4.878-8.232,8.834-18.395,8.834H22.692c-10.156,0-18.393-3.956-18.393-8.834V12.747
			c0-4.879,8.236-8.834,18.393-8.834h406.689c10.162,0,18.395,3.955,18.395,8.834V253.476z"/>
	</g>
	<g>
		<g>
			<rect x="6.636" y="4.938" fill="#D6D6D6" width="443" height="21"/>
			<circle fill="#C4C4C4" cx="11.65" cy="11.458" r="3.251"/>
			<circle fill="#C4C4C4" cx="20.024" cy="11.458" r="3.251"/>
			<circle fill="#C4C4C4" cx="28.398" cy="11.458" r="3.252"/>
			<path fill="#FFFFFF" d="M322.636,12.834c0,2.266-1.837,4.104-4.103,4.104H66.738c-2.266,0-4.103-1.837-4.103-4.104v-0.793
				c0-2.266,1.837-4.104,4.103-4.104h251.795c2.266,0,4.103,1.837,4.103,4.104V12.834z"/>
			<path fill="#FFFFFF" d="M445.636,12.834c0,2.266-1.837,4.104-4.103,4.104h-80.795c-2.266,0-4.103-1.837-4.103-4.104v-0.793
				c0-2.266,1.837-4.104,4.103-4.104h80.795c2.266,0,4.103,1.837,4.103,4.104V12.834z"/>
		</g>
		<g>
			<path fill="#D6D6D6" d="M445.432,6.814c0.671,0,1.217,0.546,1.217,1.217v246.97c0,0.671-0.546,1.217-1.217,1.217H8.734
				c-0.67,0-1.215-0.546-1.215-1.217V8.032c0-0.671,0.545-1.217,1.215-1.217H445.432 M445.432,1.54H8.734
				c-3.584,0-6.49,2.906-6.49,6.492v246.97c0,3.585,2.906,6.492,6.49,6.492h436.697c3.586,0,6.491-2.907,6.491-6.492V8.032
				C451.923,4.446,449.018,1.54,445.432,1.54L445.432,1.54z"/>
		</g>
	</g>
	<rect x="73.636" y="50.938" fill="#FFCD36" width="306" height="117"/>
	<rect x="73.636" y="171.938" fill="#01BC85" width="151" height="24"/>
	<rect x="409.636" y="107.938" fill="#C4C4C4" width="37" height="148"/>
	<g>
		<path fill="#DDA61B" d="M265.636,137.045c0,3.601-2.678,6.893-6.281,6.893h-65.477c-3.6,0-6.242-3.292-6.242-6.893V87.282
			c0-3.6,2.643-6.344,6.242-6.344h65.477c3.604,0,6.281,2.744,6.281,6.344V137.045z M193.878,85.938
			c-0.693,0-1.242,0.648-1.242,1.344v49.764c0,0.694,0.549,0.893,1.242,0.893h65.477c0.697,0,1.281-0.198,1.281-0.893V87.282
			c0-0.695-0.584-1.344-1.281-1.344H193.878z M205.665,106.926c-4.338,0-7.859-3.521-7.859-7.857c0-4.338,3.521-7.857,7.859-7.857
			s7.855,3.52,7.855,7.857C213.521,103.405,210.003,106.926,205.665,106.926z M255.636,132.938h-58v-7.679l13.181-13.095
			l6.589,6.547l21.081-20.953l17.149,17.023V132.938z"/>
	</g>
	<rect x="230.636" y="171.938" fill="#FF5984" width="150" height="68"/>
	<g>
		<rect x="80.636" y="178.938" fill="#0BA86F" width="138" height="10"/>
		<g>
			<rect x="73.636" y="198.938" fill="#D6D6D6" width="145" height="10"/>
			<g>
				<rect x="73.636" y="218.938" fill="#D6D6D6" width="145" height="10"/>
			</g>
		</g>
	</g>
	<g>
		<rect x="236.636" y="178.938" fill="#E24273" width="138" height="10"/>
		<rect x="236.636" y="198.938" fill="#E24273" width="138" height="10"/>
		<g>
			<rect x="236.636" y="218.938" fill="#E24273" width="138" height="10"/>
		</g>
	</g>
	<rect x="73.636" y="171.938" fill="#27AAE1" width="26" height="13"/>
	<rect x="198.636" y="171.938" fill="#27AAE1" width="26" height="13"/>
	<rect x="230.636" y="171.938" fill="#27AAE1" width="26" height="13"/>
	<rect x="354.636" y="227.938" fill="#27AAE1" width="26" height="12"/>
	<rect x="353.636" y="154.938" fill="#27AAE1" width="26" height="13"/>
	<rect x="73.636" y="50.938" fill="#27AAE1" width="26" height="13"/>
</g>
</svg>
