<?xml version="1.0" encoding="UTF-8" standalone="no"?>
<svg width="211px" height="415px" viewBox="0 0 211 415" version="1.1" xmlns="http://www.w3.org/2000/svg" xmlns:xlink="http://www.w3.org/1999/xlink" xmlns:sketch="http://www.bohemiancoding.com/sketch/ns">
    <!-- Generator: Sketch 3.2.2 (9983) - http://www.bohemiancoding.com/sketch -->
    <title>mobile 3</title>
    <desc>Created with Sketch.</desc>
    <defs></defs>
    <g id="Page-1" stroke="none" stroke-width="1" fill="none" fill-rule="evenodd" sketch:type="MSPage">
        <g id="Mobile" sketch:type="MSArtboardGroup" transform="translate(-53.000000, -1477.000000)">
            <g id="mobile-3" sketch:type="MSLayerGroup" transform="translate(53.000000, 1477.000000)">
                <g id="Page-1" sketch:type="MSShapeGroup">
                    <g id="Landing-Page-Bright-Pattern-Iteration-3">
                        <g id="iMac-+-Browser-3-+-Group-3-+-iPad-+-Group-2">
                            <g id="mobile">
                                <g id="google-nexus-4-2">
                                    <g id="Page-1">
                                        <path d="M210.526509,29.9411076 L210.52651,380.188321 C210.52651,380.188321 210.460883,399.509272 180.584974,409.798138 C164.369838,415.382417 123.82921,414.991926 105.323683,414.991926 C86.81816,414.991926 44.8377672,415.382417 28.622634,409.798138 C-1.25327108,399.509276 0.120874769,380.188321 0.120874769,380.188321 L0.120874768,29.9411076 C0.120874768,29.9411076 -1.33241113,13.8442759 28.6226346,4.99119085 C44.8003585,0.209931993 86.8775678,0.00219949748 105.3237,0.00219400397 C123.769829,0.00219400397 164.407255,0.209931958 180.584977,4.99119085 C210.536046,13.8431062 210.526511,29.9368393 210.526509,29.9411076 Z M9.34230642,48.5753602 L9.34230642,372.135846 L200.620155,372.135846 L200.620155,48.5753602 L9.34230642,48.5753602 L9.34230642,48.5753602 Z" id="Google-Nexus-4" fill="#FFFFFF"></path>
                                        <path d="M180.429716,25.0045147 C182.972897,25.0045147 185.034553,22.9258883 185.034553,20.3617724 C185.034553,17.7976565 182.972897,15.7190301 180.429716,15.7190301 C177.886534,15.7190301 175.824878,17.7976565 175.824878,20.3617724 C175.824878,22.9258883 177.886534,25.0045147 180.429716,25.0045147 L180.429716,25.0045147 L180.429716,25.0045147 Z" id="Google-Nexus-4-path" fill="#ECF1F7"></path>
                                        <path d="M82.7653748,11.8976196 C81.988023,11.9421728 81.7293118,12.4924823 82.1883965,13.1279734 L84.6314927,16.5098441 C85.0901884,17.1447965 86.1012627,17.6595271 86.8739981,17.6595271 L123.722515,17.6595271 C124.50232,17.6595271 125.507997,17.1352333 125.963306,16.4961348 L128.3531,13.1416827 C128.81085,12.4991588 128.543244,11.9402106 127.766425,11.8961922 C127.766425,11.8961922 117.246492,11.2311147 105.352088,11.2311147 C93.4576834,11.231115 82.7653748,11.8976196 82.7653748,11.8976196 Z" id="Google-Nexus-4-path" fill="#ECF1F7"></path>
                                    </g>
                                </g>
                            </g>
                        </g>
                    </g>
                </g>
            </g>
        </g>
    </g>
</svg>