<?xml version="1.0" encoding="utf-8"?>
<!-- Generator: Adobe Illustrator 17.1.0, SVG Export Plug-In . SVG Version: 6.00 Build 0)  -->
<!DOCTYPE svg PUBLIC "-//W3C//DTD SVG 1.1//EN" "http://www.w3.org/Graphics/SVG/1.1/DTD/svg11.dtd">
<svg version="1.1" xmlns="http://www.w3.org/2000/svg" xmlns:xlink="http://www.w3.org/1999/xlink" x="0px" y="0px"
	 viewBox="0 0 437.5 253" enable-background="new 0 0 437.5 253" xml:space="preserve">
<g id="Layer_1">
</g>
<g id="Layer_2">
	<g>
		<polygon fill="#DFEAEF" points="39.8,253 0,210.3 90,194.3 		"/>
		<polygon fill="#DFEAEF" points="397.8,246.9 437.5,204.3 354,191.3 		"/>
		<polygon fill="#FBCA41" points="218.8,249.9 127.8,218 127.8,3 218.8,34.9 		"/>
		<polygon fill="#E7A600" points="397.8,246.9 306.8,215 306.8,0 397.8,31.9 		"/>
		<polygon fill="#C08821" points="317.8,45.7 337.8,53 337.8,21 317.8,13.7 		"/>
		<polygon fill="#C08821" points="337.8,215 317.8,208 317.8,192 337.8,199 		"/>
		<polygon fill="#C08821" points="385.1,231.6 346.7,218 365.4,194.6 		"/>
		<polygon fill="#FBCA41" points="306.8,215 218.8,250 218.8,35 306.8,0 		"/>
		<polygon fill="#E7A600" points="297.8,48.4 231.8,74.6 231.8,41.6 297.8,15.4 		"/>
		<path fill="#E7A600" d="M252.2,178c0,6.4-4.8,13.4-10.8,15.7c-6,2.3-10.8-0.9-10.8-7.3c0-6.4,4.8-13.4,10.8-15.7
			C247.4,168.4,252.2,171.7,252.2,178z"/>
		<polygon fill="#FBCA41" points="127.8,218 39.8,253 39.8,38 127.8,3 		"/>
		<polygon fill="#E7A600" points="88.8,99.5 48.8,115 48.8,82 88.8,66.5 		"/>
		<polygon fill="#E7A600" points="97.8,46.8 118.8,38.7 118.8,16.7 97.8,24.8 		"/>
		<polygon fill="#E7A600" points="65.8,231.7 48.8,238 48.8,198 65.8,191.7 		"/>
		<g>
			<path fill="#C08821" d="M318.2,167.8c-4-0.6-7.8-1.6-11.4-2.9v3.2c4,1.4,8.1,2.4,12.4,2.9c18.3,2.2,36.9-0.2,54.6-5.1
				c8-2.2,16.1-5,24-8.3V154c-0.4,0.2-0.8,0.4-1.2,0.5C372.5,165,344.6,171.6,318.2,167.8z M309.1,157.1c-0.8-0.3-1.5-0.6-2.3-0.9
				v3.2c23.9,9,52.6,3.2,75.8-4.9c5.1-1.8,10.2-3.8,15.2-6v-3.4c-3.1,1.4-6.3,2.7-9.4,4C364.6,158.7,334.2,165.8,309.1,157.1z
				 M374.4,87c-17.5,19.6-42,30.2-67.6,32.6v3.1c24.7-2.2,48.6-11.9,66.2-29.8c9.5-9.7,17.6-20.6,24.8-32.3v-6.2
				C391.1,66,383.4,77,374.4,87z M333.2,185C333.2,185,333.1,185,333.2,185c-9.1-0.1-17.9-1-26.3-3.3v3.3c8.5,2.2,17.4,2.9,26.3,3
				c0,0,0,0,0,0c0,0,0,0,0,0c22.1,0,44-4.8,64.6-13v-3.2C377.4,180.1,355.6,185,333.2,185C333.2,185,333.2,185,333.2,185z
				 M306.8,173.2v3.4c8.5,2.4,17.3,3.3,26.3,3.4c21.6-0.1,44-4.9,64.7-13.2v-3.3c-20.7,8.5-43.1,13.4-64.7,13.5
				C323.9,176.8,315.2,175.7,306.8,173.2z M383.9,112.3c-20.5,19.5-48.9,29.6-77,32.1v6.2c1.8,0.8,3.6,1.6,5.5,2.2
				c13.4,4.7,29.1,3,42.8,0.7c13-2.2,25.7-6.5,37.8-11.8c1.7-0.7,3.3-1.5,5-2.3V136c-0.6,0.3-1.2,0.6-1.8,0.9
				c-20.2,9.6-45.4,17.6-68.6,15.6c25-5.4,48.5-16.8,66.9-34.8c1.2-1.2,2.3-2.3,3.5-3.5v-4.6c-0.8,0.8-1.5,1.7-2.3,2.5
				c-20.5,21.7-48.2,34.5-77.4,39c0.7,0.2,1.5,0.3,2.2,0.4c-1.4-0.3-2.8-0.5-4.2-0.9c-3.2-0.8-6.2-1.9-9.1-3.3
				c27.9-2.4,55.8-12.3,76.8-30.9c5-4.4,9.7-9.3,14.1-14.4v-4.7C393.4,102.6,388.8,107.6,383.9,112.3z M378.6,106
				c-18.1,17.3-42.7,26.5-67.3,29.7c-1.5,0.2-3,0.4-4.5,0.5v3c1-0.1,2-0.2,3-0.3c24.1-2.6,48.6-11.3,67.1-27.3
				c7.7-6.7,14.6-14.3,20.9-22.5v-4.9C391.9,92.1,385.5,99.4,378.6,106z M313.2,127.1c-2.1,0.3-4.2,0.6-6.3,0.8v3
				c1.2-0.1,2.5-0.3,3.7-0.4c22.5-2.7,45.1-11,62.2-26.1c9.6-8.5,17.8-18.6,25.1-29.2v-5c-7,10.3-14.8,20-23.5,28.6
				C357.9,115.1,335.8,123.6,313.2,127.1z"/>
		</g>
		<polygon fill="#E7A600" points="218.8,249.9 127.8,218 127.8,3 218.8,34.9 		"/>
		<g>
			<path fill="#EDDEB7" d="M39.8,143.6v3c9.8,0.1,19.6-0.7,29.1-2c13.5-1.9,26.7-5.3,39.4-10.3c6.7-2.6,13.1-5.9,19.5-9.3v-3.6
				c-9.8,5.1-19.6,10.1-30.1,13.6C79.6,140.8,59.3,144.1,39.8,143.6z M39.8,159.7v2.8c9.9,0.2,19.7-0.3,29.6-1.6
				c2.9-0.4,5.9-0.8,8.8-1.4c17.2,6.8,33.5,15.7,49.6,25V181c-14.3-8.3-28.9-16.1-44.1-22.5c2.9-0.6,5.8-0.9,8.7-2
				c3,1.1,6,2.9,9,4.4c9,4.5,17.8,9.3,26.5,14.3v-3.6c-8-4.6-16-9-24.2-13.1c-2.2-1.1-4.4-2.6-6.7-3.6c0,0,0,0,0,0
				c2.4-1,4.8-1.2,7.1-1.9c0.6,0.3,1.2,0.7,1.8,1c7.4,3.7,14.7,7.7,22,11.8v-3.5c-6.3-3.4-12.6-6.8-18.9-10
				c-0.3-0.1-0.5-0.3-0.8-0.4c-0.2,0.1-0.4,0.1-0.5,0.2c2.3-0.8,4.6-1.7,6.9-2.6c4.5,2.3,8.9,4.7,13.3,7.1v-3.6
				c-3.2-1.7-6.5-3.4-9.7-5.1c0,0,0,0-0.1,0c2-0.9,3.9-1.8,5.9-2.7c1.3,0.7,2.6,1.4,3.9,2.1v-3.5c-0.2-0.1-0.3-0.2-0.5-0.3
				c0.2-0.1,0.3-0.2,0.5-0.2v-3.6c-6.9,3.6-13.9,6.9-21.1,9.5C85.4,156.6,62.5,159.9,39.8,159.7z M123.6,105.1
				c-14.1,7.5-27.7,13.9-43.3,17.6c-13.4,3.2-26.9,4.4-40.5,4.2v3c11.7,0.2,23.4-0.8,35.1-2.9c13.6-2.5,26.8-7,39.1-13.2
				c4.6-2.4,9.2-4.8,13.8-7.2v-3.7C126.4,103.6,125,104.3,123.6,105.1z M81.5,130.8c-13.3,3.1-27.6,4.9-41.6,4.6v3
				c10.7,0.2,21.4-0.9,31.8-2.6c13.2-2.1,26-5.8,38.3-11.1c6.1-2.6,12-5.8,17.9-8.9v-3.7c-0.3,0.1-0.5,0.3-0.8,0.4
				C112.3,120.4,97.8,127,81.5,130.8z M39.9,151.6C39.9,151.6,39.9,151.6,39.9,151.6l-0.1,3.2c9.9,0.2,19.8-0.7,29.5-2
				c13.5-1.9,26.7-5.1,39.5-9.9c6.6-2.5,12.9-5.6,19-8.8v-3.2c-5.4,2.8-10.9,5.5-16.5,7.8C88.9,147.8,64.2,151.8,39.9,151.6z"/>
		</g>
		<g>
			<path fill="#EDDEB7" d="M218.8,250l0.9-0.4c0.3-3.9-0.1-7.9-0.9-11.8V250z M218.8,106.1v3c3,1,6,2.2,8.9,3.5
				c20.5,9.5,35.4,27.2,53,40.7c8,6.1,16.6,11.5,26.1,14.7v-3.2c-17.5-6.3-31.6-20-45.4-32.2C248.3,121.1,234.7,111.6,218.8,106.1z
				 M306.8,122.7v-3.1c-12.9,1.2-26,0.4-38.5-2.4c-6.3-5.4-12.7-10.5-19.6-15c-9.3-6-19.4-10.5-29.9-13.4v3.3
				c9.9,2.8,19.4,7,28.3,12.7c21,13.3,36.9,35.4,59.7,45.7v-6.2c-1.6,0.1-3.3,0.3-4.9,0.3c-2.4-1.5-4.8-3.1-7.1-4.8
				c4-0.1,8.1-0.3,12-0.7v-3c-5.2,0.5-10.5,0.8-15.9,0.7c-2.2-1.8-4.4-3.6-6.5-5.5c7.4,0.6,15,0.3,22.3-0.5v-3
				c-8.6,0.9-17.6,1.2-26.2,0.1c-0.3-0.2-0.5-0.5-0.8-0.7c-2.3-2-4.6-4.1-6.9-6.1C284.1,123.2,295.5,123.7,306.8,122.7z
				 M218.8,221.5c3.3,7.4,5.5,15.4,6,23.5c0.1,0.9,0.1,1.8,0.1,2.7l3-1.2c0-0.1,0-0.3,0-0.4c-0.3-11-4-21.7-9.1-31.3V221.5z
				 M260.7,153.8c-10.1-8.9-19.9-18.2-31.4-25.4c-3.3-2.1-6.8-3.8-10.4-5.3v3.5c6.1,2.7,11.8,6.2,17.2,10.2
				c20.5,15.2,36.7,34.8,60.7,44.9c3.3,1.4,6.7,2.5,10.1,3.4v-3.3c-5.4-1.4-10.6-3.4-15.8-6C279.8,170.1,270,162,260.7,153.8z
				 M242.8,108.1c-7.5-4.7-15.6-8.3-24-10.8v3.3c4.5,1.4,9,3.1,13.5,5.2c25.2,12,41.9,35.7,65.8,49.5c2.8,1.6,5.8,3,8.8,4.1v-3.2
				c-12.4-4.9-22.8-14.2-32.6-23C264.2,124.3,254.2,115.3,242.8,108.1z M259.6,141.9c-10.3-9.2-20.7-18.2-33.2-24.3
				c-2.4-1.2-5-2.3-7.5-3.2v3.3c4.1,1.6,8.1,3.5,11.9,5.7c23.3,13.4,39.5,36.1,63.6,48.3c4.1,2.1,8.2,3.6,12.5,4.8v-3.4
				c-5.6-1.7-11-4-16.3-7C279.1,159.6,269.3,150.6,259.6,141.9z"/>
		</g>
		<g>
			<g>
				<path fill="#C08821" d="M135.6,185.4c-2.6-1.5-5.1-3-7.7-4.5v3.5c0.2,0.1,0.5,0.3,0.7,0.4c19.6,11.3,41.7,22.2,55.4,40.9
					c3,4,6,9.2,7.5,14.5l3.4,1.2c-1.2-5.6-4.1-11-7-15.5C175.6,207.3,154.3,196.4,135.6,185.4z M178.1,182.9
					c-15.8-11.2-33-20.9-50.2-30.1v3.6c13.8,7.6,27.4,15.7,40.8,24c18.5,11.4,35.8,26.9,44,47.4c2.5,6.3,4.5,14.9,4.1,21.4l2.1,0.7
					v-12c-0.7-3.2-1.6-6.3-2.6-9.2C209.5,209.5,194.4,194.4,178.1,182.9z M167.6,185.7c-12.9-8.3-26.3-16.2-39.8-23.6v3.5
					c10.1,5.7,20,11.6,29.9,17.5c18.7,11.3,36.9,24.6,46.3,45.1c2.3,5.1,4.4,12.5,4.6,18.1l3,1.1c0.1-6.1-1.7-12.4-3.8-17.9
					C200.5,210.6,184.3,196.4,167.6,185.7z M153.4,186.6c-8.4-5.1-16.9-10.2-25.5-15.1v3.6c6.5,3.7,12.9,7.4,19.2,11.3
					c18.2,10.9,37,22.3,47.6,41.3c2.6,4.6,4.9,10.2,5.6,15.8l3.2,1.1c-0.5-5.8-2.8-11.7-5.2-16.7C188.9,209,170.7,197.1,153.4,186.6
					z M187,85c2.2-3,4.3-6,6.1-9c7.9-13.1,11-30.2,11.8-45.9l-3.2-1.1c-0.8,15.9-3.9,31.6-11.4,44.7c-2.2,3.8-4.9,7.8-7.8,11.3
					c-2.7,0.2-5.4,0.7-8,1.1c6.2-7.1,11.9-15.1,15.3-24c4.1-10.8,6.1-22.5,6.6-34.9l-3.2-1.1c-0.4,11.9-2.3,23.4-6,34.1
					c-3.5,10.2-10.6,18.8-17.8,26.7c0,0,0,0.2,0,0.2c-1.1,0.2-2.3,0.1-3.4,0.4c-2.3,0.5-4.5,1.5-6.7,1.5c1.5-1,2.9-2.4,4.3-3.9
					c5.8-6.2,12.1-13.4,16-21c6-11.7,8-25.3,8.3-39.8l-3.2-1.1c-0.2,13.3-2.1,27.9-7.9,39.9c-3.7,7.8-10.4,14.7-16.3,20.9
					c-2.4,2.5-4.9,5.1-7.6,7.3c-0.2,0.2-0.4,0.5-0.4,0.7c0,0,0,0,0,0c-8.5,3.1-16.7,6.9-24.7,11.1v3.7c9.2-4.8,18.5-9.4,28.5-12.8
					c20.6-7,42.2-7.4,62.5-1.7v-3.3C208.5,86,197.8,84.7,187,85z M165.4,96.3c-13.2,3.4-25.6,9.4-37.6,15.7v3.7
					c6.4-3.5,12.9-7,19.6-9.9c23.1-10.1,47.8-12.6,71.4-5.4v-3.3C201.6,92.1,183,91.8,165.4,96.3z M161.3,162.8
					c-11-6.6-22.1-13.2-33.5-19.3v3.5c8.2,4.5,16.3,9.2,24.4,13.9c22.9,13.5,46.2,27.1,60.9,50c2.1,3.3,4,6.8,5.7,10.4v-6.8
					c0-0.1-0.1-0.2-0.1-0.3C206.1,190.8,183.6,176.2,161.3,162.8z M151,109.9c-7.9,3.4-15.5,7.4-23.1,11.3v3.6
					c5.8-3.1,11.5-6.3,17.5-9.1c23.6-11.2,49-14.9,73.5-6.7v-3c-6.1-2.1-12.5-3.7-19.4-4.5C182.9,99.7,166.2,103.5,151,109.9z
					 M127.8,139.5v3.6c6.9-3.5,13.8-7.3,20.8-10.8c14.2-7.1,29.3-12.3,45.3-11.6c8.7,0.3,17.1,2.5,24.9,6v-3.5
					c-9-3.7-18.7-5.6-28.3-5.7C167.6,117.2,147.9,129.2,127.8,139.5z M187.6,109.4c-22.2,0.6-40.7,11.6-59.7,21.4v3.2
					c6.5-3.4,13-7,19.7-10.3c12.6-6.1,26-10.6,40-11.3c10.6-0.5,21.3,1.5,31.3,5.3v-3.3C208.9,110.7,198.1,109.1,187.6,109.4z"/>
			</g>
		</g>
	</g>
	<g>
		<rect x="-556.6" y="443.5" fill="#FBD059" width="387.2" height="876.3"/>
		<rect x="-169.4" y="443.5" fill="#E7A702" width="391.3" height="876.3"/>
		<rect x="221.9" y="443.5" fill="#FBD059" width="387.2" height="876.3"/>
		<rect x="609.2" y="443.5" fill="#E7A702" width="391.3" height="876.3"/>
		<rect x="-511.7" y="622.9" fill="#E7A702" width="171.2" height="134.5"/>
		<rect x="270.9" y="484.3" fill="#E7A702" width="289.4" height="134.5"/>
		<rect x="-299.8" y="484.3" fill="#E7A702" width="89.7" height="89.7"/>
		<rect x="654" y="484.3" fill="#C08F36" width="89.7" height="89.7"/>
		<rect x="-511.7" y="1112" fill="#E7A702" width="69.3" height="163"/>
		<rect x="658.1" y="1209.8" fill="#C08F36" width="85.6" height="65.2"/>
		<polygon fill="#C08F36" points="947.5,1275 780.3,1275 861.9,1152.7 		"/>
		<circle fill="#E7A702" cx="313.6" cy="1073.3" r="46.9"/>
		<g>
			<defs>
				<polygon id="SVGID_1_" points="609.2,443.5 221.9,443.5 -169.4,443.5 -556.6,443.5 -556.6,1319.9 -169.4,1319.9 221.9,1319.9 
					609.2,1319.9 1000.5,1319.9 1000.5,443.5 				"/>
			</defs>
			<clipPath id="SVGID_2_">
				<use xlink:href="#SVGID_1_"  overflow="visible"/>
			</clipPath>
		</g>
		<g>
			<path fill="#C08F36" d="M657.3,1004.3c-17.1-2.5-36.1-6.9-48.1-12.6v13.9c16,6,33.9,10.4,52.3,12.7
				c78.6,9.8,159.4-1.1,235.4-22.4c34.5-9.7,67.9-21.9,103.8-36.4v-15.6c-4,0.8-4,1.6-5.8,2.4C891,992.2,770.6,1021,657.3,1004.3z
				 M618,957.1c-3.3-1.2-8.9-2.4-8.9-3.8v14C709,1007,835.5,981.5,935.4,946c21.8-7.8,41.3-16.5,65.2-26.2v-15
				c-16,6.1-27.4,11.9-40.9,17.5C856.9,964.2,725.9,995.5,618,957.1z M899.9,649.8C824.8,735.7,717,782.3,609.2,792.9v13.5
				c103.9-9.8,209.2-52.1,285-130.8c40.9-42.4,74.5-90.6,106.5-141.6v-27.2C968.7,557.6,938.3,605.8,899.9,649.8z M720.5,1080
				c-0.1,0,0.8,0,0.8,0c-39.1-0.2-76.1-4.4-112.1-14.4v14.7c35.9,9.6,73.8,12.9,112.1,13.1c0.1,0-0.4,0-0.3,0c0.1,0,0.9,0,0.9,0
				c95,0,186.9-21.2,278.7-57.2V1022c-91.9,36.4-182.9,57.9-279,57.9C721.6,1079.9,720.6,1080,720.5,1080z M609.2,1028.1v14.8
				c35.9,10.5,74.4,14.5,113,14.7c93-0.6,186.5-21.4,278.4-58.1V985c-91.9,37.3-185.2,58.6-278.4,59.2
				C682.6,1043.9,645.1,1039.1,609.2,1028.1z M940.5,760.6c-88.3,85.7-211.5,130-331.3,140.7v27.3c4,3.5,14.5,6.8,22.5,9.7
				c57.5,20.6,124.9,13.4,183.7,3c56.1-9.8,111.1-28.6,163.2-51.6c7.2-3.2,14.1-6.5,22.1-9.9v-14.9c-4,1.3-6.1,2.6-8.7,3.9
				c-87.1,42.1-195.7,77.2-295.5,68.6c107.4-23.5,209.4-73.7,288.6-152.9c5.1-5.1,7.7-10.3,15.7-15.5v-20c-4,3.7-7.6,7.5-10.9,11.1
				c-88,95.4-208,151.3-333.5,171.3c3.1,0.7,6,1.3,9.2,1.9c-6.1-1.1-12.3-2.4-18.3-3.9c-13.6-3.4-26.6-8.5-39.2-14.6
				c120.1-10.6,240.8-53.8,331.3-135.6c21.6-19.5,41.4-40.8,61.4-63.3v-20.7C980.7,718.1,961.6,740.1,940.5,760.6z M916.9,733.1
				C839,809.2,733.8,849.2,628,863.2c-6.4,0.8-14.9,1.6-18.9,2.3v13.2c4-0.4,7.7-0.8,12.1-1.3c103.8-11.5,209.4-49.7,289.1-119.7
				c33.3-29.2,62.3-62.8,90.3-98.6v-21.5C972.7,671.8,946.7,704,916.9,733.1z M635.5,825.8c-8.9,1.4-18.3,2.6-26.3,3.6v13.1
				c4-0.5,9.7-1.1,15.1-1.8c96.8-11.9,194.5-48.1,268.1-114.5c41.3-37.2,76.3-81.5,108.2-128.3v-22c-32,45.4-64.2,88-101.5,125.6
				C828.2,772.9,732.7,810.5,635.5,825.8z"/>
		</g>
		<g>
			<path fill="#EDE0BE" d="M-556.6,898.1v13c40.8,0.6,86-3.3,127.8-9c59.2-8.1,117.8-23.4,173.4-45.2c29.5-11.6,57.4-26.1,86-41V800
				c-44.8,22.3-86.3,44.3-132.8,59.6C-381.6,885.8-471,900.5-556.6,898.1z M-556.6,968.7v12.5c44.8,0.8,86.5-1.4,130.1-7.2
				c12.9-1.7,26.2-3.7,38.9-6c75.6,29.9,144.8,69,218.2,109.6v-15.5c-65.2-36.2-127.3-70.7-194.2-98.7c12.7-2.6,25.2-4.1,37.8-8.9
				c13.3,4.8,26.8,12.7,39.8,19.3c39.3,19.7,75.8,40.8,116.6,62.6v-16c-36.7-20-71-38.5-106.8-56.7c-9.7-4.9-20.1-10.7-30-14.7
				c0,0,0,0,0,0c10.5-8.2,20.9-6,31.3-9.4c2.7,1.4,5.9,2.7,8.5,4.1c32.5,16.4,64.4,33.3,97,51.2v-15.2
				c-28.5-15.1-55.7-29.8-83.5-44.1c-1.2-0.6-2.7-1.2-3.8-1.8c-0.8,0.3-1.7,0.6-2.5,0.8c10.3-3.6,20.9-7.5,30.9-11.6
				c19.7,10.2,38.7,20.7,59.1,31.4v-15.8c-16.3-7.5-29-15-43.2-22.4c-0.1,0-0.4,0.1-0.5,0.1c8.7-3.9,17.7-7.9,26.2-12
				c5.7,3.1,9.4,6.2,17.5,9.3V898c0-0.4-1.4-0.8-2.1-1.2c0.7-0.4,2.1-0.7,2.1-1.1v-15.6c-32.6,15.6-61.5,30.3-93,41.5
				C-356,955-458.7,969.8-556.6,968.7z M-188.4,728.9c-61.7,32.8-121.8,61.2-190.2,77.4c-58.7,13.9-116.8,19.5-178,18.4V838
				c53,0.9,102.6-3.3,154-12.9c59.7-11.1,118.1-30.6,172.2-58c20.4-10.3,40.6-21,61-31.4v-16.4
				C-177.5,722.5-182.3,725.7-188.4,728.9z M-374,842c-58.5,13.6-121.5,21.5-182.6,20.1v13.2c44.8,0.8,94.1-4.1,139.7-11.3
				c57.8-9.2,114.7-25.6,168.4-48.7c26.9-11.6,50.6-25.3,79.1-39.2v-16.4c-4.1,0.6-2.9,1.3-4.1,1.9
				C-238.2,796.1-302.1,825.3-374,842z M-556.3,933c-0.1,0-0.3,0-0.3,0v14c44.8,0.7,87-2.9,129.3-8.8
				c59.3-8.3,117.8-22.6,173.8-43.6c28.9-10.8,55.6-24.4,84.1-38.6v-14.3c-24.5,12.2-48.4,24-73,34.2
				C-341,916.7-449.9,934-556.3,933z"/>
		</g>
		<g>
			<path fill="#C08F36" d="M221.9,808.2c-39.9-16.1-80.3-24.4-121.7-24.9C1.4,782-85.5,834.9-169.4,880v15.6
				c27.9-15.4,58.7-32,88.8-47.4c61-31.2,126.1-53.8,195.1-51.1c37.5,1.5,71.4,11.1,107.3,26.3V808.2z"/>
			<path fill="#C08F36" d="M87.9,1260c-52.6-82.3-143.9-130-224.5-178.2c-11-6.6-20.7-13.2-32.7-19.7v15.5c0,0.6,1.6,1.2,2.6,1.8
				c84.3,49.5,179.2,97.6,237.9,179.5c12.2,17.1,24.6,38.6,31.2,60.9h13.5C109.9,1298.2,98.9,1277.3,87.9,1260z"/>
			<path fill="#C08F36" d="M157.7,443.5h-14.5c-6.5,52.7-20.1,103.5-44.9,147.6c-9.4,16.7-20.9,34.2-33.4,49.4
				c-11.5,0.8-23.1,2.9-34.5,4.6c26.8-31.1,51.1-66.4,65.8-105.5c11.5-30.4,19-62.6,23.4-96.2h-14.6c-4.3,30.2-10.9,59.5-20.4,87.5
				c-15.2,45-45.5,82.6-76.4,117.3c0.1,0,0.1,0.7,0.2,0.7c-4.9,1-9.7,0.6-14.6,1.8c-9.7,2.3-19.4,6.5-28.9,6.5
				c6.3-4.4,12.4-10.7,18.3-17c25.1-27,51.9-58.7,68.6-92C68,516.3,77.4,481,82.5,443.5H68.4c-5,34.9-13.8,69.4-28.2,100.1
				c-15.9,34-44.6,64.5-69.9,91.7c-10.3,11.1-21.1,22.6-32.9,32.2c-1,0.8-1.5,2-1.8,3.1c0.1,0,0.7,0,0.7,0
				c-36.5,13.4-73.8,30.5-105.8,48.7v16.4c39.9-21.1,79.6-41.3,122.6-56.4c88.4-30.8,180.8-32.5,268.7-7.3v-14.5
				c-43.9-12.3-91.2-17.9-137.4-16.4c9.6-13.1,18.2-26.4,26.1-39.7C137.6,555.9,151.4,499.3,157.7,443.5z"/>
			<path fill="#C08F36" d="M-25.9,982.5c-47.4-29-95.5-57.8-143.4-84.6v15.5c35.9,19.6,69.7,40.2,104.4,60.9
				c98.6,59.1,198.9,119.1,262.3,219.6c9.2,14.6,16.6,30,24.6,45.9V1210c0-0.4-0.7-0.8-0.9-1.2C166.9,1105.3,69.7,1041-25.9,982.5z"
				/>
			<path fill="#C08F36" d="M221.9,1312.1c-4-13.9-7-27.6-11.5-40.5c-29.1-84.4-94.2-150.4-164.3-201
				c-67.9-49-143.6-91.9-215.4-132.1v15.8c59.9,33.5,117.3,69.1,175.1,105.3c79.5,49.8,153.6,118,188.8,208.2
				c6,15.3,11.4,33.8,14.7,52h12.7V1312.1z"/>
			<path fill="#C08F36" d="M132.6,1267.9c-40.1-82.6-118.1-135.1-192.8-181.3c-36.2-22.4-73.2-44.8-109.2-66.3v16
				c27.9,16.2,54.8,32.7,82.2,49.4c78.3,47.8,158.7,97.8,204.5,181.5c8.5,15.6,16.4,33.9,20.9,52.7h13.3
				C147.4,1301.6,140.3,1283.7,132.6,1267.9z"/>
			<path fill="#C08F36" d="M173.9,1275.5C142.1,1192.3,73,1130.1,1.1,1083c-55.6-36.4-114.6-70.9-170.5-103.5v15.2
				c43.9,24.8,85.4,50.8,127.8,77c80.4,49.8,158.4,108.2,198.9,197.8c6.4,14.1,12.2,32.5,15.9,50.3h13.7
				C183.9,1304.5,179.3,1289.4,173.9,1275.5z"/>
			<path fill="#C08F36" d="M221.9,769.8c-43.9-16-89.2-23.3-134.5-22c-95.2,2.8-176.9,51-256.7,93.9v14.3c27.9-15.1,55.4-30.9,84-45
				c54.2-26.8,111.9-46.6,172.4-49.7c45.6-2.3,90.8,6.4,134.8,23.2V769.8z"/>
			<path fill="#C08F36" d="M221.9,694.5C146,672,67.8,670.6-7.9,690.5c-56.6,14.9-109.6,41.2-161.5,69.1V776
				c27.9-15.2,55.4-30.6,84.2-43.6c99.4-44.5,203.2-55.1,307-23.5V694.5z"/>
			<path fill="#C08F36" d="M221.9,733.5c-27.9-9.3-54.2-16.1-83.7-19.7C67,705.3-5,721.9-70.4,750.2c-34.1,14.8-67,32.3-99,49.7
				v15.9c24-13.6,49.6-27.6,75.1-40c101.6-49.3,208.3-65.5,316.1-29.4V733.5z"/>
		</g>
		<g>
			<path fill="#EDE0BE" d="M609.2,991.4c-77.5-27.5-139.4-87.8-199.9-141.2c-57.6-50.8-118.2-92.6-187.5-116.8v12.9
				c12.2,4.4,25.7,9.6,38.8,15.6c90,41.5,156,119.2,233.3,178.7c35,26.9,70.4,50.4,115.3,64.6V991.4z"/>
			<path fill="#EDE0BE" d="M254.4,783.9c-10.7-5.3-20.4-10-32.6-14.1v14.7c16.3,7,35.1,15.3,51.7,24.8
				c102.2,58.6,174.1,158.6,280.2,212.2c17.8,9,35.1,15.9,55.5,21.2v-14.8c-24.5-7.3-49.2-17.4-72.7-30.8
				c-50.1-28.6-94.1-68.2-137-106.4C354.4,850.5,309,810.8,254.4,783.9z"/>
			<path fill="#EDE0BE" d="M221.9,1210v29.9c9.6,25.5,18.5,52.4,23,80h14C253.1,1281.4,238.3,1244.1,221.9,1210z"/>
			<path fill="#EDE0BE" d="M221.9,1319.9L221.9,1319.9h1.6c-0.5-2.6-1-5.2-1.6-7.8V1319.9z"/>
			<path fill="#EDE0BE" d="M439,782c-27.5-23.5-55.6-46.1-86-65.9c-40.6-26.5-86.3-46.1-131.1-58.7V672
				c40.8,12.3,85.7,30.9,124.9,55.7C438.8,786,507.3,883,609.2,928.4v-27.3c-8.2,0.6-15.3,1.1-22.5,1.5
				c-10.8-6.4-20.7-13.5-30.8-21.1c17.7-0.3,32.9-1.4,53.3-3.1v-13.2c-24.5,2.3-47.2,3.6-70.6,3.2c-9.7-7.8-18.7-15.9-28-24
				c32.7,2.4,66,1.1,98.6-2.1v-13.1c-40.8,4.2-78.2,5.1-116,0.3c-1.1-1-2.8-2-3.9-3c-10.1-8.9-19.5-17.9-29.6-26.8
				c48.8,8.7,96.5,11,149.5,6.5v-13.5C552.1,798.1,494.2,794.4,439,782z"/>
			<path fill="#EDE0BE" d="M609.2,953.1c-57.1-21.7-100.7-62.5-143.9-100.8c-44.2-39.1-88.7-78.7-138.8-110.3
				c-32.9-20.8-68-36.6-104.7-47.6v14.4c20.4,6.1,39.1,13.7,58.6,22.9C391,784.4,464.9,888.5,570,949c12.4,7.2,22.9,13.1,39.2,18.1
				V953.1z"/>
			<path fill="#EDE0BE" d="M609.2,1065.3c-24.5-6.3-47.7-14.9-70.4-26.4c-49.2-24.8-93.2-60.1-134.4-96.1
				c-44.5-39-87-80.1-137.4-111.4c-14.5-9-28.8-16.7-45.1-23.2v15.2c24.5,11.9,51.5,27.1,75.1,44.7c89.8,66.7,162,152.8,267.3,197.2
				c14.5,6.1,28.6,10.9,45,14.8V1065.3z"/>
		</g>
	</g>
</g>
<g id="Layer_3">
</g>
</svg>
