<?xml version="1.0" encoding="utf-8"?>
<!-- Generator: Adobe Illustrator 16.0.0, SVG Export Plug-In . SVG Version: 6.00 Build 0)  -->
<!DOCTYPE svg PUBLIC "-//W3C//DTD SVG 1.1//EN" "http://www.w3.org/Graphics/SVG/1.1/DTD/svg11.dtd">
<svg version="1.1" id="Layer_1" xmlns="http://www.w3.org/2000/svg" xmlns:xlink="http://www.w3.org/1999/xlink" x="0px" y="0px"
	 width="338.608px" height="44.968px" viewBox="0 0 338.608 44.968" enable-background="new 0 0 338.608 44.968"
	 xml:space="preserve">
<g>
	<path fill="#FFFFFF" d="M45.868,25.638v10.285c0,2.566-0.911,4.76-2.733,6.582c-1.822,1.822-4.016,2.733-6.582,2.733H9.644
		c-2.566,0-4.76-0.911-6.582-2.733c-1.822-1.822-2.733-4.016-2.733-6.582V9.014c0-2.566,0.911-4.76,2.733-6.582
		C4.884,0.61,7.078-0.301,9.644-0.301h26.909c1.358,0,2.62,0.27,3.784,0.809c0.324,0.151,0.518,0.399,0.583,0.744
		c0.064,0.367-0.033,0.679-0.291,0.938l-1.585,1.585C38.828,3.99,38.58,4.098,38.3,4.098c-0.064,0-0.162-0.021-0.291-0.064
		c-0.496-0.129-0.981-0.194-1.456-0.194H9.644c-1.423,0-2.642,0.507-3.655,1.521c-1.014,1.014-1.52,2.231-1.52,3.655v26.909
		c0,1.423,0.506,2.642,1.52,3.655c1.013,1.014,2.231,1.52,3.655,1.52h26.909c1.423,0,2.641-0.506,3.655-1.52
		c1.014-1.013,1.521-2.231,1.521-3.655v-8.215c0-0.28,0.097-0.518,0.291-0.712l2.07-2.07c0.215-0.215,0.463-0.323,0.744-0.323
		c0.129,0,0.258,0.032,0.388,0.097C45.652,24.873,45.868,25.186,45.868,25.638z M53.339,9.823L27.012,36.15
		c-0.518,0.518-1.132,0.776-1.844,0.776c-0.711,0-1.326-0.259-1.843-0.776L9.417,22.242C8.9,21.725,8.641,21.11,8.641,20.399
		c0-0.712,0.259-1.326,0.776-1.844l3.558-3.558c0.518-0.518,1.132-0.776,1.844-0.776s1.326,0.259,1.844,0.776l8.506,8.506
		L46.095,2.578c0.518-0.518,1.132-0.776,1.844-0.776c0.711,0,1.326,0.259,1.843,0.776l3.558,3.558
		c0.518,0.518,0.776,1.132,0.776,1.844S53.857,9.305,53.339,9.823z"/>
	<path fill="#FFFFFF" d="M119.103,25.638v10.285c0,2.566-0.911,4.76-2.733,6.582c-1.822,1.822-4.016,2.733-6.582,2.733H82.879
		c-2.566,0-4.76-0.911-6.582-2.733c-1.822-1.822-2.733-4.016-2.733-6.582V9.014c0-2.566,0.911-4.76,2.733-6.582
		c1.822-1.822,4.016-2.733,6.582-2.733h26.909c1.358,0,2.62,0.27,3.784,0.809c0.324,0.151,0.518,0.399,0.583,0.744
		c0.064,0.367-0.033,0.679-0.291,0.938l-1.585,1.585c-0.216,0.216-0.464,0.323-0.744,0.323c-0.064,0-0.162-0.021-0.291-0.064
		c-0.496-0.129-0.981-0.194-1.456-0.194H82.879c-1.423,0-2.642,0.507-3.655,1.521c-1.014,1.014-1.52,2.231-1.52,3.655v26.909
		c0,1.423,0.506,2.642,1.52,3.655c1.013,1.014,2.231,1.52,3.655,1.52h26.909c1.423,0,2.641-0.506,3.655-1.52
		c1.014-1.013,1.521-2.231,1.521-3.655v-8.215c0-0.28,0.097-0.518,0.291-0.712l2.07-2.07c0.215-0.215,0.463-0.323,0.744-0.323
		c0.129,0,0.258,0.032,0.388,0.097C118.887,24.873,119.103,25.186,119.103,25.638z M126.574,9.823L100.247,36.15
		c-0.518,0.518-1.132,0.776-1.844,0.776c-0.711,0-1.326-0.259-1.843-0.776L82.652,22.242c-0.518-0.518-0.776-1.132-0.776-1.843
		c0-0.712,0.259-1.326,0.776-1.844l3.558-3.558c0.518-0.518,1.132-0.776,1.844-0.776s1.326,0.259,1.844,0.776l8.506,8.506
		L119.33,2.578c0.518-0.518,1.132-0.776,1.844-0.776c0.711,0,1.326,0.259,1.843,0.776l3.558,3.558
		c0.518,0.518,0.776,1.132,0.776,1.844S127.092,9.305,126.574,9.823z"/>
	<path fill="#FFFFFF" d="M192.337,25.638v10.285c0,2.566-0.911,4.76-2.733,6.582c-1.822,1.822-4.016,2.733-6.582,2.733h-26.909
		c-2.566,0-4.76-0.911-6.582-2.733c-1.822-1.822-2.733-4.016-2.733-6.582V9.014c0-2.566,0.911-4.76,2.733-6.582
		c1.822-1.822,4.016-2.733,6.582-2.733h26.909c1.358,0,2.62,0.27,3.784,0.809c0.324,0.151,0.518,0.399,0.583,0.744
		c0.064,0.367-0.033,0.679-0.291,0.938l-1.585,1.585c-0.216,0.216-0.464,0.323-0.744,0.323c-0.064,0-0.162-0.021-0.291-0.064
		c-0.496-0.129-0.981-0.194-1.456-0.194h-26.909c-1.423,0-2.642,0.507-3.655,1.521c-1.014,1.014-1.52,2.231-1.52,3.655v26.909
		c0,1.423,0.506,2.642,1.52,3.655c1.013,1.014,2.231,1.52,3.655,1.52h26.909c1.423,0,2.641-0.506,3.655-1.52
		c1.014-1.013,1.521-2.231,1.521-3.655v-8.215c0-0.28,0.097-0.518,0.291-0.712l2.07-2.07c0.215-0.215,0.463-0.323,0.744-0.323
		c0.129,0,0.258,0.032,0.388,0.097C192.122,24.873,192.337,25.186,192.337,25.638z M199.809,9.823L173.481,36.15
		c-0.518,0.518-1.132,0.776-1.844,0.776c-0.711,0-1.326-0.259-1.843-0.776l-13.908-13.908c-0.518-0.518-0.776-1.132-0.776-1.843
		c0-0.712,0.259-1.326,0.776-1.844l3.558-3.558c0.518-0.518,1.132-0.776,1.844-0.776s1.326,0.259,1.844,0.776l8.506,8.506
		l20.926-20.926c0.518-0.518,1.132-0.776,1.844-0.776c0.711,0,1.326,0.259,1.843,0.776l3.558,3.558
		c0.518,0.518,0.776,1.132,0.776,1.844S200.326,9.305,199.809,9.823z"/>
	<path fill="#FFFFFF" d="M266.731,9.014v26.909c0,2.566-0.911,4.76-2.733,6.582c-1.822,1.822-4.016,2.733-6.582,2.733h-26.909
		c-2.566,0-4.76-0.911-6.582-2.733c-1.822-1.822-2.733-4.016-2.733-6.582V9.014c0-2.566,0.911-4.76,2.733-6.582
		c1.822-1.822,4.016-2.733,6.582-2.733h26.909c2.566,0,4.76,0.911,6.582,2.733C265.82,4.254,266.731,6.448,266.731,9.014z
		 M257.417,3.839h-26.909c-1.423,0-2.642,0.507-3.655,1.521c-1.014,1.014-1.52,2.231-1.52,3.655v26.909
		c0,1.423,0.506,2.642,1.52,3.655c1.013,1.014,2.231,1.52,3.655,1.52h26.909c1.423,0,2.641-0.506,3.655-1.52
		c1.014-1.013,1.521-2.231,1.521-3.655V9.014c0-1.423-0.507-2.641-1.521-3.655S258.84,3.839,257.417,3.839z"/>
	<path fill="#FFFFFF" d="M338.352,9.014v26.909c0,2.566-0.911,4.76-2.733,6.582c-1.822,1.822-4.016,2.733-6.582,2.733h-26.909
		c-2.566,0-4.76-0.911-6.582-2.733c-1.822-1.822-2.733-4.016-2.733-6.582V9.014c0-2.566,0.911-4.76,2.733-6.582
		c1.822-1.822,4.016-2.733,6.582-2.733h26.909c2.566,0,4.76,0.911,6.582,2.733C337.44,4.254,338.352,6.448,338.352,9.014z
		 M329.037,3.839h-26.909c-1.423,0-2.642,0.507-3.655,1.521c-1.014,1.014-1.52,2.231-1.52,3.655v26.909
		c0,1.423,0.506,2.642,1.52,3.655c1.013,1.014,2.231,1.52,3.655,1.52h26.909c1.423,0,2.641-0.506,3.655-1.52
		c1.014-1.013,1.521-2.231,1.521-3.655V9.014c0-1.423-0.507-2.641-1.521-3.655S330.46,3.839,329.037,3.839z"/>
</g>
</svg>
