<?xml version="1.0" encoding="utf-8"?>
<!-- Generator: Adobe Illustrator 16.0.0, SVG Export Plug-In . SVG Version: 6.00 Build 0)  -->
<!DOCTYPE svg PUBLIC "-//W3C//DTD SVG 1.1//EN" "http://www.w3.org/Graphics/SVG/1.1/DTD/svg11.dtd">
<svg version="1.1" id="Layer_1" xmlns="http://www.w3.org/2000/svg" xmlns:xlink="http://www.w3.org/1999/xlink" x="0px" y="0px"
	 width="200.619px" height="303px" viewBox="0 0 200.619 303" enable-background="new 0 0 200.619 303" xml:space="preserve">
<path fill="#FAF8F0" d="M25.23,140.752l11.678,91.537l17.347,11.923l-7.949-91.289L25.23,140.752z M72.326,256.612l17.04,11.728
	v-90.55l-22.18-12.806L72.326,256.612z"/>
<polygon fill="#686968" points="102.921,86.272 102.921,170.185 175.588,128.229 "/>
<polygon fill="#BFC0BB" points="30.259,128.229 102.921,170.185 102.921,86.272 "/>
<path fill="#A42C22" d="M195.635,128.229c0-2.378-1.267-4.593-3.338-5.789l-86.026-49.665c-1.04-0.601-2.193-0.895-3.333-0.895
	v14.406l72.65,41.943l-72.65,41.957v122.262c1.31,0,2.635-0.392,3.774-1.176l72.264-49.672c1.568-1.085,2.597-2.776,2.842-4.651
	l13.766-107.863l0,0C195.619,128.791,195.635,128.522,195.635,128.229z M133.521,256.612l-16.8,11.57v-90.536l21.941-12.662
	L133.521,256.612z M168.94,232.29l-17.349,11.923l7.961-91.289l21.062-12.171L168.94,232.29z"/>
<path fill="#D73B27" d="M102.938,170.185h-0.017l-72.662-41.957l72.662-41.956l0.017,0.013V71.88c1.14,0,2.293,0.294,3.333,0.895
	c-2.072-1.202-4.622-1.202-6.683,0L13.55,122.44c-2.061,1.196-3.337,3.411-3.337,5.789c0,0.294,0.024,0.562,0.062,0.856h-0.013
	l13.765,107.863c0.245,1.875,1.274,3.566,2.845,4.651l72.273,49.672c1.14,0.784,2.453,1.176,3.774,1.176h0.017V170.185z
	 M36.908,232.29L25.23,140.752l21.076,12.171l7.949,91.289L36.908,232.29z M89.366,268.339l-17.04-11.728l-5.14-91.628l22.18,12.806
	V268.339z"/>
<path fill="#F4D257" d="M149.015,45.897c-3.312-3.312-7.337-5.782-11.754-7.311c0.014-0.196,0.026-0.398,0.026-0.588
	c0-15.02-12.21-27.224-27.211-27.224c-10.858,0-20.414,6.331-24.782,15.908c-21.102,2.849-37.54,21.142-37.54,42.877
	c0,23.885,19.408,43.309,43.305,43.309c12.243,0,23.936-5.292,32.106-14.334c1.312,0.176,2.626,0.261,3.936,0.261
	c8.108,0,16.033-3.182,21.913-9.068c5.863-5.867,9.081-13.641,9.081-21.913C158.096,59.539,154.878,51.745,149.015,45.897z
	 M139.286,79.987c-4.403,4.43-10.907,6.109-16.943,4.384l-1.879,6.585l-0.01,0.026l0,0l0,0l-5.997-3.456
	c-5.654,7.356-14.146,11.577-23.397,11.577c-16.292,0-29.542-13.249-29.542-29.543c0-15.948,12.98-29.171,28.929-29.491l5.3-0.098
	l1.25-5.148c1.473-6.063,6.849-10.283,13.079-10.283c7.409,0,13.445,6.037,13.445,13.458c0,1.261-0.183,2.561-0.588,3.875
	l6.599,1.973l-1.326,6.847c0.223,0.026,0.418-0.013,0.641,0.013c4.024,0.405,7.631,2.097,10.449,4.92
	c3.244,3.267,5.047,7.578,5.047,12.19C144.343,72.409,142.54,76.753,139.286,79.987z"/>
<path fill="#FAF7E2" d="M122.343,84.371c6.036,1.725,12.54,0.046,16.943-4.384c3.254-3.234,5.057-7.578,5.057-12.171
	c0-4.612-1.803-8.924-5.047-12.19c-2.818-2.823-6.425-4.515-10.449-4.92c-0.223-0.026-0.418,0.013-0.641-0.013l1.326-6.847
	l-6.599-1.973c0.405-1.313,0.588-2.613,0.588-3.875c0-7.421-6.036-13.458-13.445-13.458c-6.23,0-11.606,4.22-13.079,10.283
	l-1.25,5.148l-5.3,0.098c-15.949,0.32-28.929,13.543-28.929,29.491c0,16.294,13.25,29.543,29.542,29.543
	c9.251,0,17.743-4.22,23.397-11.577l5.997,3.456l0,0l0,0l0.01-0.026L122.343,84.371z"/>
<path fill="#C3C4C6" d="M127.102,98.796c-1.31,0-2.623-0.085-3.936-0.261c-8.17,9.042-19.863,14.334-32.106,14.334
	c-13.545,0-25.641-6.259-33.59-16.013l-12.047,6.958c10.427,13.851,26.99,22.82,45.638,22.82c13.837,0,27.164-5.128,37.466-14.111
	c10.208-0.314,20.122-4.142,27.969-10.963l-12.952-7.5C138.61,97.137,132.906,98.796,127.102,98.796z"/>
<path fill="#BFC0BB" d="M159.553,152.924l-7.961,91.289l17.349-11.923l11.675-91.537L159.553,152.924z M116.721,268.182l16.8-11.57
	l5.142-91.628l-21.941,12.662V268.182z"/>
</svg>
