<?xml version="1.0" encoding="utf-8"?>
<!-- Generator: Adobe Illustrator 16.0.0, SVG Export Plug-In . SVG Version: 6.00 Build 0)  -->
<!DOCTYPE svg PUBLIC "-//W3C//DTD SVG 1.1//EN" "http://www.w3.org/Graphics/SVG/1.1/DTD/svg11.dtd">
<svg version="1.1" id="Layer_1" xmlns="http://www.w3.org/2000/svg" xmlns:xlink="http://www.w3.org/1999/xlink" x="0px" y="0px"
   width="958px" height="345.85px" viewBox="0 0 958 345.85" enable-background="new 0 0 958 345.85" xml:space="preserve">
<g>
  <path fill="#55575C" d="M429.349,97.637h-13.369l-5.416-24.725c-1.748-7.601-2.709-15.115-2.885-17.3
    c-0.174,1.398-1.223,9.087-2.883,17.125l-5.066,24.9h-13.893l-14.504-61.246h12.932l5.242,23.939
    c2.445,11.358,3.233,20.008,3.233,20.008c0.261-2.359,1.31-11.01,3.144-19.396l5.418-24.551h13.367l5.592,27.172
    c1.137,5.679,2.621,16.076,2.621,16.076c0.176-1.922,2.01-14.242,3.321-20.184l4.98-23.064h12.844L429.349,97.637z"/>
  <path fill="#55575C" d="M454.081,78.417v0.35c0,6.902,3.408,10.833,9.438,10.833c4.017,0,7.775-1.486,11.357-4.457l4.543,6.991
    c-5.154,4.193-10.572,6.203-16.861,6.203c-12.844,0-21.145-9.086-21.145-23.153c0-8.039,1.66-13.369,5.592-17.736
    c3.67-4.107,8.125-6.029,14.066-6.029c5.155,0,10.047,1.748,12.932,4.719c4.106,4.193,5.942,10.222,5.942,19.57v2.709H454.081z
     M467.8,69.329c0-3.318-0.35-5.066-1.398-6.727c-1.137-1.748-2.797-2.621-5.155-2.621c-4.457,0-6.99,3.494-6.99,9.698v0.175H467.8
    V69.329z"/>
  <path fill="#55575C" d="M514.241,94.493c-3.059,2.447-6.117,3.494-9.787,3.494c-4.366,0-7.426-1.31-9.959-4.105
    c-0.35,1.572-0.438,2.01-1.225,3.232h-10.484c0.875-2.01,1.138-3.32,1.138-9.523V46.177c0-5.504-0.177-8.475-0.788-11.01
    l11.971-2.795c0.35,3.059,0.438,4.893,0.438,7.951v10.572c0,1.311-0.089,3.233-0.265,3.932c2.271-2.447,5.418-3.584,9.523-3.584
    c10.922,0,17.736,8.738,17.736,22.717C522.54,83.048,519.745,90.124,514.241,94.493 M508.735,66.622
    c-0.873-3.846-3.32-5.68-6.377-5.68c-3.059,0-5.156,1.922-6.641,3.582v20.619c1.572,1.399,3.409,2.885,6.553,2.885
    c2.883,0,4.719-1.136,5.68-3.496c1.049-2.445,1.311-4.805,1.311-10.308C509.261,70.204,509.172,68.543,508.735,66.622"/>
  <path fill="#55575C" d="M572.739,97.114V67.583c0-5.33-0.611-6.379-3.67-6.379c-2.184,0-5.242,1.486-7.777,3.758v32.152h-11.096
    V68.018c0-5.592-0.787-6.902-4.019-6.902c-2.185,0-5.155,1.137-7.688,3.408v32.59h-11.447V65.923c0-6.467-0.436-9.262-1.659-11.446
    l10.571-2.884c0.787,1.224,1.138,2.271,1.572,4.544c3.059-2.97,6.817-4.544,10.922-4.544c3.67,0,6.729,1.224,9.088,3.669
    c0.611,0.612,1.225,1.399,1.748,2.186c4.105-4.195,7.775-5.855,12.668-5.855c3.494,0,6.814,1.048,8.824,2.796
    c2.535,2.184,3.32,4.805,3.32,10.922v31.803H572.739z"/>
  <path fill="#55575C" d="M621.685,99.385c-2.709-1.135-5.153-3.145-6.291-5.416c-0.873,0.873-1.834,1.746-2.709,2.357
    c-2.184,1.574-5.33,2.447-8.998,2.447c-9.961,0-15.379-5.068-15.379-13.98c0-10.484,7.252-15.377,21.494-15.377
    c0.873,0,1.66,0,2.621,0.088V67.67c0-4.981-0.961-6.641-5.242-6.641c-3.758,0-8.125,1.834-12.933,5.067l-4.979-8.387
    c2.359-1.486,4.107-2.359,7.252-3.67c4.369-1.834,8.127-2.621,12.232-2.621c7.514,0,12.67,2.795,14.416,7.775
    c0.614,1.836,0.875,3.233,0.786,8.039l-0.261,15.028c-0.088,4.892,0.261,6.99,4.193,9.961L621.685,99.385z M611.724,77.543
    c-8.125,0-10.922,1.484-10.922,6.814c0,3.495,2.187,5.854,5.155,5.854c2.185,0,4.369-1.137,6.117-3.059l0.174-9.609H611.724z"/>
  <path fill="#55575C" d="M630.862,97.114V46.7c0-3.932-0.088-6.988-0.787-11.619l11.797-2.885c0.523,3.32,0.697,8.563,0.697,14.504
    v50.414H630.862z M657.86,97.114l-15.027-25.338l11.445-19.396h14.066l-14.242,18.697l17.562,26.037H657.86z"/>
  <path fill="#55575C" d="M679.97,78.417v0.35c0,6.902,3.405,10.833,9.436,10.833c4.02,0,7.775-1.486,11.357-4.457l4.545,6.991
    c-5.156,4.193-10.572,6.203-16.863,6.203c-12.844,0-21.145-9.086-21.145-23.153c0-8.039,1.659-13.369,5.592-17.736
    c3.67-4.107,8.125-6.029,14.065-6.029c5.157,0,10.05,1.748,12.933,4.719c4.105,4.193,5.942,10.222,5.942,19.57v2.709H679.97z
     M693.687,69.329c0-3.318-0.35-5.066-1.397-6.727c-1.136-1.748-2.796-2.621-5.155-2.621c-4.457,0-6.99,3.494-6.99,9.698v0.175
    h13.543V69.329z"/>
  <path fill="#55575C" d="M732.175,62.602c-1.135-0.611-2.096-0.873-3.406-0.873c-2.621,0-4.98,1.223-7.166,3.756v31.629h-11.707
    V67.233c0-6.029-0.7-10.572-1.659-13.106l10.483-2.796c1.049,1.835,1.66,3.845,1.836,6.378c2.533-3.408,6.115-6.378,10.484-6.378
    c1.746,0,2.532,0.175,4.369,0.96L732.175,62.602z"/>
  <path fill="#C0382B" d="M330.578,192.255c-18.803,1.891-7.166-18.97-14.274-26.96c0.204-0.211,0.397-0.408,0.595-0.611
    c3.227-1.868,5.855-4.446,7.493-7.798c1.006-1.253,1.371-2.466,1.258-3.474c0.28-1.117,0.477-2.293,0.563-3.542
    c0.74-11.209-9.416-19.645-19.772-20.764c-18.413-1.981-34.837,6.163-49.943,15.856c-16.96,10.865-33.263,22.743-50.349,33.451
    c-36.516,22.897-86.322,45.14-122.811,9.606c-14.891-14.529-20.281-36.206-17.871-56.364c1.146-9.641,4.795-18.766,10.054-26.891
    c5.647-8.731,28.708-24.19,33.864-6.853c0.388,1.308,3.771,0.379,3.383-0.913c-3.882-13.032-21.529-8.728-30.006-3.289
    c-14.601,9.332-20.523,29.613-21.332,45.848c-1.953,39.441,30.508,69.759,68.934,69.603c39.329-0.153,74.803-27.477,106.23-47.91
    c20.204-13.136,40.167-31.523,65.888-30.335c12.056,0.56,19.915,10.652,19.932,19.918c-1.113,0.053-2.379,0.579-3.595,1.79
    c-0.244,0.261-4.032,3.823-9.278,8.856c-0.048-1.381-3.11-0.955-3.41,0.493c-0.182,0.825-0.1,1.729,0.331,2.469
    c-5.307,5.122-11.552,11.234-17.109,16.916c-29.99,30.714-82.395,83.688-116.871,119.428
    c-20.547,21.278-34.328,36.843-34.328,36.843s15.606-13.737,36.928-34.209c35.844-34.432,89.007-86.751,119.756-116.588
    c6.476-6.285,13.616-13.506,19.187-19.202c2.732,4.311,1.203,12.176,1.446,16.741c0.455,8.677,7.006,10.863,14.736,10.105
    C331.999,194.286,332.901,192.014,330.578,192.255 M319.963,154.104c0.64-0.654,1.561-0.722,2.167-0.265
    c-0.25,1.281-0.66,2.524-1.258,3.695l-6.039,6.033c-0.128,0.071-0.264,0.137-0.396,0.204c-0.839-0.492-1.842-0.871-3.017-1.13
    L319.963,154.104z M300.786,177.604c-0.68,0.672-1.722,0.758-2.316,0.154c-0.595-0.585-0.535-1.617,0.146-2.322l7.602-7.597
    c0.294,0.16,0.701,0.206,1.066,0.14c1.397-0.223,2.754-0.541,4.067-0.932L300.786,177.604z"/>
  <path fill="#C0382B" d="M318.187,159.505c0,85.257-69.115,154.373-154.372,154.373S9.442,244.762,9.442,159.505
    c0-85.257,69.115-154.372,154.372-154.372S318.187,74.248,318.187,159.505"/>
  <path fill="#FFFFFF" d="M130.364,209.16c39.329-0.152,74.803-27.477,106.23-47.911c20.203-13.136,40.167-31.523,65.888-30.335
    c5.808,0.271,10.628,2.764,14.081,6.3c-0.247-1.704-0.543-3.392-0.844-5.078c-2.86-1.626-6.059-2.682-9.278-3.03
    c-18.413-1.98-34.837,6.163-49.943,15.856c-16.96,10.865-33.263,22.743-50.349,33.451c-36.516,22.897-86.322,45.141-122.811,9.606
    c-14.891-14.53-20.281-36.206-17.871-56.364c1.146-9.641,4.795-18.766,10.054-26.892c5.647-8.73,28.708-24.189,33.864-6.852
    c0.388,1.308,3.771,0.379,3.383-0.914c-3.882-13.031-21.529-8.727-30.007-3.287c-14.6,9.331-20.522,29.612-21.331,45.847
    C59.478,178.998,91.938,209.315,130.364,209.16"/>
  <path fill="#FFFFFF" d="M316.304,165.294c0.204-0.209,0.397-0.407,0.595-0.61c0.412-0.24,0.784-0.523,1.176-0.786
    c0.035-1.219,0.087-2.436,0.093-3.664l-3.335,3.332c-0.128,0.072-0.264,0.138-0.396,0.205c-0.839-0.493-1.842-0.872-3.017-1.13
    l6.677-6.673c-0.019-0.863-0.032-1.726-0.065-2.586c-1.398,1.332-4.524,4.29-8.491,8.096c-0.048-1.379-3.11-0.955-3.41,0.494
    c-0.182,0.824-0.1,1.729,0.331,2.468c-5.307,5.123-11.552,11.235-17.109,16.917c-29.99,30.714-82.395,83.688-116.871,119.428
    c-4.487,4.646-8.627,8.999-12.396,12.998c1.243,0.03,2.478,0.094,3.729,0.094c0.089,0,0.177-0.006,0.267-0.007
    c3.44-3.235,7.122-6.729,11-10.451c35.844-34.432,89.007-86.753,119.756-116.588c6.476-6.285,13.616-13.505,19.187-19.202
    c2.732,4.311,1.203,12.175,1.446,16.741c0.042,0.805,0.153,1.535,0.296,2.23c1.073-6.056,1.824-12.222,2.169-18.498
    C317.549,167.06,317.027,166.107,316.304,165.294 M300.786,177.603c-0.68,0.673-1.722,0.759-2.316,0.156
    c-0.595-0.586-0.535-1.619,0.146-2.324l7.602-7.597c0.294,0.161,0.701,0.206,1.066,0.141c1.397-0.224,2.754-0.541,4.067-0.933
    L300.786,177.603z"/>
  <polygon fill="#55575C" points="462.288,140.913 428.53,140.913 428.53,256.538 406.222,256.538 406.222,140.913 372.27,140.913 
    372.27,122.29 465.196,122.29  "/>
  <path fill="#55575C" d="M500.853,176.997c-2.135-0.775-3.687-1.357-6.014-1.357c-8.925,0-16.49,6.596-18.43,14.551v66.348h-21.34
    V187.28c0-12.416-1.36-20.371-3.492-26.385l19.593-5.043c2.328,4.461,3.686,10.088,3.686,15.52
    c7.761-10.67,15.519-15.715,25.025-15.715c3.105,0,5.045,0.389,7.566,1.553L500.853,176.997z"/>
  <path fill="#55575C" d="M578.296,260.612c-6.013-2.328-11.059-6.984-13.386-13.191c-7.954,8.924-16.491,12.027-26.966,12.027
    c-22.504,0-32.592-12.416-32.592-29.488c0-22.697,17.072-34.145,48.5-34.145h6.597v-5.238c0-11.252-1.94-17.266-13.582-17.266
    c-14.161,0-29.293,11.252-29.293,11.252l-9.507-15.326c14.744-9.311,26.968-13.384,41.711-13.384
    c15.326,0,25.607,5.625,29.875,16.294c1.746,4.268,1.746,9.506,1.553,24.057l-0.389,28.131
    c-0.193,13.192,0.971,17.459,8.535,22.697L578.296,260.612z M556.181,210.172c-21.34,0-27.742,6.207-27.742,18.623
    c0,9.312,5.043,15.133,13.58,15.133c6.789,0,13.385-4.074,17.654-10.283l0.387-23.279
    C560.06,210.366,557.731,210.172,556.181,210.172"/>
  <path fill="#55575C" d="M609.005,143.823c-7.76,0-13.773-6.4-13.773-14.162c0-7.953,6.208-14.355,14.163-14.355
    c7.563,0,13.966,6.209,13.966,14.355C623.36,137.422,616.958,143.823,609.005,143.823 M598.335,256.538v-96.611l21.533-3.881
    v100.492H598.335z"/>
  <path fill="#55575C" d="M691.065,256.538v-65.184c0-13.387-3.104-17.072-11.252-17.072c-6.209,0-15.133,4.656-21.535,11.059v71.197
    h-20.951V184.37c0-10.281-0.971-16.297-3.686-23.279l19.399-5.434c2.327,4.463,3.491,8.731,3.491,13.969
    c10.477-8.924,19.595-13.58,30.07-13.58c15.133,0,25.608,9.117,25.608,27.16v73.332H691.065z"/>
  <path fill="#55575C" d="M739.661,143.823c-7.76,0-13.774-6.4-13.774-14.162c0-7.953,6.208-14.355,14.163-14.355
    c7.564,0,13.967,6.209,13.967,14.355C754.017,137.422,747.614,143.823,739.661,143.823 M728.991,256.538v-96.611l21.533-3.881
    v100.492H728.991z"/>
  <path fill="#55575C" d="M821.72,256.538v-65.184c0-13.387-3.104-17.072-11.252-17.072c-6.209,0-15.133,4.656-21.535,11.059v71.197
    h-20.951V184.37c0-10.281-0.971-16.297-3.686-23.279l19.398-5.434c2.328,4.463,3.492,8.731,3.492,13.969
    c10.477-8.924,19.595-13.58,30.07-13.58c15.133,0,25.608,9.117,25.608,27.16v73.332H821.72z"/>
  <path fill="#55575C" d="M934.337,174.088c-4.074,0-6.984-0.777-7.566-0.971c0.582,0.582,6.402,6.984,6.402,17.072
    c0,17.072-14.162,30.07-37.248,30.07c-6.984,2.521-13.193,6.207-13.193,9.311c0,3.688,1.359,4.074,24.445,4.074
    c15.713,0,32.592,7.955,32.592,27.938c0,20.951-17.461,32.203-43.651,32.203c-25.413,0-43.843-8.342-43.843-26.771
    c0-4.656,1.939-10.477,1.939-10.477h20.176c0,0-1.551,3.881-1.551,6.984c0,9.117,7.76,14.162,21.533,14.162
    c15.133,0,23.279-6.209,23.279-15.326c0-10.67-8.924-13.58-27.159-13.58c-26.384,0-32.204-5.238-32.204-14.938
    c0-9.701,8.148-13.58,18.622-16.879c-14.741-4.268-22.308-13.773-22.308-27.742c0-19.982,15.713-33.174,39.188-33.174
    c13.969,0,21.922,5.045,29.877,5.045c6.4,0,12.416-2.328,17.848-6.791l9.894,13.387
    C945.976,172.342,940.933,174.088,934.337,174.088 M893.597,172.147c-10.865,0-16.879,6.014-16.879,17.072
    c0,11.252,6.401,16.491,16.879,16.491c11.057,0,16.877-5.821,16.877-16.685C910.474,177.967,904.849,172.147,893.597,172.147"/>
  <path fill="#FFFFFF" d="M111.863,94.589c2.222,3.429,3.201,6.487,4.441,12.94c8.687-8.478,19.398-12.94,31.088-12.94
    c10.559,0,19.224,3.429,25.929,10.426c1.806,1.755,3.548,4.017,5.051,6.238c11.668-11.951,22.118-16.664,36.116-16.664
    c9.97,0,19.419,2.981,25.188,7.945c7.207,6.228,9.491,13.714,9.491,31.144v90.684h-32.393v-84.187
    c0-15.26-1.806-18.211-10.494-18.211c-6.225,0-14.977,4.246-22.162,10.722v91.675h-31.61v-82.989
    c0-15.913-2.306-19.649-11.581-19.649c-6.161,0-14.695,3.192-21.88,9.7v92.938H86.436v-88.955c0-18.419-1.263-26.375-4.767-32.632
    L111.863,94.589z"/>
</g>
</svg>
