<svg xmlns="http://www.w3.org/2000/svg" xmlns:sketch="http://www.bohemiancoding.com/sketch/ns" width="1024" height="460" viewBox="0 0 1024 460"><title>Untitled 4</title><desc>Created with Sketch.</desc><g sketch:type="MSLayerGroup" fill="none"><g><path id="Rectangle-path" sketch:type="MSShapeGroup" d="M0 0h1024v400h-1024z"/><g id="Group"><g id="Shape" sketch:type="MSShapeGroup"><g id="Group" fill="#C07866"><path d="M752.928 254.539c-7.546 5.192-15.092 10.385-22.639 15.577-.832.573-.968 1.591-.304 2.356 3.85 4.434 7.701 8.868 11.551 13.301.526.606 1.588.562 2.121 0l18.885-19.9c1.331-1.402-.787-3.527-2.121-2.121l-18.885 19.9h2.121c-3.85-4.434-7.701-8.868-11.551-13.301l-.304 2.356 22.639-15.577c1.583-1.09.085-3.691-1.513-2.591zM755.21 255.373c-.927-3.026-1.07-7.214 3.009-7.607 2.678-.258 5.345 1.55 7.271 3.185 2.336 1.985 3.944 4.711 4.765 7.635.433 1.543.329 3.202-.395 4.63-1.435 2.829-5.47 1.42-7.505.433-1.733-.84-3.255 1.746-1.514 2.59 4.185 2.029 9.517 2.618 11.955-2.19 2.309-4.552-.806-10.163-3.63-13.633-2.989-3.673-8.024-6.426-12.813-5.367-5.056 1.119-5.237 7.198-4.036 11.12.564 1.846 3.461 1.059 2.893-.796zM751.635 289.785l-17.357 14.941-23.562-27.371 17.358-14.941 6.034 7.009 17.527 20.362z" id="Shape"/></g><g id="Group"><path d="M753.928 255.539c-7.546 5.192-15.092 10.385-22.639 15.577-.832.573-.968 1.591-.304 2.356 3.85 4.434 7.701 8.868 11.551 13.301.526.606 1.588.562 2.121 0l18.885-19.9c1.331-1.402-.787-3.527-2.121-2.121l-18.885 19.9h2.121c-3.85-4.434-7.701-8.868-11.551-13.301l-.304 2.356 22.639-15.577c1.583-1.09.085-3.691-1.513-2.591zM756.21 256.373c-.927-3.026-1.07-7.214 3.009-7.607 2.678-.258 5.345 1.55 7.271 3.185 2.336 1.985 3.944 4.711 4.765 7.635.433 1.543.329 3.202-.395 4.63-1.435 2.829-5.47 1.42-7.505.433-1.733-.84-3.255 1.746-1.514 2.59 4.185 2.029 9.517 2.618 11.955-2.19 2.309-4.552-.806-10.163-3.63-13.633-2.989-3.673-8.024-6.426-12.813-5.367-5.056 1.119-5.237 7.198-4.036 11.12.564 1.846 3.461 1.059 2.893-.796z" id="Shape" fill="#F3F8F2"/><path d="M752.635 290.785l-17.357 14.941-23.562-27.371 17.358-14.941 6.034 7.009 17.527 20.362z" id="Shape" fill="#00ADEE"/></g></g><g id="Shape" sketch:type="MSShapeGroup"><path d="M830.05 321.077l-44.5 35.933-4-3.337v-77.779h77.856l3.848 3.261-33.204 41.922z" fill="#C07866"/><path d="M832.05 323.077l-44.5 35.933-4-3.337v-77.779h77.856l3.848 3.261-33.204 41.922z" fill="#FAD666"/></g><path id="Rectangle-path" fill="#FBDD84" sketch:type="MSShapeGroup" d="M788 281h77.704v77.855h-77.704z"/><g id="Shape" sketch:type="MSShapeGroup"><path d="M884.431 360.572l-76.583 13.154-2.699-15.713-10.48-61.019 76.583-13.153 13.179 76.731z" fill="#966"/><path d="M885.431 361.572l-76.583 13.154-2.699-15.713-10.48-61.019 76.583-13.153 13.179 76.731z" fill="#F9E59F"/></g><path d="M794.55 296.731l70.704-12.014v1.326l-69.585 11.951 10.48 61.019h-.933l-10.666-62.282z" id="Shape" fill="#FAD666" sketch:type="MSShapeGroup"/><g font-family="Helvetica" fill="#000" sketch:type="MSTextLayer"><text transform="matrix(.986 -.166 .166 .986 799.464 298.771)" font-size="12.353"><tspan x="-.014" y="13.024">to do</tspan></text><text transform="matrix(.986 -.166 .166 .986 807.286 315.533)" font-size="11.143"><tspan x="-.014" y="10.823">1) glitter</tspan></text><text transform="matrix(.986 -.166 .166 .986 810.108 332.295)" font-size="11.143"><tspan x="-.014" y="10.622">2) unicorns</tspan></text><text transform="matrix(.986 -.166 .166 .986 812.764 348.071)" font-size="11.143"><tspan x="-.014" y="11.422">3) spaceship</tspan></text></g><g sketch:type="MSShapeGroup"><g fill="#C07766" transform="translate(703 25)"><path d="M144.464 181.881c-.787 5.466-5.857 9.26-11.323 8.472l-124.713-17.961c-5.466-.787-9.26-5.857-8.472-11.323l21.211-147.275c.787-5.466 5.857-9.26 11.323-8.472l124.713 17.961c5.466.787 9.26 5.857 8.472 11.323l-21.211 147.275z" id="Shape"/><path id="Rectangle-path" d="M35.152 9.585l113.188 16.349-21.147 146.401-113.188-16.349zM37.152 11.585l113.188 16.349-21.147 146.401-113.188-16.349z"/><path d="M131.713 23.132c1.181-8.2-4.509-15.804-12.708-16.985l-45.035-6.486c-8.2-1.181-15.804 4.509-16.985 12.709l-1.069 7.423 74.729 10.763 1.068-7.424z" id="Shape"/><circle id="Oval" cx="95.361" cy="8.361" r="3.361"/><path d="M96.457 5.465c-.163-.05-.332-.088-.506-.113-1.837-.265-3.542 1.01-3.806 2.848-.265 1.837 1.01 3.542 2.848 3.806" id="Shape"/><path d="M119.005 6.147l-45.035-6.486c-8.2-1.181-15.804 4.509-16.985 12.709l-1.069 7.423" id="Shape" opacity=".36"/><circle id="Oval" cx="95.361" cy="8.361" r="3.361"/></g><g transform="translate(703 25) translate(2 2)"><path d="M144.464 181.881c-.787 5.466-5.857 9.26-11.323 8.472l-124.713-17.961c-5.466-.787-9.26-5.857-8.472-11.323l21.211-147.275c.787-5.466 5.857-9.26 11.323-8.472l124.713 17.961c5.466.787 9.26 5.857 8.472 11.323l-21.211 147.275z" id="Shape" fill="#EEE8D7"/><g id="Rectangle-path"><path id="Rectangle-path" d="M35.152 9.585l113.188 16.349-21.147 146.401-113.188-16.349z" fill="#B4A191"/><path fill="#fff" d="M37.152 11.585l113.188 16.349-21.147 146.401-113.188-16.349z"/></g><path d="M131.713 23.132c1.181-8.2-4.509-15.804-12.708-16.985l-45.035-6.486c-8.2-1.181-15.804 4.509-16.985 12.709l-1.069 7.423 74.729 10.763 1.068-7.424z" id="Shape" fill="#EAEAE9"/><circle id="Oval" fill="#F37A62" cx="95.361" cy="8.361" r="3.361"/><path d="M96.457 5.465c-.163-.05-.332-.088-.506-.113-1.837-.265-3.542 1.01-3.806 2.848-.264 1.838 1.01 3.542 2.848 3.806" id="Shape" fill="#C17666"/><path d="M119.005 6.147l-45.035-6.486c-8.2-1.181-15.804 4.509-16.985 12.709l-1.069 7.423" id="Shape" opacity=".36" fill="#fff"/><circle id="Oval" fill="#F37A62" cx="95.361" cy="8.361" r="3.361"/></g></g><g id="Shape" fill="#888" sketch:type="MSShapeGroup"><path d="M760.102 69.889c-2.454 13.607-3.191 27.4-4.457 41.147-.79 8.582-3.066 17.338-1.173 25.932 1.737 7.885 11.551 7.466 17.907 8.119 11.96 1.228 24.709 7.087 36.826 4.76 9.671-1.858 9.401-16.801 10.641-24.126 2.34-13.829 3.175-28.352 1.086-42.265-1.489-9.922-14.541-12.832-22.631-14.302-6.194-1.125-12.547-1.314-18.825-1.376-5.922-.059-11.919-.682-17.743.664-1.885.436-1.085 3.328.797 2.893 5.046-1.167 10.2-.628 15.326-.563 5.018.064 10.004.167 15.004.646 5.855.561 11.655 1.889 17.07 4.202 5.498 2.348 7.814 5.522 8.458 11.438 1.372 12.597.541 25.384-1.434 37.865-.691 4.367-1.435 8.742-2.19 13.099-1.181 6.812-4.87 9.48-11.747 9.287-10.3-.29-20.442-3.968-30.637-5.221-3.607-.443-7.203-.585-10.735-1.527-4.812-1.284-4.832-6.457-4.876-10.599-.081-7.582 1.55-15.134 2.215-22.67 1.08-12.241 1.827-24.492 4.012-36.604.34-1.892-2.551-2.701-2.894-.799zM759.9 81.165c19.825 4.217 40.11 4.557 60.207 6.625 1.924.198 1.905-2.804 0-3-19.83-2.04-39.848-2.357-59.41-6.518-1.886-.401-2.689 2.491-.797 2.893zM769.02 133.861c.858-4.686 1.568-9.356 1.85-14.115l-1.5 1.5c6.763-.451 13.468.054 20.205.657 3.667.328 7.331.642 11.008.833 2.344.122.492 7.951.316 9.438-.145 1.227.173 4.691-1.384 5.239-2.346.825-6.42-.701-8.756-1.076-7.477-1.201-15.02-1.914-22.478-3.246-1.891-.338-2.7 2.553-.798 2.893 6.831 1.221 13.725 1.987 20.592 2.963 3.74.531 8.977 2.507 12.767 1.173 2.306-.811 2.583-3.575 2.842-5.638.575-4.578 1.935-9.553.012-13.937-.211-.48-.81-.725-1.295-.743-11.03-.397-21.975-2.293-33.032-1.555-.854.057-1.449.641-1.5 1.5-.266 4.488-.934 8.898-1.743 13.317-.345 1.89 2.546 2.698 2.894.797zM767.062 111.625c1.419-5.977 8.314-13.502 5.358-19.874-.467-1.006-2.107-.953-2.59 0-2.682 5.294-3.252 15.817 4.449 17.167 6.29 1.103 8.646-9.643 8.356-13.962-.105-1.566-1.906-1.947-2.795-.757-2.272 3.043-3.111 6.26-1.048 9.615.67 1.089 1.672 1.811 2.948 1.811 2.704 0 2.961.335 5.057 2.09.678.567 1.442.552 2.121 0 2.32-1.885 3.845-4.329 5.628-6.693l-2.795-.757c-.341 3.747.331 7.105 4.211 8.375 1.305.427 3.363.23 4.573-.478.592-.347 1.057-.88 1.5-1.39 1.345-1.548 4.048 1.932 4.75 2.707 1.302 1.436 3.417-.692 2.121-2.121-1.887-2.082-3.601-4.232-6.587-4.084-.976.048-1.748.732-2.406 1.378-3.19 3.129-5.443-1.303-5.162-4.386.151-1.659-2.005-1.806-2.795-.757-1.625 2.156-3.045 4.369-5.159 6.086h2.121c-1.257-1.052-2.47-3.148-4.131-3.605-.47-.129-1.161-.129-1.619.042-4.184 1.562-1.8-4.897-.739-6.318l-2.795-.757c.235 3.508-.833 7.632-3.23 10.268-3.274 3.6-5.345-3.598-5.45-5.594-.115-2.179.487-4.434 1.465-6.365h-2.59c2.226 4.798-4.52 12.757-5.66 17.562-.447 1.881 2.446 2.679 2.893.797z" id="Shape"/></g><path d="M755.052 105.004l24.039 92.572c.729 2.805-.955 5.67-3.76 6.399-2.805.728-5.67-.955-6.399-3.76l-24.039-92.572" id="Shape" fill="#aaa" sketch:type="MSShapeGroup"/><text transform="matrix(.235 .972 -.972 .235 764.585 145.778)" id="Sharpie" font-size="7" font-family="Helvetica" fill="#000" sketch:type="MSTextLayer"><tspan x=".333" y="5.684">Sharpie</tspan></text><path d="M761.258 130.898l-10.159 2.638-8.418-32.415s-1.97-8.25 1.734-9.901l3.274-.85s3.666.385 6.123 7.861l8.418 32.415-.972.252z" id="Shape" fill="#aaa" sketch:type="MSShapeGroup"/><path id="Rectangle-path" fill="#aaa" sketch:type="MSShapeGroup" d="M756.511 129.911l-2.499.648-8.747-33.734 2.499-.648zM757.045 130.144l-1.25.324-8.747-33.734 1.25-.324z"/><path d="M756.052 106.004l24.039 92.572c.729 2.805-.955 5.67-3.76 6.399-2.805.728-5.67-.955-6.399-3.76l-24.039-92.572" id="Shape" fill="#D4D6D4" sketch:type="MSShapeGroup"/><text transform="matrix(.235 .972 -.972 .235 764.585 145.778)" id="Sharpie" font-size="7" font-family="Helvetica" fill="#000" sketch:type="MSTextLayer"><tspan x=".333" y="5.684">Sharpie</tspan></text><path d="M762.258 131.898l-10.159 2.638-8.418-32.415s-1.97-8.25 1.734-9.901l3.274-.85s3.666.385 6.123 7.861l8.418 32.415-.972.252z" id="Shape" fill="#333" sketch:type="MSShapeGroup"/><path id="Rectangle-path" fill="#4F4C4C" sketch:type="MSShapeGroup" d="M757.511 130.911l-2.499.648-8.747-33.734 2.499-.648z"/><path id="Rectangle-path" fill="#706B6B" sketch:type="MSShapeGroup" d="M758.045 131.144l-1.25.324-8.747-33.734 1.25-.324z"/><path d="M776.165 131.05c.441-1.097 1.26-1.838 2.455-2.222l-2.411-3.165c-.594 1.704-.752 3.584-1.541 5.215-.857 1.772.575 4.513 2.823 3.673 3.525-1.318 6.727-3.088 9.891-5.118l-3.762-2.159c-.083 1.238.045 2.46-.081 3.697-.19 1.872 2.271 3.139 3.762 2.159 2.272-1.494 4.44-3.253 7.284-3.303l-2.5-2.5c-.097 1.947-.13 3.875-.49 5.798-.589 3.151 4.229 4.496 4.821 1.329.442-2.366.549-4.727.668-7.127.067-1.345-1.188-2.523-2.5-2.5-3.848.068-6.675 1.926-9.808 3.986l3.762 2.159c.126-1.237-.003-2.459.081-3.697.126-1.872-2.226-3.144-3.762-2.159-2.788 1.789-5.581 3.449-8.696 4.614l2.823 3.673c.996-2.059 1.298-4.266 2.045-6.409.499-1.432-.841-3.334-2.411-3.165-3.223.348-5.16 1.921-6.772 4.699-1.62 2.792 2.701 5.308 4.319 2.522z" id="Shape" fill="#0095C0" sketch:type="MSShapeGroup"/><g sketch:type="MSShapeGroup"><g fill="#C07866" transform="translate(703 25) translate(101 129)"><circle id="Oval" cx="49.067" cy="49.067" r="49.067"/><circle id="Oval" cx="49.043" cy="49.043" r="39.043"/><path d="M130.178 42.813c.544 4.655-2.788 8.87-7.443 9.414l-25.286 2.957c-4.655.544-8.87-2.788-9.414-7.443l-.131-1.124c-.544-4.655 2.788-8.87 7.443-9.414l25.286-2.957c4.655-.544 8.87 2.788 9.414 7.443l.131 1.124zM41.869 74.109c1.178-1.357 3.232-1.502 4.589-.324 1.357 1.178 1.502 3.232.324 4.589-1.178 1.357-3.232 1.502-4.589.324-1.357-1.177-1.502-3.232-.324-4.589zM49.44 64.482c1.618-1.864 4.44-2.063 6.304-.445 1.864 1.618 2.063 4.44.445 6.304-1.618 1.864-4.44 2.063-6.304.445-1.864-1.617-2.063-4.44-.445-6.304zM25.273 45.114c1.178-1.357 3.232-1.502 4.589-.324 1.357 1.178 1.502 3.232.324 4.589-1.178 1.357-3.232 1.502-4.589.324-1.357-1.177-1.502-3.232-.324-4.589zM27.932 32.126c1.178-1.357 3.232-1.502 4.589-.324 1.357 1.178 1.502 3.232.324 4.589-1.178 1.357-3.232 1.502-4.589.324-1.357-1.178-1.502-3.232-.324-4.589zM69.496 51.067c1.178-1.357 3.232-1.502 4.589-.324 1.357 1.178 1.502 3.232.324 4.589-1.178 1.357-3.232 1.502-4.589.324-1.357-1.178-1.502-3.232-.324-4.589zM40.404 63.435c.673-.776 1.848-.858 2.623-.185.776.673.859 1.848.185 2.623-.673.776-1.848.858-2.623.185-.775-.673-.858-1.848-.185-2.623zM41.924 56.011c.673-.776 1.848-.858 2.623-.185.776.673.858 1.848.185 2.623-.673.776-1.848.858-2.623.185-.775-.673-.858-1.848-.185-2.623zM58.339 71.244c.307-.98 1.35-1.526 2.33-1.219.98.307 1.526 1.35 1.219 2.33-.307.98-1.35 1.526-2.33 1.219-.98-.307-1.526-1.35-1.219-2.33zM59.183 59.68c.307-.98 1.35-1.526 2.33-1.219.98.307 1.526 1.35 1.219 2.33-.307.98-1.35 1.526-2.33 1.219-.981-.307-1.526-1.35-1.219-2.33zM37.184 71.049c.598.094 1.007.654.913 1.252-.094.598-.654 1.007-1.252.913-.598-.094-1.007-.654-.913-1.252.094-.598.654-1.007 1.252-.913zM35.942 31.942c-.679-1.07-.362-2.487.708-3.166 1.07-.679 2.487-.362 3.166.708.679 1.07.362 2.487-.708 3.166-1.07.678-2.487.361-3.166-.708zM28.978 25.92c-.55-.867-.293-2.016.574-2.566.867-.55 2.016-.293 2.566.574.55.867.293 2.016-.574 2.566-.867.551-2.016.294-2.566-.574zM57.035 21.298c.488 1.729-.519 3.526-2.248 4.014-1.729.488-3.526-.519-4.014-2.248-.488-1.729.519-3.526 2.248-4.014 1.73-.488 3.527.519 4.014 2.248zM66.432 30.65c.488 1.729-.519 3.526-2.248 4.014-1.729.488-3.526-.519-4.014-2.248-.488-1.729.519-3.526 2.248-4.014 1.729-.488 3.526.519 4.014 2.248zM48.585 18.335c-.69.761-1.866.819-2.626.129-.761-.69-.819-1.866-.129-2.626.69-.761 1.866-.819 2.626-.129.76.689.818 1.865.129 2.626zM62.189 37.447c1.267.02 2.277 1.063 2.257 2.33-.02 1.267-1.063 2.277-2.33 2.257-1.267-.02-2.277-1.063-2.257-2.33.02-1.266 1.063-2.277 2.33-2.257zM71.045 34.931c1.027.016 1.846.862 1.83 1.889-.016 1.027-.862 1.846-1.889 1.83-1.027-.016-1.846-.862-1.83-1.889.017-1.027.862-1.846 1.889-1.83zM58.765 46.872c1.178-1.357 3.232-1.502 4.589-.324 1.357 1.178 1.502 3.232.324 4.589-1.178 1.357-3.232 1.502-4.589.324-1.356-1.177-1.502-3.232-.324-4.589zM50.268 54.062c.307-.98 1.35-1.526 2.33-1.219.98.307 1.526 1.35 1.219 2.33-.307.98-1.35 1.526-2.33 1.219-.981-.307-1.526-1.35-1.219-2.33zM51.111 42.497c.307-.98 1.35-1.526 2.33-1.219.98.307 1.526 1.35 1.219 2.33-.307.98-1.35 1.526-2.33 1.219-.981-.307-1.526-1.35-1.219-2.33zM30.52 64.356c-.128-1.792 1.221-3.348 3.013-3.476 1.792-.128 3.348 1.221 3.477 3.013.128 1.792-1.221 3.348-3.013 3.477-1.793.127-3.349-1.222-3.477-3.014zM41.045 39.583c-.128-1.792 1.221-3.348 3.013-3.476 1.792-.128 3.349 1.221 3.477 3.013.128 1.792-1.221 3.348-3.013 3.477-1.792.126-3.348-1.222-3.477-3.014zM21.931 57.85c-.073-1.024.698-1.914 1.722-1.987 1.024-.073 1.914.698 1.987 1.722.073 1.024-.698 1.914-1.722 1.987-1.024.073-1.914-.698-1.987-1.722zM17.751 51.529c-.073-1.024.698-1.914 1.722-1.987 1.024-.073 1.914.698 1.987 1.722.073 1.024-.698 1.914-1.722 1.987-1.024.073-1.914-.698-1.987-1.722zM40.129 50.676c-.477-.91-.125-2.033.784-2.51.91-.477 2.033-.126 2.51.784.477.91.125 2.033-.784 2.51-.909.476-2.033.125-2.51-.784zM32.541 41.908c-.477-.91-.126-2.033.784-2.51.91-.477 2.033-.126 2.51.784.477.91.125 2.033-.784 2.51-.91.477-2.033.126-2.51-.784zM25.044 65.508c.489-.357 1.174-.25 1.531.238.357.489.25 1.174-.238 1.531-.489.357-1.174.25-1.531-.238-.358-.488-.251-1.174.238-1.531zM19.396 39.575c-.477-.91-.125-2.033.784-2.51.91-.477 2.033-.126 2.51.784.477.91.125 2.033-.784 2.51-.91.476-2.034.125-2.51-.784zM70.376 62.702c.488 1.729-.519 3.526-2.248 4.014-1.729.488-3.526-.519-4.014-2.248-.488-1.729.519-3.526 2.248-4.014 1.73-.488 3.527.518 4.014 2.248zM26.777 80.787c17.791 12.183 42.09 7.637 54.273-10.153 12.183-17.791 7.637-42.09-10.154-54.273 0 0 22.422 22.475 3.331 51.674 0-.001-16.308 23.814-47.45 12.752" id="Shape"/></g><g transform="translate(806 156)"><circle id="Oval" fill="#fff" cx="49.067" cy="49.067" r="49.067"/><circle cx="39.043" cy="39.043" r="39.043" id="Oval" transform="translate(10 10)" fill="#F3B342"/><path d="M130.178 42.813c.544 4.655-2.788 8.87-7.443 9.414l-25.286 2.957c-4.655.544-8.87-2.788-9.414-7.443l-.131-1.124c-.544-4.655 2.788-8.87 7.443-9.414l25.286-2.957c4.655-.544 8.87 2.788 9.414 7.443l.131 1.124z" id="Shape" fill="#fff"/><g id="Shape"><path d="M41.869 74.109c1.178-1.357 3.232-1.502 4.589-.324 1.357 1.178 1.502 3.232.324 4.589-1.178 1.357-3.232 1.502-4.589.324-1.357-1.177-1.502-3.232-.324-4.589zM49.44 64.482c1.618-1.864 4.44-2.063 6.304-.445 1.864 1.618 2.063 4.44.445 6.304-1.618 1.864-4.44 2.063-6.304.445-1.864-1.617-2.063-4.44-.445-6.304z" id="Shape" fill="#F48348"/><path d="M25.273 45.114c1.178-1.357 3.232-1.502 4.589-.324 1.357 1.178 1.502 3.232.324 4.589-1.178 1.357-3.232 1.502-4.589.324-1.357-1.177-1.502-3.232-.324-4.589zM27.932 32.126c1.178-1.357 3.232-1.502 4.589-.324 1.357 1.178 1.502 3.232.324 4.589-1.178 1.357-3.232 1.502-4.589.324-1.357-1.178-1.502-3.232-.324-4.589z" id="Shape" fill="#F4A046"/><path d="M69.496 51.067c1.178-1.357 3.232-1.502 4.589-.324 1.357 1.178 1.502 3.232.324 4.589-1.178 1.357-3.232 1.502-4.589.324-1.357-1.178-1.502-3.232-.324-4.589z" id="Shape" fill="#F47F49"/><path d="M40.404 63.435c.673-.776 1.848-.858 2.623-.185.776.673.859 1.848.185 2.623-.673.776-1.848.858-2.623.185-.775-.673-.858-1.848-.185-2.623zM41.924 56.011c.673-.776 1.848-.858 2.623-.185.776.673.858 1.848.185 2.623-.673.776-1.848.858-2.623.185-.775-.673-.858-1.848-.185-2.623zM58.339 71.244c.307-.98 1.35-1.526 2.33-1.219.98.307 1.526 1.35 1.219 2.33-.307.98-1.35 1.526-2.33 1.219-.98-.307-1.526-1.35-1.219-2.33zM59.183 59.68c.307-.98 1.35-1.526 2.33-1.219.98.307 1.526 1.35 1.219 2.33-.307.98-1.35 1.526-2.33 1.219-.981-.307-1.526-1.35-1.219-2.33zM37.184 71.049c.598.094 1.007.654.913 1.252-.094.598-.654 1.007-1.252.913-.598-.094-1.007-.654-.913-1.252.094-.598.654-1.007 1.252-.913zM35.942 31.942c-.679-1.07-.362-2.487.708-3.166 1.07-.679 2.487-.362 3.166.708.679 1.07.362 2.487-.708 3.166-1.07.678-2.487.361-3.166-.708zM28.978 25.92c-.55-.867-.293-2.016.574-2.566.867-.55 2.016-.293 2.566.574.55.867.293 2.016-.574 2.566-.867.551-2.016.294-2.566-.574zM57.035 21.298c.488 1.729-.519 3.526-2.248 4.014-1.729.488-3.526-.519-4.014-2.248-.488-1.729.519-3.526 2.248-4.014 1.73-.488 3.527.519 4.014 2.248zM66.432 30.65c.488 1.729-.519 3.526-2.248 4.014-1.729.488-3.526-.519-4.014-2.248-.488-1.729.519-3.526 2.248-4.014 1.729-.488 3.526.519 4.014 2.248zM48.585 18.335c-.69.761-1.866.819-2.626.129-.761-.69-.819-1.866-.129-2.626.69-.761 1.866-.819 2.626-.129.76.689.818 1.865.129 2.626zM62.189 37.447c1.267.02 2.277 1.063 2.257 2.33-.02 1.267-1.063 2.277-2.33 2.257-1.267-.02-2.277-1.063-2.257-2.33.02-1.266 1.063-2.277 2.33-2.257zM71.045 34.931c1.027.016 1.846.862 1.83 1.889-.016 1.027-.862 1.846-1.889 1.83-1.027-.016-1.846-.862-1.83-1.889.017-1.027.862-1.846 1.889-1.83z" id="Shape" fill="#F4A046"/><path d="M58.765 46.872c1.178-1.357 3.232-1.502 4.589-.324 1.357 1.178 1.502 3.232.324 4.589-1.178 1.357-3.232 1.502-4.589.324-1.356-1.177-1.502-3.232-.324-4.589z" id="Shape" fill="#F47F49"/><path d="M50.268 54.062c.307-.98 1.35-1.526 2.33-1.219.98.307 1.526 1.35 1.219 2.33-.307.98-1.35 1.526-2.33 1.219-.981-.307-1.526-1.35-1.219-2.33zM51.111 42.497c.307-.98 1.35-1.526 2.33-1.219.98.307 1.526 1.35 1.219 2.33-.307.98-1.35 1.526-2.33 1.219-.981-.307-1.526-1.35-1.219-2.33z" id="Shape" fill="#F4A046"/><g id="Group"><path d="M30.52 64.356c-.128-1.792 1.221-3.348 3.013-3.476 1.792-.128 3.348 1.221 3.477 3.013.128 1.792-1.221 3.348-3.013 3.477-1.793.127-3.349-1.222-3.477-3.014z" id="Shape" fill="#F48348"/><path d="M41.045 39.583c-.128-1.792 1.221-3.348 3.013-3.476 1.792-.128 3.349 1.221 3.477 3.013.128 1.792-1.221 3.348-3.013 3.477-1.792.126-3.348-1.222-3.477-3.014z" id="Shape" fill="#F47F49"/><path d="M21.931 57.85c-.073-1.024.698-1.914 1.722-1.987 1.024-.073 1.914.698 1.987 1.722.073 1.024-.698 1.914-1.722 1.987-1.024.073-1.914-.698-1.987-1.722zM17.751 51.529c-.073-1.024.698-1.914 1.722-1.987 1.024-.073 1.914.698 1.987 1.722.073 1.024-.698 1.914-1.722 1.987-1.024.073-1.914-.698-1.987-1.722zM40.129 50.676c-.477-.91-.125-2.033.784-2.51.91-.477 2.033-.126 2.51.784.477.91.125 2.033-.784 2.51-.909.476-2.033.125-2.51-.784zM32.541 41.908c-.477-.91-.126-2.033.784-2.51.91-.477 2.033-.126 2.51.784.477.91.125 2.033-.784 2.51-.91.477-2.033.126-2.51-.784zM25.044 65.508c.489-.357 1.174-.25 1.531.238.357.489.25 1.174-.238 1.531-.489.357-1.174.25-1.531-.238-.358-.488-.251-1.174.238-1.531zM19.396 39.575c-.477-.91-.125-2.033.784-2.51.91-.477 2.033-.126 2.51.784.477.91.125 2.033-.784 2.51-.91.476-2.034.125-2.51-.784z" id="Shape" fill="#F4A046"/></g><path d="M70.376 62.702c.488 1.729-.519 3.526-2.248 4.014-1.729.488-3.526-.519-4.014-2.248-.488-1.729.519-3.526 2.248-4.014 1.73-.488 3.527.518 4.014 2.248z" id="Shape" fill="#F4A046"/></g><path d="M26.777 80.787c17.791 12.183 42.09 7.637 54.273-10.153 12.183-17.791 7.637-42.09-10.154-54.273 0 0 22.422 22.475 3.331 51.674 0-.001-16.308 23.814-47.45 12.752" id="Shape" fill="#F47E20"/></g></g></g><g id="Group"><g id="Shape" sketch:type="MSShapeGroup"><g id="Group" fill="#C07866"><path d="M330.644 120.847c.527 1.571-.319 3.271-1.89 3.798l-286.752 96.205c-1.571.527-3.271-.319-3.798-1.89l-33.236-99.065c-.527-1.571.319-3.271 1.89-3.798l286.752-96.204c1.571-.527 3.271.319 3.798 1.89l33.236 99.064zM35.74 121.86c.345 1.029-.702 2.308-2.339 2.857l-13.634 4.574c-1.637.549-3.244.16-3.589-.868l-1.125-3.353c-.345-1.029.702-2.308 2.339-2.857l13.634-4.574c1.637-.549 3.244-.16 3.589.868l1.125 3.353zM59.65 113.839c.345 1.029-.702 2.308-2.339 2.857l-13.634 4.574c-1.637.549-3.244.16-3.589-.868l-1.125-3.353c-.345-1.029.702-2.308 2.339-2.857l13.634-4.574c1.637-.549 3.244-.16 3.589.868l1.125 3.353zM83.559 105.817c.345 1.029-.702 2.308-2.339 2.857l-13.634 4.574c-1.637.549-3.244.16-3.589-.868l-1.125-3.353c-.345-1.029.702-2.308 2.339-2.857l13.634-4.574c1.637-.549 3.244-.16 3.589.868l1.125 3.353zM106.382 98.16c.345 1.029-.702 2.308-2.339 2.857l-13.634 4.574c-1.637.549-3.244.16-3.589-.868l-1.125-3.353c-.345-1.029.702-2.308 2.339-2.857l13.634-4.574c1.637-.549 3.244-.16 3.589.868l1.125 3.353zM34.74 119.86c.345 1.029-.702 2.308-2.339 2.857l-13.634 4.574c-1.637.549-3.244.16-3.589-.868l-1.125-3.353c-.345-1.029.702-2.308 2.339-2.857l13.634-4.574c1.637-.549 3.244-.16 3.589.868l1.125 3.353zM58.65 111.839c.345 1.029-.702 2.308-2.339 2.857l-13.634 4.574c-1.637.549-3.244.16-3.589-.868l-1.125-3.353c-.345-1.029.702-2.308 2.339-2.857l13.634-4.574c1.637-.549 3.244-.16 3.589.868l1.125 3.353zM82.559 103.817c.345 1.029-.702 2.308-2.339 2.857l-13.634 4.574c-1.637.549-3.244.16-3.589-.868l-1.125-3.353c-.345-1.029.702-2.308 2.339-2.857l13.634-4.574c1.637-.549 3.244-.16 3.589.868l1.125 3.353zM105.382 96.16c.345 1.029-.702 2.308-2.339 2.857l-13.634 4.574c-1.637.549-3.244.16-3.589-.868l-1.125-3.353c-.345-1.029.702-2.308 2.339-2.857l13.634-4.574c1.637-.549 3.244-.16 3.589.868l1.125 3.353zM129.593 90.677c.345 1.029-.702 2.308-2.339 2.857l-13.634 4.574c-1.637.549-3.244.16-3.589-.868l-1.125-3.353c-.345-1.029.702-2.308 2.339-2.857l13.634-4.574c1.637-.549 3.244-.16 3.589.868l1.125 3.353zM153.503 82.656c.345 1.029-.702 2.308-2.339 2.857l-13.634 4.574c-1.637.549-3.244.16-3.589-.868l-1.125-3.353c-.345-1.029.702-2.308 2.339-2.857l13.634-4.574c1.637-.549 3.244-.16 3.589.868l1.125 3.353zM177.412 74.634c.345 1.029-.702 2.308-2.339 2.857l-13.634 4.574c-1.637.549-3.244.16-3.589-.868l-1.125-3.353c-.345-1.029.702-2.308 2.339-2.857l13.634-4.574c1.637-.549 3.244-.16 3.589.868l1.125 3.353zM200.235 66.977c.345 1.029-.702 2.308-2.339 2.857l-13.634 4.574c-1.637.549-3.244.16-3.589-.868l-1.125-3.353c-.345-1.029.702-2.308 2.339-2.857l13.634-4.574c1.637-.549 3.244-.16 3.589.868l1.125 3.353zM128.593 88.677c.345 1.029-.702 2.308-2.339 2.857l-13.634 4.574c-1.637.549-3.244.16-3.589-.868l-1.125-3.353c-.345-1.029.702-2.308 2.339-2.857l13.634-4.574c1.637-.549 3.244-.16 3.589.868l1.125 3.353zM152.503 80.656c.345 1.029-.702 2.308-2.339 2.857l-13.634 4.574c-1.637.549-3.244.16-3.589-.868l-1.125-3.353c-.345-1.029.702-2.308 2.339-2.857l13.634-4.574c1.637-.549 3.244-.16 3.589.868l1.125 3.353zM176.412 72.634c.345 1.029-.702 2.308-2.339 2.857l-13.634 4.574c-1.637.549-3.244.16-3.589-.868l-1.125-3.353c-.345-1.029.702-2.308 2.339-2.857l13.634-4.574c1.637-.549 3.244-.16 3.589.868l1.125 3.353zM199.235 64.977c.345 1.029-.702 2.308-2.339 2.857l-13.634 4.574c-1.637.549-3.244.16-3.589-.868l-1.125-3.353c-.345-1.029.702-2.308 2.339-2.857l13.634-4.574c1.637-.549 3.244-.16 3.589.868l1.125 3.353zM222.84 59.393c.345 1.029-.702 2.308-2.339 2.857l-13.634 4.574c-1.637.549-3.244.16-3.589-.868l-1.125-3.353c-.345-1.029.702-2.308 2.339-2.857l13.634-4.574c1.637-.549 3.244-.16 3.589.868l1.125 3.353zM246.75 51.372c.345 1.029-.702 2.308-2.339 2.857l-13.634 4.574c-1.637.549-3.244.16-3.589-.868l-1.125-3.353c-.345-1.029.702-2.308 2.339-2.857l13.634-4.574c1.637-.549 3.244-.16 3.589.868l1.125 3.353zM270.659 43.35c.345 1.029-.702 2.308-2.339 2.857l-13.634 4.574c-1.637.549-3.244.16-3.589-.868l-1.125-3.353c-.345-1.029.702-2.308 2.339-2.857l13.634-4.574c1.637-.549 3.244-.16 3.589.868l1.125 3.353zM294.569 35.328c.345 1.029-.702 2.308-2.339 2.857l-13.634 4.574c-1.637.549-3.244.16-3.589-.868l-1.125-3.353c-.345-1.029.702-2.308 2.339-2.857l13.634-4.574c1.637-.549 3.244-.16 3.589.868l1.125 3.353zM221.84 57.393c.345 1.029-.702 2.308-2.339 2.857l-13.634 4.574c-1.637.549-3.244.16-3.589-.868l-1.125-3.353c-.345-1.029.702-2.308 2.339-2.857l13.634-4.574c1.637-.549 3.244-.16 3.589.868l1.125 3.353zM245.75 49.372c.345 1.029-.702 2.308-2.339 2.857l-13.634 4.574c-1.637.549-3.244.16-3.589-.868l-1.125-3.353c-.345-1.029.702-2.308 2.339-2.857l13.634-4.574c1.637-.549 3.244-.16 3.589.868l1.125 3.353zM269.659 41.35c.345 1.029-.702 2.308-2.339 2.857l-13.634 4.574c-1.637.549-3.244.16-3.589-.868l-1.125-3.353c-.345-1.029.702-2.308 2.339-2.857l13.634-4.574c1.637-.549 3.244-.16 3.589.868l1.125 3.353zM293.569 33.328c.345 1.029-.702 2.308-2.339 2.857l-13.634 4.574c-1.637.549-3.244.16-3.589-.868l-1.125-3.353c-.345-1.029.702-2.308 2.339-2.857l13.634-4.574c1.637-.549 3.244-.16 3.589.868l1.125 3.353zM206.324 80.541c.599 1.785-.065 3.618-1.482 4.093l-11.805 3.961c-1.417.476-3.052-.586-3.651-2.371l-1.952-5.818c-.599-1.785.065-3.618 1.482-4.093l11.805-3.961c1.417-.476 3.052.586 3.651 2.371l1.952 5.818zM227.376 73.478c.599 1.785-.065 3.618-1.482 4.093l-11.805 3.961c-1.417.476-3.052-.586-3.651-2.371l-1.952-5.818c-.599-1.785.065-3.618 1.482-4.093l11.805-3.961c1.417-.476 3.052.586 3.651 2.371l1.952 5.818zM248.427 66.415c.599 1.785-.065 3.618-1.482 4.093l-11.805 3.961c-1.417.476-3.052-.586-3.651-2.371l-1.952-5.818c-.599-1.785.065-3.618 1.482-4.093l11.805-3.961c1.417-.476 3.052.586 3.651 2.371l1.952 5.818zM269.479 59.353c.599 1.785-.065 3.618-1.482 4.093l-11.805 3.961c-1.417.476-3.052-.586-3.651-2.371l-1.952-5.818c-.599-1.785.065-3.618 1.482-4.093l11.805-3.961c1.417-.476 3.052.586 3.651 2.371l1.952 5.818zM122.119 108.791c.599 1.785-.065 3.618-1.482 4.093l-11.805 3.961c-1.417.476-3.052-.586-3.651-2.371l-1.952-5.818c-.599-1.785.065-3.618 1.482-4.093l11.805-3.961c1.417-.476 3.052.586 3.651 2.371l1.952 5.818zM143.17 101.729c.599 1.785-.065 3.618-1.482 4.093l-11.805 3.961c-1.417.476-3.052-.586-3.651-2.371l-1.952-5.818c-.599-1.785.065-3.618 1.482-4.093l11.805-3.961c1.417-.476 3.052.586 3.651 2.371l1.952 5.818zM164.222 94.666c.599 1.785-.065 3.618-1.482 4.093l-11.805 3.961c-1.417.476-3.052-.586-3.651-2.371l-1.952-5.818c-.599-1.785.065-3.618 1.482-4.093l11.805-3.961c1.417-.476 3.052.586 3.651 2.371l1.952 5.818zM185.273 87.603c.599 1.785-.065 3.618-1.482 4.093l-11.805 3.961c-1.417.476-3.052-.586-3.651-2.371l-1.952-5.818c-.599-1.785.065-3.618 1.482-4.093l11.805-3.961c1.417-.476 3.052.586 3.651 2.371l1.952 5.818zM37.913 137.042c.599 1.785-.065 3.618-1.482 4.093l-11.805 3.961c-1.417.476-3.052-.586-3.651-2.371l-1.952-5.818c-.599-1.785.065-3.618 1.482-4.093l11.805-3.961c1.417-.476 3.052.586 3.651 2.371l1.952 5.818zM58.965 129.979c.599 1.785-.065 3.618-1.482 4.093l-11.805 3.961c-1.417.476-3.052-.586-3.651-2.371l-1.952-5.818c-.599-1.785.065-3.618 1.482-4.093l11.805-3.961c1.417-.476 3.052.586 3.651 2.371l1.952 5.818zM80.016 122.917c.599 1.785-.065 3.618-1.482 4.093l-11.805 3.961c-1.417.476-3.052-.586-3.651-2.371l-1.952-5.818c-.599-1.785.065-3.618 1.482-4.093l11.805-3.961c1.417-.476 3.052.586 3.651 2.371l1.952 5.818zM101.068 115.854c.599 1.785-.065 3.618-1.482 4.093l-11.805 3.961c-1.417.476-3.052-.586-3.651-2.371l-1.952-5.818c-.599-1.785.065-3.618 1.482-4.093l11.805-3.961c1.417-.476 3.052.586 3.651 2.371l1.952 5.818zM205.324 78.541c.599 1.785-.065 3.618-1.482 4.093l-11.805 3.961c-1.417.476-3.052-.586-3.651-2.371l-1.952-5.818c-.599-1.785.065-3.618 1.482-4.093l11.805-3.961c1.417-.476 3.052.586 3.651 2.371l1.952 5.818zM226.376 71.478c.599 1.785-.065 3.618-1.482 4.093l-11.805 3.961c-1.417.476-3.052-.586-3.651-2.371l-1.952-5.818c-.599-1.785.065-3.618 1.482-4.093l11.805-3.961c1.417-.476 3.052.586 3.651 2.371l1.952 5.818zM247.427 64.415c.599 1.785-.065 3.618-1.482 4.093l-11.805 3.961c-1.417.476-3.052-.586-3.651-2.371l-1.952-5.818c-.599-1.785.065-3.618 1.482-4.093l11.805-3.961c1.417-.476 3.052.586 3.651 2.371l1.952 5.818zM268.479 57.353c.599 1.785-.065 3.618-1.482 4.093l-11.805 3.961c-1.417.476-3.052-.586-3.651-2.371l-1.952-5.818c-.599-1.785.065-3.618 1.482-4.093l11.805-3.961c1.417-.476 3.052.586 3.651 2.371l1.952 5.818zM121.119 106.791c.599 1.785-.065 3.618-1.482 4.093l-11.805 3.961c-1.417.476-3.052-.586-3.651-2.371l-1.952-5.818c-.599-1.785.065-3.618 1.482-4.093l11.805-3.961c1.417-.476 3.052.586 3.651 2.371l1.952 5.818zM142.17 99.729c.599 1.785-.065 3.618-1.482 4.093l-11.805 3.961c-1.417.476-3.052-.586-3.651-2.371l-1.952-5.818c-.599-1.785.065-3.618 1.482-4.093l11.805-3.961c1.417-.476 3.052.586 3.651 2.371l1.952 5.818zM163.222 92.666c.599 1.785-.065 3.618-1.482 4.093l-11.805 3.961c-1.417.476-3.052-.586-3.651-2.371l-1.952-5.818c-.599-1.785.065-3.618 1.482-4.093l11.805-3.961c1.417-.476 3.052.586 3.651 2.371l1.952 5.818zM184.273 85.603c.599 1.785-.065 3.618-1.482 4.093l-11.805 3.961c-1.417.476-3.052-.586-3.651-2.371l-1.952-5.818c-.599-1.785.065-3.618 1.482-4.093l11.805-3.961c1.417-.476 3.052.586 3.651 2.371l1.952 5.818zM36.913 135.042c.599 1.785-.065 3.618-1.482 4.093l-11.805 3.961c-1.417.476-3.052-.586-3.651-2.371l-1.952-5.818c-.599-1.785.065-3.618 1.482-4.093l11.805-3.961c1.417-.476 3.052.586 3.651 2.371l1.952 5.818zM57.965 127.979c.599 1.785-.065 3.618-1.482 4.093l-11.805 3.961c-1.417.476-3.052-.586-3.651-2.371l-1.952-5.818c-.599-1.785.065-3.618 1.482-4.093l11.805-3.961c1.417-.476 3.052.586 3.651 2.371l1.952 5.818zM79.016 120.917c.599 1.785-.065 3.618-1.482 4.093l-11.805 3.961c-1.417.476-3.052-.586-3.651-2.371l-1.952-5.818c-.599-1.785.065-3.618 1.482-4.093l11.805-3.961c1.417-.476 3.052.586 3.651 2.371l1.952 5.818zM100.068 113.854c.599 1.785-.065 3.618-1.482 4.093l-11.805 3.961c-1.417.476-3.052-.586-3.651-2.371l-1.952-5.818c-.599-1.785.065-3.618 1.482-4.093l11.805-3.961c1.417-.476 3.052.586 3.651 2.371l1.952 5.818zM299.405 49.744c.527 1.571-.319 3.271-1.89 3.798l-19.649 6.592c-1.571.527-3.271-.319-3.798-1.89l-2.212-6.593c-.527-1.571.319-3.271 1.89-3.798l19.649-6.592c1.571-.527 3.271.319 3.798 1.89l2.212 6.593zM298.405 47.744c.527 1.571-.319 3.271-1.89 3.798l-19.649 6.592c-1.571.527-3.271-.319-3.798-1.89l-2.212-6.593c-.527-1.571.319-3.271 1.89-3.798l19.649-6.592c1.571-.527 3.271.319 3.798 1.89l2.212 6.593zM241.146 86.438c.599 1.785-.065 3.618-1.482 4.093l-11.805 3.961c-1.417.476-3.052-.586-3.651-2.371l-1.952-5.818c-.599-1.785.065-3.618 1.482-4.093l11.805-3.961c1.417-.476 3.052.586 3.651 2.371l1.952 5.818zM262.197 79.375c.599 1.785-.065 3.618-1.482 4.093l-11.805 3.961c-1.417.476-3.052-.586-3.651-2.371l-1.952-5.818c-.599-1.785.065-3.618 1.482-4.093l11.805-3.961c1.417-.476 3.052.586 3.651 2.371l1.952 5.818zM283.249 72.313c.599 1.785-.065 3.618-1.482 4.093l-11.805 3.961c-1.417.476-3.052-.586-3.651-2.371l-1.952-5.818c-.599-1.785.065-3.618 1.482-4.093l11.805-3.961c1.417-.476 3.052.586 3.651 2.371l1.952 5.818zM304.3 65.25c.599 1.785-.065 3.618-1.482 4.093l-11.805 3.961c-1.417.476-3.052-.586-3.651-2.371l-1.952-5.818c-.599-1.785.065-3.618 1.482-4.093l11.805-3.961c1.417-.476 3.052.586 3.651 2.371l1.952 5.818zM156.94 114.689c.599 1.785-.065 3.618-1.482 4.093l-11.805 3.961c-1.417.476-3.052-.586-3.651-2.371l-1.952-5.818c-.599-1.785.065-3.618 1.482-4.093l11.805-3.961c1.417-.476 3.052.586 3.651 2.371l1.952 5.818zM177.992 107.626c.599 1.785-.065 3.618-1.482 4.093l-11.805 3.961c-1.417.476-3.052-.586-3.651-2.371l-1.952-5.818c-.599-1.785.065-3.618 1.482-4.093l11.805-3.961c1.417-.476 3.052.586 3.651 2.371l1.952 5.818zM199.043 100.563c.599 1.785-.065 3.618-1.482 4.093l-11.805 3.961c-1.417.476-3.052-.586-3.651-2.371l-1.952-5.818c-.599-1.785.065-3.618 1.482-4.093l11.805-3.961c1.417-.476 3.052.586 3.651 2.371l1.952 5.818zM220.094 93.501c.599 1.785-.065 3.618-1.482 4.093l-11.805 3.961c-1.417.476-3.052-.586-3.651-2.371l-1.952-5.818c-.599-1.785.065-3.618 1.482-4.093l11.805-3.961c1.417-.476 3.052.586 3.651 2.371l1.952 5.818zM72.735 142.939c.599 1.785-.065 3.618-1.482 4.093l-11.805 3.961c-1.417.476-3.052-.586-3.651-2.371l-1.952-5.818c-.599-1.785.065-3.618 1.482-4.093l11.805-3.961c1.417-.475 3.052.586 3.651 2.371l1.952 5.818zM93.786 135.877c.599 1.785-.065 3.618-1.482 4.093l-11.805 3.961c-1.417.476-3.052-.586-3.651-2.371l-1.952-5.818c-.599-1.785.065-3.618 1.482-4.093l11.805-3.961c1.417-.476 3.052.586 3.651 2.371l1.952 5.818zM114.838 128.814c.599 1.785-.065 3.618-1.482 4.093l-11.805 3.961c-1.417.476-3.052-.586-3.651-2.371l-1.952-5.818c-.599-1.785.065-3.618 1.482-4.093l11.805-3.961c1.417-.476 3.052.586 3.651 2.371l1.952 5.818zM135.889 121.751c.599 1.785-.065 3.618-1.482 4.093l-11.805 3.961c-1.417.476-3.052-.586-3.651-2.371l-1.951-5.818c-.599-1.785.065-3.618 1.482-4.093l11.805-3.961c1.417-.476 3.052.586 3.651 2.371l1.951 5.818zM51.745 150.413c.527 1.571-.319 3.271-1.89 3.798l-19.649 6.592c-1.571.527-3.271-.319-3.798-1.89l-2.212-6.593c-.527-1.571.319-3.271 1.89-3.798l19.649-6.592c1.571-.527 3.271.319 3.798 1.89l2.212 6.593zM240.146 84.438c.599 1.785-.065 3.618-1.482 4.093l-11.805 3.961c-1.417.476-3.052-.586-3.651-2.371l-1.952-5.818c-.599-1.785.065-3.618 1.482-4.093l11.805-3.961c1.417-.476 3.052.586 3.651 2.371l1.952 5.818zM261.197 77.375c.599 1.785-.065 3.618-1.482 4.093l-11.805 3.961c-1.417.476-3.052-.586-3.651-2.371l-1.952-5.818c-.599-1.785.065-3.618 1.482-4.093l11.805-3.961c1.417-.476 3.052.586 3.651 2.371l1.952 5.818zM282.249 70.313c.599 1.785-.065 3.618-1.482 4.093l-11.805 3.961c-1.417.476-3.052-.586-3.651-2.371l-1.952-5.818c-.599-1.785.065-3.618 1.482-4.093l11.805-3.961c1.417-.476 3.052.586 3.651 2.371l1.952 5.818zM303.3 63.25c.599 1.785-.065 3.618-1.482 4.093l-11.805 3.961c-1.417.476-3.052-.586-3.651-2.371l-1.952-5.818c-.599-1.785.065-3.618 1.482-4.093l11.805-3.961c1.417-.476 3.052.586 3.651 2.371l1.952 5.818zM155.94 112.689c.599 1.785-.065 3.618-1.482 4.093l-11.805 3.961c-1.417.476-3.052-.586-3.651-2.371l-1.952-5.818c-.599-1.785.065-3.618 1.482-4.093l11.805-3.961c1.417-.476 3.052.586 3.651 2.371l1.952 5.818zM176.992 105.626c.599 1.785-.065 3.618-1.482 4.093l-11.805 3.961c-1.417.476-3.052-.586-3.651-2.371l-1.952-5.818c-.599-1.785.065-3.618 1.482-4.093l11.805-3.961c1.417-.476 3.052.586 3.651 2.371l1.952 5.818zM198.043 98.563c.599 1.785-.065 3.618-1.482 4.093l-11.805 3.961c-1.417.476-3.052-.586-3.651-2.371l-1.952-5.818c-.599-1.785.065-3.618 1.482-4.093l11.805-3.961c1.417-.476 3.052.586 3.651 2.371l1.952 5.818zM219.094 91.501c.599 1.785-.065 3.618-1.482 4.093l-11.805 3.961c-1.417.476-3.052-.586-3.651-2.371l-1.952-5.818c-.599-1.785.065-3.618 1.482-4.093l11.805-3.961c1.417-.476 3.052.586 3.651 2.371l1.952 5.818zM71.735 140.939c.599 1.785-.065 3.618-1.482 4.093l-11.805 3.961c-1.417.476-3.052-.586-3.651-2.371l-1.952-5.818c-.599-1.785.065-3.618 1.482-4.093l11.805-3.961c1.417-.475 3.052.586 3.651 2.371l1.952 5.818zM92.786 133.877c.599 1.785-.065 3.618-1.482 4.093l-11.805 3.961c-1.417.476-3.052-.586-3.651-2.371l-1.952-5.818c-.599-1.785.065-3.618 1.482-4.093l11.805-3.961c1.417-.476 3.052.586 3.651 2.371l1.952 5.818zM113.838 126.814c.599 1.785-.065 3.618-1.482 4.093l-11.805 3.961c-1.417.476-3.052-.586-3.651-2.371l-1.952-5.818c-.599-1.785.065-3.618 1.482-4.093l11.805-3.961c1.417-.476 3.052.586 3.651 2.371l1.952 5.818zM134.889 119.751c.599 1.785-.065 3.618-1.482 4.093l-11.805 3.961c-1.417.476-3.052-.586-3.651-2.371l-1.951-5.818c-.599-1.785.065-3.618 1.482-4.093l11.805-3.961c1.417-.476 3.052.586 3.651 2.371l1.951 5.818zM50.745 148.413c.527 1.571-.319 3.271-1.89 3.798l-19.649 6.592c-1.571.527-3.271-.319-3.798-1.89l-2.212-6.593c-.527-1.571.319-3.271 1.89-3.798l19.649-6.592c1.571-.527 3.271.319 3.798 1.89l2.212 6.593zM64.18 165.36c.351 1.047-.213 2.181-1.26 2.532l-28.215 9.466c-1.047.351-2.181-.213-2.532-1.26l-2.848-8.49c-.351-1.047.213-2.181 1.26-2.532l28.215-9.466c1.047-.351 2.181.213 2.532 1.26l2.848 8.49zM63.18 163.36c.351 1.047-.213 2.181-1.26 2.532l-28.215 9.466c-1.047.351-2.181-.213-2.532-1.26l-2.848-8.49c-.351-1.047.213-2.181 1.26-2.532l28.215-9.466c1.047-.351 2.181.213 2.532 1.26l2.848 8.49zM254.941 99.874c.599 1.785-.065 3.618-1.482 4.093l-11.805 3.961c-1.417.476-3.052-.586-3.651-2.371l-1.952-5.818c-.599-1.785.065-3.618 1.482-4.093l11.805-3.961c1.417-.476 3.052.586 3.651 2.371l1.952 5.818zM275.993 92.811c.599 1.785-.065 3.618-1.482 4.093l-11.805 3.961c-1.417.476-3.052-.586-3.651-2.371l-1.952-5.818c-.599-1.785.065-3.618 1.482-4.093l11.805-3.961c1.417-.476 3.052.586 3.651 2.371l1.952 5.818zM170.736 128.124c.599 1.785-.065 3.618-1.482 4.093l-11.805 3.961c-1.417.476-3.052-.586-3.651-2.371l-1.952-5.818c-.599-1.785.065-3.618 1.482-4.093l11.805-3.961c1.417-.476 3.052.586 3.651 2.371l1.952 5.818zM191.787 121.062c.599 1.785-.065 3.618-1.482 4.093l-11.805 3.961c-1.417.476-3.052-.586-3.651-2.371l-1.952-5.818c-.599-1.785.065-3.618 1.482-4.093l11.805-3.961c1.417-.476 3.052.586 3.651 2.371l1.952 5.818zM212.839 113.999c.599 1.785-.065 3.618-1.482 4.093l-11.805 3.961c-1.417.476-3.052-.586-3.651-2.371l-1.952-5.818c-.599-1.785.065-3.618 1.482-4.093l11.805-3.961c1.417-.476 3.052.586 3.651 2.371l1.952 5.818zM233.89 106.936c.599 1.785-.065 3.618-1.482 4.093l-11.805 3.961c-1.417.476-3.052-.586-3.651-2.371l-1.952-5.818c-.599-1.785.065-3.618 1.482-4.093l11.805-3.961c1.417-.476 3.052.586 3.651 2.371l1.952 5.818zM86.53 156.375c.599 1.785-.065 3.618-1.482 4.093l-11.805 3.961c-1.417.475-3.052-.586-3.651-2.371l-1.952-5.818c-.599-1.785.065-3.618 1.482-4.093l11.805-3.961c1.417-.476 3.052.586 3.651 2.371l1.952 5.818zM107.582 149.312c.599 1.785-.065 3.618-1.482 4.093l-11.805 3.961c-1.417.476-3.052-.586-3.651-2.371l-1.952-5.818c-.599-1.785.065-3.618 1.482-4.093l11.805-3.961c1.417-.476 3.052.586 3.651 2.371l1.952 5.818zM128.633 142.25c.599 1.785-.065 3.618-1.482 4.093l-11.805 3.961c-1.417.475-3.052-.586-3.651-2.371l-1.952-5.818c-.599-1.785.065-3.618 1.482-4.093l11.805-3.961c1.417-.476 3.052.586 3.651 2.371l1.952 5.818zM149.684 135.187c.599 1.785-.065 3.618-1.482 4.093l-11.805 3.961c-1.417.476-3.052-.586-3.651-2.371l-1.952-5.818c-.599-1.785.065-3.618 1.482-4.093l11.805-3.961c1.417-.476 3.052.586 3.651 2.371l1.952 5.818zM253.941 97.874c.599 1.785-.065 3.618-1.482 4.093l-11.805 3.961c-1.417.476-3.052-.586-3.651-2.371l-1.952-5.818c-.599-1.785.065-3.618 1.482-4.093l11.805-3.961c1.417-.476 3.052.586 3.651 2.371l1.952 5.818zM274.993 90.811c.599 1.785-.065 3.618-1.482 4.093l-11.805 3.961c-1.417.476-3.052-.586-3.651-2.371l-1.952-5.818c-.599-1.785.065-3.618 1.482-4.093l11.805-3.961c1.417-.476 3.052.586 3.651 2.371l1.952 5.818zM169.736 126.124c.599 1.785-.065 3.618-1.482 4.093l-11.805 3.961c-1.417.476-3.052-.586-3.651-2.371l-1.952-5.818c-.599-1.785.065-3.618 1.482-4.093l11.805-3.961c1.417-.476 3.052.586 3.651 2.371l1.952 5.818zM190.787 119.062c.599 1.785-.065 3.618-1.482 4.093l-11.805 3.961c-1.417.476-3.052-.586-3.651-2.371l-1.952-5.818c-.599-1.785.065-3.618 1.482-4.093l11.805-3.961c1.417-.476 3.052.586 3.651 2.371l1.952 5.818zM211.839 111.999c.599 1.785-.065 3.618-1.482 4.093l-11.805 3.961c-1.417.476-3.052-.586-3.651-2.371l-1.952-5.818c-.599-1.785.065-3.618 1.482-4.093l11.805-3.961c1.417-.476 3.052.586 3.651 2.371l1.952 5.818zM232.89 104.936c.599 1.785-.065 3.618-1.482 4.093l-11.805 3.961c-1.417.476-3.052-.586-3.651-2.371l-1.952-5.818c-.599-1.785.065-3.618 1.482-4.093l11.805-3.961c1.417-.476 3.052.586 3.651 2.371l1.952 5.818zM85.53 154.375c.599 1.785-.065 3.618-1.482 4.093l-11.805 3.961c-1.417.475-3.052-.586-3.651-2.371l-1.952-5.818c-.599-1.785.065-3.618 1.482-4.093l11.805-3.961c1.417-.476 3.052.586 3.651 2.371l1.952 5.818zM106.582 147.312c.599 1.785-.065 3.618-1.482 4.093l-11.805 3.961c-1.417.476-3.052-.586-3.651-2.371l-1.952-5.818c-.599-1.785.065-3.618 1.482-4.093l11.805-3.961c1.417-.476 3.052.586 3.651 2.371l1.952 5.818zM127.633 140.25c.599 1.785-.065 3.618-1.482 4.093l-11.805 3.961c-1.417.475-3.052-.586-3.651-2.371l-1.952-5.818c-.599-1.785.065-3.618 1.482-4.093l11.805-3.961c1.417-.476 3.052.586 3.651 2.371l1.952 5.818zM148.684 133.187c.599 1.785-.065 3.618-1.482 4.093l-11.805 3.961c-1.417.476-3.052-.586-3.651-2.371l-1.952-5.818c-.599-1.785.065-3.618 1.482-4.093l11.805-3.961c1.417-.476 3.052.586 3.651 2.371l1.952 5.818zM310.472 82.73c.351 1.047-.154 2.161-1.129 2.488l-26.266 8.812c-.975.327-2.05-.257-2.401-1.304l-2.848-8.49c-.351-1.047.154-2.161 1.129-2.488l26.266-8.812c.975-.327 2.05.257 2.401 1.304l2.848 8.49zM309.472 80.73c.351 1.047-.154 2.161-1.129 2.488l-26.266 8.812c-.975.327-2.05-.257-2.401-1.304l-2.848-8.49c-.351-1.047.154-2.161 1.129-2.488l26.266-8.812c.975-.327 2.05.257 2.401 1.304l2.848 8.49zM251.874 118.415c.599 1.785-.065 3.618-1.482 4.093l-11.805 3.961c-1.417.476-3.052-.586-3.651-2.371l-1.952-5.818c-.599-1.785.065-3.618 1.482-4.093l11.805-3.961c1.417-.476 3.052.586 3.651 2.371l1.952 5.818zM167.669 146.666c.599 1.785-.065 3.618-1.482 4.093l-11.805 3.961c-1.417.476-3.052-.586-3.651-2.371l-1.952-5.818c-.599-1.785.065-3.618 1.482-4.093l11.805-3.961c1.417-.476 3.052.586 3.651 2.371l1.952 5.818zM188.72 139.603c.599 1.785-.065 3.618-1.482 4.093l-11.805 3.961c-1.417.476-3.052-.586-3.651-2.371l-1.952-5.818c-.599-1.785.065-3.618 1.482-4.093l11.805-3.961c1.417-.476 3.052.586 3.651 2.371l1.952 5.818zM209.771 132.541c.599 1.785-.065 3.618-1.482 4.093l-11.805 3.961c-1.417.476-3.052-.586-3.651-2.371l-1.952-5.818c-.599-1.785.065-3.618 1.482-4.093l11.805-3.961c1.417-.476 3.052.586 3.651 2.371l1.952 5.818zM230.823 125.478c.599 1.785-.065 3.618-1.482 4.093l-11.805 3.961c-1.417.476-3.052-.586-3.651-2.371l-1.952-5.818c-.599-1.785.065-3.618 1.482-4.093l11.805-3.961c1.417-.476 3.052.586 3.651 2.371l1.952 5.818zM104.514 167.854c.599 1.785-.065 3.618-1.482 4.093l-11.805 3.961c-1.417.476-3.052-.586-3.651-2.371l-1.952-5.818c-.599-1.785.065-3.618 1.482-4.093l11.805-3.961c1.417-.476 3.052.586 3.651 2.371l1.952 5.818zM125.566 160.791c.599 1.785-.065 3.618-1.482 4.093l-11.805 3.961c-1.417.476-3.052-.586-3.651-2.371l-1.952-5.818c-.599-1.785.065-3.618 1.482-4.093l11.805-3.961c1.417-.476 3.052.586 3.651 2.371l1.952 5.818zM146.617 153.729c.599 1.785-.065 3.618-1.482 4.093l-11.805 3.961c-1.417.476-3.052-.586-3.651-2.371l-1.952-5.818c-.599-1.785.065-3.618 1.482-4.093l11.805-3.961c1.417-.476 3.052.586 3.651 2.371l1.952 5.818zM272.805 111.393c.599 1.785-.065 3.618-1.482 4.093l-11.805 3.961c-1.417.476-3.052-.586-3.651-2.371l-1.952-5.818c-.599-1.785.065-3.618 1.482-4.093l11.805-3.961c1.417-.476 3.052.586 3.651 2.371l1.952 5.818zM250.874 116.415c.599 1.785-.065 3.618-1.482 4.093l-11.805 3.961c-1.417.476-3.052-.586-3.651-2.371l-1.952-5.818c-.599-1.785.065-3.618 1.482-4.093l11.805-3.961c1.417-.476 3.052.586 3.651 2.371l1.952 5.818zM166.669 144.666c.599 1.785-.065 3.618-1.482 4.093l-11.805 3.961c-1.417.476-3.052-.586-3.651-2.371l-1.952-5.818c-.599-1.785.065-3.618 1.482-4.093l11.805-3.961c1.417-.476 3.052.586 3.651 2.371l1.952 5.818zM187.72 137.603c.599 1.785-.065 3.618-1.482 4.093l-11.805 3.961c-1.417.476-3.052-.586-3.651-2.371l-1.952-5.818c-.599-1.785.065-3.618 1.482-4.093l11.805-3.961c1.417-.476 3.052.586 3.651 2.371l1.952 5.818zM208.771 130.541c.599 1.785-.065 3.618-1.482 4.093l-11.805 3.961c-1.417.476-3.052-.586-3.651-2.371l-1.952-5.818c-.599-1.785.065-3.618 1.482-4.093l11.805-3.961c1.417-.476 3.052.586 3.651 2.371l1.952 5.818zM229.823 123.478c.599 1.785-.065 3.618-1.482 4.093l-11.805 3.961c-1.417.476-3.052-.586-3.651-2.371l-1.952-5.818c-.599-1.785.065-3.618 1.482-4.093l11.805-3.961c1.417-.476 3.052.586 3.651 2.371l1.952 5.818zM103.514 165.854c.599 1.785-.065 3.618-1.482 4.093l-11.805 3.961c-1.417.476-3.052-.586-3.651-2.371l-1.952-5.818c-.599-1.785.065-3.618 1.482-4.093l11.805-3.961c1.417-.476 3.052.586 3.651 2.371l1.952 5.818zM124.566 158.791c.599 1.785-.065 3.618-1.482 4.093l-11.805 3.961c-1.417.476-3.052-.586-3.651-2.371l-1.952-5.818c-.599-1.785.065-3.618 1.482-4.093l11.805-3.961c1.417-.476 3.052.586 3.651 2.371l1.952 5.818zM145.617 151.729c.599 1.785-.065 3.618-1.482 4.093l-11.805 3.961c-1.417.476-3.052-.586-3.651-2.371l-1.952-5.818c-.599-1.785.065-3.618 1.482-4.093l11.805-3.961c1.417-.476 3.052.586 3.651 2.371l1.952 5.818zM271.805 109.393c.599 1.785-.065 3.618-1.482 4.093l-11.805 3.961c-1.417.476-3.052-.586-3.651-2.371l-1.952-5.818c-.599-1.785.065-3.618 1.482-4.093l11.805-3.961c1.417-.476 3.052.586 3.651 2.371l1.952 5.818zM266.365 131.419c.599 1.785-.065 3.618-1.482 4.093l-11.805 3.961c-1.417.476-3.052-.586-3.651-2.371l-1.952-5.818c-.599-1.785.065-3.618 1.482-4.093l11.805-3.961c1.417-.476 3.052.586 3.651 2.371l1.952 5.818zM286.468 124.674c.599 1.785-.065 3.618-1.482 4.093l-11.805 3.961c-1.417.476-3.052-.586-3.651-2.371l-1.952-5.818c-.599-1.785.065-3.618 1.482-4.093l11.805-3.961c1.417-.476 3.052.586 3.651 2.371l1.952 5.818zM59.644 200.773c.599 1.785-.065 3.618-1.482 4.093l-11.805 3.961c-1.417.476-3.052-.586-3.651-2.371l-1.952-5.818c-.599-1.785.065-3.618 1.482-4.093l11.805-3.961c1.417-.476 3.052.586 3.651 2.371l1.952 5.818zM80.695 193.711c.599 1.785-.065 3.618-1.482 4.093l-11.805 3.961c-1.417.476-3.052-.586-3.651-2.371l-1.952-5.818c-.599-1.785.065-3.618 1.482-4.093l11.805-3.961c1.417-.476 3.052.586 3.651 2.371l1.952 5.818zM101.746 186.648c.599 1.785-.065 3.618-1.482 4.093l-11.805 3.961c-1.417.476-3.052-.586-3.651-2.371l-1.952-5.818c-.599-1.785.065-3.618 1.482-4.093l11.805-3.961c1.417-.476 3.052.586 3.651 2.371l1.952 5.818zM122.798 179.585c.599 1.785-.065 3.618-1.482 4.093l-11.805 3.961c-1.417.476-3.052-.586-3.651-2.371l-1.952-5.818c-.599-1.785.065-3.618 1.482-4.093l11.805-3.961c1.417-.476 3.052.586 3.651 2.371l1.952 5.818zM9.672 188.55l.632-.212-.632.212zM246.86 138.395c.527 1.571-.319 3.271-1.89 3.798l-115.085 38.611c-1.571.527-3.271-.319-3.798-1.89l-2.212-6.593c-.527-1.571.319-3.271 1.89-3.798l115.085-38.611c1.571-.527 3.271.319 3.798 1.89l2.212 6.593zM310.375 118.984c.29.864-.136 1.786-.951 2.059l-6.79 2.278c-.815.273-1.711-.205-2.001-1.069l-.945-2.815c-.29-.864.136-1.786.951-2.059l6.79-2.278c.815-.273 1.711.205 2.001 1.069l.945 2.815zM307.787 111.272c.29.864-.136 1.786-.951 2.059l-6.79 2.278c-.815.273-1.711-.205-2.001-1.069l-.945-2.815c-.29-.864.136-1.786.951-2.059l6.79-2.278c.815-.273 1.711.205 2.001 1.069l.945 2.815zM298.839 122.854c.29.864-.136 1.786-.951 2.059l-6.79 2.278c-.815.273-1.711-.205-2.001-1.069l-.945-2.815c-.29-.864.136-1.786.951-2.059l6.79-2.278c.815-.273 1.711.205 2.001 1.069l.945 2.815zM321.669 115.194c.29.864-.136 1.786-.951 2.059l-6.79 2.278c-.815.273-1.711-.205-2.001-1.069l-.945-2.815c-.29-.864.136-1.786.951-2.059l6.79-2.278c.815-.273 1.711.205 2.001 1.069l.945 2.815zM265.365 129.419c.599 1.785-.065 3.618-1.482 4.093l-11.805 3.961c-1.417.476-3.052-.586-3.651-2.371l-1.952-5.818c-.599-1.785.065-3.618 1.482-4.093l11.805-3.961c1.417-.476 3.052.586 3.651 2.371l1.952 5.818zM285.468 122.674c.599 1.785-.065 3.618-1.482 4.093l-11.805 3.961c-1.417.476-3.052-.586-3.651-2.371l-1.952-5.818c-.599-1.785.065-3.618 1.482-4.093l11.805-3.961c1.417-.476 3.052.586 3.651 2.371l1.952 5.818zM58.644 198.773c.599 1.785-.065 3.618-1.482 4.093l-11.805 3.961c-1.417.476-3.052-.586-3.651-2.371l-1.952-5.818c-.599-1.785.065-3.618 1.482-4.093l11.805-3.961c1.417-.476 3.052.586 3.651 2.371l1.952 5.818zM79.695 191.711c.599 1.785-.065 3.618-1.482 4.093l-11.805 3.961c-1.417.476-3.052-.586-3.651-2.371l-1.952-5.818c-.599-1.785.065-3.618 1.482-4.093l11.805-3.961c1.417-.476 3.052.586 3.651 2.371l1.952 5.818zM100.746 184.648c.599 1.785-.065 3.618-1.482 4.093l-11.805 3.961c-1.417.476-3.052-.586-3.651-2.371l-1.952-5.818c-.599-1.785.065-3.618 1.482-4.093l11.805-3.961c1.417-.476 3.052.586 3.651 2.371l1.952 5.818zM121.798 177.585c.599 1.785-.065 3.618-1.482 4.093l-11.805 3.961c-1.417.476-3.052-.586-3.651-2.371l-1.952-5.818c-.599-1.785.065-3.618 1.482-4.093l11.805-3.961c1.417-.476 3.052.586 3.651 2.371l1.952 5.818zM8.672 186.55l.632-.212-.632.212zM245.86 136.395c.527 1.571-.319 3.271-1.89 3.798l-115.085 38.611c-1.571.527-3.271-.319-3.798-1.89l-2.212-6.593c-.527-1.571.319-3.271 1.89-3.798l115.085-38.611c1.571-.527 3.271.319 3.798 1.89l2.212 6.593zM309.375 116.984c.29.864-.136 1.786-.951 2.059l-6.79 2.278c-.815.273-1.711-.205-2.001-1.069l-.945-2.815c-.29-.864.136-1.786.951-2.059l6.79-2.278c.815-.273 1.711.205 2.001 1.069l.945 2.815zM306.787 109.272c.29.864-.136 1.786-.951 2.059l-6.79 2.278c-.815.273-1.711-.205-2.001-1.069l-.945-2.815c-.29-.864.136-1.786.951-2.059l6.79-2.278c.815-.273 1.711.205 2.001 1.069l.945 2.815zM297.839 120.854c.29.864-.136 1.786-.951 2.059l-6.79 2.278c-.815.273-1.711-.205-2.001-1.069l-.945-2.815c-.29-.864.136-1.786.951-2.059l6.79-2.278c.815-.273 1.711.205 2.001 1.069l.945 2.815zM320.669 113.194c.29.864-.136 1.786-.951 2.059l-6.79 2.278c-.815.273-1.711-.205-2.001-1.069l-.945-2.815c-.29-.864.136-1.786.951-2.059l6.79-2.278c.815-.273 1.711.205 2.001 1.069l.945 2.815zM315.82 98.448c.351 1.047-.154 2.161-1.129 2.488l-26.266 8.812c-.975.327-2.05-.257-2.401-1.304l-2.848-8.49c-.351-1.047.154-2.161 1.129-2.488l26.266-8.812c.975-.327 2.05.257 2.401 1.304l2.848 8.49zM314.82 96.448c.351 1.047-.154 2.161-1.129 2.488l-26.266 8.812c-.975.327-2.05-.257-2.401-1.304l-2.848-8.49c-.351-1.047.154-2.161 1.129-2.488l26.266-8.812c.975-.327 2.05.257 2.401 1.304l2.848 8.49zM83.091 176.903c.351 1.047-.213 2.181-1.26 2.532l-41.732 14.001c-1.047.351-2.181-.213-2.532-1.26l-3.075-9.165c-.351-1.047.213-2.181 1.26-2.532l41.732-14.001c1.047-.351 2.181.213 2.532 1.26l3.075 9.165zM82.091 174.903c.351 1.047-.213 2.181-1.26 2.532l-41.732 14.001c-1.047.351-2.181-.213-2.532-1.26l-3.075-9.165c-.351-1.047.213-2.181 1.26-2.532l41.732-14.001c1.047-.351 2.181.213 2.532 1.26l3.075 9.165zM315.866 98.808c.351 1.047-.056 2.128-.91 2.415l-34.026 11.416c-.854.286-1.831-.33-2.182-1.377l-3.075-9.165c-.351-1.047.056-2.128.91-2.415l34.026-11.416c.854-.286 1.831.33 2.182 1.377l3.075 9.165zM314.866 96.808c.351 1.047-.056 2.128-.91 2.415l-34.026 11.416c-.854.286-1.831-.33-2.182-1.377l-3.075-9.165c-.351-1.047.056-2.128.91-2.415l34.026-11.416c.854-.286 1.831.33 2.182 1.377l3.075 9.165z" id="Shape"/></g><g id="Group"><path d="M332.644 122.847c.527 1.571-.319 3.271-1.89 3.798l-286.752 96.205c-1.571.527-3.271-.319-3.798-1.89l-33.236-99.065c-.527-1.571.319-3.271 1.89-3.798l286.752-96.204c1.571-.527 3.271.319 3.798 1.89l33.236 99.064z" id="Shape" fill="#fff"/><g id="Shape"><g fill="#D5D2D2"><path d="M37.74 123.86c.345 1.029-.702 2.308-2.339 2.857l-13.634 4.574c-1.637.549-3.244.16-3.589-.868l-1.125-3.353c-.345-1.029.702-2.308 2.339-2.857l13.634-4.574c1.637-.549 3.244-.16 3.589.868l1.125 3.353zM61.65 115.839c.345 1.029-.702 2.308-2.339 2.857l-13.634 4.574c-1.637.549-3.244.16-3.589-.868l-1.125-3.353c-.345-1.029.702-2.308 2.339-2.857l13.634-4.574c1.637-.549 3.244-.16 3.589.868l1.125 3.353zM85.559 107.817c.345 1.029-.702 2.308-2.339 2.857l-13.634 4.574c-1.637.549-3.244.16-3.589-.868l-1.125-3.353c-.345-1.029.702-2.308 2.339-2.857l13.634-4.574c1.637-.549 3.244-.16 3.589.868l1.125 3.353zM108.382 100.16c.345 1.029-.702 2.308-2.339 2.857l-13.634 4.574c-1.637.549-3.244.16-3.589-.868l-1.125-3.353c-.345-1.029.702-2.308 2.339-2.857l13.634-4.574c1.637-.549 3.244-.16 3.589.868l1.125 3.353z"/></g><g fill="#EFEFEF"><path d="M36.74 121.86c.345 1.029-.702 2.308-2.339 2.857l-13.634 4.574c-1.637.549-3.244.16-3.589-.868l-1.125-3.353c-.345-1.029.702-2.308 2.339-2.857l13.634-4.574c1.637-.549 3.244-.16 3.589.868l1.125 3.353zM60.65 113.839c.345 1.029-.702 2.308-2.339 2.857l-13.634 4.574c-1.637.549-3.244.16-3.589-.868l-1.125-3.353c-.345-1.029.702-2.308 2.339-2.857l13.634-4.574c1.637-.549 3.244-.16 3.589.868l1.125 3.353zM84.559 105.817c.345 1.029-.702 2.308-2.339 2.857l-13.634 4.574c-1.637.549-3.244.16-3.589-.868l-1.125-3.353c-.345-1.029.702-2.308 2.339-2.857l13.634-4.574c1.637-.549 3.244-.16 3.589.868l1.125 3.353zM107.382 98.16c.345 1.029-.702 2.308-2.339 2.857l-13.634 4.574c-1.637.549-3.244.16-3.589-.868l-1.125-3.353c-.345-1.029.702-2.308 2.339-2.857l13.634-4.574c1.637-.549 3.244-.16 3.589.868l1.125 3.353z"/></g></g><g id="Shape"><g fill="#D5D2D2"><path d="M131.593 92.677c.345 1.029-.702 2.308-2.339 2.857l-13.634 4.574c-1.637.549-3.244.16-3.589-.868l-1.125-3.353c-.345-1.029.702-2.308 2.339-2.857l13.634-4.574c1.637-.549 3.244-.16 3.589.868l1.125 3.353zM155.503 84.656c.345 1.029-.702 2.308-2.339 2.857l-13.634 4.574c-1.637.549-3.244.16-3.589-.868l-1.125-3.353c-.345-1.029.702-2.308 2.339-2.857l13.634-4.574c1.637-.549 3.244-.16 3.589.868l1.125 3.353zM179.412 76.634c.345 1.029-.702 2.308-2.339 2.857l-13.634 4.574c-1.637.549-3.244.16-3.589-.868l-1.125-3.353c-.345-1.029.702-2.308 2.339-2.857l13.634-4.574c1.637-.549 3.244-.16 3.589.868l1.125 3.353zM202.235 68.977c.345 1.029-.702 2.308-2.339 2.857l-13.634 4.574c-1.637.549-3.244.16-3.589-.868l-1.125-3.353c-.345-1.029.702-2.308 2.339-2.857l13.634-4.574c1.637-.549 3.244-.16 3.589.868l1.125 3.353z"/></g><g fill="#EFEFEF"><path d="M130.593 90.677c.345 1.029-.702 2.308-2.339 2.857l-13.634 4.574c-1.637.549-3.244.16-3.589-.868l-1.125-3.353c-.345-1.029.702-2.308 2.339-2.857l13.634-4.574c1.637-.549 3.244-.16 3.589.868l1.125 3.353zM154.503 82.656c.345 1.029-.702 2.308-2.339 2.857l-13.634 4.574c-1.637.549-3.244.16-3.589-.868l-1.125-3.353c-.345-1.029.702-2.308 2.339-2.857l13.634-4.574c1.637-.549 3.244-.16 3.589.868l1.125 3.353zM178.412 74.634c.345 1.029-.702 2.308-2.339 2.857l-13.634 4.574c-1.637.549-3.244.16-3.589-.868l-1.125-3.353c-.345-1.029.702-2.308 2.339-2.857l13.634-4.574c1.637-.549 3.244-.16 3.589.868l1.125 3.353zM201.235 66.977c.345 1.029-.702 2.308-2.339 2.857l-13.634 4.574c-1.637.549-3.244.16-3.589-.868l-1.125-3.353c-.345-1.029.702-2.308 2.339-2.857l13.634-4.574c1.637-.549 3.244-.16 3.589.868l1.125 3.353z"/></g></g><g id="Shape"><g fill="#D5D2D2"><path d="M224.84 61.393c.345 1.029-.702 2.308-2.339 2.857l-13.634 4.574c-1.637.549-3.244.16-3.589-.868l-1.125-3.353c-.345-1.029.702-2.308 2.339-2.857l13.634-4.574c1.637-.549 3.244-.16 3.589.868l1.125 3.353zM248.75 53.372c.345 1.029-.702 2.308-2.339 2.857l-13.634 4.574c-1.637.549-3.244.16-3.589-.868l-1.125-3.353c-.345-1.029.702-2.308 2.339-2.857l13.634-4.574c1.637-.549 3.244-.16 3.589.868l1.125 3.353zM272.659 45.35c.345 1.029-.702 2.308-2.339 2.857l-13.634 4.574c-1.637.549-3.244.16-3.589-.868l-1.125-3.353c-.345-1.029.702-2.308 2.339-2.857l13.634-4.574c1.637-.549 3.244-.16 3.589.868l1.125 3.353zM296.569 37.328c.345 1.029-.702 2.308-2.339 2.857l-13.634 4.574c-1.637.549-3.244.16-3.589-.868l-1.125-3.353c-.345-1.029.702-2.308 2.339-2.857l13.634-4.574c1.637-.549 3.244-.16 3.589.868l1.125 3.353z"/></g><g fill="#EFEFEF"><path d="M223.84 59.393c.345 1.029-.702 2.308-2.339 2.857l-13.634 4.574c-1.637.549-3.244.16-3.589-.868l-1.125-3.353c-.345-1.029.702-2.308 2.339-2.857l13.634-4.574c1.637-.549 3.244-.16 3.589.868l1.125 3.353zM247.75 51.372c.345 1.029-.702 2.308-2.339 2.857l-13.634 4.574c-1.637.549-3.244.16-3.589-.868l-1.125-3.353c-.345-1.029.702-2.308 2.339-2.857l13.634-4.574c1.637-.549 3.244-.16 3.589.868l1.125 3.353zM271.659 43.35c.345 1.029-.702 2.308-2.339 2.857l-13.634 4.574c-1.637.549-3.244.16-3.589-.868l-1.125-3.353c-.345-1.029.702-2.308 2.339-2.857l13.634-4.574c1.637-.549 3.244-.16 3.589.868l1.125 3.353zM295.569 35.328c.345 1.029-.702 2.308-2.339 2.857l-13.634 4.574c-1.637.549-3.244.16-3.589-.868l-1.125-3.353c-.345-1.029.702-2.308 2.339-2.857l13.634-4.574c1.637-.549 3.244-.16 3.589.868l1.125 3.353z"/></g></g><g id="Shape"><g fill="#D5D2D2"><path d="M208.324 82.541c.599 1.785-.065 3.618-1.482 4.093l-11.805 3.961c-1.417.476-3.052-.586-3.651-2.371l-1.952-5.818c-.599-1.785.065-3.618 1.482-4.093l11.805-3.961c1.417-.476 3.052.586 3.651 2.371l1.952 5.818zM229.376 75.478c.599 1.785-.065 3.618-1.482 4.093l-11.805 3.961c-1.417.476-3.052-.586-3.651-2.371l-1.952-5.818c-.599-1.785.065-3.618 1.482-4.093l11.805-3.961c1.417-.476 3.052.586 3.651 2.371l1.952 5.818zM250.427 68.415c.599 1.785-.065 3.618-1.482 4.093l-11.805 3.961c-1.417.476-3.052-.586-3.651-2.371l-1.952-5.818c-.599-1.785.065-3.618 1.482-4.093l11.805-3.961c1.417-.476 3.052.586 3.651 2.371l1.952 5.818zM271.479 61.353c.599 1.785-.065 3.618-1.482 4.093l-11.805 3.961c-1.417.476-3.052-.586-3.651-2.371l-1.952-5.818c-.599-1.785.065-3.618 1.482-4.093l11.805-3.961c1.417-.476 3.052.586 3.651 2.371l1.952 5.818zM124.119 110.791c.599 1.785-.065 3.618-1.482 4.093l-11.805 3.961c-1.417.476-3.052-.586-3.651-2.371l-1.952-5.818c-.599-1.785.065-3.618 1.482-4.093l11.805-3.961c1.417-.476 3.052.586 3.651 2.371l1.952 5.818zM145.17 103.729c.599 1.785-.065 3.618-1.482 4.093l-11.805 3.961c-1.417.476-3.052-.586-3.651-2.371l-1.952-5.818c-.599-1.785.065-3.618 1.482-4.093l11.805-3.961c1.417-.476 3.052.586 3.651 2.371l1.952 5.818zM166.222 96.666c.599 1.785-.065 3.618-1.482 4.093l-11.805 3.961c-1.417.476-3.052-.586-3.651-2.371l-1.952-5.818c-.599-1.785.065-3.618 1.482-4.093l11.805-3.961c1.417-.476 3.052.586 3.651 2.371l1.952 5.818zM187.273 89.603c.599 1.785-.065 3.618-1.482 4.093l-11.805 3.961c-1.417.476-3.052-.586-3.651-2.371l-1.952-5.818c-.599-1.785.065-3.618 1.482-4.093l11.805-3.961c1.417-.476 3.052.586 3.651 2.371l1.952 5.818zM39.913 139.042c.599 1.785-.065 3.618-1.482 4.093l-11.805 3.961c-1.417.476-3.052-.586-3.651-2.371l-1.952-5.818c-.599-1.785.065-3.618 1.482-4.093l11.805-3.961c1.417-.476 3.052.586 3.651 2.371l1.952 5.818zM60.965 131.979c.599 1.785-.065 3.618-1.482 4.093l-11.805 3.961c-1.417.476-3.052-.586-3.651-2.371l-1.952-5.818c-.599-1.785.065-3.618 1.482-4.093l11.805-3.961c1.417-.476 3.052.586 3.651 2.371l1.952 5.818zM82.016 124.917c.599 1.785-.065 3.618-1.482 4.093l-11.805 3.961c-1.417.476-3.052-.586-3.651-2.371l-1.952-5.818c-.599-1.785.065-3.618 1.482-4.093l11.805-3.961c1.417-.476 3.052.586 3.651 2.371l1.952 5.818zM103.068 117.854c.599 1.785-.065 3.618-1.482 4.093l-11.805 3.961c-1.417.476-3.052-.586-3.651-2.371l-1.952-5.818c-.599-1.785.065-3.618 1.482-4.093l11.805-3.961c1.417-.476 3.052.586 3.651 2.371l1.952 5.818z"/></g><g fill="#EFEFEF"><path d="M207.324 80.541c.599 1.785-.065 3.618-1.482 4.093l-11.805 3.961c-1.417.476-3.052-.586-3.651-2.371l-1.952-5.818c-.599-1.785.065-3.618 1.482-4.093l11.805-3.961c1.417-.476 3.052.586 3.651 2.371l1.952 5.818zM228.376 73.478c.599 1.785-.065 3.618-1.482 4.093l-11.805 3.961c-1.417.476-3.052-.586-3.651-2.371l-1.952-5.818c-.599-1.785.065-3.618 1.482-4.093l11.805-3.961c1.417-.476 3.052.586 3.651 2.371l1.952 5.818zM249.427 66.415c.599 1.785-.065 3.618-1.482 4.093l-11.805 3.961c-1.417.476-3.052-.586-3.651-2.371l-1.952-5.818c-.599-1.785.065-3.618 1.482-4.093l11.805-3.961c1.417-.476 3.052.586 3.651 2.371l1.952 5.818zM270.479 59.353c.599 1.785-.065 3.618-1.482 4.093l-11.805 3.961c-1.417.476-3.052-.586-3.651-2.371l-1.952-5.818c-.599-1.785.065-3.618 1.482-4.093l11.805-3.961c1.417-.476 3.052.586 3.651 2.371l1.952 5.818zM123.119 108.791c.599 1.785-.065 3.618-1.482 4.093l-11.805 3.961c-1.417.476-3.052-.586-3.651-2.371l-1.952-5.818c-.599-1.785.065-3.618 1.482-4.093l11.805-3.961c1.417-.476 3.052.586 3.651 2.371l1.952 5.818zM144.17 101.729c.599 1.785-.065 3.618-1.482 4.093l-11.805 3.961c-1.417.476-3.052-.586-3.651-2.371l-1.952-5.818c-.599-1.785.065-3.618 1.482-4.093l11.805-3.961c1.417-.476 3.052.586 3.651 2.371l1.952 5.818zM165.222 94.666c.599 1.785-.065 3.618-1.482 4.093l-11.805 3.961c-1.417.476-3.052-.586-3.651-2.371l-1.952-5.818c-.599-1.785.065-3.618 1.482-4.093l11.805-3.961c1.417-.476 3.052.586 3.651 2.371l1.952 5.818zM186.273 87.603c.599 1.785-.065 3.618-1.482 4.093l-11.805 3.961c-1.417.476-3.052-.586-3.651-2.371l-1.952-5.818c-.599-1.785.065-3.618 1.482-4.093l11.805-3.961c1.417-.476 3.052.586 3.651 2.371l1.952 5.818zM38.913 137.042c.599 1.785-.065 3.618-1.482 4.093l-11.805 3.961c-1.417.476-3.052-.586-3.651-2.371l-1.952-5.818c-.599-1.785.065-3.618 1.482-4.093l11.805-3.961c1.417-.476 3.052.586 3.651 2.371l1.952 5.818zM59.965 129.979c.599 1.785-.065 3.618-1.482 4.093l-11.805 3.961c-1.417.476-3.052-.586-3.651-2.371l-1.952-5.818c-.599-1.785.065-3.618 1.482-4.093l11.805-3.961c1.417-.476 3.052.586 3.651 2.371l1.952 5.818zM81.016 122.917c.599 1.785-.065 3.618-1.482 4.093l-11.805 3.961c-1.417.476-3.052-.586-3.651-2.371l-1.952-5.818c-.599-1.785.065-3.618 1.482-4.093l11.805-3.961c1.417-.476 3.052.586 3.651 2.371l1.952 5.818zM102.068 115.854c.599 1.785-.065 3.618-1.482 4.093l-11.805 3.961c-1.417.476-3.052-.586-3.651-2.371l-1.952-5.818c-.599-1.785.065-3.618 1.482-4.093l11.805-3.961c1.417-.476 3.052.586 3.651 2.371l1.952 5.818z"/></g></g><g id="Shape"><path d="M301.405 51.744c.527 1.571-.319 3.271-1.89 3.798l-19.649 6.592c-1.571.527-3.271-.319-3.798-1.89l-2.212-6.593c-.527-1.571.319-3.271 1.89-3.798l19.649-6.592c1.571-.527 3.271.319 3.798 1.89l2.212 6.593z" fill="#D5D2D2"/><path d="M300.405 49.744c.527 1.571-.319 3.271-1.89 3.798l-19.649 6.592c-1.571.527-3.271-.319-3.798-1.89l-2.212-6.593c-.527-1.571.319-3.271 1.89-3.798l19.649-6.592c1.571-.527 3.271.319 3.798 1.89l2.212 6.593z" fill="#EFEFEF"/></g><g id="Shape"><g fill="#D5D2D2"><path d="M243.146 88.438c.599 1.785-.065 3.618-1.482 4.093l-11.805 3.961c-1.417.476-3.052-.586-3.651-2.371l-1.952-5.818c-.599-1.785.065-3.618 1.482-4.093l11.805-3.961c1.417-.476 3.052.586 3.651 2.371l1.952 5.818zM264.197 81.375c.599 1.785-.065 3.618-1.482 4.093l-11.805 3.961c-1.417.476-3.052-.586-3.651-2.371l-1.952-5.818c-.599-1.785.065-3.618 1.482-4.093l11.805-3.961c1.417-.476 3.052.586 3.651 2.371l1.952 5.818zM285.249 74.313c.599 1.785-.065 3.618-1.482 4.093l-11.805 3.961c-1.417.476-3.052-.586-3.651-2.371l-1.952-5.818c-.599-1.785.065-3.618 1.482-4.093l11.805-3.961c1.417-.476 3.052.586 3.651 2.371l1.952 5.818zM306.3 67.25c.599 1.785-.065 3.618-1.482 4.093l-11.805 3.961c-1.417.476-3.052-.586-3.651-2.371l-1.952-5.818c-.599-1.785.065-3.618 1.482-4.093l11.805-3.961c1.417-.476 3.052.586 3.651 2.371l1.952 5.818zM158.94 116.689c.599 1.785-.065 3.618-1.482 4.093l-11.805 3.961c-1.417.476-3.052-.586-3.651-2.371l-1.952-5.818c-.599-1.785.065-3.618 1.482-4.093l11.805-3.961c1.417-.476 3.052.586 3.651 2.371l1.952 5.818zM179.992 109.626c.599 1.785-.065 3.618-1.482 4.093l-11.805 3.961c-1.417.476-3.052-.586-3.651-2.371l-1.952-5.818c-.599-1.785.065-3.618 1.482-4.093l11.805-3.961c1.417-.476 3.052.586 3.651 2.371l1.952 5.818zM201.043 102.563c.599 1.785-.065 3.618-1.482 4.093l-11.805 3.961c-1.417.476-3.052-.586-3.651-2.371l-1.952-5.818c-.599-1.785.065-3.618 1.482-4.093l11.805-3.961c1.417-.476 3.052.586 3.651 2.371l1.952 5.818zM222.094 95.501c.599 1.785-.065 3.618-1.482 4.093l-11.805 3.961c-1.417.476-3.052-.586-3.651-2.371l-1.952-5.818c-.599-1.785.065-3.618 1.482-4.093l11.805-3.961c1.417-.476 3.052.586 3.651 2.371l1.952 5.818zM74.735 144.939c.599 1.785-.065 3.618-1.482 4.093l-11.805 3.961c-1.417.476-3.052-.586-3.651-2.371l-1.952-5.818c-.599-1.785.065-3.618 1.482-4.093l11.805-3.961c1.417-.475 3.052.586 3.651 2.371l1.952 5.818zM95.786 137.877c.599 1.785-.065 3.618-1.482 4.093l-11.805 3.961c-1.417.476-3.052-.586-3.651-2.371l-1.952-5.818c-.599-1.785.065-3.618 1.482-4.093l11.805-3.961c1.417-.476 3.052.586 3.651 2.371l1.952 5.818zM116.838 130.814c.599 1.785-.065 3.618-1.482 4.093l-11.805 3.961c-1.417.476-3.052-.586-3.651-2.371l-1.952-5.818c-.599-1.785.065-3.618 1.482-4.093l11.805-3.961c1.417-.476 3.052.586 3.651 2.371l1.952 5.818zM137.889 123.751c.599 1.785-.065 3.618-1.482 4.093l-11.805 3.961c-1.417.476-3.052-.586-3.651-2.371l-1.951-5.818c-.599-1.785.065-3.618 1.482-4.093l11.805-3.961c1.417-.476 3.052.586 3.651 2.371l1.951 5.818zM53.745 152.413c.527 1.571-.319 3.271-1.89 3.798l-19.649 6.592c-1.571.527-3.271-.319-3.798-1.89l-2.212-6.593c-.527-1.571.319-3.271 1.89-3.798l19.649-6.592c1.571-.527 3.271.319 3.798 1.89l2.212 6.593z"/></g><g fill="#EFEFEF"><path d="M242.146 86.438c.599 1.785-.065 3.618-1.482 4.093l-11.805 3.961c-1.417.476-3.052-.586-3.651-2.371l-1.952-5.818c-.599-1.785.065-3.618 1.482-4.093l11.805-3.961c1.417-.476 3.052.586 3.651 2.371l1.952 5.818zM263.197 79.375c.599 1.785-.065 3.618-1.482 4.093l-11.805 3.961c-1.417.476-3.052-.586-3.651-2.371l-1.952-5.818c-.599-1.785.065-3.618 1.482-4.093l11.805-3.961c1.417-.476 3.052.586 3.651 2.371l1.952 5.818zM284.249 72.313c.599 1.785-.065 3.618-1.482 4.093l-11.805 3.961c-1.417.476-3.052-.586-3.651-2.371l-1.952-5.818c-.599-1.785.065-3.618 1.482-4.093l11.805-3.961c1.417-.476 3.052.586 3.651 2.371l1.952 5.818zM305.3 65.25c.599 1.785-.065 3.618-1.482 4.093l-11.805 3.961c-1.417.476-3.052-.586-3.651-2.371l-1.952-5.818c-.599-1.785.065-3.618 1.482-4.093l11.805-3.961c1.417-.476 3.052.586 3.651 2.371l1.952 5.818zM157.94 114.689c.599 1.785-.065 3.618-1.482 4.093l-11.805 3.961c-1.417.476-3.052-.586-3.651-2.371l-1.952-5.818c-.599-1.785.065-3.618 1.482-4.093l11.805-3.961c1.417-.476 3.052.586 3.651 2.371l1.952 5.818zM178.992 107.626c.599 1.785-.065 3.618-1.482 4.093l-11.805 3.961c-1.417.476-3.052-.586-3.651-2.371l-1.952-5.818c-.599-1.785.065-3.618 1.482-4.093l11.805-3.961c1.417-.476 3.052.586 3.651 2.371l1.952 5.818zM200.043 100.563c.599 1.785-.065 3.618-1.482 4.093l-11.805 3.961c-1.417.476-3.052-.586-3.651-2.371l-1.952-5.818c-.599-1.785.065-3.618 1.482-4.093l11.805-3.961c1.417-.476 3.052.586 3.651 2.371l1.952 5.818zM221.094 93.501c.599 1.785-.065 3.618-1.482 4.093l-11.805 3.961c-1.417.476-3.052-.586-3.651-2.371l-1.952-5.818c-.599-1.785.065-3.618 1.482-4.093l11.805-3.961c1.417-.476 3.052.586 3.651 2.371l1.952 5.818zM73.735 142.939c.599 1.785-.065 3.618-1.482 4.093l-11.805 3.961c-1.417.476-3.052-.586-3.651-2.371l-1.952-5.818c-.599-1.785.065-3.618 1.482-4.093l11.805-3.961c1.417-.475 3.052.586 3.651 2.371l1.952 5.818zM94.786 135.877c.599 1.785-.065 3.618-1.482 4.093l-11.805 3.961c-1.417.476-3.052-.586-3.651-2.371l-1.952-5.818c-.599-1.785.065-3.618 1.482-4.093l11.805-3.961c1.417-.476 3.052.586 3.651 2.371l1.952 5.818zM115.838 128.814c.599 1.785-.065 3.618-1.482 4.093l-11.805 3.961c-1.417.476-3.052-.586-3.651-2.371l-1.952-5.818c-.599-1.785.065-3.618 1.482-4.093l11.805-3.961c1.417-.476 3.052.586 3.651 2.371l1.952 5.818zM136.889 121.751c.599 1.785-.065 3.618-1.482 4.093l-11.805 3.961c-1.417.476-3.052-.586-3.651-2.371l-1.951-5.818c-.599-1.785.065-3.618 1.482-4.093l11.805-3.961c1.417-.476 3.052.586 3.651 2.371l1.951 5.818zM52.745 150.413c.527 1.571-.319 3.271-1.89 3.798l-19.649 6.592c-1.571.527-3.271-.319-3.798-1.89l-2.212-6.593c-.527-1.571.319-3.271 1.89-3.798l19.649-6.592c1.571-.527 3.271.319 3.798 1.89l2.212 6.593z"/></g></g><g id="Shape"><path d="M66.18 167.36c.351 1.047-.213 2.181-1.26 2.532l-28.215 9.466c-1.047.351-2.181-.213-2.532-1.26l-2.848-8.49c-.351-1.047.213-2.181 1.26-2.532l28.215-9.466c1.047-.351 2.181.213 2.532 1.26l2.848 8.49z" fill="#D5D2D2"/><path d="M65.18 165.36c.351 1.047-.213 2.181-1.26 2.532l-28.215 9.466c-1.047.351-2.181-.213-2.532-1.26l-2.848-8.49c-.351-1.047.213-2.181 1.26-2.532l28.215-9.466c1.047-.351 2.181.213 2.532 1.26l2.848 8.49z" fill="#EFEFEF"/></g><g id="Shape"><g fill="#D5D2D2"><path d="M256.941 101.874c.599 1.785-.065 3.618-1.482 4.093l-11.805 3.961c-1.417.476-3.052-.586-3.651-2.371l-1.952-5.818c-.599-1.785.065-3.618 1.482-4.093l11.805-3.961c1.417-.476 3.052.586 3.651 2.371l1.952 5.818zM277.993 94.811c.599 1.785-.065 3.618-1.482 4.093l-11.805 3.961c-1.417.476-3.052-.586-3.651-2.371l-1.952-5.818c-.599-1.785.065-3.618 1.482-4.093l11.805-3.961c1.417-.476 3.052.586 3.651 2.371l1.952 5.818zM172.736 130.124c.599 1.785-.065 3.618-1.482 4.093l-11.805 3.961c-1.417.476-3.052-.586-3.651-2.371l-1.952-5.818c-.599-1.785.065-3.618 1.482-4.093l11.805-3.961c1.417-.476 3.052.586 3.651 2.371l1.952 5.818zM193.787 123.062c.599 1.785-.065 3.618-1.482 4.093l-11.805 3.961c-1.417.476-3.052-.586-3.651-2.371l-1.952-5.818c-.599-1.785.065-3.618 1.482-4.093l11.805-3.961c1.417-.476 3.052.586 3.651 2.371l1.952 5.818zM214.839 115.999c.599 1.785-.065 3.618-1.482 4.093l-11.805 3.961c-1.417.476-3.052-.586-3.651-2.371l-1.952-5.818c-.599-1.785.065-3.618 1.482-4.093l11.805-3.961c1.417-.476 3.052.586 3.651 2.371l1.952 5.818zM235.89 108.936c.599 1.785-.065 3.618-1.482 4.093l-11.805 3.961c-1.417.476-3.052-.586-3.651-2.371l-1.952-5.818c-.599-1.785.065-3.618 1.482-4.093l11.805-3.961c1.417-.476 3.052.586 3.651 2.371l1.952 5.818zM88.53 158.375c.599 1.785-.065 3.618-1.482 4.093l-11.805 3.961c-1.417.475-3.052-.586-3.651-2.371l-1.952-5.818c-.599-1.785.065-3.618 1.482-4.093l11.805-3.961c1.417-.476 3.052.586 3.651 2.371l1.952 5.818zM109.582 151.312c.599 1.785-.065 3.618-1.482 4.093l-11.805 3.961c-1.417.476-3.052-.586-3.651-2.371l-1.952-5.818c-.599-1.785.065-3.618 1.482-4.093l11.805-3.961c1.417-.476 3.052.586 3.651 2.371l1.952 5.818zM130.633 144.25c.599 1.785-.065 3.618-1.482 4.093l-11.805 3.961c-1.417.475-3.052-.586-3.651-2.371l-1.952-5.818c-.599-1.785.065-3.618 1.482-4.093l11.805-3.961c1.417-.476 3.052.586 3.651 2.371l1.952 5.818zM151.684 137.187c.599 1.785-.065 3.618-1.482 4.093l-11.805 3.961c-1.417.476-3.052-.586-3.651-2.371l-1.952-5.818c-.599-1.785.065-3.618 1.482-4.093l11.805-3.961c1.417-.476 3.052.586 3.651 2.371l1.952 5.818z"/></g><g fill="#EFEFEF"><path d="M255.941 99.874c.599 1.785-.065 3.618-1.482 4.093l-11.805 3.961c-1.417.476-3.052-.586-3.651-2.371l-1.952-5.818c-.599-1.785.065-3.618 1.482-4.093l11.805-3.961c1.417-.476 3.052.586 3.651 2.371l1.952 5.818zM276.993 92.811c.599 1.785-.065 3.618-1.482 4.093l-11.805 3.961c-1.417.476-3.052-.586-3.651-2.371l-1.952-5.818c-.599-1.785.065-3.618 1.482-4.093l11.805-3.961c1.417-.476 3.052.586 3.651 2.371l1.952 5.818zM171.736 128.124c.599 1.785-.065 3.618-1.482 4.093l-11.805 3.961c-1.417.476-3.052-.586-3.651-2.371l-1.952-5.818c-.599-1.785.065-3.618 1.482-4.093l11.805-3.961c1.417-.476 3.052.586 3.651 2.371l1.952 5.818zM192.787 121.062c.599 1.785-.065 3.618-1.482 4.093l-11.805 3.961c-1.417.476-3.052-.586-3.651-2.371l-1.952-5.818c-.599-1.785.065-3.618 1.482-4.093l11.805-3.961c1.417-.476 3.052.586 3.651 2.371l1.952 5.818zM213.839 113.999c.599 1.785-.065 3.618-1.482 4.093l-11.805 3.961c-1.417.476-3.052-.586-3.651-2.371l-1.952-5.818c-.599-1.785.065-3.618 1.482-4.093l11.805-3.961c1.417-.476 3.052.586 3.651 2.371l1.952 5.818zM234.89 106.936c.599 1.785-.065 3.618-1.482 4.093l-11.805 3.961c-1.417.476-3.052-.586-3.651-2.371l-1.952-5.818c-.599-1.785.065-3.618 1.482-4.093l11.805-3.961c1.417-.476 3.052.586 3.651 2.371l1.952 5.818zM87.53 156.375c.599 1.785-.065 3.618-1.482 4.093l-11.805 3.961c-1.417.475-3.052-.586-3.651-2.371l-1.952-5.818c-.599-1.785.065-3.618 1.482-4.093l11.805-3.961c1.417-.476 3.052.586 3.651 2.371l1.952 5.818zM108.582 149.312c.599 1.785-.065 3.618-1.482 4.093l-11.805 3.961c-1.417.476-3.052-.586-3.651-2.371l-1.952-5.818c-.599-1.785.065-3.618 1.482-4.093l11.805-3.961c1.417-.476 3.052.586 3.651 2.371l1.952 5.818zM129.633 142.25c.599 1.785-.065 3.618-1.482 4.093l-11.805 3.961c-1.417.475-3.052-.586-3.651-2.371l-1.952-5.818c-.599-1.785.065-3.618 1.482-4.093l11.805-3.961c1.417-.476 3.052.586 3.651 2.371l1.952 5.818zM150.684 135.187c.599 1.785-.065 3.618-1.482 4.093l-11.805 3.961c-1.417.476-3.052-.586-3.651-2.371l-1.952-5.818c-.599-1.785.065-3.618 1.482-4.093l11.805-3.961c1.417-.476 3.052.586 3.651 2.371l1.952 5.818z"/></g></g><g id="Shape"><path d="M312.472 84.73c.351 1.047-.154 2.161-1.129 2.488l-26.266 8.812c-.975.327-2.05-.257-2.401-1.304l-2.848-8.49c-.351-1.047.154-2.161 1.129-2.488l26.266-8.812c.975-.327 2.05.257 2.401 1.304l2.848 8.49z" fill="#D5D2D2"/><path d="M311.472 82.73c.351 1.047-.154 2.161-1.129 2.488l-26.266 8.812c-.975.327-2.05-.257-2.401-1.304l-2.848-8.49c-.351-1.047.154-2.161 1.129-2.488l26.266-8.812c.975-.327 2.05.257 2.401 1.304l2.848 8.49z" fill="#EFEFEF"/></g><g id="Shape"><g fill="#D5D2D2"><path d="M253.874 120.415c.599 1.785-.065 3.618-1.482 4.093l-11.805 3.961c-1.417.476-3.052-.586-3.651-2.371l-1.952-5.818c-.599-1.785.065-3.618 1.482-4.093l11.805-3.961c1.417-.476 3.052.586 3.651 2.371l1.952 5.818zM169.669 148.666c.599 1.785-.065 3.618-1.482 4.093l-11.805 3.961c-1.417.476-3.052-.586-3.651-2.371l-1.952-5.818c-.599-1.785.065-3.618 1.482-4.093l11.805-3.961c1.417-.476 3.052.586 3.651 2.371l1.952 5.818zM190.72 141.603c.599 1.785-.065 3.618-1.482 4.093l-11.805 3.961c-1.417.476-3.052-.586-3.651-2.371l-1.952-5.818c-.599-1.785.065-3.618 1.482-4.093l11.805-3.961c1.417-.476 3.052.586 3.651 2.371l1.952 5.818zM211.771 134.541c.599 1.785-.065 3.618-1.482 4.093l-11.805 3.961c-1.417.476-3.052-.586-3.651-2.371l-1.952-5.818c-.599-1.785.065-3.618 1.482-4.093l11.805-3.961c1.417-.476 3.052.586 3.651 2.371l1.952 5.818zM232.823 127.478c.599 1.785-.065 3.618-1.482 4.093l-11.805 3.961c-1.417.476-3.052-.586-3.651-2.371l-1.952-5.818c-.599-1.785.065-3.618 1.482-4.093l11.805-3.961c1.417-.476 3.052.586 3.651 2.371l1.952 5.818zM106.514 169.854c.599 1.785-.065 3.618-1.482 4.093l-11.805 3.961c-1.417.476-3.052-.586-3.651-2.371l-1.952-5.818c-.599-1.785.065-3.618 1.482-4.093l11.805-3.961c1.417-.476 3.052.586 3.651 2.371l1.952 5.818zM127.566 162.791c.599 1.785-.065 3.618-1.482 4.093l-11.805 3.961c-1.417.476-3.052-.586-3.651-2.371l-1.952-5.818c-.599-1.785.065-3.618 1.482-4.093l11.805-3.961c1.417-.476 3.052.586 3.651 2.371l1.952 5.818zM148.617 155.729c.599 1.785-.065 3.618-1.482 4.093l-11.805 3.961c-1.417.476-3.052-.586-3.651-2.371l-1.952-5.818c-.599-1.785.065-3.618 1.482-4.093l11.805-3.961c1.417-.476 3.052.586 3.651 2.371l1.952 5.818zM274.805 113.393c.599 1.785-.065 3.618-1.482 4.093l-11.805 3.961c-1.417.476-3.052-.586-3.651-2.371l-1.952-5.818c-.599-1.785.065-3.618 1.482-4.093l11.805-3.961c1.417-.476 3.052.586 3.651 2.371l1.952 5.818z"/></g><g fill="#EFEFEF"><path d="M252.874 118.415c.599 1.785-.065 3.618-1.482 4.093l-11.805 3.961c-1.417.476-3.052-.586-3.651-2.371l-1.952-5.818c-.599-1.785.065-3.618 1.482-4.093l11.805-3.961c1.417-.476 3.052.586 3.651 2.371l1.952 5.818zM168.669 146.666c.599 1.785-.065 3.618-1.482 4.093l-11.805 3.961c-1.417.476-3.052-.586-3.651-2.371l-1.952-5.818c-.599-1.785.065-3.618 1.482-4.093l11.805-3.961c1.417-.476 3.052.586 3.651 2.371l1.952 5.818zM189.72 139.603c.599 1.785-.065 3.618-1.482 4.093l-11.805 3.961c-1.417.476-3.052-.586-3.651-2.371l-1.952-5.818c-.599-1.785.065-3.618 1.482-4.093l11.805-3.961c1.417-.476 3.052.586 3.651 2.371l1.952 5.818zM210.771 132.541c.599 1.785-.065 3.618-1.482 4.093l-11.805 3.961c-1.417.476-3.052-.586-3.651-2.371l-1.952-5.818c-.599-1.785.065-3.618 1.482-4.093l11.805-3.961c1.417-.476 3.052.586 3.651 2.371l1.952 5.818zM231.823 125.478c.599 1.785-.065 3.618-1.482 4.093l-11.805 3.961c-1.417.476-3.052-.586-3.651-2.371l-1.952-5.818c-.599-1.785.065-3.618 1.482-4.093l11.805-3.961c1.417-.476 3.052.586 3.651 2.371l1.952 5.818zM105.514 167.854c.599 1.785-.065 3.618-1.482 4.093l-11.805 3.961c-1.417.476-3.052-.586-3.651-2.371l-1.952-5.818c-.599-1.785.065-3.618 1.482-4.093l11.805-3.961c1.417-.476 3.052.586 3.651 2.371l1.952 5.818zM126.566 160.791c.599 1.785-.065 3.618-1.482 4.093l-11.805 3.961c-1.417.476-3.052-.586-3.651-2.371l-1.952-5.818c-.599-1.785.065-3.618 1.482-4.093l11.805-3.961c1.417-.476 3.052.586 3.651 2.371l1.952 5.818zM147.617 153.729c.599 1.785-.065 3.618-1.482 4.093l-11.805 3.961c-1.417.476-3.052-.586-3.651-2.371l-1.952-5.818c-.599-1.785.065-3.618 1.482-4.093l11.805-3.961c1.417-.476 3.052.586 3.651 2.371l1.952 5.818zM273.805 111.393c.599 1.785-.065 3.618-1.482 4.093l-11.805 3.961c-1.417.476-3.052-.586-3.651-2.371l-1.952-5.818c-.599-1.785.065-3.618 1.482-4.093l11.805-3.961c1.417-.476 3.052.586 3.651 2.371l1.952 5.818z"/></g></g><g id="Shape"><g fill="#D5D2D2"><path d="M268.365 133.419c.599 1.785-.065 3.618-1.482 4.093l-11.805 3.961c-1.417.476-3.052-.586-3.651-2.371l-1.952-5.818c-.599-1.785.065-3.618 1.482-4.093l11.805-3.961c1.417-.476 3.052.586 3.651 2.371l1.952 5.818zM288.468 126.674c.599 1.785-.065 3.618-1.482 4.093l-11.805 3.961c-1.417.476-3.052-.586-3.651-2.371l-1.952-5.818c-.599-1.785.065-3.618 1.482-4.093l11.805-3.961c1.417-.476 3.052.586 3.651 2.371l1.952 5.818zM61.644 202.773c.599 1.785-.065 3.618-1.482 4.093l-11.805 3.961c-1.417.476-3.052-.586-3.651-2.371l-1.952-5.818c-.599-1.785.065-3.618 1.482-4.093l11.805-3.961c1.417-.476 3.052.586 3.651 2.371l1.952 5.818zM82.695 195.711c.599 1.785-.065 3.618-1.482 4.093l-11.805 3.961c-1.417.476-3.052-.586-3.651-2.371l-1.952-5.818c-.599-1.785.065-3.618 1.482-4.093l11.805-3.961c1.417-.476 3.052.586 3.651 2.371l1.952 5.818zM103.746 188.648c.599 1.785-.065 3.618-1.482 4.093l-11.805 3.961c-1.417.476-3.052-.586-3.651-2.371l-1.952-5.818c-.599-1.785.065-3.618 1.482-4.093l11.805-3.961c1.417-.476 3.052.586 3.651 2.371l1.952 5.818zM124.798 181.585c.599 1.785-.065 3.618-1.482 4.093l-11.805 3.961c-1.417.476-3.052-.586-3.651-2.371l-1.952-5.818c-.599-1.785.065-3.618 1.482-4.093l11.805-3.961c1.417-.476 3.052.586 3.651 2.371l1.952 5.818zM11.672 190.55l.632-.212-.632.212zM248.86 140.395c.527 1.571-.319 3.271-1.89 3.798l-115.085 38.611c-1.571.527-3.271-.319-3.798-1.89l-2.212-6.593c-.527-1.571.319-3.271 1.89-3.798l115.085-38.611c1.571-.527 3.271.319 3.798 1.89l2.212 6.593zM312.375 120.984c.29.864-.136 1.786-.951 2.059l-6.79 2.278c-.815.273-1.711-.205-2.001-1.069l-.945-2.815c-.29-.864.136-1.786.951-2.059l6.79-2.278c.815-.273 1.711.205 2.001 1.069l.945 2.815zM309.787 113.272c.29.864-.136 1.786-.951 2.059l-6.79 2.278c-.815.273-1.711-.205-2.001-1.069l-.945-2.815c-.29-.864.136-1.786.951-2.059l6.79-2.278c.815-.273 1.711.205 2.001 1.069l.945 2.815zM300.839 124.854c.29.864-.136 1.786-.951 2.059l-6.79 2.278c-.815.273-1.711-.205-2.001-1.069l-.945-2.815c-.29-.864.136-1.786.951-2.059l6.79-2.278c.815-.273 1.711.205 2.001 1.069l.945 2.815zM323.669 117.194c.29.864-.136 1.786-.951 2.059l-6.79 2.278c-.815.273-1.711-.205-2.001-1.069l-.945-2.815c-.29-.864.136-1.786.951-2.059l6.79-2.278c.815-.273 1.711.205 2.001 1.069l.945 2.815z"/></g><g fill="#EFEFEF"><path d="M267.365 131.419c.599 1.785-.065 3.618-1.482 4.093l-11.805 3.961c-1.417.476-3.052-.586-3.651-2.371l-1.952-5.818c-.599-1.785.065-3.618 1.482-4.093l11.805-3.961c1.417-.476 3.052.586 3.651 2.371l1.952 5.818zM287.468 124.674c.599 1.785-.065 3.618-1.482 4.093l-11.805 3.961c-1.417.476-3.052-.586-3.651-2.371l-1.952-5.818c-.599-1.785.065-3.618 1.482-4.093l11.805-3.961c1.417-.476 3.052.586 3.651 2.371l1.952 5.818zM60.644 200.773c.599 1.785-.065 3.618-1.482 4.093l-11.805 3.961c-1.417.476-3.052-.586-3.651-2.371l-1.952-5.818c-.599-1.785.065-3.618 1.482-4.093l11.805-3.961c1.417-.476 3.052.586 3.651 2.371l1.952 5.818zM81.695 193.711c.599 1.785-.065 3.618-1.482 4.093l-11.805 3.961c-1.417.476-3.052-.586-3.651-2.371l-1.952-5.818c-.599-1.785.065-3.618 1.482-4.093l11.805-3.961c1.417-.476 3.052.586 3.651 2.371l1.952 5.818zM102.746 186.648c.599 1.785-.065 3.618-1.482 4.093l-11.805 3.961c-1.417.476-3.052-.586-3.651-2.371l-1.952-5.818c-.599-1.785.065-3.618 1.482-4.093l11.805-3.961c1.417-.476 3.052.586 3.651 2.371l1.952 5.818zM123.798 179.585c.599 1.785-.065 3.618-1.482 4.093l-11.805 3.961c-1.417.476-3.052-.586-3.651-2.371l-1.952-5.818c-.599-1.785.065-3.618 1.482-4.093l11.805-3.961c1.417-.476 3.052.586 3.651 2.371l1.952 5.818zM10.672 188.55l.632-.212-.632.212zM247.86 138.395c.527 1.571-.319 3.271-1.89 3.798l-115.085 38.611c-1.571.527-3.271-.319-3.798-1.89l-2.212-6.593c-.527-1.571.319-3.271 1.89-3.798l115.085-38.611c1.571-.527 3.271.319 3.798 1.89l2.212 6.593zM311.375 118.984c.29.864-.136 1.786-.951 2.059l-6.79 2.278c-.815.273-1.711-.205-2.001-1.069l-.945-2.815c-.29-.864.136-1.786.951-2.059l6.79-2.278c.815-.273 1.711.205 2.001 1.069l.945 2.815zM308.787 111.272c.29.864-.136 1.786-.951 2.059l-6.79 2.278c-.815.273-1.711-.205-2.001-1.069l-.945-2.815c-.29-.864.136-1.786.951-2.059l6.79-2.278c.815-.273 1.711.205 2.001 1.069l.945 2.815zM299.839 122.854c.29.864-.136 1.786-.951 2.059l-6.79 2.278c-.815.273-1.711-.205-2.001-1.069l-.945-2.815c-.29-.864.136-1.786.951-2.059l6.79-2.278c.815-.273 1.711.205 2.001 1.069l.945 2.815zM322.669 115.194c.29.864-.136 1.786-.951 2.059l-6.79 2.278c-.815.273-1.711-.205-2.001-1.069l-.945-2.815c-.29-.864.136-1.786.951-2.059l6.79-2.278c.815-.273 1.711.205 2.001 1.069l.945 2.815z"/></g></g><g id="Shape"><path d="M317.82 100.448c.351 1.047-.154 2.161-1.129 2.488l-26.266 8.812c-.975.327-2.05-.257-2.401-1.304l-2.848-8.49c-.351-1.047.154-2.161 1.129-2.488l26.266-8.812c.975-.327 2.05.257 2.401 1.304l2.848 8.49z" fill="#D5D2D2"/><path d="M316.82 98.448c.351 1.047-.154 2.161-1.129 2.488l-26.266 8.812c-.975.327-2.05-.257-2.401-1.304l-2.848-8.49c-.351-1.047.154-2.161 1.129-2.488l26.266-8.812c.975-.327 2.05.257 2.401 1.304l2.848 8.49z" fill="#EFEFEF"/></g><g id="Shape"><path d="M85.091 178.903c.351 1.047-.213 2.181-1.26 2.532l-41.732 14.001c-1.047.351-2.181-.213-2.532-1.26l-3.075-9.165c-.351-1.047.213-2.181 1.26-2.532l41.732-14.001c1.047-.351 2.181.213 2.532 1.26l3.075 9.165z" fill="#D5D2D2"/><path d="M84.091 176.903c.351 1.047-.213 2.181-1.26 2.532l-41.732 14.001c-1.047.351-2.181-.213-2.532-1.26l-3.075-9.165c-.351-1.047.213-2.181 1.26-2.532l41.732-14.001c1.047-.351 2.181.213 2.532 1.26l3.075 9.165z" fill="#EFEFEF"/></g><g id="Shape"><path d="M317.866 100.808c.351 1.047-.056 2.128-.91 2.415l-34.026 11.416c-.854.286-1.831-.33-2.182-1.377l-3.075-9.165c-.351-1.047.056-2.128.91-2.415l34.026-11.416c.854-.286 1.831.33 2.182 1.377l3.075 9.165z" fill="#D5D2D2"/><path d="M316.866 98.808c.351 1.047-.056 2.128-.91 2.415l-34.026 11.416c-.854.286-1.831-.33-2.182-1.377l-3.075-9.165c-.351-1.047.056-2.128.91-2.415l34.026-11.416c.854-.286 1.831.33 2.182 1.377l3.075 9.165z" fill="#EFEFEF"/></g></g></g><g sketch:type="MSShapeGroup"><g fill="#C07866"><path d="M201.835 202.47l81.66-18.276c5.214-1.167 10.407 2.204 11.599 7.53l24.955 111.505c1.192 5.326-2.069 10.589-7.282 11.756l-81.66 18.276M200.172 204.198l81.172-18.167c5.183-1.16 10.324 2.101 11.484 7.284l24.286 108.513c1.16 5.183-2.101 10.324-7.284 11.484l-81.172 18.167" id="Shape"/><path id="Rectangle-path" d="M305.35 317.601l-8.916 1.991-29.29-131.132 8.916-1.991z"/></g><path d="M203.835 204.47l81.66-18.276c5.214-1.167 10.407 2.204 11.599 7.53l24.955 111.505c1.192 5.326-2.069 10.589-7.282 11.756l-81.66 18.276" id="Shape" fill="#C2BFBF"/><path d="M202.172 206.198l81.172-18.167c5.183-1.16 10.324 2.101 11.484 7.284l24.286 108.513c1.16 5.183-2.101 10.324-7.284 11.484l-81.172 18.167" id="Shape" fill="#333"/><path id="Rectangle-path" fill="#4F4C4C" d="M307.349 319.601l-8.916 1.991-29.29-131.132 8.916-1.991z"/></g><path d="M128.2 293.656l83.167 47.231c2.52 1.431 3.403 4.635 1.972 7.155-1.431 2.52-4.635 3.403-7.155 1.972l-83.167-47.231" id="Shape" fill="#C07866" sketch:type="MSShapeGroup"/><text transform="matrix(.861 .509 -.509 .861 159.38 314.246)" id="Sharpie" font-size="7" font-family="Helvetica" fill="#000" sketch:type="MSTextLayer"><tspan x=".194" y="5.612">Sharpie</tspan></text><path d="M151.102 307.239l-5.183 9.127-29.122-16.539s-7.292-4.333-5.896-8.14l1.67-2.941s2.83-2.362 9.905 1.082l29.122 16.539-.496.872z" id="Shape" fill="#C07866" sketch:type="MSShapeGroup"/><path id="Rectangle-path" fill="#C07866" sketch:type="MSShapeGroup" d="M148.058 309.441l-1.276 2.246-30.32-17.216 1.276-2.246zM147.446 309.148l-.638 1.123-30.32-17.216.638-1.123z"/><path d="M130.2 295.656l83.167 47.231c2.52 1.431 3.403 4.635 1.972 7.155-1.431 2.52-4.635 3.403-7.155 1.972l-83.167-47.231" id="Shape" fill="#D4D6D4" sketch:type="MSShapeGroup"/><text transform="matrix(.861 .509 -.509 .861 159.38 314.246)" id="Sharpie" font-size="7" font-family="Helvetica" fill="#000" sketch:type="MSTextLayer"><tspan x=".194" y="5.612">Sharpie</tspan></text><path d="M153.102 309.239l-5.183 9.127-29.122-16.539s-7.292-4.333-5.896-8.14l1.67-2.941s2.83-2.362 9.905 1.082l29.122 16.539-.496.872z" id="Shape" fill="#00ADEE" sketch:type="MSShapeGroup"/><path id="Rectangle-path" fill="#44C7F4" sketch:type="MSShapeGroup" d="M150.059 311.441l-1.276 2.246-30.32-17.216 1.276-2.246z"/><path id="Rectangle-path" fill="#0095C0" sketch:type="MSShapeGroup" d="M149.447 311.149l-.638 1.123-30.32-17.216.638-1.123z"/><path d="M90.293 267.591l93.269 21.177c2.826.642 4.597 3.453 3.956 6.28-.642 2.826-3.453 4.598-6.28 3.956l-93.269-21.177" id="Shape" fill="#C07866" sketch:type="MSShapeGroup"/><text transform="matrix(.971 .238 -.238 .971 129.27 278.811)" id="Sharpie" font-size="7" font-family="Helvetica" fill="#000" sketch:type="MSTextLayer"><tspan x="-.011" y="6.251">Sharpie</tspan></text><path d="M116.143 273.976l-2.324 10.235-32.659-7.415s-8.233-2.04-7.998-6.089l.749-3.298s2.026-3.079 9.795-1.828l32.659 7.415-.222.98z" id="Shape" fill="#C07866" sketch:type="MSShapeGroup"/><path id="Rectangle-path" fill="#C07866" sketch:type="MSShapeGroup" d="M113.537 276.507l-.571 2.517-33.979-7.702.571-2.517zM114.055 277.317l-.285 1.259-33.979-7.702.285-1.259z"/><path d="M92.293 269.591l93.269 21.177c2.826.642 4.597 3.453 3.956 6.28-.642 2.826-3.453 4.598-6.28 3.956l-93.269-21.177" id="Shape" fill="#D4D6D4" sketch:type="MSShapeGroup"/><text transform="matrix(.971 .238 -.238 .971 129.27 278.811)" font-size="7" font-family="Helvetica" fill="#000" sketch:type="MSTextLayer"><tspan x="-.011" y="6.251">Sharpie</tspan></text><path d="M118.143 275.976l-2.324 10.235-32.659-7.415s-8.233-2.04-7.998-6.089l.749-3.298s2.026-3.079 9.795-1.828l32.659 7.415-.222.98z" id="Shape" fill="#AB55A0" sketch:type="MSShapeGroup"/><path id="Rectangle-path" fill="#8B4983" sketch:type="MSShapeGroup" d="M115.538 278.508l-.571 2.517-33.979-7.702.571-2.517z"/><path id="Rectangle-path" fill="#BB7BB4" sketch:type="MSShapeGroup" d="M116.055 279.317l-.285 1.259-33.979-7.702.285-1.259z"/></g><g id="Group" sketch:type="MSShapeGroup"><g transform="translate(404 88) translate(46 209)" fill="#D5CECE"><circle cx="9.5" cy="9.5" r="9.5"/><circle cx="38.5" cy="9.5" r="9.5"/><circle cx="65.5" cy="9.5" r="9.5"/></g><path d="M404 88h215v300h-215z" id="Rectangle-path" fill="#34B38B"/><g id="Shape"><g id="Group" fill="#033233"><path d="M566.038 177.901c0 5.095-4.13 9.225-9.225 9.225h-78.018c-5.095 0-9.225-4.13-9.225-9.225s4.13-9.225 9.225-9.225h78.018c5.095 0 9.225 4.13 9.225 9.225zM490.89 194.59c0 1.615-1.31 2.925-2.925 2.925-1.615 0-2.925-1.31-2.925-2.925v-10.873c0-1.615 1.31-2.925 2.925-2.925 1.615 0 2.925 1.31 2.925 2.925v10.873zM550.739 194.973c0 1.615-1.31 2.925-2.925 2.925-1.615 0-2.925-1.31-2.925-2.925v-10.873c0-1.615 1.31-2.925 2.925-2.925 1.615 0 2.925 1.31 2.925 2.925v10.873zM566.038 177.901c0 5.095-4.13 9.225-9.225 9.225h-78.018c-5.095 0-9.225-4.13-9.225-9.225M469.57 177.901c0-5.095 4.13-9.225 9.225-9.225h78.018c5.095 0 9.225 4.13 9.225 9.225" id="Shape"/></g><g fill="#A0D3AC"><path d="M564.038 175.901c0 5.095-4.13 9.225-9.225 9.225h-78.018c-5.095 0-9.225-4.13-9.225-9.225s4.13-9.225 9.225-9.225h78.018c5.095 0 9.225 4.13 9.225 9.225zM488.89 192.59c0 1.615-1.31 2.925-2.925 2.925-1.615 0-2.925-1.31-2.925-2.925v-10.873c0-1.615 1.31-2.925 2.925-2.925 1.615 0 2.925 1.31 2.925 2.925v10.873zM548.739 192.973c0 1.615-1.31 2.925-2.925 2.925-1.615 0-2.925-1.31-2.925-2.925v-10.873c0-1.615 1.31-2.925 2.925-2.925 1.615 0 2.925 1.31 2.925 2.925v10.873zM564.038 175.901c0 5.095-4.13 9.225-9.225 9.225h-78.018c-5.095 0-9.225-4.13-9.225-9.225M467.57 175.901c0-5.095 4.13-9.225 9.225-9.225h78.018c5.095 0 9.225 4.13 9.225 9.225" id="Shape"/></g></g><path d="M440.697 302.298l75.096 85.702h103.207v-154.202l-24.194-40.577" id="Shape" opacity=".32" fill="#033"/><path id="Rectangle-path" fill="#6CC396" d="M441 193h154.109v109.077h-154.109z"/><path id="Rectangle-path" fill="#A0D3AC" d="M441 193h154.109v47.962h-154.109z"/><path id="Rectangle-path" fill="#D1E7C4" d="M457 193h17.216v47.493h-17.216zM492 193h17.216v47.493h-17.216zM527 193h17.216v47.493h-17.216zM562 193h17.216v47.493h-17.216z"/><path d="M509.182 239.997c0 4.92-3.913 8.908-8.741 8.908-4.828 0-8.741-3.988-8.741-8.908M544.316 239.997c0 4.92-3.988 8.908-8.908 8.908s-8.908-3.988-8.908-8.908M579.246 239.997c0 4.92-3.988 8.908-8.908 8.908s-8.908-3.988-8.908-8.908" id="Shape" fill="#D1E7C4"/><path d="M457.313 240.097c0 4.809-3.72 8.708-8.308 8.708-4.588 0-8.308-3.899-8.308-8.708M491.57 240.097c0 4.809-3.962 8.708-8.85 8.708s-8.85-3.899-8.85-8.708M526.47 240.097c0 4.809-3.811 8.708-8.513 8.708s-8.513-3.899-8.513-8.708M561.472 240.097c0 4.809-3.841 8.708-8.578 8.708-4.738 0-8.578-3.899-8.578-8.708M594.678 240.097c0 4.809-3.522 8.708-7.866 8.708-4.344 0-7.866-3.899-7.866-8.708" id="Shape" fill="#A0D3AC"/><path d="M474.122 239.997c0 4.92-3.88 8.908-8.666 8.908-4.786 0-8.666-3.988-8.666-8.908" fill="#D1E7C4"/><path id="Rectangle-path" fill="#3A4A4F" d="M502 255h30.993v47.423h-30.993z"/><path opacity=".11" fill="#EECDE1" d="M441 193h154.109v31.091h-154.109z"/></g></g></g></svg>