<svg width="1024" height="460" viewBox="0 0 1024 460" xmlns="http://www.w3.org/2000/svg" xmlns:sketch="http://www.bohemiancoding.com/sketch/ns"><title>Untitled 3</title><desc>Created with Sketch.</desc><g sketch:type="MSLayerGroup" fill="none"><g sketch:type="MSShapeGroup"><path id="Rectangle-path" d="M0 0h1024v400h-1024z"/><g id="Group"><g transform="translate(718 18) translate(91 93)"><path id="Rectangle-path" fill="#4C8DC4" d="M.366 27.201l169.796-27.697 33.436 204.975-169.796 27.697z"/><path d="M7.89 40.212l156.369-25.528M9.51 50.131l156.368-25.529M11.129 60.049l156.368-25.528M12.748 69.968l156.369-25.528M14.368 79.886l156.368-25.528M15.987 89.805l156.368-25.528M17.606 99.724l156.369-25.529M19.225 109.642l156.369-25.528M20.845 119.561l156.368-25.528M22.464 129.479l156.368-25.528M24.083 139.398l156.369-25.528M25.702 149.317l156.369-25.529M27.322 159.235l156.368-25.528M28.941 169.154l156.369-25.528M30.56 179.072l156.369-25.528M32.18 188.991l156.368-25.528M33.799 198.91l156.368-25.529M35.418 208.828l156.369-25.528M37.037 218.747l156.369-25.528" id="Shape" stroke="#4C8DC4" stroke-width=".25" opacity=".28"/><circle id="Oval" fill="#4C8DC4" cx="182.034" cy="119.034" r="2.034"/><circle id="Oval" fill="#4C8DC4" cx="173.034" cy="69.034" r="2.034"/></g><path id="Rectangle-path" fill="#FFF4C0" d="M811.366 140.201l169.796-27.697 33.436 204.975-169.796 27.697z"/><g transform="translate(819 128)"><path d="M-.11 25.212l156.369-25.528M1.51 35.131l156.368-25.529M3.129 45.049l156.368-25.528M4.748 54.968l156.369-25.528M6.368 64.886l156.368-25.528M7.987 74.805l156.368-25.528M9.606 84.724l156.369-25.529M11.225 94.642l156.369-25.528M12.845 104.561l156.368-25.528M14.464 114.479l156.368-25.528M16.083 124.398l156.369-25.528M17.702 134.317l156.369-25.529M19.322 144.235l156.368-25.528M20.941 154.154l156.369-25.528M22.56 164.072l156.369-25.528M24.18 173.991l156.368-25.528M25.799 183.91l156.368-25.529M27.418 193.828l156.369-25.528M29.037 203.747l156.369-25.528" id="Shape" stroke="#7B2525" stroke-width=".25" opacity=".28"/><circle id="Oval" fill="#368BCA" cx="174.034" cy="104.034" r="2.034"/><circle id="Oval" fill="#368BCA" cx="165.034" cy="54.034" r="2.034"/></g><g fill="#4C8DC4"><path id="Rectangle-path" d="M960.497 28.521l32.409 11.134-61.138 177.96-32.409-11.134z"/><path d="M984.623 49.352l4.628 1.592M983.439 52.794l4.628 1.592M982.256 56.236l4.628 1.592M981.072 59.678l4.628 1.592M979.889 63.12l4.628 1.592M978.705 66.562l4.628 1.592M974.511 65.12l8.822 3.034M977.522 70.004l4.628 1.592M976.338 73.446l4.628 1.592M975.155 76.888l4.628 1.592M973.971 80.33l4.628 1.592M968.594 82.33l8.822 3.034M971.604 87.214l4.628 1.592M970.421 90.657l4.628 1.591M969.237 94.099l4.628 1.591M968.054 97.541l4.628 1.591M962.676 99.54l8.822 3.034M965.481 104.316l4.628 1.592M964.298 107.759l4.628 1.591M963.114 111.201l4.628 1.591M961.931 114.643l4.628 1.591M960.747 118.085l4.628 1.591M959.564 121.527l4.628 1.591M955.37 120.084l8.822 3.034M958.38 124.969l4.628 1.591M957.197 128.411l4.628 1.591M956.013 131.853l4.628 1.591M954.83 135.295l4.628 1.591M949.452 137.295l8.822 3.033M952.463 142.179l4.628 1.591M951.279 145.621l4.628 1.591M950.096 149.063l4.628 1.591M948.912 152.505l4.628 1.591M943.535 154.505l8.822 3.033M946.347 159.261l4.628 1.591M945.163 162.703l4.628 1.591M943.98 166.145l4.628 1.591M942.796 169.587l4.628 1.591M941.613 173.029l4.628 1.591M940.429 176.471l4.628 1.591M936.235 175.029l8.822 3.033M939.246 179.913l4.628 1.591M938.062 183.355l4.628 1.591M936.879 186.797l4.628 1.591M935.695 190.239l4.628 1.591M930.318 192.239l8.822 3.033M933.328 197.123l4.628 1.591M932.145 200.565l4.628 1.591M930.961 204.007l4.628 1.591M929.778 207.449l4.628 1.591M924.4 209.449l8.822 3.033" id="Shape" stroke="#4C8DC4"/><path d="M916.794 204.408c-.412 1.198-1.717 1.835-2.915 1.423l-6.725-2.312c-1.198-.412-1.835-1.717-1.423-2.915.412-1.198 1.717-1.835 2.915-1.423l6.725 2.312c1.198.412 1.835 1.717 1.423 2.915z" id="Shape"/></g><path id="Rectangle-path" fill="#F9CE34" d="M962.497 30.521l32.409 11.134-61.138 177.96-32.409-11.134z"/><g id="Shape"><path d="M986.623 51.352l4.628 1.592M985.439 54.794l4.628 1.592M984.256 58.236l4.628 1.592M983.072 61.678l4.628 1.592M981.889 65.12l4.628 1.592M980.705 68.562l4.628 1.592" stroke="#231F20" fill="#CA9731"/><g stroke="#231F20" fill="#CA9731"><path d="M976.511 67.12l8.822 3.034M979.522 72.004l4.628 1.592M978.338 75.446l4.628 1.592M977.155 78.888l4.628 1.592M975.971 82.33l4.628 1.592M970.594 84.33l8.822 3.034"/><g id="Group"><path d="M973.604 89.214l4.628 1.592M972.421 92.657l4.628 1.591M971.237 96.099l4.628 1.591M970.054 99.541l4.628 1.591M964.676 101.54l8.822 3.034" id="Shape"/></g></g><g stroke="#231F20" fill="#CA9731"><path d="M967.481 106.316l4.628 1.592M966.298 109.759l4.628 1.591M965.114 113.201l4.628 1.591M963.931 116.643l4.628 1.591M962.747 120.085l4.628 1.591M961.564 123.527l4.628 1.591"/><g id="Group"><path d="M957.37 122.084l8.822 3.034M960.38 126.969l4.628 1.591M959.197 130.411l4.628 1.591M958.013 133.853l4.628 1.591M956.83 137.295l4.628 1.591M951.452 139.295l8.822 3.033" id="Shape"/><g id="Shape"><path d="M954.463 144.179l4.628 1.591M953.279 147.621l4.628 1.591M952.096 151.063l4.628 1.591M950.912 154.505l4.628 1.591M945.535 156.505l8.822 3.033"/></g></g></g><g stroke="#231F20" fill="#CA9731"><path d="M948.347 161.261l4.628 1.591M947.163 164.703l4.628 1.591M945.98 168.145l4.628 1.591M944.796 171.587l4.628 1.591M943.613 175.029l4.628 1.591M942.429 178.471l4.628 1.591"/><g id="Group"><path d="M938.235 177.029l8.822 3.033M941.246 181.913l4.628 1.591M940.062 185.355l4.628 1.591M938.879 188.797l4.628 1.591M937.695 192.239l4.628 1.591M932.318 194.239l8.822 3.033" id="Shape"/><g id="Shape"><path d="M935.328 199.123l4.628 1.591M934.145 202.565l4.628 1.591M932.961 206.007l4.628 1.591M931.778 209.449l4.628 1.591M926.4 211.449l8.822 3.033"/></g></g></g><path d="M918.794 206.408c-.412 1.198-1.717 1.835-2.915 1.423l-6.725-2.312c-1.198-.412-1.835-1.717-1.423-2.915.412-1.198 1.717-1.835 2.915-1.423l6.725 2.312c1.198.412 1.835 1.717 1.423 2.915z" fill="#C3AA59"/></g><g fill="#4C8DC4" transform="translate(718 18) translate(41 189)"><path d="M46.16 43.524l-15.805-40.915s-1.297-3.526-3.779-2.748c-2.482.777-2.447 1.752-1.923 3.458.523 1.706 9.171 33.785 9.171 33.785l12.336 6.42zM58.181 55.324l-.163.656c-.072.27.163.675.853 1.074.69.393 33.924 20.548 33.924 20.548s.001.917.943 1.48c.944.563 3.424 1.828 3.728 1.987.304.158 1.026.016 1.317-.173.293-.185 1.342.105 1.966.358.624.256 2.995 1.318 4.932-1.838 1.937-3.151 12.374-15.718-.834-26.823 0 0-8.378-7.013-19.956-.522-11.58 6.49-20.791-.997-22.303-1.683 0 0-1.314-.462-2.273.881l-2.134 4.055zm28.913 12.837c-3.54-4.678-1.23-10.419 2.872-12.747 4.796-2.72 10.832-2.23 14.371 2.447 3.539 4.678 2.844 11.166-1.553 14.492-4.397 3.326-12.151.484-15.69-4.192zM41.632 65.877c-1.518.646-1.35 2.03-1.35 2.03.347 1.624 5.684 12.228-3.138 22.145-8.824 9.919-3.77 19.603-3.77 19.603 8.012 15.282 22.528 7.784 26.019 6.567 3.495-1.215 2.968-3.759 2.855-4.423-.11-.664-.173-1.752.075-1.997.245-.244.539-.921.449-1.249-.088-.331-.792-3.025-1.143-4.066-.347-1.044-1.243-1.241-1.243-1.241s-12.558-36.783-12.794-37.54c-.239-.761-.586-1.076-.867-1.064l-.677.017-4.416 1.218zm-2.439 45.752c-4.216-5.573-2.909-13.572 1.095-16.752 3.695-2.934 9.552-3.11 13.089 1.013 4.612 5.375 4.84 13.822.666 17.421-4.176 3.6-11.043 3.348-14.85-1.682zM46.242 65.12l-.663-3.073s1.648-.568 3.008-2.566l-10.302-6.291 3.54 13.147M60.314 51.269s-56.416-28.379-57.492-28.899c-1.079-.519-2.28-.277-2.812.826-.536 1.106-1.033 3.067.874 4.311 1.909 1.243 45.286 29.4 46.345 30.101 1.057.704 1.61.473 2.173.308.564-.164 2.802-.476 5.92-3.903l2.859 1.31" id="Shape"/><ellipse id="Oval" cx="47.552" cy="51.686" rx="1.552" ry="1.686"/></g><path d="M807.16 252.524l-15.805-40.915s-1.297-3.526-3.779-2.748c-2.482.777-2.447 1.752-1.923 3.458.523 1.706 9.171 33.785 9.171 33.785l12.336 6.42z" id="Shape" fill="#DBDAD5"/><path d="M819.181 264.324l-.163.656c-.072.27.163.675.853 1.074.69.393 33.924 20.548 33.924 20.548s.001.917.943 1.48c.944.563 3.424 1.828 3.728 1.987.304.158 1.026.016 1.317-.173.293-.185 1.342.105 1.966.358.624.256 2.995 1.318 4.932-1.838 1.937-3.151 12.374-15.718-.834-26.823 0 0-8.378-7.013-19.956-.522-11.58 6.49-20.791-.997-22.303-1.683 0 0-1.314-.462-2.273.881l-2.134 4.055zm28.913 12.837c-3.54-4.678-1.23-10.419 2.872-12.747 4.796-2.72 10.832-2.23 14.371 2.447 3.539 4.678 2.844 11.166-1.553 14.492-4.397 3.326-12.151.484-15.69-4.192zM802.632 274.877c-1.518.646-1.35 2.03-1.35 2.03.347 1.624 5.684 12.228-3.138 22.145-8.824 9.919-3.77 19.603-3.77 19.603 8.012 15.282 22.528 7.784 26.019 6.567 3.495-1.215 2.968-3.759 2.855-4.423-.11-.664-.173-1.752.075-1.997.245-.244.539-.921.449-1.249-.088-.331-.792-3.025-1.143-4.066-.347-1.044-1.243-1.241-1.243-1.241s-12.558-36.783-12.794-37.54c-.239-.761-.586-1.076-.867-1.064l-.677.017-4.416 1.218zm-2.439 45.752c-4.216-5.573-2.909-13.572 1.095-16.752 3.695-2.934 9.552-3.11 13.089 1.013 4.612 5.375 4.84 13.822.666 17.421-4.176 3.6-11.043 3.348-14.85-1.682z" id="Shape" fill="#F4802A"/><path d="M807.242 274.12l-.663-3.073s1.648-.568 3.008-2.566l-10.302-6.291 3.54 13.147M821.314 260.269s-56.416-28.379-57.492-28.899c-1.079-.519-2.28-.277-2.812.826-.536 1.106-1.033 3.067.874 4.311 1.909 1.243 45.286 29.4 46.345 30.101 1.057.704 1.61.473 2.173.308.564-.164 2.802-.476 5.92-3.903l2.859 1.31" id="Shape" fill="#DBDAD5"/><ellipse cx="1.552" cy="1.686" rx="1.552" ry="1.686" id="Oval" transform="translate(807 259)" fill="#929497"/><g fill="#4C8DC4" transform="translate(718 18)"><circle id="Oval" cx="84.206" cy="83.206" r="83.206"/><path d="M136.479 148.225c-30.341 15.906-49.609 11.771-50.314 11.611-1.064-2.778-3.108-8.159-4.278-11.466 3.078-1.177 13.626-6.303 27.002-24.908.081-.112.136-.237.181-.363 1.492.245 3.472.371 5.832.371 7.586 0 17.253-1.234 21.214-2.602l.007.01c4.719 7.674 5.805 16.536 5.998 18.539-1.262 2.227-4.167 6.609-5.642 8.808zm-97.091-47.737l21.973-21.338c.136.109.29.195.464.25.29.092 29.133 9.121 37.907 12.457.169.064.338.095.508.095l.148-.012 6.657 28.527s.005.691-.47 1.329c-14.927 20.756-26.189 24.083-26.327 24.123-.143.036-.273.104-.392.18-.383.014-.77.021-1.155.021-13.322 0-25.787-7.244-30.366-10.236-.207-.135-.691-.746-.813-.908-.097-.129-9.66-13.244-8.46-32.948.022-.356.326-1.54.326-1.54zm2.415-88.718l.152.01c.219 0 .444-.05.653-.161 20.963-10.803 36.628-2.868 36.814-2.769l.148.06 2.553 11.286c-16.683 7.869-28.044 23.698-28.527 24.376-.093.133-.155.275-.199.421-1.613-.235-4.492-.565-7.973-.565-5.387 0-12.968.801-19.397 4.468-.547-2.348-2.369-11.435-.067-19.772 1.863-2.963 5.653-8.436 10.029-13.406.055-.06.057-.15.01-.218 1.883-1.317 3.819-2.561 5.804-3.73zm82.62 57.51c-7.172 4.207-19.711 16.517-23.315 20.119-.109-.085-.224-.159-.361-.209-8.854-3.365-37.779-12.42-38.069-12.514-.19-.06-.383-.076-.57-.057l-6.663-29.031s-.207-.54.478-1.362c.116-.162 11.737-16.359 28.14-23.783l.138-.081c3.859.062 15.759 1.155 31.629 10.984l.073.197c10.34 21.024 8.453 34.865 8.432 35.01-.038.255 0 .502.088.727zm23.019 15.718c-.169.007-.328.048-.477.11-4.304-7.039-14.299-13.767-19.832-16.025l.026-.104c.09-.585 2.032-14.478-8.349-35.977 1.649-1.186 3.583-2.483 5.473-3.747 2.136-1.431 4.332-2.902 6.076-4.19 4.487 2.441 23.769 13.99 31.866 35.989.041.121.105.23.176.33.133 2.46.357 7.441.295 11.476l-.083.142c-3.347 7.576-11.655 11.835-15.171 11.996zm-63.252-84.723c36.277 0 67.168 23.045 78.842 55.291-5.166-11.207-12.928-19.332-18.86-24.366-7.203-6.108-13.178-9.035-13.517-9.201-4.133-6.777-18.032-18.574-35.11-18.574-4.971 0-9.905 1.001-14.689 2.968l-.104-.069c-.44-.233-7.341-3.774-18.133-3.244 6.884-1.826 14.113-2.805 21.571-2.805zm-66.516 32.815l.105.04.06-.01c1.925-.684 3.489-1.24 4.686-1.661-1.626 9.377.78 18.36.896 18.777.086.312.342 1.043.259 1.19-3.936 7.086-8.087 18.444-8.325 30.019-.128.017-.255.043-.38.095-5.589 2.317-10.095 7.635-12.206 10.473-.637-.824-1.336-1.782-2.101-2.878-.036-.052-.173-.318-.178-.439-.081-1.523-.128-3.051-.128-4.592 0-19.198 6.457-36.884 17.312-51.014zm-14.392 72.344c0-.067.1-6.26.77-10.299.948-1.412 5.87-8.415 12.016-10.965l.136-.073c3.406 4.209 13.65 13.213 19.91 17.146.073.045.109.439.1.608-1.126 18.491 6.547 31.182 8.557 34.166-2.146 2.003-6.127 5.694-8.619 7.871-.428.143-1.179.188-1.766.214-1.811.079-6.48-.492-14.635-6.385-7.526-9.035-13.187-19.679-16.393-31.336-.071-.26-.078-.866-.076-.947zm30.75 41.538c.589 0 1.06-.052 1.433-.117 2.263 3.482 7.802 9.938 8.607 10.87-6.309-3.448-12.123-7.679-17.317-12.567 3.298 1.443 5.689 1.814 7.277 1.814zm50.158 20.96c-4.867 0-9.636-.42-14.275-1.215 6.354-.447 12.614-2.939 15.378-4.176l.164.06c.304.076 3.128.742 8.149.742 7.37 0 19.468-1.438 35.248-8.294-12.932 8.157-28.245 12.883-44.664 12.883zm65.842-31.939c-.05-.036-.109-.057-.166-.036-1.621.556-3.626 1.177-5.081 1.616-.483-3.605-1.96-11.243-6.229-18.187-.109-.18-.252-.321-.414-.43 8.496-16.757 8.852-22.101 9.378-30.083l.067-1.027c3.947-.185 12.41-4.275 16.702-11.846 1.887 3.068 3.541 8.094 3.562 8.159.024.074.167.597.164.836-.205 19.248-6.892 36.941-17.983 50.998z" id="Shape"/></g><g transform="translate(718 18) translate(7 4)"><circle id="Oval" fill="#515153" cx="84.206" cy="83.206" r="83.206"/><path d="M136.479 148.225c-30.341 15.906-49.609 11.771-50.314 11.611-1.064-2.778-3.108-8.159-4.278-11.466 3.078-1.177 13.626-6.303 27.002-24.908.081-.112.136-.237.181-.363 1.492.245 3.472.371 5.832.371 7.586 0 17.253-1.234 21.214-2.602l.007.01c4.719 7.674 5.805 16.536 5.998 18.539-1.262 2.227-4.167 6.609-5.642 8.808zm-97.091-47.737l21.973-21.338c.136.109.29.195.464.25.29.092 29.133 9.121 37.907 12.457.169.064.338.095.508.095l.148-.012 6.657 28.527s.005.691-.47 1.329c-14.927 20.756-26.189 24.083-26.327 24.123-.143.036-.273.104-.392.18-.383.014-.77.021-1.155.021-13.322 0-25.787-7.244-30.366-10.236-.207-.135-.691-.746-.813-.908-.097-.129-9.66-13.244-8.46-32.948.022-.356.326-1.54.326-1.54zm2.415-88.718l.152.01c.219 0 .444-.05.653-.161 20.963-10.803 36.628-2.868 36.814-2.769l.148.06 2.553 11.286c-16.683 7.869-28.044 23.698-28.527 24.376-.093.133-.155.275-.199.421-1.613-.235-4.492-.565-7.973-.565-5.387 0-12.968.801-19.397 4.468-.547-2.348-2.369-11.435-.067-19.772 1.863-2.963 5.653-8.436 10.029-13.406.055-.06.057-.15.01-.218 1.883-1.317 3.819-2.561 5.804-3.73zm82.62 57.51c-7.172 4.207-19.711 16.517-23.315 20.119-.109-.085-.224-.159-.361-.209-8.854-3.365-37.779-12.42-38.069-12.514-.19-.06-.383-.076-.57-.057l-6.663-29.031s-.207-.54.478-1.362c.116-.162 11.737-16.359 28.14-23.783l.138-.081c3.859.062 15.759 1.155 31.629 10.984l.073.197c10.34 21.024 8.453 34.865 8.432 35.01-.038.255 0 .502.088.727zm23.019 15.718c-.169.007-.328.048-.477.11-4.304-7.039-14.299-13.767-19.832-16.025l.026-.104c.09-.585 2.032-14.478-8.349-35.977 1.649-1.186 3.583-2.483 5.473-3.747 2.136-1.431 4.332-2.902 6.076-4.19 4.487 2.441 23.769 13.99 31.866 35.989.041.121.105.23.176.33.133 2.46.357 7.441.295 11.476l-.083.142c-3.347 7.576-11.655 11.835-15.171 11.996zm-63.252-84.723c36.277 0 67.168 23.045 78.842 55.291-5.166-11.207-12.928-19.332-18.86-24.366-7.203-6.108-13.178-9.035-13.517-9.201-4.133-6.777-18.032-18.574-35.11-18.574-4.971 0-9.905 1.001-14.689 2.968l-.104-.069c-.44-.233-7.341-3.774-18.133-3.244 6.884-1.826 14.113-2.805 21.571-2.805zm-66.516 32.815l.105.04.06-.01c1.925-.684 3.489-1.24 4.686-1.661-1.626 9.377.78 18.36.896 18.777.086.312.342 1.043.259 1.19-3.936 7.086-8.087 18.444-8.325 30.019-.128.017-.255.043-.38.095-5.589 2.317-10.095 7.635-12.206 10.473-.637-.824-1.336-1.782-2.101-2.878-.036-.052-.173-.318-.178-.439-.081-1.523-.128-3.051-.128-4.592 0-19.198 6.457-36.884 17.312-51.014zm-14.392 72.344c0-.067.1-6.26.77-10.299.948-1.412 5.87-8.415 12.016-10.965l.136-.073c3.406 4.209 13.65 13.213 19.91 17.146.073.045.109.439.1.608-1.126 18.491 6.547 31.182 8.557 34.166-2.146 2.003-6.127 5.694-8.619 7.871-.428.143-1.179.188-1.766.214-1.811.079-6.48-.492-14.635-6.385-7.526-9.035-13.187-19.679-16.393-31.336-.071-.26-.078-.866-.076-.947zm30.75 41.538c.589 0 1.06-.052 1.433-.117 2.263 3.482 7.802 9.938 8.607 10.87-6.309-3.448-12.123-7.679-17.317-12.567 3.298 1.443 5.689 1.814 7.277 1.814zm50.158 20.96c-4.867 0-9.636-.42-14.275-1.215 6.354-.447 12.614-2.939 15.378-4.176l.164.06c.304.076 3.128.742 8.149.742 7.37 0 19.468-1.438 35.248-8.294-12.932 8.157-28.245 12.883-44.664 12.883zm65.842-31.939c-.05-.036-.109-.057-.166-.036-1.621.556-3.626 1.177-5.081 1.616-.483-3.605-1.96-11.243-6.229-18.187-.109-.18-.252-.321-.414-.43 8.496-16.757 8.852-22.101 9.378-30.083l.067-1.027c3.947-.185 12.41-4.275 16.702-11.846 1.887 3.068 3.541 8.094 3.562 8.159.024.074.167.597.164.836-.205 19.248-6.892 36.941-17.983 50.998z" id="Shape" fill="#fff"/></g><path d="M928.561 121.882l2.872-.796-30.252 87.514-2.831-.796 30.211-85.922z" id="Shape" fill="#C3AA59"/></g><g id="Group"><path d="M404 88h215v300h-215z" id="Rectangle-path" fill="#34B38B"/><path d="M455.653 332.48l49.236 55.52h114.568v-133.837l-77.186-79.02" id="Shape" opacity=".32" fill="#033"/><g transform="translate(404 88) translate(50 32)"><g transform="translate(1 53)"><path d="M118.408 150.79l-43.084-74.501v-53.079h7.889c4.338 0 7.89-5.929 7.89-11.445 0-5.51-3.552-11.445-7.89-11.445h-47.336000000000006c-4.338 0-7.889 5.935-7.889 11.445 0 5.516 3.552 11.445 7.889 11.445h7.889v53.078l-43.084 74.501c-2.277 5.365-.578 9.757 3.76 9.757h110.207c4.337.001 6.028-4.392 3.759-9.756z" id="Shape" fill="#58B68C"/><g id="Shape" stroke="#6CC396"><path d="M43.767 25.483h8.95M43.767 31.119h8.95M43.767 36.756h8.95M43.767 42.392h8.95M43.767 48.028h8.95"/></g><ellipse id="Oval" fill="#58B68C" cx="11.681" cy="155.87" rx="11.681" ry="10.87"/><ellipse id="Oval" fill="#58B68C" cx="107.681" cy="155.87" rx="11.681" ry="10.87"/><path d="M11.352 166.296h97.335l-30.325-30.354h-56.693l-10.317 30.354z" id="Shape" fill="#58B68C"/><g id="Shape" stroke="#6CC396"><path d="M43.767 53.665h8.95M43.767 59.301h8.95M43.767 64.937h8.95M43.767 70.574h8.95"/></g></g><path d="M33.92 148.045h53.252l32.73 57.117s3.413 11.214-10.214 14.134h-97.335s-15.578-1.703-10.726-15.177l32.293-56.074z" id="Shape" fill="#6CC396"/><path d="M59.8 53.321h-22.923000000000002c-4.338 0-7.889 5.935-7.889 11.445 0 5.516 3.552 11.445 7.889 11.445h7.889v53.078l-43.084 74.501c-5.153 7.232 4.867 15.597 9.205 15.597h51.91" id="Shape" opacity=".24" fill="#C4E4D0"/><circle id="Oval" fill="#6CC396" cx="43.973" cy="19.973" r="4.973"/><circle id="Oval" fill="#6CC396" cx="56.024" cy="37.024" r="7.024"/><path d="M78.734 10.535c.964 7.653-5.471 14.088-13.124 13.124-5.214-.657-9.425-4.868-10.082-10.082-.964-7.653 5.471-14.088 13.124-13.124 5.214.657 9.425 4.868 10.082 10.082z" id="Shape" fill="#6CC396"/><path d="M65.61 23.659c-5.214-.657-9.425-4.868-10.082-10.082-.964-7.653 5.471-14.088 13.124-13.124M57.904 43.915c-3.718 1.106-7.629-1.012-8.734-4.731-1.105-3.719 1.012-7.629 4.731-8.734M45.602 24.968c-2.582.937-5.434-.397-6.37-2.979-.936-2.582.397-5.434 2.979-6.37" id="Shape" opacity=".15" fill="#C4E4D0"/></g></g><g id="Group"><path id="Rectangle-path" fill="#4C8DC4" d="M166.651 273.34l-104.032-178.696 127.6-74.286 104.032 178.696z"/><path d="M195.715 279.007l9.417 1.181-12.563-21.569-13.037 7.593 12.564 21.57 3.619-8.775" id="Shape" fill="#4C8DC4"/><path d="M270.029 200.888l5.569-3.244M269.502 199.983l5.569-3.244M268.974 199.077l5.569-3.243M274.016 194.928l-5.569 3.244M267.92 197.266l5.568-3.243M264.46 204.132l5.569-3.244M263.933 203.227l5.569-3.244M263.406 202.321l5.568-3.244M268.447 198.172l-5.569 3.243M262.351 200.51l5.569-3.244M258.892 207.375l5.568-3.243M258.364 206.47l5.569-3.243M257.837 205.565l5.569-3.244M262.878 201.415l-5.569 3.244M256.782 203.754l5.569-3.244M253.323 210.619l5.569-3.244M252.796 209.714l5.568-3.244M252.268 208.808l5.569-3.243M257.309 204.659l-5.568 3.244M251.213 206.997l5.569-3.243M247.754 213.863l5.569-3.244M247.227 212.958l5.569-3.244M246.699 212.052l5.569-3.244M251.741 207.903l-5.569 3.243M245.644 210.241l5.569-3.244M242.185 217.107l5.569-3.244M241.658 216.202l5.569-3.244M241.13 215.296l5.569-3.244M246.172 211.146l-5.569 3.244M240.075 213.485l5.569-3.244M236.616 220.35l5.569-3.243M236.089 219.445l5.569-3.243M235.561 218.539l5.569-3.243M240.603 214.39l-5.569 3.244M234.507 216.728l5.568-3.243M231.047 223.594l5.569-3.244M230.52 222.689l5.569-3.244M229.993 221.783l5.568-3.244M235.034 217.634l-5.569 3.244M228.938 219.972l5.569-3.244M225.479 226.838l5.568-3.244M224.951 225.933l5.569-3.244M224.424 225.027l5.569-3.244M229.465 220.878l-5.569 3.243M223.369 223.216l5.569-3.244M219.91 230.081l5.569-3.243M219.383 229.176l5.568-3.243M218.855 228.27l5.569-3.243M223.896 224.121l-5.568 3.244M217.8 226.46l5.569-3.244M214.341 233.325l5.569-3.244M213.814 232.42l5.569-3.244M213.286 231.514l5.569-3.244M218.328 227.365l-5.569 3.244M212.231 229.703l5.569-3.243M208.772 236.569l5.569-3.244M208.245 235.664l5.569-3.244M207.717 234.758l5.569-3.244M212.759 230.609l-5.569 3.243M206.663 232.947l5.568-3.244M203.203 239.812l5.569-3.243M202.676 238.907l5.569-3.243M202.149 238.001l5.568-3.243M207.19 233.852l-5.569 3.244M201.094 236.191l5.569-3.244M197.635 243.056l5.568-3.244M197.107 242.151l5.569-3.244M196.58 241.245l5.569-3.244M201.621 237.096l-5.569 3.244M195.525 239.434l5.569-3.243M192.066 246.3l5.569-3.244M191.539 245.395l5.568-3.244M191.011 244.489l5.569-3.244M196.052 240.34l-5.568 3.243M189.956 242.678l5.569-3.244M186.497 249.543l5.569-3.243M185.97 248.638l5.569-3.243M185.442 247.733l5.569-3.244M190.484 243.583l-5.569 3.244M184.387 245.922l5.569-3.244M180.928 252.787l5.569-3.244M180.401 251.882l5.569-3.244M179.873 250.976l5.569-3.243M184.915 246.827l-5.569 3.244M178.819 249.165l5.568-3.243M175.359 256.031l5.569-3.244M174.832 255.126l5.569-3.244M174.305 254.22l5.568-3.244M179.346 250.071l-5.569 3.243M173.25 252.409l5.569-3.244M163.432 248.22l3.21 5.511M164.337 247.693l3.21 5.511M165.243 247.165l3.21 5.511M169.358 252.149l-3.21-5.511M167.054 246.11l3.21 5.511M160.222 242.709l3.21 5.511M161.127 242.182l3.21 5.511M162.033 241.654l3.21 5.511M166.148 246.638l-3.21-5.511M163.844 240.599l3.21 5.511M157.012 237.198l3.21 5.511M157.917 236.671l3.21 5.511M158.823 236.143l3.21 5.511M162.938 241.127l-3.21-5.511M160.634 235.088l3.21 5.511M153.802 231.687l3.21 5.511M154.707 231.16l3.21 5.511M155.613 230.632l3.21 5.511M159.728 235.616l-3.21-5.511M157.424 229.577l3.21 5.511M150.592 226.176l3.21 5.511M151.497 225.649l3.21 5.511M152.403 225.121l3.21 5.511M156.518 230.105l-3.21-5.511M154.214 224.066l3.21 5.511M147.382 220.665l3.21 5.511M148.287 220.138l3.21 5.511M149.193 219.61l3.21 5.511M153.308 224.594l-3.21-5.511M151.004 218.555l3.21 5.511M144.172 215.154l3.21 5.511M145.077 214.627l3.21 5.511M145.983 214.099l3.21 5.511M150.098 219.083l-3.21-5.511M147.794 213.044l3.21 5.511M140.962 209.643l3.21 5.511M141.867 209.116l3.21 5.511M142.773 208.588l3.21 5.511M146.888 213.572l-3.21-5.511M144.584 207.534l3.21 5.51M137.752 204.132l3.21 5.511M138.657 203.605l3.21 5.511M139.563 203.077l3.21 5.511M143.678 208.061l-3.21-5.511M141.374 202.023l3.21 5.511M134.542 198.621l3.21 5.511M135.447 198.094l3.21 5.511M136.353 197.566l3.21 5.511M140.468 202.55l-3.21-5.511M138.164 196.512l3.21 5.511M131.332 193.11l3.21 5.511M132.237 192.583l3.21 5.511M133.143 192.055l3.21 5.511M137.258 197.039l-3.21-5.511M134.954 191.001l3.21 5.511M128.122 187.599l3.21 5.511M129.027 187.072l3.21 5.511M129.933 186.544l3.21 5.511M134.048 191.528l-3.209-5.511M131.744 185.49l3.21 5.511M124.912 182.088l3.21 5.511M125.817 181.561l3.21 5.511M126.723 181.034l3.21 5.51M130.839 186.017l-3.21-5.511M128.534 179.979l3.21 5.511M121.702 176.577l3.21 5.511M122.607 176.05l3.21 5.511M123.513 175.523l3.21 5.511M127.629 180.506l-3.21-5.511M125.324 174.468l3.21 5.511M118.492 171.066l3.21 5.511M119.397 170.539l3.21 5.511M120.303 170.012l3.21 5.511M124.419 174.995l-3.21-5.511M122.114 168.957l3.21 5.511M115.282 165.555l3.21 5.511M116.187 165.028l3.21 5.511M117.093 164.501l3.21 5.511M121.209 169.484l-3.21-5.511M118.904 163.446l3.21 5.511M112.072 160.044l3.21 5.511M112.977 159.517l3.21 5.511M113.883 158.99l3.21 5.511M117.999 163.973l-3.21-5.511M115.694 157.935l3.21 5.511M108.862 154.534l3.21 5.51M109.767 154.006l3.21 5.511M110.673 153.479l3.21 5.511M114.789 158.462l-3.21-5.511M112.484 152.424l3.21 5.511M105.652 149.023l3.21 5.511M106.557 148.495l3.21 5.511M107.463 147.968l3.21 5.511M111.579 152.951l-3.21-5.511M109.274 146.913l3.21 5.511M102.442 143.512l3.21 5.511M103.347 142.984l3.21 5.511M104.253 142.457l3.21 5.511M108.369 147.44l-3.21-5.511M106.064 141.402l3.21 5.511M99.232 138.001l3.21 5.511M100.137 137.473l3.21 5.511M101.043 136.946l3.21 5.511M105.159 141.929l-3.21-5.511M102.854 135.891l3.21 5.511M96.022 132.49l3.21 5.511M96.927 131.963l3.21 5.51M97.833 131.435l3.21 5.511M101.949 136.418l-3.21-5.511M99.644 130.38l3.21 5.511M92.812 126.979l3.21 5.511M93.717 126.452l3.21 5.511M94.623 125.924l3.21 5.511M98.739 130.907l-3.21-5.51M96.434 124.869l3.21 5.511M89.602 121.468l3.21 5.511M90.507 120.941l3.21 5.511M91.413 120.413l3.21 5.511M95.529 125.397l-3.21-5.511M93.224 119.358l3.21 5.511M86.392 115.957l3.21 5.511M87.297 115.43l3.21 5.511M88.203 114.902l3.21 5.511M92.319 119.886l-3.21-5.511M90.014 113.847l3.21 5.511M83.182 110.446l3.21 5.511M84.087 109.919l3.21 5.511M84.993 109.391l3.21 5.511M89.109 114.375l-3.21-5.511M86.804 108.336l3.21 5.511M79.972 104.935l3.21 5.511M80.877 104.408l3.21 5.511M81.783 103.88l3.21 5.511M85.899 108.864l-3.21-5.511M83.594 102.825l3.21 5.511M87.841 92.974l-5.569 3.244M88.368 93.879l-5.569 3.244M88.896 94.785l-5.569 3.243M83.854 98.934l5.569-3.244M89.951 96.596l-5.569 3.243M93.41 89.73l-5.569 3.244M93.937 90.635l-5.569 3.244M94.465 91.541l-5.569 3.244M89.423 95.69l5.569-3.243M95.52 93.352l-5.569 3.244M98.979 86.487l-5.569 3.243M99.506 87.392l-5.569 3.243M100.034 88.297l-5.569 3.244M94.992 92.447l5.569-3.244M101.088 90.108l-5.568 3.244M104.548 83.243l-5.569 3.244M105.075 84.148l-5.569 3.244M105.602 85.054l-5.568 3.243M100.561 89.203l5.569-3.244M106.657 86.865l-5.569 3.243M110.116 79.999l-5.568 3.244M110.644 80.904l-5.569 3.244M111.171 81.81l-5.569 3.244M106.13 85.959l5.569-3.244M112.226 83.621l-5.569 3.244M115.685 76.755l-5.569 3.244M116.212 77.66l-5.568 3.244M116.74 78.566l-5.569 3.244M111.699 82.715l5.568-3.243M117.795 80.377l-5.569 3.244M121.254 73.512l-5.569 3.243M121.781 74.417l-5.569 3.243M122.309 75.323l-5.569 3.243M117.267 79.472l5.569-3.244M123.364 77.134l-5.569 3.243M126.823 70.268l-5.569 3.244M127.35 71.173l-5.569 3.244M127.878 72.079l-5.569 3.244M122.836 76.228l5.569-3.244M128.932 73.89l-5.568 3.244M132.392 67.024l-5.569 3.244M132.919 67.929l-5.569 3.244M133.446 68.835l-5.568 3.244M128.405 72.984l5.569-3.243M134.501 70.646l-5.569 3.244M137.96 63.781l-5.568 3.243M138.488 64.686l-5.569 3.243M139.015 65.592l-5.569 3.243M133.974 69.741l5.569-3.244M140.07 67.403l-5.569 3.243M143.529 60.537l-5.569 3.244M144.056 61.442l-5.568 3.244M144.584 62.348l-5.569 3.244M139.543 66.497l5.568-3.244M145.639 64.159l-5.569 3.244M149.098 57.293l-5.569 3.244M149.625 58.198l-5.569 3.244M150.153 59.104l-5.569 3.244M145.111 63.253l5.569-3.243M151.208 60.915l-5.569 3.244M154.667 54.05l-5.569 3.243M155.194 54.955l-5.569 3.243M155.722 55.861l-5.569 3.243M150.68 60.01l5.569-3.244M156.776 57.671l-5.568 3.244M160.236 50.806l-5.569 3.244M160.763 51.711l-5.569 3.244M161.29 52.617l-5.568 3.244M156.249 56.766l5.569-3.244M162.345 54.428l-5.569 3.243M165.804 47.562l-5.568 3.244M166.332 48.467l-5.569 3.244M166.859 49.373l-5.569 3.244M161.818 53.522l5.569-3.243M167.914 51.184l-5.569 3.244M171.373 44.319l-5.569 3.243M171.9 45.224l-5.568 3.243M172.428 46.129l-5.569 3.244M167.387 50.279l5.568-3.244M173.483 47.94l-5.569 3.244M176.942 41.075l-5.569 3.244M177.469 41.98l-5.569 3.244M177.997 42.886l-5.569 3.243M172.955 47.035l5.569-3.244M179.052 44.697l-5.569 3.243M182.511 37.831l-5.569 3.244M183.038 38.736l-5.569 3.244M183.566 39.642l-5.569 3.244M178.524 43.791l5.569-3.243M184.62 41.453l-5.568 3.244M194.438 45.642l-3.21-5.511M193.533 46.169l-3.21-5.511M192.627 46.697l-3.21-5.511M188.512 41.713l3.21 5.511M190.816 47.752l-3.21-5.511M197.648 51.153l-3.21-5.511M196.743 51.68l-3.21-5.511M195.837 52.208l-3.21-5.511M191.722 47.224l3.21 5.511M194.026 53.263l-3.21-5.511M200.858 56.664l-3.21-5.511M199.953 57.191l-3.21-5.511M199.047 57.719l-3.21-5.511M194.932 52.735l3.21 5.511M197.236 58.774l-3.21-5.511M204.068 62.175l-3.21-5.511M203.163 62.702l-3.21-5.511M202.257 63.23l-3.21-5.511M198.142 58.246l3.21 5.511M200.446 64.285l-3.21-5.511M207.278 67.686l-3.21-5.511M206.373 68.213l-3.21-5.511M205.467 68.741l-3.21-5.511M201.352 63.757l3.21 5.511M203.656 69.796l-3.21-5.511M210.488 73.197l-3.21-5.511M209.583 73.724l-3.21-5.511M208.677 74.252l-3.21-5.511M204.562 69.268l3.21 5.511M206.866 75.307l-3.21-5.511M213.698 78.708l-3.21-5.511M212.793 79.235l-3.21-5.511M211.887 79.763l-3.21-5.511M207.772 74.779l3.21 5.511M210.076 80.818l-3.21-5.511M216.908 84.219l-3.21-5.511M216.003 84.746l-3.21-5.511M215.097 85.274l-3.21-5.511M210.982 80.29l3.21 5.511M213.286 86.328l-3.21-5.51M220.118 89.73l-3.21-5.511M219.213 90.257l-3.21-5.511M218.307 90.785l-3.21-5.511M214.192 85.801l3.21 5.511M216.496 91.839l-3.21-5.511M223.328 95.241l-3.21-5.511M222.423 95.768l-3.21-5.511M221.517 96.296l-3.21-5.511M217.402 91.312l3.21 5.511M219.706 97.35l-3.21-5.511M226.538 100.752l-3.21-5.511M225.633 101.279l-3.21-5.511M224.727 101.807l-3.21-5.511M220.612 96.823l3.21 5.511M222.916 102.861l-3.21-5.511M229.748 106.263l-3.21-5.511M228.843 106.79l-3.21-5.511M227.937 107.318l-3.21-5.511M223.822 102.334l3.21 5.511M226.126 108.372l-3.21-5.511M232.958 111.774l-3.21-5.511M232.053 112.301l-3.21-5.511M231.147 112.828l-3.21-5.51M227.032 107.845l3.21 5.511M229.336 113.883l-3.21-5.511M236.168 117.285l-3.21-5.511M235.263 117.812l-3.21-5.511M234.357 118.339l-3.21-5.511M230.242 113.356l3.21 5.511M232.546 119.394l-3.21-5.511M239.378 122.796l-3.21-5.511M238.473 123.323l-3.21-5.511M237.567 123.85l-3.21-5.511M233.452 118.867l3.21 5.511M235.756 124.905l-3.21-5.511M242.588 128.307l-3.21-5.511M241.683 128.834l-3.21-5.511M240.777 129.361l-3.21-5.511M236.662 124.378l3.21 5.511M238.966 130.416l-3.21-5.511M245.798 133.818l-3.21-5.511M244.893 134.345l-3.21-5.511M243.987 134.872l-3.21-5.511M239.872 129.889l3.21 5.511M242.176 135.927l-3.21-5.511M249.008 139.328l-3.21-5.51M248.103 139.856l-3.21-5.511M247.197 140.383l-3.21-5.511M243.082 135.4l3.21 5.511M245.386 141.438l-3.21-5.511M252.218 144.839l-3.21-5.511M251.313 145.367l-3.21-5.511M250.407 145.894l-3.21-5.511M246.292 140.911l3.21 5.511M248.596 146.949l-3.21-5.511M255.428 150.35l-3.21-5.511M254.523 150.878l-3.21-5.511M253.617 151.405l-3.21-5.511M249.502 146.422l3.21 5.511M251.806 152.46l-3.21-5.511M258.638 155.861l-3.21-5.511M257.733 156.389l-3.21-5.511M256.827 156.916l-3.21-5.511M252.712 151.933l3.21 5.511M255.016 157.971l-3.21-5.511M261.848 161.372l-3.21-5.511M260.943 161.899l-3.21-5.51M260.037 162.427l-3.21-5.511M255.922 157.444l3.21 5.511M258.226 163.482l-3.21-5.511M265.058 166.883l-3.21-5.511M264.153 167.41l-3.21-5.511M263.247 167.938l-3.21-5.511M259.132 162.955l3.21 5.51M261.436 168.993l-3.21-5.511M268.268 172.394l-3.21-5.511M267.363 172.921l-3.21-5.511M266.457 173.449l-3.21-5.511M262.342 168.465l3.21 5.511M264.646 174.504l-3.21-5.511M271.478 177.905l-3.21-5.511M270.573 178.432l-3.21-5.511M269.667 178.96l-3.21-5.511M265.552 173.976l3.21 5.511M267.856 180.015l-3.21-5.511M274.688 183.416l-3.21-5.511M273.783 183.943l-3.21-5.511M272.877 184.471l-3.21-5.511M268.762 179.487l3.21 5.511M271.066 185.526l-3.21-5.511M277.898 188.927l-3.21-5.511M276.993 189.454l-3.21-5.511M276.087 189.982l-3.21-5.511M271.972 184.998l3.21 5.511M274.276 191.037l-3.21-5.511M166.642 253.731l1.445 2.481 4.791 1.264 2.481-1.445M167.547 253.204l1.227 2.106 3.951 1.042 2.107-1.227M168.453 252.676l1.008 1.731 3.112.821 1.731-1.009M169.358 252.149l.79 1.355 2.273.6 1.356-.79M173.249 252.408l-.981.572-1.433-.378-.571-.981M82.272 96.218l-2.481 1.445-1.264 4.79 1.445 2.482M82.799 97.123l-2.105 1.226-1.043 3.952 1.227 2.106M83.327 98.028l-1.731 1.009-.821 3.112 1.009 1.731M83.854 98.934l-1.355.79-.6 2.272.79 1.356M83.595 102.825l-.571-.981.377-1.433.981-.572M191.228 40.131l-1.445-2.481-4.791-1.264-2.481 1.445M190.323 40.658l-1.227-2.106-3.951-1.042-2.106 1.227M189.417 41.186l-1.008-1.731-3.112-.821-1.731 1.009M188.512 41.713l-.79-1.355-2.272-.6-1.357.79M184.621 41.454l.981-.572 1.433.378.571.981M275.598 197.644l2.481-1.445 1.264-4.79-1.445-2.482M275.071 196.739l2.106-1.226 1.042-3.952-1.227-2.106M274.543 195.834l1.731-1.009.821-3.112-1.008-1.731M274.016 194.928l1.355-.79.6-2.272-.79-1.356M274.275 191.037l.572.981-.378 1.433-.981.572" id="Shape" stroke="#4C8DC4" stroke-width=".25"/><path id="Rectangle-path" fill="#4C8DC4" d="M136.562 147.517l-22.352-38.394 63.396-36.908 22.352 38.394z"/><path id="Rectangle-path" fill="#AED1EC" d="M171.651 275.341l-104.032-178.696 127.6-74.286 104.032 178.696z"/><path d="M200.715 281.007l9.417 1.181-12.563-21.569-13.037 7.593 12.564 21.57 3.619-8.775" id="Shape" fill="#F26B30"/><g id="Shape" stroke="#00ADEE" stroke-width=".25"><g id="Group"><path d="M275.029 202.888l5.569-3.244M274.502 201.983l5.569-3.244M273.974 201.077l5.569-3.243M279.016 196.928l-5.569 3.244M272.92 199.266l5.568-3.243" id="Shape"/></g><g id="Group"><path d="M269.46 206.132l5.569-3.244M268.933 205.227l5.569-3.244M268.406 204.321l5.568-3.244M273.447 200.172l-5.569 3.243M267.351 202.51l5.569-3.244" id="Shape"/></g><g id="Group"><path d="M263.892 209.375l5.568-3.243M263.364 208.47l5.569-3.243M262.837 207.565l5.569-3.244M267.878 203.415l-5.569 3.244M261.782 205.754l5.569-3.244" id="Shape"/></g><g id="Group"><path d="M258.323 212.619l5.569-3.244M257.796 211.714l5.568-3.244M257.268 210.808l5.569-3.243M262.309 206.659l-5.568 3.244M256.213 208.997l5.569-3.243" id="Shape"/></g><g id="Group"><path d="M252.754 215.863l5.569-3.244M252.227 214.958l5.569-3.244M251.699 214.052l5.569-3.244M256.741 209.903l-5.569 3.243M250.644 212.241l5.569-3.244" id="Shape"/></g><g id="Group"><path d="M247.185 219.107l5.569-3.244M246.658 218.202l5.569-3.244M246.13 217.296l5.569-3.244M251.172 213.146l-5.569 3.244M245.075 215.485l5.569-3.244" id="Shape"/></g><g id="Group"><path d="M241.616 222.35l5.569-3.243M241.089 221.445l5.569-3.243M240.561 220.539l5.569-3.243M245.603 216.39l-5.569 3.244M239.507 218.728l5.568-3.243" id="Shape"/></g><g id="Group"><path d="M236.047 225.594l5.569-3.244M235.52 224.689l5.569-3.244M234.993 223.783l5.568-3.244M240.034 219.634l-5.569 3.244M233.938 221.972l5.569-3.244" id="Shape"/></g><g id="Group"><path d="M230.479 228.838l5.568-3.244M229.951 227.933l5.569-3.244M229.424 227.027l5.569-3.244M234.465 222.878l-5.569 3.243M228.369 225.216l5.569-3.244" id="Shape"/></g><g id="Group"><path d="M224.91 232.081l5.569-3.243M224.383 231.176l5.568-3.243M223.855 230.27l5.569-3.243M228.896 226.121l-5.568 3.244M222.8 228.46l5.569-3.244" id="Shape"/></g><g id="Group"><path d="M219.341 235.325l5.569-3.244M218.814 234.42l5.569-3.244M218.286 233.514l5.569-3.244M223.328 229.365l-5.569 3.244M217.231 231.703l5.569-3.243" id="Shape"/></g><g id="Group"><path d="M213.772 238.569l5.569-3.244M213.245 237.664l5.569-3.244M212.717 236.758l5.569-3.244M217.759 232.609l-5.569 3.243M211.663 234.947l5.568-3.244" id="Shape"/></g><g id="Group"><path d="M208.203 241.812l5.569-3.243M207.676 240.907l5.569-3.243M207.149 240.001l5.568-3.243M212.19 235.852l-5.569 3.244M206.094 238.191l5.569-3.244" id="Shape"/></g><g id="Group"><path d="M202.635 245.056l5.568-3.244M202.107 244.151l5.569-3.244M201.58 243.245l5.569-3.244M206.621 239.096l-5.569 3.244M200.525 241.434l5.569-3.243" id="Shape"/></g><g id="Group"><path d="M197.066 248.3l5.569-3.244M196.539 247.395l5.568-3.244M196.011 246.489l5.569-3.244M201.052 242.34l-5.568 3.243M194.956 244.678l5.569-3.244" id="Shape"/></g><g id="Group"><path d="M191.497 251.543l5.569-3.243M190.97 250.638l5.569-3.243M190.442 249.733l5.569-3.244M195.484 245.583l-5.569 3.244M189.387 247.922l5.569-3.244" id="Shape"/></g><g id="Group"><path d="M185.928 254.787l5.569-3.244M185.401 253.882l5.569-3.244M184.873 252.976l5.569-3.243M189.915 248.827l-5.569 3.244M183.819 251.165l5.568-3.243" id="Shape"/></g><g id="Group"><path d="M180.359 258.031l5.569-3.244M179.832 257.126l5.569-3.244M179.305 256.22l5.568-3.244M184.346 252.071l-5.569 3.243M178.25 254.409l5.569-3.244" id="Shape"/></g><g id="Group"><path d="M168.432 250.22l3.21 5.511M169.337 249.693l3.21 5.511M170.243 249.165l3.21 5.511M174.358 254.149l-3.21-5.511M172.054 248.11l3.21 5.511" id="Shape"/></g><g id="Group"><path d="M165.222 244.709l3.21 5.511M166.127 244.182l3.21 5.511M167.033 243.654l3.21 5.511M171.148 248.638l-3.21-5.511M168.844 242.599l3.21 5.511" id="Shape"/></g><g id="Group"><path d="M162.012 239.198l3.21 5.511M162.917 238.671l3.21 5.511M163.823 238.143l3.21 5.511M167.938 243.127l-3.21-5.511M165.634 237.088l3.21 5.511" id="Shape"/></g><g id="Group"><path d="M158.802 233.687l3.21 5.511M159.707 233.16l3.21 5.511M160.613 232.632l3.21 5.511M164.728 237.616l-3.21-5.511M162.424 231.577l3.21 5.511" id="Shape"/></g><g id="Group"><path d="M155.592 228.176l3.21 5.511M156.497 227.649l3.21 5.511M157.403 227.121l3.21 5.511M161.518 232.105l-3.21-5.511M159.214 226.066l3.21 5.511" id="Shape"/></g><g id="Group"><path d="M152.382 222.665l3.21 5.511M153.287 222.138l3.21 5.511M154.193 221.61l3.21 5.511M158.308 226.594l-3.21-5.511M156.004 220.555l3.21 5.511" id="Shape"/></g><g id="Group"><path d="M149.172 217.154l3.21 5.511M150.077 216.627l3.21 5.511M150.983 216.099l3.21 5.511M155.098 221.083l-3.21-5.511M152.794 215.044l3.21 5.511" id="Shape"/></g><g id="Group"><path d="M145.962 211.643l3.21 5.511M146.867 211.116l3.21 5.511M147.773 210.588l3.21 5.511M151.888 215.572l-3.21-5.511M149.584 209.534l3.21 5.51" id="Shape"/></g><g id="Group"><path d="M142.752 206.132l3.21 5.511M143.657 205.605l3.21 5.511M144.563 205.077l3.21 5.511M148.678 210.061l-3.21-5.511M146.374 204.023l3.21 5.511" id="Shape"/></g><g id="Group"><path d="M139.542 200.621l3.21 5.511M140.447 200.094l3.21 5.511M141.353 199.566l3.21 5.511M145.468 204.55l-3.21-5.511M143.164 198.512l3.21 5.511" id="Shape"/></g><g id="Group"><path d="M136.332 195.11l3.21 5.511M137.237 194.583l3.21 5.511M138.143 194.055l3.21 5.511M142.258 199.039l-3.21-5.511M139.954 193.001l3.21 5.511" id="Shape"/></g><g id="Group"><path d="M133.122 189.599l3.21 5.511M134.027 189.072l3.21 5.511M134.933 188.544l3.21 5.511M139.048 193.528l-3.209-5.511M136.744 187.49l3.21 5.511" id="Shape"/></g><g id="Group"><path d="M129.912 184.088l3.21 5.511M130.817 183.561l3.21 5.511M131.723 183.034l3.21 5.51M135.839 188.017l-3.21-5.511M133.534 181.979l3.21 5.511" id="Shape"/></g><g id="Group"><path d="M126.702 178.577l3.21 5.511M127.607 178.05l3.21 5.511M128.513 177.523l3.21 5.511M132.629 182.506l-3.21-5.511M130.324 176.468l3.21 5.511" id="Shape"/></g><g id="Group"><path d="M123.492 173.066l3.21 5.511M124.397 172.539l3.21 5.511M125.303 172.012l3.21 5.511M129.419 176.995l-3.21-5.511M127.114 170.957l3.21 5.511" id="Shape"/></g><g id="Group"><path d="M120.282 167.555l3.21 5.511M121.187 167.028l3.21 5.511M122.093 166.501l3.21 5.511M126.209 171.484l-3.21-5.511M123.904 165.446l3.21 5.511" id="Shape"/></g><g id="Group"><path d="M117.072 162.044l3.21 5.511M117.977 161.517l3.21 5.511M118.883 160.99l3.21 5.511M122.999 165.973l-3.21-5.511M120.694 159.935l3.21 5.511" id="Shape"/></g><g id="Group"><path d="M113.862 156.534l3.21 5.51M114.767 156.006l3.21 5.511M115.673 155.479l3.21 5.511M119.789 160.462l-3.21-5.511M117.484 154.424l3.21 5.511" id="Shape"/></g><g id="Group"><path d="M110.652 151.023l3.21 5.511M111.557 150.495l3.21 5.511M112.463 149.968l3.21 5.511M116.579 154.951l-3.21-5.511M114.274 148.913l3.21 5.511" id="Shape"/></g><g id="Group"><path d="M107.442 145.512l3.21 5.511M108.347 144.984l3.21 5.511M109.253 144.457l3.21 5.511M113.369 149.44l-3.21-5.511M111.064 143.402l3.21 5.511" id="Shape"/></g><g id="Group"><path d="M104.232 140.001l3.21 5.511M105.137 139.473l3.21 5.511M106.043 138.946l3.21 5.511M110.159 143.929l-3.21-5.511M107.854 137.891l3.21 5.511" id="Shape"/></g><g id="Group"><path d="M101.022 134.49l3.21 5.511M101.927 133.963l3.21 5.51M102.833 133.435l3.21 5.511M106.949 138.418l-3.21-5.511M104.644 132.38l3.21 5.511" id="Shape"/></g><g id="Group"><path d="M97.812 128.979l3.21 5.511M98.717 128.452l3.21 5.511M99.623 127.924l3.21 5.511M103.739 132.907l-3.21-5.51M101.434 126.869l3.21 5.511" id="Shape"/></g><g id="Group"><path d="M94.602 123.468l3.21 5.511M95.507 122.941l3.21 5.511M96.413 122.413l3.21 5.511M100.529 127.397l-3.21-5.511M98.224 121.358l3.21 5.511" id="Shape"/></g><g id="Group"><path d="M91.392 117.957l3.21 5.511M92.297 117.43l3.21 5.511M93.203 116.902l3.21 5.511M97.319 121.886l-3.21-5.511M95.014 115.847l3.21 5.511" id="Shape"/></g><g id="Group"><path d="M88.182 112.446l3.21 5.511M89.087 111.919l3.21 5.511M89.993 111.391l3.21 5.511M94.109 116.375l-3.21-5.511M91.804 110.336l3.21 5.511" id="Shape"/></g><g id="Group"><path d="M84.972 106.935l3.21 5.511M85.877 106.408l3.21 5.511M86.783 105.88l3.21 5.511M90.899 110.864l-3.21-5.511M88.594 104.825l3.21 5.511" id="Shape"/></g><g id="Group"><path d="M92.841 94.974l-5.569 3.244M93.368 95.879l-5.569 3.244M93.896 96.785l-5.569 3.243M88.854 100.934l5.569-3.244M94.951 98.596l-5.569 3.243" id="Shape"/></g><g id="Group"><path d="M98.41 91.73l-5.569 3.244M98.937 92.635l-5.569 3.244M99.465 93.541l-5.569 3.244M94.423 97.69l5.569-3.243M100.52 95.352l-5.569 3.244" id="Shape"/></g><g id="Group"><path d="M103.979 88.487l-5.569 3.243M104.506 89.392l-5.569 3.243M105.034 90.297l-5.569 3.244M99.992 94.447l5.569-3.244M106.088 92.108l-5.568 3.244" id="Shape"/></g><g id="Group"><path d="M109.548 85.243l-5.569 3.244M110.075 86.148l-5.569 3.244M110.602 87.054l-5.568 3.243M105.561 91.203l5.569-3.244M111.657 88.865l-5.569 3.243" id="Shape"/></g><g id="Group"><path d="M115.116 81.999l-5.568 3.244M115.644 82.904l-5.569 3.244M116.171 83.81l-5.569 3.244M111.13 87.959l5.569-3.244M117.226 85.621l-5.569 3.244" id="Shape"/></g><g id="Group"><path d="M120.685 78.755l-5.569 3.244M121.212 79.66l-5.568 3.244M121.74 80.566l-5.569 3.244M116.699 84.715l5.568-3.243M122.795 82.377l-5.569 3.244" id="Shape"/></g><g id="Group"><path d="M126.254 75.512l-5.569 3.243M126.781 76.417l-5.569 3.243M127.309 77.323l-5.569 3.243M122.267 81.472l5.569-3.244M128.364 79.134l-5.569 3.243" id="Shape"/></g><g id="Group"><path d="M131.823 72.268l-5.569 3.244M132.35 73.173l-5.569 3.244M132.878 74.079l-5.569 3.244M127.836 78.228l5.569-3.244M133.932 75.89l-5.568 3.244" id="Shape"/></g><g id="Group"><path d="M137.392 69.024l-5.569 3.244M137.919 69.929l-5.569 3.244M138.446 70.835l-5.568 3.244M133.405 74.984l5.569-3.243M139.501 72.646l-5.569 3.244" id="Shape"/></g><g id="Group"><path d="M142.96 65.781l-5.568 3.243M143.488 66.686l-5.569 3.243M144.015 67.592l-5.569 3.243M138.974 71.741l5.569-3.244M145.07 69.403l-5.569 3.243" id="Shape"/></g><g id="Group"><path d="M148.529 62.537l-5.569 3.244M149.056 63.442l-5.568 3.244M149.584 64.348l-5.569 3.244M144.543 68.497l5.568-3.244M150.639 66.159l-5.569 3.244" id="Shape"/></g><g id="Group"><path d="M154.098 59.293l-5.569 3.244M154.625 60.198l-5.569 3.244M155.153 61.104l-5.569 3.244M150.111 65.253l5.569-3.243M156.208 62.915l-5.569 3.244" id="Shape"/></g><g id="Group"><path d="M159.667 56.05l-5.569 3.243M160.194 56.955l-5.569 3.243M160.722 57.861l-5.569 3.243M155.68 62.01l5.569-3.244M161.776 59.671l-5.568 3.244" id="Shape"/></g><g id="Group"><path d="M165.236 52.806l-5.569 3.244M165.763 53.711l-5.569 3.244M166.29 54.617l-5.568 3.244M161.249 58.766l5.569-3.244M167.345 56.428l-5.569 3.243" id="Shape"/></g><g id="Group"><path d="M170.804 49.562l-5.568 3.244M171.332 50.467l-5.569 3.244M171.859 51.373l-5.569 3.244M166.818 55.522l5.569-3.243M172.914 53.184l-5.569 3.244" id="Shape"/></g><g id="Group"><path d="M176.373 46.319l-5.569 3.243M176.9 47.224l-5.568 3.243M177.428 48.129l-5.569 3.244M172.387 52.279l5.568-3.244M178.483 49.94l-5.569 3.244" id="Shape"/></g><g id="Group"><path d="M181.942 43.075l-5.569 3.244M182.469 43.98l-5.569 3.244M182.997 44.886l-5.569 3.243M177.955 49.035l5.569-3.244M184.052 46.697l-5.569 3.243" id="Shape"/></g><g id="Group"><path d="M187.511 39.831l-5.569 3.244M188.038 40.736l-5.569 3.244M188.566 41.642l-5.569 3.244M183.524 45.791l5.569-3.243M189.62 43.453l-5.568 3.244" id="Shape"/></g><g id="Group"><path d="M199.438 47.642l-3.21-5.511M198.533 48.169l-3.21-5.511M197.627 48.697l-3.21-5.511M193.512 43.713l3.21 5.511M195.816 49.752l-3.21-5.511" id="Shape"/></g><g id="Group"><path d="M202.648 53.153l-3.21-5.511M201.743 53.68l-3.21-5.511M200.837 54.208l-3.21-5.511M196.722 49.224l3.21 5.511M199.026 55.263l-3.21-5.511" id="Shape"/></g><g id="Group"><path d="M205.858 58.664l-3.21-5.511M204.953 59.191l-3.21-5.511M204.047 59.719l-3.21-5.511M199.932 54.735l3.21 5.511M202.236 60.774l-3.21-5.511" id="Shape"/></g><g id="Group"><path d="M209.068 64.175l-3.21-5.511M208.163 64.702l-3.21-5.511M207.257 65.23l-3.21-5.511M203.142 60.246l3.21 5.511M205.446 66.285l-3.21-5.511" id="Shape"/></g><g id="Group"><path d="M212.278 69.686l-3.21-5.511M211.373 70.213l-3.21-5.511M210.467 70.741l-3.21-5.511M206.352 65.757l3.21 5.511M208.656 71.796l-3.21-5.511" id="Shape"/></g><g id="Group"><path d="M215.488 75.197l-3.21-5.511M214.583 75.724l-3.21-5.511M213.677 76.252l-3.21-5.511M209.562 71.268l3.21 5.511M211.866 77.307l-3.21-5.511" id="Shape"/></g><g id="Group"><path d="M218.698 80.708l-3.21-5.511M217.793 81.235l-3.21-5.511M216.887 81.763l-3.21-5.511M212.772 76.779l3.21 5.511M215.076 82.818l-3.21-5.511" id="Shape"/></g><g id="Group"><path d="M221.908 86.219l-3.21-5.511M221.003 86.746l-3.21-5.511M220.097 87.274l-3.21-5.511M215.982 82.29l3.21 5.511M218.286 88.328l-3.21-5.51" id="Shape"/></g><g id="Group"><path d="M225.118 91.73l-3.21-5.511M224.213 92.257l-3.21-5.511M223.307 92.785l-3.21-5.511M219.192 87.801l3.21 5.511M221.496 93.839l-3.21-5.511" id="Shape"/></g><g id="Group"><path d="M228.328 97.241l-3.21-5.511M227.423 97.768l-3.21-5.511M226.517 98.296l-3.21-5.511M222.402 93.312l3.21 5.511M224.706 99.35l-3.21-5.511" id="Shape"/></g><g id="Group"><path d="M231.538 102.752l-3.21-5.511M230.633 103.279l-3.21-5.511M229.727 103.807l-3.21-5.511M225.612 98.823l3.21 5.511M227.916 104.861l-3.21-5.511" id="Shape"/></g><g id="Group"><path d="M234.748 108.263l-3.21-5.511M233.843 108.79l-3.21-5.511M232.937 109.318l-3.21-5.511M228.822 104.334l3.21 5.511M231.126 110.372l-3.21-5.511" id="Shape"/></g><g id="Group"><path d="M237.958 113.774l-3.21-5.511M237.053 114.301l-3.21-5.511M236.147 114.828l-3.21-5.51M232.032 109.845l3.21 5.511M234.336 115.883l-3.21-5.511" id="Shape"/></g><g id="Group"><path d="M241.168 119.285l-3.21-5.511M240.263 119.812l-3.21-5.511M239.357 120.339l-3.21-5.511M235.242 115.356l3.21 5.511M237.546 121.394l-3.21-5.511" id="Shape"/></g><g id="Group"><path d="M244.378 124.796l-3.21-5.511M243.473 125.323l-3.21-5.511M242.567 125.85l-3.21-5.511M238.452 120.867l3.21 5.511M240.756 126.905l-3.21-5.511" id="Shape"/></g><g id="Group"><path d="M247.588 130.307l-3.21-5.511M246.683 130.834l-3.21-5.511M245.777 131.361l-3.21-5.511M241.662 126.378l3.21 5.511M243.966 132.416l-3.21-5.511" id="Shape"/></g><g id="Group"><path d="M250.798 135.818l-3.21-5.511M249.893 136.345l-3.21-5.511M248.987 136.872l-3.21-5.511M244.872 131.889l3.21 5.511M247.176 137.927l-3.21-5.511" id="Shape"/></g><g id="Group"><path d="M254.008 141.328l-3.21-5.51M253.103 141.856l-3.21-5.511M252.197 142.383l-3.21-5.511M248.082 137.4l3.21 5.511M250.386 143.438l-3.21-5.511" id="Shape"/></g><g id="Group"><path d="M257.218 146.839l-3.21-5.511M256.313 147.367l-3.21-5.511M255.407 147.894l-3.21-5.511M251.292 142.911l3.21 5.511M253.596 148.949l-3.21-5.511" id="Shape"/></g><g id="Group"><path d="M260.428 152.35l-3.21-5.511M259.523 152.878l-3.21-5.511M258.617 153.405l-3.21-5.511M254.502 148.422l3.21 5.511M256.806 154.46l-3.21-5.511" id="Shape"/></g><g id="Group"><path d="M263.638 157.861l-3.21-5.511M262.733 158.389l-3.21-5.511M261.827 158.916l-3.21-5.511M257.712 153.933l3.21 5.511M260.016 159.971l-3.21-5.511" id="Shape"/></g><g id="Group"><path d="M266.848 163.372l-3.21-5.511M265.943 163.899l-3.21-5.51M265.037 164.427l-3.21-5.511M260.922 159.444l3.21 5.511M263.226 165.482l-3.21-5.511" id="Shape"/></g><g id="Group"><path d="M270.058 168.883l-3.21-5.511M269.153 169.41l-3.21-5.511M268.247 169.938l-3.21-5.511M264.132 164.955l3.21 5.51M266.436 170.993l-3.21-5.511" id="Shape"/></g><g id="Group"><path d="M273.268 174.394l-3.21-5.511M272.363 174.921l-3.21-5.511M271.457 175.449l-3.21-5.511M267.342 170.465l3.21 5.511M269.646 176.504l-3.21-5.511" id="Shape"/></g><g id="Group"><path d="M276.478 179.905l-3.21-5.511M275.573 180.432l-3.21-5.511M274.667 180.96l-3.21-5.511M270.552 175.976l3.21 5.511M272.856 182.015l-3.21-5.511" id="Shape"/></g><g id="Group"><path d="M279.688 185.416l-3.21-5.511M278.783 185.943l-3.21-5.511M277.877 186.471l-3.21-5.511M273.762 181.487l3.21 5.511M276.066 187.526l-3.21-5.511" id="Shape"/></g><g id="Group"><path d="M282.898 190.927l-3.21-5.511M281.993 191.454l-3.21-5.511M281.087 191.982l-3.21-5.511M276.972 186.998l3.21 5.511M279.276 193.037l-3.21-5.511" id="Shape"/></g><g id="Group"><path d="M171.642 255.731l1.445 2.481 4.791 1.264 2.481-1.445M172.547 255.204l1.227 2.106 3.951 1.042 2.107-1.227M173.453 254.676l1.008 1.731 3.112.821 1.731-1.009M174.358 254.149l.79 1.355 2.273.6 1.356-.79M178.249 254.408l-.981.572-1.433-.378-.571-.981" id="Shape"/></g><g id="Group"><path d="M87.272 98.218l-2.481 1.445-1.264 4.79 1.445 2.482M87.799 99.123l-2.105 1.226-1.043 3.952 1.227 2.106M88.327 100.028l-1.731 1.009-.821 3.112 1.009 1.731M88.854 100.934l-1.355.79-.6 2.272.79 1.356M88.595 104.825l-.571-.981.377-1.433.981-.572" id="Shape"/></g><g id="Group"><path d="M196.228 42.131l-1.445-2.481-4.791-1.264-2.481 1.445M195.323 42.658l-1.227-2.106-3.951-1.042-2.106 1.227M194.417 43.186l-1.008-1.731-3.112-.821-1.731 1.009M193.512 43.713l-.79-1.355-2.272-.6-1.357.79M189.621 43.454l.981-.572 1.433.378.571.981" id="Shape"/></g><g><path d="M280.598 199.644l2.481-1.445 1.264-4.79-1.445-2.482M280.071 198.739l2.106-1.226 1.042-3.952-1.227-2.106M279.543 197.834l1.731-1.009.821-3.112-1.008-1.731M279.016 196.928l1.355-.79.6-2.272-.79-1.356M279.275 193.037l.572.981-.378 1.433-.981.572" id="Shape"/></g></g><path d="M141.562 149.517l-22.352-38.394 63.396-36.908 22.352 38.394z" id="Rectangle-path" fill="#F8F7F0"/><g fill="#248ECA" transform="translate(19 20) translate(198 253)"><circle id="Oval" cx="44.195" cy="44.195" r="44.195"/><ellipse id="Oval" transform="rotate(58.661 44.314 44.403)" cx="44.314" cy="44.29" rx="4" ry="3.887"/><path d="M43.725 44.955c-.742.032 8.135-20.288 25.053-15.257.001 0-.714 14.209-25.053 15.257z" id="Shape"/><path d="M6.613 67.556c-12.695-20.847-6.087-48.039 14.76-60.734s48.039-6.087 60.734 14.76" id="Shape" opacity=".28"/><circle id="Oval" cx="46.195" cy="46.195" r="44.195"/><ellipse id="Oval" transform="rotate(58.661 46.314 46.403)" cx="46.314" cy="46.29" rx="4" ry="3.887"/><path d="M45.725 46.955c-.742.032 8.135-20.288 25.053-15.257.001 0-.714 14.209-25.053 15.257z" id="Shape"/><path d="M8.613 69.556c-12.695-20.847-6.087-48.039 14.76-60.734s48.039-6.087 60.734 14.76" id="Shape" opacity=".28"/></g><g fill="#4C8DC4" transform="translate(220 276)"><circle id="Oval" cx="44.195" cy="44.195" r="44.195"/><ellipse id="Oval" transform="rotate(58.661 44.314 44.403)" cx="44.314" cy="44.29" rx="4" ry="3.887"/><path d="M43.725 44.955c-.742.032 8.135-20.288 25.053-15.257.001 0-.714 14.209-25.053 15.257z" id="Shape"/><path d="M6.613 67.556c-12.695-20.847-6.087-48.039 14.76-60.734s48.039-6.087 60.734 14.76" id="Shape" opacity=".28"/></g><g transform="translate(222 278)"><circle id="Oval" fill="#CC3232" cx="44.195" cy="44.195" r="44.195"/><ellipse id="Oval" fill="#33312A" transform="rotate(58.661 44.314 44.403)" cx="44.314" cy="44.29" rx="4" ry="3.887"/><path d="M43.725 44.955c-.742.032 8.135-20.288 25.053-15.257.001 0-.714 14.209-25.053 15.257z" id="Shape" fill="#7FC687"/><path d="M6.613 67.556c-12.695-20.847-6.087-48.039 14.76-60.734s48.039-6.087 60.734 14.76" id="Shape" opacity=".28" fill="#7B2525"/></g><g fill="#4C8DC4" transform="translate(19 20) translate(0 238)"><path d="M146.582 63.454l-66.03-23.866-37.653-13.609-6.895-2.492c-3.209-1.16-9.107 5.176-11.243 6.842l-23.36 18.228c-3.81 2.973 1.538 8.241 5.303 5.303l30.912-24.121-3.649.964 110.62 39.983c4.561 1.649 6.507-5.601 1.995-7.232zM20.62 12.178c34.702 20.972 69.404 41.944 104.106 62.915l-1.857-3.238-5.102 46.179c-.531 4.804 6.975 4.753 7.5 0 1.701-15.393 3.402-30.786 5.102-46.179.142-1.285-.818-2.61-1.857-3.238-34.702-20.972-69.404-41.944-104.106-62.915-4.152-2.508-7.919 3.979-3.786 6.476zM103.53 44.963c-6.117-1.392-13.118-3.194-18.625-6.207-3.308-1.809-6.093-4.206-8.749-6.438-17.91-15.047-35.34-26.147-60.631-32.449l-3.381 10.265c1.391.746 3.48 2.45 2.22 5.197-10.153 22.138-9.787 35.411 11.044 45.312 25.777 12.253 42.73-4.749 48.055-11.79 2.857-3.779 5.213-3.115 7.638-1.964 4.297 2.038 3.205 5.381 2.995 7.633-2.472 26.473.224 34.149 17.713 45.034 26.586 16.55 33.855-5.705 43.704-15.782 1.884-1.924 3.27-2.697 5.815-1.474l6.028-8.923c-14.371-11.627-29.68-22.919-53.826-28.414zm-84.083-35.447c-2.01-1.02-3.429-2.262-3.169-2.774.26-.511 2.1-.098 4.109.922 2.01 1.02 3.428 2.264 3.169 2.774-.259.512-2.099.099-4.109-.922zm44.014 40.82c-9.725 9.511-20.06 14.749-35.947 7.212-15.524-7.882-18.599-13.001-11.481-32.126 6.158-12.128 8.968-19.632 31.97-7.9 14.767 9.372 31.126 17.492 15.458 32.814zm73.945 36.712c-11.239 17.03-17.186 17.571-32.713 9.687-15.46-8.378-17.329-19.813-15.389-33.277 3.127-21.692 19.334-13.277 35.615-6.882 23.043 11.646 18.645 18.343 12.487 30.472zm10.378-11.204c-2.008-1.02-3.428-2.264-3.169-2.774.26-.511 2.101-.098 4.109.922s3.429 2.262 3.169 2.774c-.259.51-2.1.098-4.109-.922z" id="Shape"/><path d="M137.406 87.048c-11.239 17.03-17.186 17.571-32.713 9.687-15.46-8.378-17.329-19.813-15.389-33.277 3.127-21.692 19.334-13.277 35.615-6.882 23.043 11.646 18.645 18.343 12.487 30.472zM63.461 50.336c-9.725 9.511-20.06 14.749-35.947 7.212-15.524-7.882-18.599-13.001-11.481-32.126 6.158-12.128 8.968-19.632 31.97-7.9 14.767 9.372 31.126 17.492 15.458 32.814z" id="Shape" opacity=".55"/><ellipse id="Oval" transform="rotate(116.916 19.712 9.151)" cx="19.75" cy="9.233" rx="1.038" ry="4.081"/><ellipse id="Oval" transform="rotate(116.916 148.118 74.27)" cx="148.156" cy="74.351" rx="1.038" ry="4.081"/><path d="M89.533 79.006c-1.181-4.79-1.029-9.997-.229-15.549 3.127-21.692 19.334-13.277 35.615-6.882 8.264 4.177 12.999 7.717 15.389 11.1M12.409 39.906c.139-3.779 1.371-8.43 3.624-14.484 6.158-12.128 8.968-19.632 31.97-7.9 7.384 4.686 15.165 9.059 19.142 14.176M27.514 57.548c-4.576-2.324-8.071-4.407-10.541-6.68" id="Shape" opacity=".55"/></g><path d="M167.582 323.454l-66.03-23.866-37.653-13.609-6.895-2.492c-3.209-1.16-9.107 5.176-11.243 6.842l-23.36 18.228c-3.81 2.973 1.538 8.241 5.303 5.303l30.912-24.121-3.649.964 110.62 39.983c4.561 1.649 6.507-5.601 1.995-7.232zM41.62 272.178c34.702 20.972 69.404 41.944 104.106 62.915l-1.857-3.238-5.102 46.179c-.531 4.804 6.975 4.753 7.5 0 1.701-15.393 3.402-30.786 5.102-46.179.142-1.285-.818-2.61-1.857-3.238-34.702-20.972-69.404-41.944-104.106-62.915-4.152-2.508-7.919 3.979-3.786 6.476z" id="Shape" fill="#0E0E0F"/><g transform="translate(29 260)"><path d="M95.53 44.963c-6.117-1.392-13.118-3.194-18.625-6.207-3.308-1.809-6.093-4.206-8.749-6.438-17.91-15.047-35.34-26.147-60.631-32.449l-3.381 10.265c1.391.746 3.48 2.45 2.22 5.197-10.153 22.138-9.787 35.411 11.044 45.312 25.777 12.253 42.73-4.749 48.055-11.79 2.857-3.779 5.213-3.115 7.638-1.964 4.297 2.038 3.205 5.381 2.995 7.633-2.472 26.473.224 34.149 17.713 45.034 26.586 16.55 33.855-5.705 43.704-15.782 1.884-1.924 3.27-2.697 5.815-1.474l6.028-8.923c-14.371-11.627-29.68-22.919-53.826-28.414zm-84.083-35.447c-2.01-1.02-3.429-2.262-3.169-2.774.26-.511 2.1-.098 4.109.922 2.01 1.02 3.428 2.264 3.169 2.774-.259.512-2.099.099-4.109-.922zm44.014 40.82c-9.725 9.511-20.06 14.749-35.947 7.212-15.524-7.882-18.599-13.001-11.481-32.126 6.158-12.128 8.968-19.632 31.97-7.9 14.767 9.372 31.126 17.492 15.458 32.814zm73.945 36.712c-11.239 17.03-17.186 17.571-32.713 9.687-15.46-8.378-17.329-19.813-15.389-33.277 3.127-21.692 19.334-13.277 35.615-6.882 23.043 11.646 18.645 18.343 12.487 30.472zm10.378-11.204c-2.008-1.02-3.428-2.264-3.169-2.774.26-.511 2.101-.098 4.109.922s3.429 2.262 3.169 2.774c-.259.51-2.1.098-4.109-.922z" id="Shape" fill="#0E0E0F"/><path d="M129.406 87.048c-11.239 17.03-17.186 17.571-32.713 9.687-15.46-8.378-17.329-19.813-15.389-33.277 3.127-21.692 19.334-13.277 35.615-6.882 23.043 11.646 18.645 18.343 12.487 30.472zM55.461 50.336c-9.725 9.511-20.06 14.749-35.947 7.212-15.524-7.882-18.599-13.001-11.481-32.126 6.158-12.128 8.968-19.632 31.97-7.9 14.767 9.372 31.126 17.492 15.458 32.814z" id="Shape" opacity=".55" fill="#D8D6D7"/><ellipse id="Oval" fill="#fff" transform="rotate(116.916 11.712 9.152)" cx="11.75" cy="9.233" rx="1.038" ry="4.081"/><ellipse fill="#fff" transform="rotate(116.916 140.118 74.27)" cx="140.156" cy="74.351" rx="1.038" ry="4.081"/><path d="M81.533 79.006c-1.181-4.79-1.029-9.997-.229-15.549 3.127-21.692 19.334-13.277 35.615-6.882 8.264 4.177 12.999 7.717 15.389 11.1M4.409 39.906c.139-3.779 1.371-8.43 3.624-14.484 6.158-12.128 8.968-19.632 31.97-7.9 7.384 4.686 15.165 9.059 19.142 14.176M19.514 57.548c-4.576-2.324-8.071-4.407-10.541-6.68" id="Shape" opacity=".55" fill="#D8D6D7"/></g><g fill="#4C8DC4"><path d="M116.799 252.523l-.68 9.346c-.341.683-1.17.96-1.853.619l-6.741-6.452" id="Shape"/><path id="Rectangle-path" d="M62.742 136.955l9.272-3.511 45.193 119.365-9.272 3.511zM61.931 136.851l9.272-3.511.814 2.15-9.272 3.511z"/><path d="M62.453 137.09l-1.194-3.15c-.98-2.586.302-5.469 2.862-6.439 2.561-.97 5.431.339 6.411 2.925l1.194 3.15" id="Shape"/><path id="Rectangle-path" d="M116.184 252.46l-4.636 1.755-44.379-117.214 4.636-1.755z"/><path d="M113.406 261.665l-5.88-5.628M116.268 259.824l-.149 2.046c-.341.683-1.17.96-1.853.619l-1.427-1.366M116.799 252.523l-.581 7.995" id="Shape"/></g><path d="M118.799 254.523l-.68 9.346c-.341.683-1.17.96-1.853.619l-6.741-6.452" id="Shape" fill="#E1DDCF"/><path id="Rectangle-path" fill="#ADACA4" d="M64.742 138.955l9.272-3.511 45.193 119.365-9.272 3.511z"/><path id="Rectangle-path" fill="#E8F3F9" d="M63.931 138.851l9.272-3.511.814 2.15-9.272 3.511z"/><path d="M64.453 139.09l-1.194-3.15c-.98-2.586.302-5.469 2.862-6.439 2.561-.97 5.431.339 6.411 2.925l1.194 3.15" id="Shape" fill="#F26B30"/><path d="M118.184 254.459l-4.636 1.755-44.379-117.214 4.636-1.755z" fill="#DBDAD5"/><path d="M115.406 263.665l-5.88-5.628" id="Shape" fill="#E1DDCF"/><path d="M118.268 261.824l-.149 2.046c-.341.683-1.17.96-1.853.619l-1.427-1.366" id="Shape" fill="#33312A"/><path d="M118.799 254.523l-.581 7.995" fill="#E1DDCF"/></g></g></g></svg>