<?xml version="1.0" encoding="UTF-8" standalone="no"?>
<svg width="1024px" height="460px" viewBox="0 0 1024 460" version="1.1" xmlns="http://www.w3.org/2000/svg" xmlns:xlink="http://www.w3.org/1999/xlink" xmlns:sketch="http://www.bohemiancoding.com/sketch/ns">
    <!-- Generator: Sketch 3.0.3 (7891) - http://www.bohemiancoding.com/sketch -->
    <title>Untitled</title>
    <desc>Created with Sketch.</desc>
    <defs>
        <rect id="path-1" x="0" y="0" width="67.2494788" height="38.3737026"></rect>
    </defs>
    <g id="Page-1" stroke="none" stroke-width="1" fill="none" fill-rule="evenodd" sketch:type="MSPage">
        <g id="appmaker-hero-yellow" sketch:type="MSLayerGroup" transform="translate(0.000000, 0.000000)">
            <g id="Page-1">
                <g id="appmaker-hero-yellow">
                    <g id="yeller">
                        <rect id="Rectangle-path" sketch:type="MSShapeGroup" x="0" y="0" width="1024" height="400"></rect>
                        <path d="M627.572,109.212 L655.736,109.212 C662.848,109.212 668.614,114.978 668.614,122.09 L668.614,122.09 C668.614,129.202 662.848,134.968 655.736,134.968 L627.572,134.968" id="Shape" fill="#FFFFFF" sketch:type="MSShapeGroup"></path>
                        <g id="Group" transform="translate(5.000000, 11.000000)">
                            <path d="M54.714,177.084 C59.736,222.19 73.499,272.501 108.533,303.812 C145.383,336.747 203.545,339.597 247.071,319.439 C265.188,311.049 280.173,297.508 294.444,283.828 C302.113,276.476 309.372,268.845 318.447,263.19 C326.929,257.904 336.472,254.629 346.161,252.386 C349.302,251.659 347.97,246.838 344.832,247.565 C331.933,250.551 319.768,255.56 309.124,263.522 C297.946,271.883 288.603,282.841 278.181,292.118 C257.173,310.819 232.79,322.937 204.716,326.247 C178.744,329.309 151.736,324.639 128.774,312.006 C107.531,300.319 92.674,280.724 82.095,259.321 C69.487,233.813 62.85,205.24 59.715,177.084 C59.361,173.916 54.357,173.882 54.714,177.084 L54.714,177.084 L54.714,177.084 Z" id="Shape" fill="#FFFFFF" sketch:type="MSShapeGroup"></path>
                            <g id="Shape" transform="translate(30.000000, 0.000000)" sketch:type="MSShapeGroup">
                                <g id="Group" fill="#D5A529">
                                    <path d="M16.351,152.717 L9.885,153.938 L3.109,116.991 L9.575,115.77 L16.351,152.717 L16.351,152.717 Z" id="Shape"></path>
                                    <path d="M41.507,186.861 C24.578,190.06 8.298,178.717 5.145,161.526 C1.992,144.335 13.16,127.806 30.089,124.608" id="Shape"></path>
                                    <path d="M41.507,186.861 C24.578,190.06 8.298,178.717 5.145,161.526 L35.798,155.734 L41.507,186.861 L41.507,186.861 Z" id="Shape"></path>
                                    <path d="M54.063,186.501 L41.132,188.944 L29.095,123.315 L42.027,120.871 L54.063,186.501 L54.063,186.501 Z" id="Shape"></path>
                                    <path d="M202.752,116.456 L196.286,117.678 L189.51,80.731 L195.976,79.509 L202.752,116.456 L202.752,116.456 Z" id="Shape"></path>
                                    <path d="M172.175,97.587 C189.104,94.388 205.384,105.731 208.537,122.922 C211.69,140.113 200.522,156.642 183.593,159.84" id="Shape"></path>
                                    <path d="M172.175,97.587 C189.104,94.388 205.384,105.731 208.537,122.922 L177.884,128.714 L172.175,97.587 L172.175,97.587 Z" id="Shape"></path>
                                    <path d="M160.163,97.844 L173.095,95.401 L185.132,161.03 L172.2,163.474 L160.163,97.844 L160.163,97.844 Z" id="Shape"></path>
                                    <path d="M12.633,121.714 C4.004,72.603 33.788,22.996 82.694,12.512 C132.827,1.765 180.228,38.79 189.701,88.335 C191.029,95.283 201.627,93.183 200.303,86.255 C190.713,36.093 146.671,-2.505 95.558,-0.094 C44.946,2.294 5.277,44.259 0.593,94.636 C-0.309,104.334 0.35,114.223 2.032,123.795 C3.257,130.767 13.853,128.656 12.633,121.714 L12.633,121.714 L12.633,121.714 Z" id="Shape"></path>
                                    <path d="M45.615,42.706 C70.19,21.48 103.654,15.324 133.968,26.48 C140.523,28.893 143.961,18.505 137.419,16.098 C103.498,3.614 65.856,10.836 38.422,34.531 C33.123,39.109 40.311,47.287 45.615,42.706 L45.615,42.706 L45.615,42.706 Z" id="Shape"></path>
                                </g>
                                <g id="Group" transform="translate(2.000000, 2.000000)">
                                    <path d="M16.351,152.717 L9.885,153.938 L3.109,116.991 L9.575,115.77 L16.351,152.717 L16.351,152.717 Z" id="Shape" fill="#630C0D"></path>
                                    <g transform="translate(5.000000, 125.000000)" id="Shape">
                                        <path d="M36.507,61.861 C19.578,65.06 3.298,53.717 0.145,36.526 C-3.008,19.335 8.16,2.806 25.089,-0.392" fill="#DB3F33"></path>
                                        <path d="M36.507,61.861 C19.578,65.06 3.298,53.717 0.145,36.526 L30.798,30.734 L36.507,61.861 L36.507,61.861 Z" fill="#993333"></path>
                                    </g>
                                    <path d="M54.063,186.501 L41.132,188.944 L29.095,123.315 L42.027,120.871 L54.063,186.501 L54.063,186.501 Z" id="Shape" fill="#630C0D"></path>
                                    <path d="M202.752,116.456 L196.286,117.678 L189.51,80.731 L195.976,79.509 L202.752,116.456 L202.752,116.456 Z" id="Shape" fill="#630C0D"></path>
                                    <g transform="translate(172.000000, 97.000000)" id="Shape">
                                        <path d="M0.175,0.587 C17.104,-2.612 33.384,8.731 36.537,25.922 C39.69,43.113 28.522,59.642 11.593,62.84" fill="#993333"></path>
                                        <path d="M0.175,0.587 C17.104,-2.612 33.384,8.731 36.537,25.922 L5.884,31.714 L0.175,0.587 L0.175,0.587 Z" fill="#DB3F33"></path>
                                    </g>
                                    <path d="M160.163,97.844 L173.095,95.401 L185.132,161.03 L172.2,163.474 L160.163,97.844 L160.163,97.844 Z" id="Shape" fill="#630C0D"></path>
                                    <path d="M12.633,121.714 C4.004,72.603 33.788,22.996 82.694,12.512 C132.827,1.765 180.228,38.79 189.701,88.335 C191.029,95.283 201.627,93.183 200.303,86.255 C190.713,36.093 146.671,-2.505 95.558,-0.094 C44.946,2.294 5.277,44.259 0.593,94.636 C-0.309,104.334 0.35,114.223 2.032,123.795 C3.257,130.767 13.853,128.656 12.633,121.714 L12.633,121.714 L12.633,121.714 Z" id="Shape" fill="#CC3232"></path>
                                    <path d="M45.615,42.706 C70.19,21.48 103.654,15.324 133.968,26.48 C140.523,28.893 143.961,18.505 137.419,16.098 C103.498,3.614 65.856,10.836 38.422,34.531 C33.123,39.109 40.311,47.287 45.615,42.706 L45.615,42.706 L45.615,42.706 Z" id="Shape" fill="#630C0D"></path>
                                </g>
                            </g>
                            <g transform="translate(46.000000, 151.000000)" sketch:type="MSShapeGroup">
                                <g fill="#D5A529">
                                    <rect id="Rectangle-path" transform="translate(94.278222, 104.618597) rotate(-64.987953) translate(-94.278222, -104.618597) " x="7.77822169" y="42.618597" width="173.161388" height="123.647421"></rect>
                                    <path d="M172.192,50.089 C174.186,51.019 175.056,53.411 174.126,55.405 L107.69,197.816 C106.76,199.81 104.368,200.68 102.374,199.75 L4.144,153.925 C2.15,152.995 1.28,150.603 2.21,148.609 L68.646,6.198 C69.576,4.204 71.968,3.334 73.962,4.264 L172.192,50.089 L172.192,50.089 Z" id="Shape"></path>
                                    <rect id="Rectangle-path" transform="translate(81.996736, 99.345651) rotate(-64.987953) translate(-81.996736, -99.345651) " x="-0.503263865" y="47.8456507" width="165.141555" height="102.900853"></rect>
                                </g>
                                <g transform="translate(2.000000, 2.000000)">
                                    <rect id="Rectangle-path" fill="#FFFFFF" transform="translate(94.278131, 104.618655) rotate(-64.987953) translate(-94.278131, -104.618655) " x="7.77813107" y="42.6186547" width="173.161388" height="123.647421"></rect>
                                    <path d="M172.192,50.089 C174.186,51.019 175.056,53.411 174.126,55.405 L107.69,197.816 C106.76,199.81 104.368,200.68 102.374,199.75 L4.144,153.925 C2.15,152.995 1.28,150.603 2.21,148.609 L68.646,6.198 C69.576,4.204 71.968,3.334 73.962,4.264 L172.192,50.089 L172.192,50.089 Z" id="Shape" fill="#6A628C"></path>
                                    <rect id="Rectangle-path" fill="#6A628C" transform="translate(81.996646, 99.345708) rotate(-64.987953) translate(-81.996646, -99.345708) " x="-0.503354487" y="47.8457084" width="165.141555" height="102.900853"></rect>
                                </g>
                            </g>
                            <g transform="translate(120.000000, 173.000000)" sketch:type="MSShapeGroup">
                                <g>
                                    <circle id="Oval" fill="#A580B9" cx="15.864" cy="15.864" r="15.864"></circle>
                                    <path d="M20.985,23.497 C21.114,23.254 21.211,23.053 21.303,22.831 C22.038,21.05 21.614,19.894 20.852,18.436 C22.421,17.939 23.54,17.41 24.274,15.629 C24.366,15.407 24.475,15.108 24.555,14.844 C25.04,13.241 24.377,10.848 21.774,9.487 L20.874,9.116 C18.185,8.294 14.205,8.887 7.845,12.944 C9.494,20.305 11.898,23.532 14.384,24.846 L15.284,25.217 C18.09,26.086 20.199,24.976 20.985,23.497 L20.985,23.497 L20.985,23.497 Z M16.32,17.746 C16.322,17.687 16.322,17.628 16.313,17.568 C16.352,17.581 16.391,17.591 16.43,17.602 C16.436,17.689 16.445,17.776 16.456,17.864 C16.411,17.825 16.366,17.785 16.32,17.746 L16.32,17.746 L16.32,17.746 Z M10.922,16.885 C10.976,17.155 11.032,17.426 11.09,17.697 C10.953,17.341 10.818,16.975 10.688,16.587 C10.764,16.688 10.842,16.787 10.922,16.885 L10.922,16.885 L10.922,16.885 Z" id="Shape" fill="#EEE81C"></path>
                                </g>
                                <path d="M25.329,3.396 C32.516,8.406 34.281,18.294 29.271,25.482 C24.261,32.669 14.373,34.434 7.185,29.424" id="Shape" opacity="0.19" fill="#FFFFFF"></path>
                            </g>
                            <g transform="translate(145.000000, 202.000000)" sketch:type="MSShapeGroup">
                                <g>
                                    <circle id="Oval" fill="#00ADEE" cx="15.864" cy="15.864" r="15.864"></circle>
                                    <g id="Shape" transform="translate(6.000000, 7.000000)" fill="#D6E8F7">
                                        <path d="M8.428,8.703 L11.562,12.549 C11.562,12.549 9.74,14.262 10.843,16.791 C10.843,16.791 12.158,19.148 13.365,18.164 C13.365,18.164 13.257,17.338 13.773,16.46 C13.773,16.46 19.51,13.158 15.711,9.167 C15.711,9.169 12.706,5.218 8.428,8.703"></path>
                                        <path d="M8.428,8.703 L5.294,4.857 C5.294,4.857 3.249,6.295 0.994,4.703 C0.994,4.703 -1.048,2.939 0.159,1.955 C0.159,1.955 0.946,2.228 1.91,1.899 C1.91,1.899 6.303,-3.052 9.444,1.475 C9.444,1.476 12.706,5.218 8.428,8.703"></path>
                                    </g>
                                </g>
                                <path d="M11.195,0.69 C19.591,-1.815 28.428,2.959 30.933,11.355 C33.438,19.751 28.664,28.587 20.268,31.093" id="Shape" opacity="0.19" fill="#FFFFFF"></path>
                            </g>
                            <g transform="translate(87.000000, 241.000000)">
                                <g id="Clipped">
                                    <g id="mask-2" fill="#FFFFFF" sketch:type="MSShapeGroup">
                                        <rect id="path-1" x="0" y="0" width="67.2494788" height="38.3737026"></rect>
                                    </g>
                                    <g id="Group-Clipped">
                                        <mask id="mask-2" sketch:name="path-1" fill="white">
                                            <use xlink:href="#path-1"></use>
                                        </mask>
                                        <g id="path-1"></g>
                                        <g id="Group" mask="url(#mask-2)">
                                            <g transform="translate(5.000000, 9.000000)" id="Shape">
                                                <g>
                                                    <path d="M4.827,32.328 C3.791,18.57 14.016,6.42 27.768,5.151 C41.508,3.883 53.692,14.514 54.945,28.092 C55.247,31.369 60.331,30.975 60.029,27.703 C58.537,11.537 44.535,-0.667 28.329,0.004 C12.076,0.677 -0.473,14.834 -0.351,30.822 C-0.346,31.455 -0.304,32.086 -0.257,32.717 C-0.01,36 5.073,35.601 4.827,32.328 L4.827,32.328 L4.827,32.328 Z" fill="#54A3DA" sketch:type="MSShapeGroup"></path>
                                                    <path d="M9.66,31.598 C8.839,20.496 17.052,10.729 28.149,9.689 C39.235,8.651 49.034,17.244 50.057,28.178 C50.347,31.28 55.161,30.907 54.871,27.81 C53.588,14.111 41.515,3.86 27.78,4.876 C14.057,5.891 3.845,18.434 4.846,31.966 C5.076,35.076 9.889,34.698 9.66,31.598 L9.66,31.598 L9.66,31.598 Z" fill="#55B963" sketch:type="MSShapeGroup"></path>
                                                    <path d="M13.815,31.089 C13.175,22.173 19.72,14.378 28.632,13.525 C37.531,12.672 45.358,19.59 46.196,28.341 C46.493,31.441 51.307,31.069 51.01,27.973 C49.907,16.456 39.816,7.882 28.263,8.711 C16.722,9.539 8.187,20.112 9.001,31.458 C9.224,34.568 14.037,34.188 13.815,31.089 L13.815,31.089 L13.815,31.089 Z" fill="#F5EA14" sketch:type="MSShapeGroup"></path>
                                                    <path d="M18.248,30.045 C17.819,23.716 22.398,18.247 28.723,17.616 C35.036,16.986 40.536,21.917 41.152,28.091 C41.462,31.189 46.275,30.818 45.966,27.723 C45.074,18.786 37.328,12.193 28.354,12.802 C19.393,13.41 12.84,21.653 13.434,30.413 C13.645,33.525 18.458,33.145 18.248,30.045 L18.248,30.045 L18.248,30.045 Z" fill="#E85A27" sketch:type="MSShapeGroup"></path>
                                                    <path d="M22.731,29.595 C22.486,25.587 25.314,22.19 29.319,21.763 C33.312,21.338 36.739,24.481 37.151,28.352 C37.48,31.447 42.294,31.078 41.965,27.984 C41.259,21.354 35.619,16.542 28.951,16.95 C22.297,17.357 17.523,23.521 17.917,29.964 C18.107,33.077 22.921,32.695 22.731,29.595 L22.731,29.595 L22.731,29.595 Z" fill="#EC2079" sketch:type="MSShapeGroup"></path>
                                                </g>
                                            </g>
                                        </g>
                                    </g>
                                </g>
                                <path d="M4.843,42.73 C12.432,42.094 20.02,41.458 27.609,40.822 C28.487,40.748 29.454,40.079 29.359,39.072 C28.617,31.2 39.282,30.671 40.671,38.301 C40.801,39.012 41.641,39.646 42.358,39.586 C49.84,38.959 57.321,38.332 64.803,37.705 C65.668,37.633 66.666,36.96 66.553,35.955 C64.608,18.698 50.119,7.576 33.243,7.48 C27.813,7.449 22.266,9.654 17.719,12.448 C7.721,18.593 3.537,29.683 3.092,40.978 C3.003,43.236 6.503,43.227 6.592,40.978 C7.187,25.89 17.041,11.389 33.243,10.979 C48.353,10.597 61.44,21.642 63.053,35.954 L64.803,34.204 C57.321,34.831 49.84,35.458 42.358,36.085 C42.92,36.513 43.483,36.942 44.045,37.37 C41.96,25.914 24.747,27.292 25.858,39.071 C26.441,38.488 27.025,37.904 27.608,37.321 C20.019,37.957 12.431,38.593 4.842,39.229 C2.611,39.417 2.592,42.918 4.843,42.73 L4.843,42.73 L4.843,42.73 Z" id="Shape" fill="#FFFFFF" sketch:type="MSShapeGroup"></path>
                            </g>
                            <g transform="translate(0.000000, 130.000000)" sketch:type="MSShapeGroup">
                                <g fill="#D5A529">
                                    <path d="M0.187,9.373 L1.826,0.146 C2.235,-0.498 3.089,-0.688 3.733,-0.279 L9.774,6.833" id="Shape"></path>
                                    <rect id="Rectangle-path" transform="translate(21.117555, 69.199519) rotate(165.160487) translate(-21.117555, -69.199519) " x="16.117555" y="5.19951902" width="9.91651787" height="127.660793"></rect>
                                    <rect id="Rectangle-path" transform="translate(37.677227, 130.430434) rotate(165.160487) translate(-37.677227, -130.430434) " x="32.6772266" y="129.430434" width="9.91651787" height="2.29988818"></rect>
                                    <rect id="Rectangle-path" transform="translate(18.495398, 69.510562) rotate(-14.839513) translate(-18.495398, -69.510562) " x="15.995398" y="7.01056175" width="4.95775896" height="125.360905"></rect>
                                    <path d="M4.504,0.629 L9.773,6.833" id="Shape"></path>
                                    <path d="M1.467,2.166 L1.826,0.146 C2.235,-0.498 3.089,-0.688 3.733,-0.279 L5.012,1.227" id="Shape"></path>
                                    <path d="M0.187,9.373 L1.589,1.48" id="Shape"></path>
                                </g>
                                <g transform="translate(2.000000, 2.000000)">
                                    <path d="M0.187,9.373 L1.826,0.146 C2.235,-0.498 3.089,-0.688 3.733,-0.279 L9.774,6.833" id="Shape" fill="#FFFFFF"></path>
                                    <rect id="Rectangle-path" fill="#00ADEE" transform="translate(21.117948, 69.199468) rotate(165.160487) translate(-21.117948, -69.199468) " x="16.1179483" y="5.1994678" width="9.91651787" height="127.660793"></rect>
                                    <rect id="Rectangle-path" fill="#E8F3F9" transform="translate(37.677620, 130.430383) rotate(165.160487) translate(-37.677620, -130.430383) " x="32.6776199" y="129.430383" width="9.91651787" height="2.29988818"></rect>
                                    <g id="Rectangle-path" transform="translate(0.000000, 8.000000)" fill="#DBDAD5">
                                        <rect transform="translate(18.495391, 61.510511) rotate(-14.839513) translate(-18.495391, -61.510511) " x="15.9953913" y="-0.98948947" width="4.95775896" height="125.360905"></rect>
                                    </g>
                                    <path d="M4.504,0.629 L9.773,6.833" id="Shape" fill="#E1DDCF"></path>
                                    <path d="M1.467,2.166 L1.826,0.146 C2.235,-0.498 3.089,-0.688 3.733,-0.279 L5.012,1.227" id="Shape" fill="#6A628C"></path>
                                    <path d="M0.187,9.373 L1.589,1.48" id="Shape" fill="#E1DDCF"></path>
                                </g>
                            </g>
                        </g>
                        <g id="Group" transform="translate(719.000000, 14.000000)" sketch:type="MSShapeGroup">
                            <g id="Shape" transform="translate(44.000000, 87.000000)">
                                <path d="M11.416,60.706 L0.5,104.124 L106.397,141.094 L143.98,27.296 L94.098,0.313" fill="#D5A529"></path>
                                <path d="M13.416,62.706 L2.5,106.124 L108.397,143.094 L145.98,29.296 L96.098,2.313" fill="#FFF5D6"></path>
                            </g>
                            <g>
                                <g id="Oval">
                                    <circle fill="#D5A529" cx="78.953" cy="78.953" r="78.953"></circle>
                                    <circle fill="#F2F1F0" cx="80.953" cy="80.953" r="78.953"></circle>
                                </g>
                                <g id="Shape" transform="translate(19.000000, 19.000000)" fill="#CCCBCB">
                                    <g id="Group">
                                        <path d="M115.789,44.715 C122.957,67.971 115.295,93.403 95.797,108.227 C76.367,122.999 49.498,122.809 29.489,109.454 C8.973,95.761 0.348,69.347 6.88,45.946 C13.472,22.329 35.447,5.918 59.682,4.934 C85.022,3.904 107.875,21.016 115.789,44.715 C116.805,47.757 121.635,46.453 120.61,43.386 C113.601,22.398 96.615,6.576 75.034,1.448 C53.396,-3.693 30.3,4.14 15.459,20.436 C0.623,36.726 -3.856,60.21 2.572,81.062 C9.047,102.069 26.94,117.961 48.148,123 C69.786,128.141 92.882,120.308 107.723,104.012 C122.559,87.722 127.038,64.238 120.61,43.386 C119.664,40.314 114.837,41.625 115.789,44.715 L115.789,44.715 L115.789,44.715 Z" id="Shape"></path>
                                    </g>
                                </g>
                                <g id="Shape" transform="translate(63.000000, 35.000000)">
                                    <path d="M109.245,26.309 C108.167,74.589 66.27,112.812 15.665,111.682 L-0.463,0.426 L109.245,26.309 L109.245,26.309 Z" fill="#DBD9D0"></path>
                                    <path d="M112.245,29.309 C111.167,77.589 69.27,115.812 18.665,114.682 L2.537,3.426 L112.245,29.309 L112.245,29.309 Z" fill="#FFE69B"></path>
                                </g>
                                <path d="M171.889,65.221 C170.436,112.976 128.293,147.79 81.809,147.094 C77.293,147.026 77.299,154.027 81.809,154.094 C132.179,154.848 177.322,116.73 178.889,65.221 C179.027,60.704 172.026,60.718 171.889,65.221 L171.889,65.221 L171.889,65.221 Z" id="Shape" fill="#FCD56C"></path>
                                <g transform="translate(85.000000, 84.000000)">
                                    <circle id="Oval" fill="#DB3F33" cx="8.286" cy="8.286" r="8.286"></circle>
                                    <path d="M7.204,14.841 C3.162,13.994 0.517,10.293 1.296,6.575 C2.075,2.857 5.984,0.53 10.026,1.377" id="Shape" fill="#BE2026"></path>
                                </g>
                                <g transform="translate(140.000000, 79.000000)">
                                    <circle id="Oval" fill="#DB3F33" cx="8.286" cy="8.286" r="8.286"></circle>
                                    <path d="M15.52,8.479 C14.852,12.555 11.272,15.361 7.523,14.747 C3.774,14.133 1.277,10.331 1.944,6.255" id="Shape" fill="#BE2026"></path>
                                </g>
                                <path d="M94.425,88.405 C93.916,88.268 102.7,75.13 113.752,81.56 C113.751,81.56 109.527,92.471 94.425,88.405 L94.425,88.405 L94.425,88.405 Z" id="Shape" fill="#7FC687"></path>
                                <path d="M148.191,58.804 C148.417,60.825 148.33,62.917 147.89,65.016 C145.665,75.631 135.256,82.433 124.641,80.208 C114.026,77.983 107.224,67.574 109.449,56.959 C109.96,54.52 110.903,52.283 112.181,50.31" id="Shape" fill="#FFFFFF"></path>
                                <circle id="Oval" fill="#DB3F33" cx="124.286" cy="69.286" r="8.286"></circle>
                                <path d="M119.445,74.37 C117.025,71.023 117.559,66.506 120.638,64.28 C123.717,62.054 128.174,62.964 130.593,66.311" id="Shape" fill="#BE2026"></path>
                                <path d="M132.806,77.163 C132.297,77.026 141.081,63.888 152.132,70.318 C152.133,70.318 147.908,81.229 132.806,77.163 L132.806,77.163 L132.806,77.163 Z" id="Shape" fill="#7FC687"></path>
                                <path d="M75.443,105.609 C78.999,103.957 83.106,103.397 87.247,104.265 C97.409,106.395 103.929,116.316 101.811,126.424 C99.692,136.532 90.796,143.541 80.634,141.411" id="Shape" fill="#F2F1F0"></path>
                                <g transform="translate(90.000000, 110.000000)">
                                    <circle id="Oval" fill="#DB3F33" cx="8.286" cy="8.286" r="8.286"></circle>
                                    <path d="M13.581,12.473 C10.637,15.37 6.091,15.523 3.426,12.815 C0.762,10.107 0.988,5.564 3.932,2.667" id="Shape" fill="#BE2026"></path>
                                </g>
                                <path d="M96.789,102.516 C96.76,101.989 111.982,106.241 109.317,118.746 C109.318,118.746 97.634,118.133 96.789,102.516 L96.789,102.516 L96.789,102.516 Z" id="Shape" fill="#7FC687"></path>
                                <circle id="Oval" fill="#F2F1F0" cx="128.474" cy="106.474" r="10.474"></circle>
                                <g transform="translate(116.000000, 110.000000)">
                                    <circle id="Oval" fill="#DB3F33" cx="8.286" cy="8.286" r="8.286"></circle>
                                    <path d="M13.567,12.585 C10.623,15.482 6.077,15.635 3.413,12.927 C0.749,10.219 0.975,5.676 3.919,2.779" id="Shape" fill="#BE2026"></path>
                                </g>
                                <g transform="translate(111.000000, 87.000000)">
                                    <circle id="Oval" fill="#DB3F33" cx="8.286" cy="8.286" r="8.286"></circle>
                                    <path d="M13.582,12.458 C10.638,15.355 6.092,15.508 3.428,12.8 C0.764,10.092 0.99,5.549 3.934,2.652" id="Shape" fill="#BE2026"></path>
                                </g>
                                <path d="M117.468,81.906 C117.255,81.424 132.994,80 134.938,92.637 C134.938,92.638 123.796,96.209 117.468,81.906 L117.468,81.906 L117.468,81.906 Z" id="Shape" fill="#7FC687"></path>
                                <circle id="Oval" fill="#F2F1F0" cx="87.596" cy="65.596" r="13.596"></circle>
                                <g transform="translate(89.000000, 58.000000)">
                                    <circle id="Oval" fill="#DB3F33" cx="8.286" cy="8.286" r="8.286"></circle>
                                    <path d="M3.892,13.278 C1.107,10.228 1.123,5.679 3.928,3.118 C6.733,0.556 11.265,0.952 14.05,4.002" id="Shape" fill="#BE2026"></path>
                                </g>
                                <path d="M74.611,55.495 C74.381,55.02 90.063,53.063 92.435,65.627 C92.435,65.628 81.421,69.575 74.611,55.495 L74.611,55.495 L74.611,55.495 Z" id="Shape" fill="#7FC687"></path>
                                <g id="Oval" transform="translate(83.000000, 68.000000)" fill="#3B2F14">
                                    <circle cx="0.951" cy="4.951" r="0.951"></circle>
                                    <circle cx="0.612" cy="0.612" r="0.612"></circle>
                                </g>
                                <g id="Oval" transform="translate(104.000000, 57.000000)" fill="#3B2F14">
                                    <circle cx="5.951" cy="17.951" r="0.951"></circle>
                                    <circle cx="5.612" cy="14.612" r="0.612"></circle>
                                    <circle cx="0.363" cy="17.363" r="0.363"></circle>
                                    <circle cx="12.612" cy="0.612" r="0.612"></circle>
                                    <circle cx="15.363" cy="1.363" r="0.363"></circle>
                                </g>
                                <g id="Oval" transform="translate(84.000000, 101.000000)" fill="#3B2F14">
                                    <circle cx="0.951" cy="0.951" r="0.951"></circle>
                                    <circle cx="0.612" cy="4.612" r="0.612"></circle>
                                </g>
                                <g id="Oval" transform="translate(130.000000, 97.000000)" fill="#3B2F14">
                                    <circle cx="18.951" cy="0.951" r="0.951"></circle>
                                    <circle cx="16.612" cy="3.612" r="0.612"></circle>
                                    <circle cx="22.363" cy="5.363" r="0.363"></circle>
                                    <circle cx="2.612" cy="9.612" r="0.612"></circle>
                                    <circle cx="0.363" cy="7.363" r="0.363"></circle>
                                </g>
                                <circle id="Oval" fill="#3B2F14" cx="85.612" cy="134.612" r="0.612"></circle>
                                <circle id="Oval" fill="#3B2F14" cx="91.363" cy="135.363" r="0.363"></circle>
                                <g id="Shape" transform="translate(42.000000, 64.000000)">
                                    <path d="M2.5,4.591 C5.724,4.591 5.724,-0.409 2.5,-0.409 C-0.724,-0.409 -0.724,4.591 2.5,4.591 L2.5,4.591 L2.5,4.591 Z" fill="#DBD9D0"></path>
                                    <path d="M4.5,6.591 C7.724,6.591 7.724,1.591 4.5,1.591 C1.276,1.591 1.276,6.591 4.5,6.591 L4.5,6.591 L4.5,6.591 Z" fill="#FFE69B"></path>
                                </g>
                                <g id="Shape" transform="translate(53.000000, 75.000000)">
                                    <path d="M2.416,5.075 C5.64,5.075 5.64,0.075 2.416,0.075 C-0.809,0.075 -0.809,5.075 2.416,5.075 L2.416,5.075 L2.416,5.075 Z" fill="#DBD9D0"></path>
                                    <path d="M4.416,7.075 C7.64,7.075 7.64,2.075 4.416,2.075 C1.191,2.075 1.191,7.075 4.416,7.075 L4.416,7.075 L4.416,7.075 Z" fill="#FFE69B"></path>
                                </g>
                                <g id="Shape" transform="translate(38.000000, 80.000000)">
                                    <path d="M3.4,6.212 C4.271,6.651 5.127,6.894 6.108,6.935 C7.287,6.984 8.152,6.188 8.561,5.156 C9.203,3.535 8.971,1.212 7.204,0.367 C5.65,-0.376 4.086,-0.186 2.554,0.514 C1.189,1.138 0.005,2.438 -0.032,4 C-0.085,6.205 2.002,7.381 3.89,7.758 C5.226,8.025 6.583,7.485 7.005,6.085 C7.37,4.875 6.671,3.237 5.332,2.97 C5.053,2.914 4.778,2.849 4.506,2.766 C4.394,2.732 4.285,2.691 4.177,2.649 C3.854,2.524 4.904,3.024 4.391,2.736 C4.32,2.696 4.253,2.649 4.187,2.601 C4.929,3.148 4.628,2.997 4.466,2.802 C5.024,3.475 4.828,3.357 4.726,3.138 C4.937,3.592 4.954,3.703 4.968,4.117 C4.956,3.748 4.816,4.887 4.887,4.59 C4.99,4.162 4.566,5.23 4.703,4.976 C4.731,4.925 4.765,4.877 4.8,4.83 C4.967,4.602 4.233,5.455 4.576,5.117 C4.624,5.069 4.676,5.026 4.729,4.982 C5.061,4.707 4.104,5.406 4.471,5.165 C4.614,5.071 4.766,4.991 4.921,4.918 C4.992,4.885 5.064,4.855 5.136,4.825 C4.249,5.186 4.605,5.023 4.815,4.954 C4.98,4.9 5.149,4.861 5.319,4.83 C5.539,4.791 5.936,4.777 4.949,4.865 C5.037,4.857 5.125,4.856 5.213,4.858 C5.818,4.868 4.473,4.658 5.028,4.828 C5.409,4.944 4.341,4.49 4.62,4.638 C5.014,4.847 4.13,4.191 4.324,4.377 C4.595,4.637 3.923,3.767 4.081,4.026 C4.286,4.362 3.851,3.291 3.952,3.686 C4.054,4.085 3.901,2.97 3.914,3.304 C3.915,3.343 3.914,3.382 3.912,3.422 C3.904,3.63 3.824,3.998 3.987,3.018 C3.947,3.257 3.865,3.488 3.776,3.713 C4.594,3.12 5.411,2.527 6.229,1.934 C6.035,1.926 5.4,1.801 6.165,1.952 C5.945,1.909 5.352,1.618 6.066,1.978 C4.85,1.365 3.393,1.529 2.618,2.763 C1.942,3.834 2.182,5.598 3.4,6.212 L3.4,6.212 L3.4,6.212 Z" fill="#DBD9D0"></path>
                                    <path d="M5.4,8.212 C6.271,8.651 7.127,8.894 8.108,8.935 C9.287,8.984 10.152,8.188 10.561,7.156 C11.203,5.535 10.971,3.212 9.204,2.367 C7.65,1.624 6.086,1.814 4.554,2.514 C3.189,3.138 2.005,4.438 1.968,6 C1.915,8.205 4.002,9.381 5.89,9.758 C7.226,10.025 8.583,9.485 9.005,8.085 C9.37,6.875 8.671,5.237 7.332,4.97 C7.053,4.914 6.778,4.849 6.506,4.766 C6.394,4.732 6.285,4.691 6.177,4.649 C5.854,4.524 6.904,5.024 6.391,4.736 C6.32,4.696 6.253,4.649 6.187,4.601 C6.929,5.148 6.628,4.997 6.466,4.802 C7.024,5.475 6.828,5.357 6.726,5.138 C6.937,5.592 6.954,5.703 6.968,6.117 C6.956,5.748 6.816,6.887 6.887,6.59 C6.99,6.162 6.566,7.23 6.703,6.976 C6.731,6.925 6.765,6.877 6.8,6.83 C6.967,6.602 6.233,7.455 6.576,7.117 C6.624,7.069 6.676,7.026 6.729,6.982 C7.061,6.707 6.104,7.406 6.471,7.165 C6.614,7.071 6.766,6.991 6.921,6.918 C6.992,6.885 7.064,6.855 7.136,6.825 C6.249,7.186 6.605,7.023 6.815,6.954 C6.98,6.9 7.149,6.861 7.319,6.83 C7.539,6.791 7.936,6.777 6.949,6.865 C7.037,6.857 7.125,6.856 7.213,6.858 C7.818,6.868 6.473,6.658 7.028,6.828 C7.409,6.944 6.341,6.49 6.62,6.638 C7.014,6.847 6.13,6.191 6.324,6.377 C6.595,6.637 5.923,5.767 6.081,6.026 C6.286,6.362 5.851,5.291 5.952,5.686 C6.054,6.085 5.901,4.97 5.914,5.304 C5.915,5.343 5.914,5.382 5.912,5.422 C5.904,5.63 5.824,5.998 5.987,5.018 C5.947,5.257 5.865,5.488 5.776,5.713 C6.594,5.12 7.411,4.527 8.229,3.934 C8.035,3.926 7.4,3.801 8.165,3.952 C7.945,3.909 7.352,3.618 8.066,3.978 C6.85,3.365 5.393,3.529 4.618,4.763 C3.942,5.834 4.182,7.598 5.4,8.212 L5.4,8.212 L5.4,8.212 Z" fill="#FFE69B"></path>
                                </g>
                            </g>
                            <g id="Shape" transform="translate(13.000000, 171.000000)">
                                <path d="M106.584,1.483 C105.725,1.45 105.087,1.989 104.14,2.184 C102.15,2.595 98.447,-0.123 90.55,0.116 C82.654,0.355 70.22,11.595 67.579,13.896 C54.769,25.047 47.771,33.897 42.438,38.806 C42.432,38.799 42.432,38.799 42.428,38.795 C37.097,43.702 27.695,49.953 15.514,61.797 C13,64.244 0.768,75.708 -0.128,83.561 C-1.02,91.415 1.394,95.328 0.816,97.283 C0.542,98.209 -0.049,98.8 -0.085,99.655 C-0.126,100.519 0.983,101.454 2.282,102.785 C3.575,104.118 4.831,105.456 5.424,105.641 C6.016,105.825 6.516,105.631 7.808,105.361 C9.098,105.089 8.913,104.744 14.045,108.457 C19.177,112.175 25.296,114.719 31.449,113.95 C34.346,113.588 43.657,108.83 49.432,102.336 C54.624,96.495 57.131,91.418 58.175,86.784 L58.323,86.652 L58.225,86.554 C59.606,80.136 58.193,74.579 57.258,69.05 C55.64,59.477 50.977,55.747 54.797,52.231 L54.801,52.235 C58.621,48.719 61.95,53.668 71.35,56.075 C76.78,57.467 82.197,59.334 88.704,58.486 L88.795,58.594 L88.938,58.457 C93.638,57.8 98.904,55.725 105.149,51.032 C112.097,45.817 117.611,36.939 118.208,34.078 C119.48,28.014 117.456,21.707 114.182,16.288 C110.903,10.871 111.229,11.087 111.609,9.821 C111.989,8.552 112.224,8.069 112.09,7.464 C111.952,6.86 110.723,5.498 109.508,4.097 C108.281,2.702 107.442,1.515 106.584,1.483 L106.584,1.483 L106.584,1.483 Z M4.341,81.217 C4.523,80.888 13.159,72.662 21.833,64.396 C30.087,56.528 37.757,49.119 38.217,48.931 C38.567,48.785 40.256,47.875 43.004,49.952 L3.35,87.587 C2.995,83.903 4.206,81.453 4.341,81.217 L4.341,81.217 L4.341,81.217 Z M44.021,101.644 C40.221,105.141 36.812,107.493 33.538,108.709 L51.078,93.101 C49.381,95.959 47.074,98.833 44.021,101.644 L44.021,101.644 L44.021,101.644 Z M53.953,86.624 L28.031,109.696 C26.47,109.665 24.907,109.37 23.314,108.805 L55.059,80.305 C54.959,82.34 54.609,84.457 53.953,86.624 L53.953,86.624 L53.953,86.624 Z M54.848,75.471 C54.893,75.794 54.932,76.125 54.968,76.456 L20.385,107.502 C19.678,107.126 18.965,106.697 18.234,106.223 C17.972,106.05 17.689,105.861 17.398,105.657 L54.207,71.937 C54.472,73.146 54.691,74.329 54.848,75.471 L54.848,75.471 L54.848,75.471 Z M53.391,68.719 L15.01,103.877 C14.148,103.197 13.239,102.447 12.334,101.649 L51.955,64.339 C52.491,65.784 52.972,67.256 53.391,68.719 L53.391,68.719 L53.391,68.719 Z M50.774,61.431 L10.183,99.649 C9.271,98.753 8.391,97.82 7.603,96.891 L48.986,57.716 C49.615,58.894 50.213,60.142 50.774,61.431 L50.774,61.431 L50.774,61.431 Z M45.764,52.739 C46.346,53.471 46.912,54.266 47.462,55.124 L5.827,94.538 C5.431,93.941 5.089,93.35 4.816,92.783 C4.52,92.147 4.274,91.528 4.075,90.929 L45.131,51.971 C45.331,52.214 45.549,52.465 45.764,52.739 L45.764,52.739 L45.764,52.739 Z M52.887,35.445 C53.11,35.004 61.124,27.973 69.644,20.403 C78.598,12.445 87.506,4.524 87.851,4.367 C88.094,4.257 90.637,3.25 94.276,3.907 L53.509,40.296 C51.663,37.386 52.713,35.782 52.887,35.445 L52.887,35.445 L52.887,35.445 Z M56.051,43.283 C55.802,43.04 55.564,42.808 55.347,42.581 L97.543,4.91 C98.129,5.155 98.724,5.455 99.328,5.81 C99.877,6.127 100.434,6.508 100.994,6.954 L58.286,45.171 C57.478,44.55 56.728,43.919 56.051,43.283 L56.051,43.283 L56.051,43.283 Z M104.914,45.581 C101.863,48.389 98.806,50.454 95.816,51.907 L112.825,35.722 C111.333,38.883 108.709,42.088 104.914,45.581 L104.914,45.581 L104.914,45.581 Z M114.254,30.323 L89.128,54.236 C86.915,54.711 84.776,54.879 82.741,54.814 L113.759,25.546 C114.188,27.183 114.355,28.764 114.254,30.323 L114.254,30.323 L114.254,30.323 Z M111.607,20.275 C112.019,21.038 112.384,21.785 112.703,22.523 L78.917,54.4 C78.587,54.339 78.261,54.277 77.944,54.202 C76.82,53.948 75.656,53.637 74.478,53.276 L111.111,19.395 C111.294,19.706 111.457,20 111.607,20.275 L111.607,20.275 L111.607,20.275 Z M109.541,16.87 L71.341,52.197 C69.916,51.657 68.493,51.056 67.098,50.4 L107.537,14.019 C108.26,14.988 108.934,15.954 109.541,16.87 L109.541,16.87 L109.541,16.87 Z M105.724,11.711 L64.295,48.992 C63.056,48.325 61.869,47.62 60.744,46.898 L103.19,8.913 C104.053,9.778 104.907,10.728 105.724,11.711 L105.724,11.711 L105.724,11.711 Z" fill="#D5A529"></path>
                                <path d="M108.584,3.483 C107.725,3.45 107.087,3.989 106.14,4.184 C104.15,4.595 100.447,1.877 92.55,2.116 C84.654,2.355 72.22,13.595 69.579,15.896 C56.769,27.047 49.771,35.897 44.438,40.806 C44.432,40.799 44.432,40.799 44.428,40.795 C39.097,45.702 29.695,51.953 17.514,63.797 C15,66.244 2.768,77.708 1.872,85.561 C0.98,93.415 3.394,97.328 2.816,99.283 C2.542,100.209 1.951,100.8 1.915,101.655 C1.874,102.519 2.983,103.454 4.282,104.785 C5.575,106.118 6.831,107.456 7.424,107.641 C8.016,107.825 8.516,107.631 9.808,107.361 C11.098,107.089 10.913,106.744 16.045,110.457 C21.177,114.175 27.296,116.719 33.449,115.95 C36.346,115.588 45.657,110.83 51.432,104.336 C56.624,98.495 59.131,93.418 60.175,88.784 L60.323,88.652 L60.225,88.554 C61.606,82.136 60.193,76.579 59.258,71.05 C57.64,61.477 52.977,57.747 56.797,54.231 L56.801,54.235 C60.621,50.719 63.95,55.668 73.35,58.075 C78.78,59.467 84.197,61.334 90.704,60.486 L90.795,60.594 L90.938,60.457 C95.638,59.8 100.904,57.725 107.149,53.032 C114.097,47.817 119.611,38.939 120.208,36.078 C121.48,30.014 119.456,23.707 116.182,18.288 C112.903,12.871 113.229,13.087 113.609,11.821 C113.989,10.552 114.224,10.069 114.09,9.464 C113.952,8.86 112.723,7.498 111.508,6.097 C110.281,4.702 109.442,3.515 108.584,3.483 L108.584,3.483 L108.584,3.483 Z M6.341,83.217 C6.523,82.888 15.159,74.662 23.833,66.396 C32.087,58.528 39.757,51.119 40.217,50.931 C40.567,50.785 42.256,49.875 45.004,51.952 L5.35,89.587 C4.995,85.903 6.206,83.453 6.341,83.217 L6.341,83.217 L6.341,83.217 Z M46.021,103.644 C42.221,107.141 38.812,109.493 35.538,110.709 L53.078,95.101 C51.381,97.959 49.074,100.833 46.021,103.644 L46.021,103.644 L46.021,103.644 Z M55.953,88.624 L30.031,111.696 C28.47,111.665 26.907,111.37 25.314,110.805 L57.059,82.305 C56.959,84.34 56.609,86.457 55.953,88.624 L55.953,88.624 L55.953,88.624 Z M56.848,77.471 C56.893,77.794 56.932,78.125 56.968,78.456 L22.385,109.502 C21.678,109.126 20.965,108.697 20.234,108.223 C19.972,108.05 19.689,107.861 19.398,107.657 L56.207,73.937 C56.472,75.146 56.691,76.329 56.848,77.471 L56.848,77.471 L56.848,77.471 Z M55.391,70.719 L17.01,105.877 C16.148,105.197 15.239,104.447 14.334,103.649 L53.955,66.339 C54.491,67.784 54.972,69.256 55.391,70.719 L55.391,70.719 L55.391,70.719 Z M52.774,63.431 L12.183,101.649 C11.271,100.753 10.391,99.82 9.603,98.891 L50.986,59.716 C51.615,60.894 52.213,62.142 52.774,63.431 L52.774,63.431 L52.774,63.431 Z M47.764,54.739 C48.346,55.471 48.912,56.266 49.462,57.124 L7.827,96.538 C7.431,95.941 7.089,95.35 6.816,94.783 C6.52,94.147 6.274,93.528 6.075,92.929 L47.131,53.971 C47.331,54.214 47.549,54.465 47.764,54.739 L47.764,54.739 L47.764,54.739 Z M54.887,37.445 C55.11,37.004 63.124,29.973 71.644,22.403 C80.598,14.445 89.506,6.524 89.851,6.367 C90.094,6.257 92.637,5.25 96.276,5.907 L55.509,42.296 C53.663,39.386 54.713,37.782 54.887,37.445 L54.887,37.445 L54.887,37.445 Z M58.051,45.283 C57.802,45.04 57.564,44.808 57.347,44.581 L99.543,6.91 C100.129,7.155 100.724,7.455 101.328,7.81 C101.877,8.127 102.434,8.508 102.994,8.954 L60.286,47.171 C59.478,46.55 58.728,45.919 58.051,45.283 L58.051,45.283 L58.051,45.283 Z M106.914,47.581 C103.863,50.389 100.806,52.454 97.816,53.907 L114.825,37.722 C113.333,40.883 110.709,44.088 106.914,47.581 L106.914,47.581 L106.914,47.581 Z M116.254,32.323 L91.128,56.236 C88.915,56.711 86.776,56.879 84.741,56.814 L115.759,27.546 C116.188,29.183 116.355,30.764 116.254,32.323 L116.254,32.323 L116.254,32.323 Z M113.607,22.275 C114.019,23.038 114.384,23.785 114.703,24.523 L80.917,56.4 C80.587,56.339 80.261,56.277 79.944,56.202 C78.82,55.948 77.656,55.637 76.478,55.276 L113.111,21.395 C113.294,21.706 113.457,22 113.607,22.275 L113.607,22.275 L113.607,22.275 Z M111.541,18.87 L73.341,54.197 C71.916,53.657 70.493,53.056 69.098,52.4 L109.537,16.019 C110.26,16.988 110.934,17.954 111.541,18.87 L111.541,18.87 L111.541,18.87 Z M107.724,13.711 L66.295,50.992 C65.056,50.325 63.869,49.62 62.744,48.898 L105.19,10.913 C106.053,11.778 106.907,12.728 107.724,13.711 L107.724,13.711 L107.724,13.711 Z" fill="#EC2C91"></path>
                            </g>
                        </g>
                        <g id="Group" transform="translate(873.000000, 208.000000)" sketch:type="MSShapeGroup">
                            <g>
                                <path d="M94.1,61.294 L93.351,61.789 L65.568,94.132 L84.255,119.304 C101.417,142.079 80.752,148.037 80.752,148.037 C71.478,151.979 19.558,120.291 19.558,120.291 C-15.354,98.363 12.566,69.897 12.566,69.897 L42.344,35.222" id="Shape" fill="#D5A529"></path>
                                <path d="M64.388,96.508 L64.75,95.687 L91.986,62.882 L119.931,77.092 C145.257,90.199 147.673,68.829 147.673,68.829 C150.007,59.026 110.076,13.143 110.076,13.143 C82.614,-17.607 59.223,14.685 59.223,14.685 L30.022,49.847" id="Shape" fill="#D5A529"></path>
                                <path d="M12.566,69.898 L42.344,35.223" id="Shape" fill="#D5A529"></path>
                                <path d="M88.463,142.85 C85.407,146.695 80.752,148.037 80.752,148.037 C71.478,151.979 19.558,120.291 19.558,120.291 C-6.14,104.151 2.205,84.468 8.4,75.203" id="Shape" opacity="0.37" fill="#D5A529"></path>
                                <path d="M12.566,69.898 L62.749,9.757 L94.816,63.156 L64.751,95.687 L11.827,70.853" id="Shape" fill="#D5A529"></path>
                                <path d="M17.688,65.629 C19.665,67.179 20.259,69.723 19.014,71.312 L7.511,85.988 C6.266,87.577 3.653,87.608 1.676,86.058 L1.676,86.058 C-0.301,84.508 -0.895,81.964 0.35,80.375 L11.853,65.699 C13.098,64.11 15.711,64.079 17.688,65.629 L17.688,65.629 L17.688,65.629 Z" id="Shape" fill="#D5A529"></path>
                                <path d="M69.694,2.306 C71.671,3.856 72.265,6.4 71.02,7.989 L59.517,22.665 C58.272,24.254 55.659,24.285 53.682,22.735 L53.682,22.735 C51.705,21.185 51.111,18.641 52.356,17.052 L63.859,2.376 C65.104,0.787 67.716,0.756 69.694,2.306 L69.694,2.306 L69.694,2.306 Z" id="Shape" fill="#D5A529"></path>
                                <path d="M143.231,77.943 C147.063,74.237 147.674,68.829 147.674,68.829 C150.008,59.026 110.077,13.143 110.077,13.143 C91.77,-7.355 75.272,0.161 66.307,7.45" id="Shape" opacity="0.37" fill="#D5A529"></path>
                                <path d="M52.197,72.371 C63.845,84.072 64.039,102.948 52.629,114.533 C41.219,126.118 22.527,126.023 10.879,114.322 C-0.769,102.621 -0.963,83.745 10.447,72.16 C21.856,60.576 40.548,60.671 52.197,72.371 L52.197,72.371 L52.197,72.371 Z" id="Shape" fill="#D5A529"></path>
                                <path d="M50.149,99.73 L42.031,110.463 L12.636,87.604 L20.753,76.871 L50.149,99.73 L50.149,99.73 Z" id="Shape" fill="#D5A529"></path>
                                <path d="M37.109,74.817 L47.863,83.18 L25.675,112.517 L14.921,104.154 L37.109,74.817 L37.109,74.817 Z" id="Shape" fill="#D5A529"></path>
                                <path d="M20.867,95.016 C21.521,94.132 22.941,93.242 24.022,93.04 L26.399,92.595 C27.48,92.393 28.466,93.121 28.589,94.215 L28.86,96.618 C28.983,97.711 28.549,99.329 27.895,100.213 L24.459,104.86 C23.805,105.744 22.546,105.933 21.662,105.279 L17.85,102.46 C16.966,101.806 16.777,100.547 17.431,99.663 L20.867,95.016 L20.867,95.016 Z" id="Shape" fill="#D5A529"></path>
                                <path d="M22.867,97.016 C23.521,96.132 24.941,95.242 26.022,95.04 L28.399,94.595 C29.48,94.393 30.466,95.121 30.589,96.215 L30.86,98.618 C30.983,99.711 30.549,101.329 29.895,102.213 L26.459,106.86 C25.805,107.744 24.546,107.933 23.662,107.279 L19.85,104.46 C18.966,103.806 18.777,102.547 19.431,101.663 L22.867,97.016 L22.867,97.016 Z" id="Shape" fill="#D5A529"></path>
                                <path d="M32.163,99.581 C31.273,98.935 30.371,97.523 30.158,96.444 L29.692,94.071 C29.48,92.992 30.2,92 31.291,91.866 L33.691,91.573 C34.783,91.44 36.405,91.859 37.295,92.505 L41.973,95.899 C42.863,96.545 43.063,97.802 42.417,98.692 L39.633,102.529 C38.987,103.419 37.73,103.619 36.84,102.973 L32.163,99.581 L32.163,99.581 Z" id="Shape" fill="#D5A529"></path>
                                <path d="M34.163,101.581 C33.273,100.935 32.371,99.523 32.158,98.444 L31.692,96.071 C31.48,94.992 32.2,94 33.291,93.866 L35.691,93.573 C36.783,93.44 38.405,93.859 39.295,94.505 L43.973,97.899 C44.863,98.545 45.063,99.802 44.417,100.692 L41.633,104.529 C40.987,105.419 39.73,105.619 38.84,104.973 L34.163,101.581 L34.163,101.581 Z" id="Shape" fill="#D5A529"></path>
                                <path d="M37.202,88.281 C36.548,89.165 35.128,90.055 34.047,90.257 L31.67,90.702 C30.589,90.904 29.603,90.176 29.48,89.082 L29.209,86.679 C29.086,85.586 29.52,83.968 30.174,83.084 L33.61,78.437 C34.264,77.553 35.523,77.364 36.407,78.018 L40.219,80.837 C41.103,81.491 41.292,82.75 40.638,83.634 L37.202,88.281 L37.202,88.281 Z" id="Shape" fill="#D5A529"></path>
                                <path d="M39.202,90.281 C38.548,91.165 37.128,92.055 36.047,92.257 L33.67,92.702 C32.589,92.904 31.603,92.176 31.48,91.082 L31.209,88.679 C31.086,87.586 31.52,85.968 32.174,85.084 L35.61,80.437 C36.264,79.553 37.523,79.364 38.407,80.018 L42.219,82.837 C43.103,83.491 43.292,84.75 42.638,85.634 L39.202,90.281 L39.202,90.281 Z" id="Shape" fill="#D5A529"></path>
                                <path d="M25.906,83.715 C26.796,84.361 27.698,85.773 27.911,86.852 L28.377,89.225 C28.589,90.304 27.869,91.296 26.777,91.43 L24.377,91.723 C23.285,91.856 21.663,91.437 20.773,90.791 L16.095,87.397 C15.205,86.751 15.005,85.494 15.651,84.604 L18.435,80.767 C19.081,79.877 20.338,79.677 21.228,80.323 L25.906,83.715 L25.906,83.715 Z" id="Shape" fill="#D5A529"></path>
                                <path d="M27.906,85.715 C28.796,86.361 29.698,87.773 29.911,88.852 L30.377,91.225 C30.589,92.304 29.869,93.296 28.777,93.43 L26.377,93.723 C25.285,93.856 23.663,93.437 22.773,92.791 L18.095,89.397 C17.205,88.751 17.005,87.494 17.651,86.604 L20.435,82.767 C21.081,81.877 22.338,81.677 23.228,82.323 L27.906,85.715 L27.906,85.715 Z" id="Shape" fill="#D5A529"></path>
                                <circle id="Oval" fill="#D5A529" cx="64.606" cy="91.606" r="13.606"></circle>
                                <circle id="Oval" opacity="0.59" fill="#D5A529" cx="64.607" cy="91.607" r="9.607"></circle>
                                <path d="M106.915,8.445 C118.563,20.146 118.757,39.022 107.347,50.607 C95.937,62.191 77.245,62.097 65.597,50.396 C53.949,38.695 53.755,19.819 65.165,8.234 C76.574,-3.35 95.266,-3.256 106.915,8.445 L106.915,8.445 L106.915,8.445 Z" id="Shape" fill="#D5A529"></path>
                                <path d="M104.867,35.803 L96.749,46.536 L67.354,23.678 L75.471,12.945 L104.867,35.803 L104.867,35.803 Z" id="Shape" fill="#D5A529"></path>
                                <path d="M91.827,10.891 L102.582,19.254 L80.393,48.59 L69.639,40.227 L91.827,10.891 L91.827,10.891 Z" id="Shape" fill="#D5A529"></path>
                                <path d="M75.955,34.84 C77.264,33.072 79.76,32.724 81.502,34.067 L83.114,35.31 C84.856,36.653 85.211,39.2 83.902,40.968 L82.351,43.064 C81.042,44.832 78.546,45.18 76.804,43.837 L75.192,42.594 C73.45,41.251 73.095,38.704 74.404,36.936 L75.955,34.84 L75.955,34.84 Z" id="Shape" fill="#D5A529"></path>
                                <path d="M89.539,16.369 C90.848,14.601 93.344,14.253 95.086,15.596 L96.698,16.839 C98.44,18.182 98.795,20.729 97.486,22.497 L95.935,24.593 C94.626,26.361 92.13,26.709 90.388,25.366 L88.776,24.123 C87.034,22.78 86.679,20.233 87.988,18.465 L89.539,16.369 L89.539,16.369 Z" id="Shape" fill="#D5A529"></path>
                                <path d="M92.487,32.543 C93.796,30.775 96.292,30.427 98.034,31.77 L99.646,33.013 C101.388,34.356 101.743,36.903 100.434,38.671 L98.883,40.767 C97.574,42.535 95.078,42.883 93.336,41.54 L91.724,40.297 C89.982,38.954 89.627,36.407 90.936,34.639 L92.487,32.543 L92.487,32.543 Z" id="Shape" fill="#D5A529"></path>
                                <path d="M73.659,18.308 C74.968,16.54 77.464,16.192 79.206,17.535 L80.818,18.778 C82.56,20.121 82.915,22.668 81.606,24.436 L80.055,26.532 C78.746,28.3 76.25,28.648 74.508,27.305 L72.896,26.062 C71.154,24.719 70.799,22.172 72.108,20.404 L73.659,18.308 L73.659,18.308 Z" id="Shape" fill="#D5A529"></path>
                                <path d="M95.712,35.85 L97.086,35.553 C97.382,35.487 97.593,35.496 97.721,35.578 C97.849,35.66 97.944,35.848 98.007,36.141 C98.069,36.435 98.061,36.644 97.981,36.769 C97.901,36.895 97.714,36.99 97.417,37.055 L96.056,37.349 L96.357,38.714 C96.423,39.01 96.416,39.219 96.338,39.342 C96.26,39.464 96.073,39.56 95.779,39.63 C95.484,39.7 95.273,39.694 95.145,39.611 C95.018,39.53 94.921,39.341 94.856,39.046 L94.547,37.675 L93.174,37.971 C92.878,38.037 92.666,38.029 92.539,37.947 C92.411,37.865 92.315,37.675 92.252,37.377 C92.188,37.079 92.196,36.869 92.274,36.747 C92.352,36.624 92.539,36.53 92.834,36.464 L94.208,36.168 L93.894,34.805 C93.829,34.51 93.836,34.299 93.917,34.174 C93.997,34.049 94.184,33.953 94.48,33.888 C94.776,33.822 94.987,33.831 95.115,33.913 C95.242,33.994 95.339,34.183 95.404,34.478 L95.712,35.85 L95.712,35.85 Z" id="Shape" fill="#D5A529"></path>
                                <circle id="Oval" stroke="#D5A529" cx="92.688" cy="20.688" r="2.688"></circle>
                                <path d="M77.488,25.341 C76.799,23.651 76.11,21.96 75.421,20.27 C75.165,20.526 74.908,20.783 74.652,21.039 C76.456,21.317 78.26,21.596 80.064,21.874 C79.972,21.526 79.88,21.178 79.788,20.829 C78.673,22.241 77.558,23.653 76.443,25.065 C75.949,25.69 76.827,26.581 77.327,25.949 C78.442,24.537 79.557,23.125 80.672,21.713 C80.926,21.392 80.915,20.748 80.396,20.668 C78.592,20.39 76.788,20.111 74.984,19.833 C74.576,19.77 74.014,20.108 74.215,20.602 C74.904,22.292 75.593,23.983 76.282,25.673 C76.583,26.41 77.792,26.088 77.488,25.341 L77.488,25.341 L77.488,25.341 Z" id="Shape" fill="#D5A529"></path>
                                <path d="M81.678,38.149 C80.769,39.331 79.859,40.512 78.949,41.694 C79.234,41.619 79.519,41.545 79.804,41.47 C78.656,40.586 77.507,39.702 76.359,38.818 C76.434,39.103 76.508,39.388 76.583,39.673 C77.492,38.491 78.402,37.31 79.312,36.128 C79.027,36.203 78.742,36.277 78.457,36.352 C79.605,37.236 80.754,38.12 81.902,39.004 C82.541,39.496 83.162,38.409 82.533,37.925 C81.385,37.041 80.236,36.157 79.088,35.273 C78.794,35.047 78.419,35.255 78.233,35.497 C77.323,36.679 76.414,37.86 75.504,39.042 C75.278,39.336 75.486,39.711 75.728,39.897 C76.876,40.781 78.025,41.665 79.173,42.549 C79.467,42.775 79.842,42.567 80.028,42.325 C80.937,41.143 81.847,39.962 82.757,38.78 C83.25,38.141 82.163,37.52 81.678,38.149 L81.678,38.149 L81.678,38.149 Z" id="Shape" fill="#D5A529"></path>
                                <path d="M53.535,42.372 C54.603,43.247 54.759,44.823 53.884,45.891 L42.93,59.256 C42.055,60.324 40.479,60.48 39.411,59.605 L39.411,59.605 C38.343,58.73 38.187,57.154 39.062,56.086 L50.016,42.721 C50.892,41.652 52.467,41.496 53.535,42.372 L53.535,42.372 L53.535,42.372 Z" id="Shape" fill="#D5A529"></path>
                                <ellipse id="Oval" fill="#D5A529" transform="translate(66.479472, 68.076344) rotate(-28.764104) translate(-66.479472, -68.076344) " cx="66.278431" cy="68.0723062" rx="4.29895916" ry="3.99596204"></ellipse>
                                <circle id="Oval" fill="#D5A529" cx="88.606" cy="63.606" r="13.606"></circle>
                                <circle id="Oval" opacity="0.59" fill="#D5A529" cx="88.607" cy="63.607" r="9.607"></circle>
                            </g>
                            <g transform="translate(2.000000, 2.000000)">
                                <g id="Shape">
                                    <path d="M94.1,61.294 L93.351,61.789 L65.568,94.132 L84.255,119.304 C101.417,142.079 80.752,148.037 80.752,148.037 C71.478,151.979 19.558,120.291 19.558,120.291 C-15.354,98.363 12.566,69.897 12.566,69.897 L42.344,35.222" fill="#676767"></path>
                                    <path d="M64.388,96.508 L64.75,95.687 L91.986,62.882 L119.931,77.092 C145.257,90.199 147.673,68.829 147.673,68.829 C150.007,59.026 110.076,13.143 110.076,13.143 C82.614,-17.607 59.223,14.685 59.223,14.685 L30.022,49.847" fill="#676767"></path>
                                    <path d="M12.566,69.898 L42.344,35.223" fill="#807F7F"></path>
                                    <path d="M88.463,142.85 C85.407,146.695 80.752,148.037 80.752,148.037 C71.478,151.979 19.558,120.291 19.558,120.291 C-6.14,104.151 2.205,84.468 8.4,75.203" opacity="0.37" fill="#807F7F"></path>
                                    <path d="M12.566,69.898 L62.749,9.757 L94.816,63.156 L64.751,95.687 L11.827,70.853" fill="#4D4C4C"></path>
                                    <path d="M17.688,65.629 C19.665,67.179 20.259,69.723 19.014,71.312 L7.511,85.988 C6.266,87.577 3.653,87.608 1.676,86.058 L1.676,86.058 C-0.301,84.508 -0.895,81.964 0.35,80.375 L11.853,65.699 C13.098,64.11 15.711,64.079 17.688,65.629 L17.688,65.629 L17.688,65.629 Z" fill="#4D4C4C"></path>
                                    <path d="M69.694,2.306 C71.671,3.856 72.265,6.4 71.02,7.989 L59.517,22.665 C58.272,24.254 55.659,24.285 53.682,22.735 L53.682,22.735 C51.705,21.185 51.111,18.641 52.356,17.052 L63.859,2.376 C65.104,0.787 67.716,0.756 69.694,2.306 L69.694,2.306 L69.694,2.306 Z" fill="#4D4C4C"></path>
                                    <path d="M143.231,77.943 C147.063,74.237 147.674,68.829 147.674,68.829 C150.008,59.026 110.077,13.143 110.077,13.143 C91.77,-7.355 75.272,0.161 66.307,7.45" opacity="0.37" fill="#807F7F"></path>
                                </g>
                                <g id="Shape" transform="translate(2.000000, 64.000000)">
                                    <path d="M50.197,8.371 C61.845,20.072 62.039,38.948 50.629,50.533 C39.219,62.118 20.527,62.023 8.879,50.322 C-2.769,38.621 -2.963,19.745 8.447,8.16 C19.856,-3.424 38.548,-3.329 50.197,8.371 L50.197,8.371 L50.197,8.371 Z" fill="#807F7F"></path>
                                    <path d="M48.149,35.73 L40.031,46.463 L10.636,23.604 L18.753,12.871 L48.149,35.73 L48.149,35.73 Z" fill="#676767"></path>
                                    <path d="M35.109,10.817 L45.863,19.18 L23.675,48.517 L12.921,40.154 L35.109,10.817 L35.109,10.817 Z" fill="#676767"></path>
                                    <g id="Group" transform="translate(15.000000, 29.000000)">
                                        <path d="M3.867,2.016 C4.521,1.132 5.941,0.242 7.022,0.04 L9.399,-0.405 C10.48,-0.607 11.466,0.121 11.589,1.215 L11.86,3.618 C11.983,4.711 11.549,6.329 10.895,7.213 L7.459,11.86 C6.805,12.744 5.546,12.933 4.662,12.279 L0.85,9.46 C-0.034,8.806 -0.223,7.547 0.431,6.663 L3.867,2.016 L3.867,2.016 Z" id="Shape" fill="#DBD9D0"></path>
                                        <path d="M5.867,4.016 C6.521,3.132 7.941,2.242 9.022,2.04 L11.399,1.595 C12.48,1.393 13.466,2.121 13.589,3.215 L13.86,5.618 C13.983,6.711 13.549,8.329 12.895,9.213 L9.459,13.86 C8.805,14.744 7.546,14.933 6.662,14.279 L2.85,11.46 C1.966,10.806 1.777,9.547 2.431,8.663 L5.867,4.016 L5.867,4.016 Z" id="Shape" fill="#807F7F"></path>
                                    </g>
                                    <g id="Group" transform="translate(28.000000, 28.000000)">
                                        <path d="M2.163,7.581 C1.273,6.935 0.371,5.523 0.158,4.444 L-0.308,2.071 C-0.52,0.992 0.2,-1.9095836e-14 1.291,-0.134 L3.691,-0.427 C4.783,-0.56 6.405,-0.141 7.295,0.505 L11.973,3.899 C12.863,4.545 13.063,5.802 12.417,6.692 L9.633,10.529 C8.987,11.419 7.73,11.619 6.84,10.973 L2.163,7.581 L2.163,7.581 Z" id="Shape" fill="#DBD9D0"></path>
                                        <path d="M4.163,9.581 C3.273,8.935 2.371,7.523 2.158,6.444 L1.692,4.071 C1.48,2.992 2.2,2 3.291,1.866 L5.691,1.573 C6.783,1.44 8.405,1.859 9.295,2.505 L13.973,5.899 C14.863,6.545 15.063,7.802 14.417,8.692 L11.633,12.529 C10.987,13.419 9.73,13.619 8.84,12.973 L4.163,9.581 L4.163,9.581 Z" id="Shape" fill="#807F7F"></path>
                                    </g>
                                    <g id="Group" transform="translate(27.000000, 14.000000)">
                                        <path d="M8.202,10.281 C7.548,11.165 6.128,12.055 5.047,12.257 L2.67,12.702 C1.589,12.904 0.603,12.176 0.48,11.082 L0.209,8.679 C0.086,7.586 0.52,5.968 1.174,5.084 L4.61,0.437 C5.264,-0.447 6.523,-0.636 7.407,0.018 L11.219,2.837 C12.103,3.491 12.292,4.75 11.638,5.634 L8.202,10.281 L8.202,10.281 Z" id="Shape" fill="#DBD9D0"></path>
                                        <path d="M10.202,12.281 C9.548,13.165 8.128,14.055 7.047,14.257 L4.67,14.702 C3.589,14.904 2.603,14.176 2.48,13.082 L2.209,10.679 C2.086,9.586 2.52,7.968 3.174,7.084 L6.61,2.437 C7.264,1.553 8.523,1.364 9.407,2.018 L13.219,4.837 C14.103,5.491 14.292,6.75 13.638,7.634 L10.202,12.281 L10.202,12.281 Z" id="Shape" fill="#807F7F"></path>
                                    </g>
                                    <g id="Group" transform="translate(13.000000, 16.000000)">
                                        <path d="M10.906,3.715 C11.796,4.361 12.698,5.773 12.911,6.852 L13.377,9.225 C13.589,10.304 12.869,11.296 11.777,11.43 L9.377,11.723 C8.285,11.856 6.663,11.437 5.773,10.791 L1.095,7.397 C0.205,6.751 0.005,5.494 0.651,4.604 L3.435,0.767 C4.081,-0.123 5.338,-0.323 6.228,0.323 L10.906,3.715 L10.906,3.715 Z" id="Shape" fill="#DBD9D0"></path>
                                        <path d="M12.906,5.715 C13.796,6.361 14.698,7.773 14.911,8.852 L15.377,11.225 C15.589,12.304 14.869,13.296 13.777,13.43 L11.377,13.723 C10.285,13.856 8.663,13.437 7.773,12.791 L3.095,9.397 C2.205,8.751 2.005,7.494 2.651,6.604 L5.435,2.767 C6.081,1.877 7.338,1.677 8.228,2.323 L12.906,5.715 L12.906,5.715 Z" id="Shape" fill="#807F7F"></path>
                                    </g>
                                </g>
                                <g id="Oval" transform="translate(51.000000, 78.000000)">
                                    <circle fill="#919090" cx="13.606" cy="13.606" r="13.606"></circle>
                                    <circle opacity="0.59" fill="#AEAEAE" cx="13.607" cy="13.607" r="9.607"></circle>
                                </g>
                                <g transform="translate(38.000000, 0.000000)">
                                    <path d="M68.915,8.445 C80.563,20.146 80.757,39.022 69.347,50.607 C57.937,62.191 39.245,62.097 27.597,50.396 C15.949,38.695 15.755,19.819 27.165,8.234 C38.574,-3.35 57.266,-3.256 68.915,8.445 L68.915,8.445 L68.915,8.445 Z" id="Shape" fill="#807F7F"></path>
                                    <path d="M66.867,35.803 L58.749,46.536 L29.354,23.678 L37.471,12.945 L66.867,35.803 L66.867,35.803 Z" id="Shape" fill="#4D4C4C"></path>
                                    <path d="M53.827,10.891 L64.582,19.254 L42.393,48.59 L31.639,40.227 L53.827,10.891 L53.827,10.891 Z" id="Shape" fill="#4D4C4C"></path>
                                    <path d="M37.955,34.84 C39.264,33.072 41.76,32.724 43.502,34.067 L45.114,35.31 C46.856,36.653 47.211,39.2 45.902,40.968 L44.351,43.064 C43.042,44.832 40.546,45.18 38.804,43.837 L37.192,42.594 C35.45,41.251 35.095,38.704 36.404,36.936 L37.955,34.84 L37.955,34.84 Z" id="Shape" fill="#807F7F"></path>
                                    <path d="M51.539,16.369 C52.848,14.601 55.344,14.253 57.086,15.596 L58.698,16.839 C60.44,18.182 60.795,20.729 59.486,22.497 L57.935,24.593 C56.626,26.361 54.13,26.709 52.388,25.366 L50.776,24.123 C49.034,22.78 48.679,20.233 49.988,18.465 L51.539,16.369 L51.539,16.369 Z" id="Shape" fill="#807F7F"></path>
                                    <path d="M54.487,32.543 C55.796,30.775 58.292,30.427 60.034,31.77 L61.646,33.013 C63.388,34.356 63.743,36.903 62.434,38.671 L60.883,40.767 C59.574,42.535 57.078,42.883 55.336,41.54 L53.724,40.297 C51.982,38.954 51.627,36.407 52.936,34.639 L54.487,32.543 L54.487,32.543 Z" id="Shape" fill="#807F7F"></path>
                                    <path d="M35.659,18.308 C36.968,16.54 39.464,16.192 41.206,17.535 L42.818,18.778 C44.56,20.121 44.915,22.668 43.606,24.436 L42.055,26.532 C40.746,28.3 38.25,28.648 36.508,27.305 L34.896,26.062 C33.154,24.719 32.799,22.172 34.108,20.404 L35.659,18.308 L35.659,18.308 Z" id="Shape" fill="#807F7F"></path>
                                    <path d="M57.712,35.85 L59.086,35.553 C59.382,35.487 59.593,35.496 59.721,35.578 C59.849,35.66 59.944,35.848 60.007,36.141 C60.069,36.435 60.061,36.644 59.981,36.769 C59.901,36.895 59.714,36.99 59.417,37.055 L58.056,37.349 L58.357,38.714 C58.423,39.01 58.416,39.219 58.338,39.342 C58.26,39.464 58.073,39.56 57.779,39.63 C57.484,39.7 57.273,39.694 57.145,39.611 C57.018,39.53 56.921,39.341 56.856,39.046 L56.547,37.675 L55.174,37.971 C54.878,38.037 54.666,38.029 54.539,37.947 C54.411,37.865 54.315,37.675 54.252,37.377 C54.188,37.079 54.196,36.869 54.274,36.747 C54.352,36.624 54.539,36.53 54.834,36.464 L56.208,36.168 L55.894,34.805 C55.829,34.51 55.836,34.299 55.917,34.174 C55.997,34.049 56.184,33.953 56.48,33.888 C56.776,33.822 56.987,33.831 57.115,33.913 C57.242,33.994 57.339,34.183 57.404,34.478 L57.712,35.85 L57.712,35.85 Z" id="Shape" fill="#EB008B"></path>
                                    <circle id="Oval" stroke="#EB008B" cx="54.688" cy="20.688" r="2.688"></circle>
                                    <path d="M39.488,25.341 C38.799,23.651 38.11,21.96 37.421,20.27 C37.165,20.526 36.908,20.783 36.652,21.039 C38.456,21.317 40.26,21.596 42.064,21.874 C41.972,21.526 41.88,21.178 41.788,20.829 C40.673,22.241 39.558,23.653 38.443,25.065 C37.949,25.69 38.827,26.581 39.327,25.949 C40.442,24.537 41.557,23.125 42.672,21.713 C42.926,21.392 42.915,20.748 42.396,20.668 C40.592,20.39 38.788,20.111 36.984,19.833 C36.576,19.77 36.014,20.108 36.215,20.602 C36.904,22.292 37.593,23.983 38.282,25.673 C38.583,26.41 39.792,26.088 39.488,25.341 L39.488,25.341 L39.488,25.341 Z" id="Shape" fill="#EB008B"></path>
                                    <path d="M43.678,38.149 C42.769,39.331 41.859,40.512 40.949,41.694 C41.234,41.619 41.519,41.545 41.804,41.47 C40.656,40.586 39.507,39.702 38.359,38.818 C38.434,39.103 38.508,39.388 38.583,39.673 C39.492,38.491 40.402,37.31 41.312,36.128 C41.027,36.203 40.742,36.277 40.457,36.352 C41.605,37.236 42.754,38.12 43.902,39.004 C44.541,39.496 45.162,38.409 44.533,37.925 C43.385,37.041 42.236,36.157 41.088,35.273 C40.794,35.047 40.419,35.255 40.233,35.497 C39.323,36.679 38.414,37.86 37.504,39.042 C37.278,39.336 37.486,39.711 37.728,39.897 C38.876,40.781 40.025,41.665 41.173,42.549 C41.467,42.775 41.842,42.567 42.028,42.325 C42.937,41.143 43.847,39.962 44.757,38.78 C45.25,38.141 44.163,37.52 43.678,38.149 L43.678,38.149 L43.678,38.149 Z" id="Shape" fill="#EB008B"></path>
                                    <path d="M15.535,42.372 C16.603,43.247 16.759,44.823 15.884,45.891 L4.93,59.256 C4.055,60.324 2.479,60.48 1.411,59.605 L1.411,59.605 C0.343,58.73 0.187,57.154 1.062,56.086 L12.016,42.721 C12.892,41.652 14.467,41.496 15.535,42.372 L15.535,42.372 L15.535,42.372 Z" id="Shape" fill="#676767"></path>
                                    <ellipse id="Oval" fill="#676767" transform="translate(28.479472, 68.076344) rotate(-28.764104) translate(-28.479472, -68.076344) " cx="28.278431" cy="68.0723062" rx="4.29895916" ry="3.99596204"></ellipse>
                                </g>
                                <g id="Oval" transform="translate(75.000000, 50.000000)">
                                    <circle fill="#919090" cx="13.606" cy="13.606" r="13.606"></circle>
                                    <circle opacity="0.59" fill="#AEAEAE" cx="13.607" cy="13.607" r="9.607"></circle>
                                </g>
                            </g>
                        </g>
                        <g id="Group" transform="translate(404.000000, 88.000000)" sketch:type="MSShapeGroup">
                            <path d="M261.311,32.919 C279.002,36.547 285.303,58.793 274.513,72.572 C267.3,81.783 256.35,87.023 245.246,89.823 C235.921,92.174 224.535,89.929 216.234,95.384 C213.552,97.146 216.054,101.478 218.758,99.701 C224.108,96.186 230.787,96.867 236.901,96.353 C243.238,95.82 249.574,94.09 255.506,91.864 C266.11,87.885 276.887,80.434 281.927,69.996 C289.916,53.451 281.085,31.879 262.642,28.097 C259.493,27.452 258.153,32.272 261.311,32.919 L261.311,32.919 L261.311,32.919 Z" id="Shape" fill="#FFFFFF"></path>
                            <g>
                                <g>
                                    <g id="Oval" transform="translate(68.000000, 270.000000)" fill="#D5CECE">
                                        <circle cx="8.55" cy="8.55" r="8.55"></circle>
                                        <circle cx="34.55" cy="8.55" r="8.55"></circle>
                                        <circle cx="59.55" cy="8.55" r="8.55"></circle>
                                    </g>
                                    <g id="Rectangle-path" fill="#34B38B">
                                        <rect x="0" y="0" width="215" height="300"></rect>
                                    </g>
                                    <g transform="translate(32.000000, 97.000000)">
                                        <path d="M3.863,118.5 L78.958,202 L182,202 L182,50.001 L157.972,9.423" id="Shape" opacity="0.32" fill="#003333"></path>
                                        <path d="M-0.055,110.637 C-0.055,116.092 4.367,120.514 9.822,120.514 L148.095,120.514 C153.55,120.514 157.972,116.092 157.972,110.637 L157.972,9.423 C157.972,3.968 153.55,-0.454 148.095,-0.454 L9.822,-0.454 C4.367,-0.454 -0.055,3.968 -0.055,9.423 L-0.055,110.637 L-0.055,110.637 Z" id="Shape" fill="#6CC396"></path>
                                        <path d="M30.819,23.123 L30.819,78.736 L44.061,95.495" id="Shape" stroke="#C5C8CF" stroke-width="2"></path>
                                        <path d="M35.265,85.254 C32.318,87.705 31.579,91.676 33.615,94.123 L41.037,103.047 C43.072,105.494 47.111,105.492 50.058,103.041 L50.058,103.041 C53.005,100.59 53.744,96.619 51.708,94.172 L44.286,85.248 C42.251,82.801 38.212,82.803 35.265,85.254 L35.265,85.254 L35.265,85.254 Z" id="Shape" fill="#C5C8CF"></path>
                                        <path d="M24.235,23.989 C24.235,27.625 27.183,30.573 30.819,30.573 L30.819,30.573 C34.455,30.573 37.403,27.625 37.403,23.989 L37.403,17.028 C37.403,13.391 34.455,10.444 30.819,10.444 L30.819,10.444 C27.182,10.444 24.235,13.392 24.235,17.028 L24.235,23.989 L24.235,23.989 Z" id="Shape" fill="#3A4A4F"></path>
                                        <g id="Oval" transform="translate(9.000000, 43.000000)" fill="#3A4A4F">
                                            <circle cx="5.248" cy="5.248" r="5.248"></circle>
                                            <circle cx="5.248" cy="27.248" r="5.248"></circle>
                                            <circle cx="5.248" cy="48.248" r="5.248"></circle>
                                        </g>
                                        <path d="M157.972,61.728 L157.972,9.424 C157.972,3.969 153.55,-0.453 148.095,-0.453 L9.822,-0.453 C4.367,-0.453 -0.055,3.969 -0.055,9.424 L-0.055,63.209" id="Shape" opacity="0.11" fill="#EECDE1"></path>
                                        <circle id="Oval" fill="#3A4A4F" cx="97.522" cy="60.522" r="39.522"></circle>
                                        <path d="M121.435,91.159 C130.669,83.925 136.603,72.67 136.603,60.03 C136.603,38.203 118.909,20.508 97.081,20.508 C86.167,20.508 76.287,24.932 69.135,32.084" id="Shape" fill="#5D717C"></path>
                                        <circle id="Oval" fill="#00ADEE" cx="97.334" cy="60.334" r="13.334"></circle>
                                        <circle id="Oval" fill="#3A4A4F" cx="97.281" cy="60.281" r="6.281"></circle>
                                    </g>
                                </g>
                            </g>
                        </g>
                    </g>
                    <g id="Layer_4"></g>
                </g>
            </g>
        </g>
    </g>
</svg>