<svg width="1024" height="460" viewBox="0 0 1024 460" xmlns="http://www.w3.org/2000/svg" xmlns:xlink="http://www.w3.org/1999/xlink" xmlns:sketch="http://www.bohemiancoding.com/sketch/ns"><title>Untitled</title><desc>Created with Sketch.</desc><defs><path id="path-1" d="M0 0h67.249v38.374h-67.249z"/></defs><g sketch:type="MSLayerGroup" fill="none"><g><path id="Rectangle-path" sketch:type="MSShapeGroup" d="M0 0h1024v400h-1024z"/><path d="M627.572 109.212h28.164c7.112 0 12.878 5.766 12.878 12.878s-5.766 12.878-12.878 12.878h-28.164" id="Shape" fill="#fff" sketch:type="MSShapeGroup"/><g id="Group"><path d="M59.714 188.084c5.022 45.106 18.785 95.417 53.819 126.728 36.85 32.935 95.012 35.785 138.538 15.627 18.117-8.39 33.102-21.931 47.373-35.611 7.669-7.352 14.928-14.983 24.003-20.638 8.482-5.286 18.025-8.561 27.714-10.804 3.141-.727 1.809-5.548-1.329-4.821-12.899 2.986-25.064 7.995-35.708 15.957-11.178 8.361-20.521 19.319-30.943 28.596-21.008 18.701-45.391 30.819-73.465 34.129-25.972 3.062-52.98-1.608-75.942-14.241-21.243-11.687-36.1-31.282-46.679-52.685-12.608-25.508-19.245-54.081-22.38-82.237-.354-3.168-5.358-3.202-5.001 0z" id="Shape" fill="#fff" sketch:type="MSShapeGroup"/><g id="Shape" sketch:type="MSShapeGroup"><g id="Group" fill="#D5A529"><path d="M51.351 163.717l-6.466 1.221-6.776-36.947 6.466-1.221 6.776 36.947zM76.507 197.861c-16.929 3.199-33.209-8.144-36.362-25.335-3.153-17.191 8.015-33.72 24.944-36.918" id="Shape"/><path d="M76.507 197.861c-16.929 3.199-33.209-8.144-36.362-25.335l30.653-5.792 5.709 31.127zM89.063 197.501l-12.931 2.443-12.037-65.629 12.932-2.444 12.036 65.63zM237.752 127.456l-6.466 1.222-6.776-36.947 6.466-1.222 6.776 36.947zM207.175 108.587c16.929-3.199 33.209 8.144 36.362 25.335 3.153 17.191-8.015 33.72-24.944 36.918" id="Shape"/><path d="M207.175 108.587c16.929-3.199 33.209 8.144 36.362 25.335l-30.653 5.792-5.709-31.127zM195.163 108.844l12.932-2.443 12.037 65.629-12.932 2.444-12.037-65.63zM47.633 132.714c-8.629-49.111 21.155-98.718 70.061-109.202 50.133-10.747 97.534 26.278 107.007 75.823 1.328 6.948 11.926 4.848 10.602-2.08-9.59-50.162-53.632-88.76-104.745-86.349-50.612 2.388-90.281 44.353-94.965 94.73-.902 9.698-.243 19.587 1.439 29.159 1.225 6.972 11.821 4.861 10.601-2.081zM80.615 53.706c24.575-21.226 58.039-27.382 88.353-16.226 6.555 2.413 9.993-7.975 3.451-10.382-33.921-12.484-71.563-5.262-98.997 18.433-5.299 4.578 1.889 12.756 7.193 8.175z" id="Shape"/></g><g id="Group"><path d="M53.351 165.717l-6.466 1.221-6.776-36.947 6.466-1.221 6.776 36.947z" id="Shape" fill="#630C0D"/><g id="Shape"><path d="M78.507 199.861c-16.929 3.199-33.209-8.144-36.362-25.335-3.153-17.191 8.015-33.72 24.944-36.918" fill="#DB3F33"/><path d="M78.507 199.861c-16.929 3.199-33.209-8.144-36.362-25.335l30.653-5.792 5.709 31.127z" fill="#933"/></g><path d="M91.063 199.501l-12.931 2.443-12.037-65.629 12.932-2.444 12.036 65.63zM239.752 129.456l-6.466 1.222-6.776-36.947 6.466-1.222 6.776 36.947z" id="Shape" fill="#630C0D"/><g id="Shape"><path d="M209.175 110.587c16.929-3.199 33.209 8.144 36.362 25.335 3.153 17.191-8.015 33.72-24.944 36.918" fill="#933"/><path d="M209.175 110.587c16.929-3.199 33.209 8.144 36.362 25.335l-30.653 5.792-5.709-31.127z" fill="#DB3F33"/></g><path d="M197.163 110.844l12.932-2.443 12.037 65.629-12.932 2.444-12.037-65.63z" id="Shape" fill="#630C0D"/><path d="M49.633 134.714c-8.629-49.111 21.155-98.718 70.061-109.202 50.133-10.747 97.534 26.278 107.007 75.823 1.328 6.948 11.926 4.848 10.602-2.08-9.59-50.162-53.632-88.76-104.745-86.349-50.612 2.388-90.281 44.353-94.965 94.73-.902 9.698-.243 19.587 1.439 29.159 1.225 6.972 11.821 4.861 10.601-2.081z" id="Shape" fill="#CC3232"/><path d="M82.615 55.706c24.575-21.226 58.039-27.382 88.353-16.226 6.555 2.413 9.993-7.975 3.451-10.382-33.921-12.484-71.563-5.262-98.997 18.433-5.299 4.578 1.889 12.756 7.193 8.175z" id="Shape" fill="#630C0D"/></g></g><g sketch:type="MSShapeGroup"><g fill="#D5A529"><path id="Rectangle-path" d="M52.517 318.762l73.247-156.884 112.024 52.303-73.247 156.884z"/><path d="M223.192 212.089c1.994.93 2.864 3.322 1.934 5.316l-66.436 142.411c-.93 1.994-3.322 2.864-5.316 1.934l-98.23-45.825c-1.994-.93-2.864-3.322-1.934-5.316l66.436-142.411c.93-1.994 3.322-2.864 5.316-1.934l98.23 45.825z" id="Shape"/><path id="Rectangle-path" d="M51.441 314.307l69.855-149.619 93.228 43.527-69.855 149.619z"/></g><path id="Rectangle-path" fill="#fff" d="M54.517 320.762l73.247-156.884 112.024 52.303-73.247 156.884z"/><path d="M225.192 214.089c1.994.93 2.864 3.322 1.934 5.316l-66.436 142.411c-.93 1.994-3.322 2.864-5.316 1.934l-98.23-45.825c-1.994-.93-2.864-3.322-1.934-5.316l66.436-142.411c.93-1.994 3.322-2.864 5.316-1.934l98.23 45.825z" id="Shape" fill="#6A628C"/><path id="Rectangle-path" fill="#6A628C" d="M53.441 316.307l69.855-149.619 93.228 43.527-69.855 149.619z"/></g><g sketch:type="MSShapeGroup"><g transform="translate(5 11) translate(120 173)"><circle id="Oval" fill="#A580B9" cx="15.864" cy="15.864" r="15.864"/><path d="M20.985 23.497c.129-.243.226-.444.318-.666.735-1.781.311-2.937-.451-4.395 1.569-.497 2.688-1.026 3.422-2.807.092-.222.201-.521.281-.785.485-1.603-.178-3.996-2.781-5.357l-.9-.371c-2.689-.822-6.669-.229-13.029 3.828 1.649 7.361 4.053 10.588 6.539 11.902l.9.371c2.806.869 4.915-.241 5.701-1.72zm-4.665-5.751l-.007-.178.117.034.026.262-.136-.118zm-5.398-.861l.168.812c-.137-.356-.272-.722-.402-1.11l.234.298z" id="Shape" fill="#EEE81C"/></g><path d="M150.329 187.396c7.187 5.01 8.952 14.898 3.942 22.086-5.01 7.187-14.898 8.952-22.086 3.942" id="Shape" opacity=".19" fill="#fff"/></g><g sketch:type="MSShapeGroup"><g transform="translate(5 11) translate(145 202)"><circle id="Oval" fill="#00ADEE" cx="15.864" cy="15.864" r="15.864"/><g id="Shape" fill="#D6E8F7"><path d="M14.428 15.703l3.134 3.846s-1.822 1.713-.719 4.242c0 0 1.315 2.357 2.522 1.373 0 0-.108-.826.408-1.704 0 0 5.737-3.302 1.938-7.293 0 .002-3.005-3.949-7.283-.464M14.428 15.703l-3.134-3.846s-2.045 1.438-4.3-.154c0 0-2.042-1.764-.835-2.748 0 0 .787.273 1.751-.056 0 0 4.393-4.951 7.534-.424 0 .001 3.262 3.743-1.016 7.228"/></g></g><path d="M161.195 213.69c8.396-2.505 17.233 2.269 19.738 10.665 2.505 8.396-2.269 17.232-10.665 19.738" id="Shape" opacity=".19" fill="#fff"/></g><g><path id="a" d="M92 252h67.249v38.374h-67.249z" fill="#fff" sketch:type="MSShapeGroup"/><g transform="translate(5 11) translate(87 241)"><mask id="b" sketch:name="path-1"><use xlink:href="#a"/></mask><g id="Shape" mask="url(#b)"><path d="M9.827 41.328c-1.036-13.758 9.189-25.908 22.941-27.177 13.74-1.268 25.924 9.363 27.177 22.941.302 3.277 5.386 2.883 5.084-.389-1.492-16.166-15.494-28.37-31.7-27.699-16.253.673-28.802 14.83-28.68 30.818.005.633.047 1.264.094 1.895.247 3.283 5.33 2.884 5.084-.389z" fill="#54A3DA" sketch:type="MSShapeGroup"/><path d="M14.66 40.598c-.821-11.102 7.392-20.869 18.489-21.909 11.086-1.038 20.885 7.555 21.908 18.489.29 3.102 5.104 2.729 4.814-.368-1.283-13.699-13.356-23.95-27.091-22.934-13.723 1.015-23.935 13.558-22.934 27.09.23 3.11 5.043 2.732 4.814-.368z" fill="#55B963" sketch:type="MSShapeGroup"/><path d="M18.815 40.089c-.64-8.916 5.905-16.711 14.817-17.564 8.899-.853 16.726 6.065 17.564 14.816.297 3.1 5.111 2.728 4.814-.368-1.103-11.517-11.194-20.091-22.747-19.262-11.541.828-20.076 11.401-19.262 22.747.223 3.11 5.036 2.73 4.814-.369z" fill="#F5EA14" sketch:type="MSShapeGroup"/><path d="M23.248 39.045c-.429-6.329 4.15-11.798 10.475-12.429 6.313-.63 11.813 4.301 12.429 10.475.31 3.098 5.123 2.727 4.814-.368-.892-8.937-8.638-15.53-17.612-14.921-8.961.608-15.514 8.851-14.92 17.611.211 3.112 5.024 2.732 4.814-.368z" fill="#E85A27" sketch:type="MSShapeGroup"/><path d="M27.731 38.595c-.245-4.008 2.583-7.405 6.588-7.832 3.993-.425 7.42 2.718 7.832 6.589.329 3.095 5.143 2.726 4.814-.368-.706-6.63-6.346-11.442-13.014-11.034-6.654.407-11.428 6.571-11.034 13.014.19 3.113 5.004 2.731 4.814-.369z" fill="#EC2079" sketch:type="MSShapeGroup"/></g></g></g><path d="M96.843 294.73l22.766-1.908c.878-.074 1.845-.743 1.75-1.75-.742-7.872 9.923-8.401 11.312-.771.13.711.97 1.345 1.687 1.285l22.445-1.881c.865-.072 1.863-.745 1.75-1.75-1.945-17.257-16.434-28.379-33.31-28.475-5.43-.031-10.977 2.174-15.524 4.968-9.998 6.145-14.182 17.235-14.627 28.53-.089 2.258 3.411 2.249 3.5 0 .595-15.088 10.449-29.589 26.651-29.999 15.11-.382 28.197 10.663 29.81 24.975l1.75-1.75-22.445 1.881 1.687 1.285c-2.085-11.456-19.298-10.078-18.187 1.701l1.75-1.75-22.766 1.908c-2.231.188-2.25 3.689.001 3.501z" id="Shape" fill="#fff" sketch:type="MSShapeGroup"/><g sketch:type="MSShapeGroup"><g fill="#D5A529"><path d="M5.187 150.373l1.639-9.227c.409-.644 1.263-.834 1.907-.425l6.041 7.112" id="Shape"/><path id="Rectangle-path" d="M47.337 270.808l-9.59 2.539-32.681-123.448 9.59-2.539zM47.768 271.118l-9.59 2.539-.589-2.224 9.59-2.539zM5.077 150.714l4.794-1.269 32.092 121.224-4.794 1.269z"/><path d="M9.504 141.629l5.269 6.204M6.467 143.166l.359-2.02c.409-.644 1.263-.834 1.907-.425l1.279 1.506M5.187 150.373l1.402-7.893" id="Shape"/></g><path d="M7.187 152.373l1.639-9.227c.409-.644 1.263-.834 1.907-.425l6.041 7.112" id="Shape" fill="#fff"/><path id="Rectangle-path" fill="#00ADEE" d="M49.337 272.808l-9.59 2.539-32.681-123.448 9.59-2.539z"/><path id="Rectangle-path" fill="#E8F3F9" d="M49.768 273.118l-9.59 2.539-.589-2.224 9.59-2.539z"/><path d="M7.077 152.714l4.794-1.269 32.092 121.224-4.794 1.269z" id="Rectangle-path" fill="#DBDAD5"/><path d="M11.504 143.629l5.269 6.204" id="Shape" fill="#E1DDCF"/><path d="M8.467 145.166l.359-2.02c.409-.644 1.263-.834 1.907-.425l1.279 1.506" id="Shape" fill="#6A628C"/><path d="M7.187 152.373l1.402-7.893" id="Shape" fill="#E1DDCF"/></g></g><g id="Group" sketch:type="MSShapeGroup"><g id="Shape"><path d="M774.416 161.706l-10.916 43.418 105.897 36.97 37.583-113.798-49.882-26.983" fill="#D5A529"/><path d="M776.416 163.706l-10.916 43.418 105.897 36.97 37.583-113.798-49.882-26.983" fill="#FFF5D6"/></g><g transform="translate(719 14)"><g id="Oval"><circle fill="#D5A529" cx="78.953" cy="78.953" r="78.953"/><circle fill="#F2F1F0" cx="80.953" cy="80.953" r="78.953"/></g><path d="M134.789 63.715c7.168 23.256-.494 48.688-19.992 63.512-19.43 14.772-46.299 14.582-66.308 1.227-20.516-13.693-29.141-40.107-22.609-63.508 6.592-23.617 28.567-40.028 52.802-41.012 25.34-1.03 48.193 16.082 56.107 39.781 1.016 3.042 5.846 1.738 4.821-1.329-7.009-20.988-23.995-36.81-45.576-41.938-21.638-5.141-44.734 2.692-59.575 18.988-14.836 16.29-19.315 39.774-12.887 60.626 6.475 21.007 24.368 36.899 45.576 41.938 21.638 5.141 44.734-2.692 59.575-18.988 14.836-16.29 19.315-39.774 12.887-60.626-.946-3.072-5.773-1.761-4.821 1.329z" id="Shape" fill="#CCCBCB"/><g id="Shape"><path d="M172.245 61.309c-1.078 48.28-42.975 86.503-93.58 85.373l-16.128-111.256 109.708 25.883z" fill="#DBD9D0"/><path d="M175.245 64.309c-1.078 48.28-42.975 86.503-93.58 85.373l-16.128-111.256 109.708 25.883z" fill="#FFE69B"/></g><path d="M171.889 65.221c-1.453 47.755-43.596 82.569-90.08 81.873-4.516-.068-4.51 6.933 0 7 50.37.754 95.513-37.364 97.08-88.873.138-4.517-6.863-4.503-7 0z" id="Shape" fill="#FCD56C"/><g transform="translate(85 84)"><circle id="Oval" fill="#DB3F33" cx="8.286" cy="8.286" r="8.286"/><path d="M7.204 14.841c-4.042-.847-6.687-4.548-5.908-8.266.779-3.718 4.688-6.045 8.73-5.198" id="Shape" fill="#BE2026"/></g><g transform="translate(140 79)"><circle id="Oval" fill="#DB3F33" cx="8.286" cy="8.286" r="8.286"/><path d="M15.52 8.479c-.668 4.076-4.248 6.882-7.997 6.268-3.749-.614-6.246-4.416-5.579-8.492" id="Shape" fill="#BE2026"/></g><path d="M94.425 88.405c-.509-.137 8.275-13.275 19.327-6.845-.001 0-4.225 10.911-19.327 6.845z" id="Shape" fill="#7FC687"/><path d="M148.191 58.804c.226 2.021.139 4.113-.301 6.212-2.225 10.615-12.634 17.417-23.249 15.192-10.615-2.225-17.417-12.634-15.192-23.249.511-2.439 1.454-4.676 2.732-6.649" id="Shape" fill="#fff"/><circle id="Oval" fill="#DB3F33" cx="124.286" cy="69.286" r="8.286"/><path d="M119.445 74.37c-2.42-3.347-1.886-7.864 1.193-10.09 3.079-2.226 7.536-1.316 9.955 2.031" id="Shape" fill="#BE2026"/><path d="M132.806 77.163c-.509-.137 8.275-13.275 19.326-6.845.001 0-4.224 10.911-19.326 6.845z" id="Shape" fill="#7FC687"/><path d="M75.443 105.609c3.556-1.652 7.663-2.212 11.804-1.344 10.162 2.13 16.682 12.051 14.564 22.159-2.119 10.108-11.015 17.117-21.177 14.987" id="Shape" fill="#F2F1F0"/><g transform="translate(90 110)"><circle id="Oval" fill="#DB3F33" cx="8.286" cy="8.286" r="8.286"/><path d="M13.581 12.473c-2.944 2.897-7.49 3.05-10.155.342-2.664-2.708-2.438-7.251.506-10.148" id="Shape" fill="#BE2026"/></g><path d="M96.789 102.516c-.029-.527 15.193 3.725 12.528 16.23.001 0-11.683-.613-12.528-16.23z" id="Shape" fill="#7FC687"/><circle id="Oval" fill="#F2F1F0" cx="128.474" cy="106.474" r="10.474"/><g transform="translate(116 110)"><circle id="Oval" fill="#DB3F33" cx="8.286" cy="8.286" r="8.286"/><path d="M13.567 12.585c-2.944 2.897-7.49 3.05-10.154.342-2.664-2.708-2.438-7.251.506-10.148" id="Shape" fill="#BE2026"/></g><g transform="translate(111 87)"><circle id="Oval" fill="#DB3F33" cx="8.286" cy="8.286" r="8.286"/><path d="M13.582 12.458c-2.944 2.897-7.49 3.05-10.154.342-2.664-2.708-2.438-7.251.506-10.148" id="Shape" fill="#BE2026"/></g><path d="M117.468 81.906c-.213-.482 15.526-1.906 17.47 10.731 0 .001-11.142 3.572-17.47-10.731z" id="Shape" fill="#7FC687"/><circle id="Oval" fill="#F2F1F0" cx="87.596" cy="65.596" r="13.596"/><g transform="translate(89 58)"><circle id="Oval" fill="#DB3F33" cx="8.286" cy="8.286" r="8.286"/><path d="M3.892 13.278c-2.785-3.05-2.769-7.599.036-10.16 2.805-2.562 7.337-2.166 10.122.884" id="Shape" fill="#BE2026"/></g><path d="M74.611 55.495c-.23-.475 15.452-2.432 17.824 10.132 0 .001-11.014 3.948-17.824-10.132z" id="Shape" fill="#7FC687"/><g id="Oval" transform="translate(83 68)" fill="#3B2F14"><circle cx=".951" cy="4.951" r=".951"/><circle cx=".612" cy=".612" r=".612"/></g><g id="Oval" transform="translate(104 57)" fill="#3B2F14"><circle cx="5.951" cy="17.951" r=".951"/><circle cx="5.612" cy="14.612" r=".612"/><circle cx=".363" cy="17.363" r=".363"/><circle cx="12.612" cy=".612" r=".612"/><circle cx="15.363" cy="1.363" r=".363"/></g><g id="Oval" transform="translate(84 101)" fill="#3B2F14"><circle cx=".951" cy=".951" r=".951"/><circle cx=".612" cy="4.612" r=".612"/></g><g id="Oval" transform="translate(130 97)" fill="#3B2F14"><circle cx="18.951" cy=".951" r=".951"/><circle cx="16.612" cy="3.612" r=".612"/><circle cx="22.363" cy="5.363" r=".363"/><circle cx="2.612" cy="9.612" r=".612"/><circle cx=".363" cy="7.363" r=".363"/></g><circle id="Oval" fill="#3B2F14" cx="85.612" cy="134.612" r=".612"/><circle id="Oval" fill="#3B2F14" cx="91.363" cy="135.363" r=".363"/><g id="Shape"><path d="M44.5 68.591c3.224 0 3.224-5 0-5s-3.224 5 0 5z" fill="#DBD9D0"/><path d="M46.5 70.591c3.224 0 3.224-5 0-5s-3.224 5 0 5z" fill="#FFE69B"/></g><g id="Shape"><path d="M55.416 80.075c3.224 0 3.224-5 0-5-3.225 0-3.225 5 0 5z" fill="#DBD9D0"/><path d="M57.416 82.075c3.224 0 3.224-5 0-5-3.225 0-3.225 5 0 5z" fill="#FFE69B"/></g><g id="Shape"><path d="M41.4 86.212c.871.439 1.727.682 2.708.723 1.179.049 2.044-.747 2.453-1.779.642-1.621.41-3.944-1.357-4.789-1.554-.743-3.118-.553-4.65.147-1.365.624-2.549 1.924-2.586 3.486-.053 2.205 2.034 3.381 3.922 3.758 1.336.267 2.693-.273 3.115-1.673.365-1.21-.334-2.848-1.673-3.115-.279-.056-.554-.121-.826-.204l-.329-.117c-.323-.125.727.375.214.087l-.204-.135c.742.547.441.396.279.201.558.673.362.555.26.336.211.454.228.565.242.979-.012-.369-.152.77-.081.473.103-.428-.321.64-.184.386l.097-.146c.167-.228-.567.625-.224.287l.153-.135c.332-.275-.625.424-.258.183.143-.094.295-.174.45-.247l.215-.093c-.887.361-.531.198-.321.129.165-.054.334-.093.504-.124.22-.039.617-.053-.37.035l.264-.007c.605.01-.74-.2-.185-.03.381.116-.687-.338-.408-.19.394.209-.49-.447-.296-.261.271.26-.401-.61-.243-.351.205.336-.23-.735-.129-.34.102.399-.051-.716-.038-.382l-.002.118c-.008.208-.088.576.075-.404-.04.239-.122.47-.211.695l2.453-1.779-.064.018c-.22-.043-.813-.334-.099.026-1.216-.613-2.673-.449-3.448.785-.676 1.071-.436 2.835.782 3.449z" fill="#DBD9D0"/><path d="M43.4 88.212c.871.439 1.727.682 2.708.723 1.179.049 2.044-.747 2.453-1.779.642-1.621.41-3.944-1.357-4.789-1.554-.743-3.118-.553-4.65.147-1.365.624-2.549 1.924-2.586 3.486-.053 2.205 2.034 3.381 3.922 3.758 1.336.267 2.693-.273 3.115-1.673.365-1.21-.334-2.848-1.673-3.115-.279-.056-.554-.121-.826-.204l-.329-.117c-.323-.125.727.375.214.087l-.204-.135c.742.547.441.396.279.201.558.673.362.555.26.336.211.454.228.565.242.979-.012-.369-.152.77-.081.473.103-.428-.321.64-.184.386l.097-.146c.167-.228-.567.625-.224.287l.153-.135c.332-.275-.625.424-.258.183.143-.094.295-.174.45-.247l.215-.093c-.887.361-.531.198-.321.129.165-.054.334-.093.504-.124.22-.039.617-.053-.37.035l.264-.007c.605.01-.74-.2-.185-.03.381.116-.687-.338-.408-.19.394.209-.49-.447-.296-.261.271.26-.401-.61-.243-.351.205.336-.23-.735-.129-.34.102.399-.051-.716-.038-.382l-.002.118c-.008.208-.088.576.075-.404-.04.239-.122.47-.211.695l2.453-1.779-.064.018c-.22-.043-.813-.334-.099.026-1.216-.613-2.673-.449-3.448.785-.676 1.071-.436 2.835.782 3.449z" fill="#FFE69B"/></g></g><g id="Shape"><path d="M838.584 186.483c-.859-.033-1.497.506-2.444.701-1.99.411-5.693-2.307-13.59-2.068-7.896.239-20.33 11.479-22.971 13.78-12.81 11.151-19.808 20.001-25.141 24.91l-.01-.011c-5.331 4.907-14.733 11.158-26.914 23.002-2.514 2.447-14.746 13.911-15.642 21.764-.892 7.854 1.522 11.767.944 13.722-.274.926-.865 1.517-.901 2.372-.041.864 1.068 1.799 2.367 3.13 1.293 1.333 2.549 2.671 3.142 2.856.592.184 1.092-.01 2.384-.28 1.29-.272 1.105-.617 6.237 3.096 5.132 3.718 11.251 6.262 17.404 5.493 2.897-.362 12.208-5.12 17.983-11.614 5.192-5.841 7.699-10.918 8.743-15.552l.148-.132-.098-.098c1.381-6.418-.032-11.975-.967-17.504-1.618-9.573-6.281-13.303-2.461-16.819l.004.004c3.82-3.516 7.149 1.433 16.549 3.84 5.43 1.392 10.847 3.259 17.354 2.411l.091.108.143-.137c4.7-.657 9.966-2.732 16.211-7.425 6.948-5.215 12.462-14.093 13.059-16.954 1.272-6.064-.752-12.371-4.026-17.79-3.279-5.417-2.953-5.201-2.573-6.467.38-1.269.615-1.752.481-2.357-.138-.604-1.367-1.966-2.582-3.367-1.227-1.395-2.066-2.582-2.924-2.614zm-102.243 79.734c.182-.329 8.818-8.555 17.492-16.821 8.254-7.868 15.924-15.277 16.384-15.465.35-.146 2.039-1.056 4.787 1.021l-39.654 37.635c-.355-3.684.856-6.134.991-6.37zm39.68 20.427c-3.8 3.497-7.209 5.849-10.483 7.065l17.54-15.608c-1.697 2.858-4.004 5.732-7.057 8.543zm9.932-15.02l-25.922 23.072c-1.561-.031-3.124-.326-4.717-.891l31.745-28.5c-.1 2.035-.45 4.152-1.106 6.319zm.895-11.153c.045.323.084.654.12.985l-34.583 31.046c-.707-.376-1.42-.805-2.151-1.279-.262-.173-.545-.362-.836-.566l36.809-33.72c.265 1.209.484 2.392.641 3.534zm-1.457-6.752l-38.381 35.158c-.862-.68-1.771-1.43-2.676-2.228l39.621-37.31c.536 1.445 1.017 2.917 1.436 4.38zm-2.617-7.288l-40.591 38.218c-.912-.896-1.792-1.829-2.58-2.758l41.383-39.175c.629 1.178 1.227 2.426 1.788 3.715zm-5.01-8.692c.582.732 1.148 1.527 1.698 2.385l-41.635 39.414c-.396-.597-.738-1.188-1.011-1.755-.296-.636-.542-1.255-.741-1.854l41.056-38.958c.2.243.418.494.633.768zm7.123-17.294c.223-.441 8.237-7.472 16.757-15.042 8.954-7.958 17.862-15.879 18.207-16.036.243-.11 2.786-1.117 6.425-.46l-40.767 36.389c-1.846-2.91-.796-4.514-.622-4.851zm3.164 7.838c-.249-.243-.487-.475-.704-.702l42.196-37.671c.586.245 1.181.545 1.785.9.549.317 1.106.698 1.666 1.144l-42.708 38.217c-.808-.621-1.558-1.252-2.235-1.888zm48.863 2.298c-3.051 2.808-6.108 4.873-9.098 6.326l17.009-16.185c-1.492 3.161-4.116 6.366-7.911 9.859zm9.34-15.258l-25.126 23.913c-2.213.475-4.352.643-6.387.578l31.018-29.268c.429 1.637.596 3.218.495 4.777zm-2.647-10.048c.412.763.777 1.51 1.096 2.248l-33.786 31.877c-.33-.061-.656-.123-.973-.198-1.124-.254-2.288-.565-3.466-.926l36.633-33.881c.183.311.346.605.496.88zm-2.066-3.405l-38.2 35.327c-1.425-.54-2.848-1.141-4.243-1.797l40.439-36.381c.723.969 1.397 1.935 2.004 2.851zm-3.817-5.159l-41.429 37.281c-1.239-.667-2.426-1.372-3.551-2.094l42.446-37.985c.863.865 1.717 1.815 2.534 2.798z" fill="#D5A529"/><path d="M840.584 188.483c-.859-.033-1.497.506-2.444.701-1.99.411-5.693-2.307-13.59-2.068-7.896.239-20.33 11.479-22.971 13.78-12.81 11.151-19.808 20.001-25.141 24.91l-.01-.011c-5.331 4.907-14.733 11.158-26.914 23.002-2.514 2.447-14.746 13.911-15.642 21.764-.892 7.854 1.522 11.767.944 13.722-.274.926-.865 1.517-.901 2.372-.041.864 1.068 1.799 2.367 3.13 1.293 1.333 2.549 2.671 3.142 2.856.592.184 1.092-.01 2.384-.28 1.29-.272 1.105-.617 6.237 3.096 5.132 3.718 11.251 6.262 17.404 5.493 2.897-.362 12.208-5.12 17.983-11.614 5.192-5.841 7.699-10.918 8.743-15.552l.148-.132-.098-.098c1.381-6.418-.032-11.975-.967-17.504-1.618-9.573-6.281-13.303-2.461-16.819l.004.004c3.82-3.516 7.149 1.433 16.549 3.84 5.43 1.392 10.847 3.259 17.354 2.411l.091.108.143-.137c4.7-.657 9.966-2.732 16.211-7.425 6.948-5.215 12.462-14.093 13.059-16.954 1.272-6.064-.752-12.371-4.026-17.79-3.279-5.417-2.953-5.201-2.573-6.467.38-1.269.615-1.752.481-2.357-.138-.604-1.367-1.966-2.582-3.367-1.227-1.395-2.066-2.582-2.924-2.614zm-102.243 79.734c.182-.329 8.818-8.555 17.492-16.821 8.254-7.868 15.924-15.277 16.384-15.465.35-.146 2.039-1.056 4.787 1.021l-39.654 37.635c-.355-3.684.856-6.134.991-6.37zm39.68 20.427c-3.8 3.497-7.209 5.849-10.483 7.065l17.54-15.608c-1.697 2.858-4.004 5.732-7.057 8.543zm9.932-15.02l-25.922 23.072c-1.561-.031-3.124-.326-4.717-.891l31.745-28.5c-.1 2.035-.45 4.152-1.106 6.319zm.895-11.153c.045.323.084.654.12.985l-34.583 31.046c-.707-.376-1.42-.805-2.151-1.279-.262-.173-.545-.362-.836-.566l36.809-33.72c.265 1.209.484 2.392.641 3.534zm-1.457-6.752l-38.381 35.158c-.862-.68-1.771-1.43-2.676-2.228l39.621-37.31c.536 1.445 1.017 2.917 1.436 4.38zm-2.617-7.288l-40.591 38.218c-.912-.896-1.792-1.829-2.58-2.758l41.383-39.175c.629 1.178 1.227 2.426 1.788 3.715zm-5.01-8.692c.582.732 1.148 1.527 1.698 2.385l-41.635 39.414c-.396-.597-.738-1.188-1.011-1.755-.296-.636-.542-1.255-.741-1.854l41.056-38.958c.2.243.418.494.633.768zm7.123-17.294c.223-.441 8.237-7.472 16.757-15.042 8.954-7.958 17.862-15.879 18.207-16.036.243-.11 2.786-1.117 6.425-.46l-40.767 36.389c-1.846-2.91-.796-4.514-.622-4.851zm3.164 7.838c-.249-.243-.487-.475-.704-.702l42.196-37.671c.586.245 1.181.545 1.785.9.549.317 1.106.698 1.666 1.144l-42.708 38.217c-.808-.621-1.558-1.252-2.235-1.888zm48.863 2.298c-3.051 2.808-6.108 4.873-9.098 6.326l17.009-16.185c-1.492 3.161-4.116 6.366-7.911 9.859zm9.34-15.258l-25.126 23.913c-2.213.475-4.352.643-6.387.578l31.018-29.268c.429 1.637.596 3.218.495 4.777zm-2.647-10.048c.412.763.777 1.51 1.096 2.248l-33.786 31.877c-.33-.061-.656-.123-.973-.198-1.124-.254-2.288-.565-3.466-.926l36.633-33.881c.183.311.346.605.496.88zm-2.066-3.405l-38.2 35.327c-1.425-.54-2.848-1.141-4.243-1.797l40.439-36.381c.723.969 1.397 1.935 2.004 2.851zm-3.817-5.159l-41.429 37.281c-1.239-.667-2.426-1.372-3.551-2.094l42.446-37.985c.863.865 1.717 1.815 2.534 2.798z" fill="#EC2C91"/></g></g><g id="Group" sketch:type="MSShapeGroup"><g transform="translate(873 208)"><path d="M94.1 61.294l-.749.495-27.783 32.343 18.687 25.172c17.162 22.775-3.503 28.733-3.503 28.733-9.274 3.942-61.194-27.746-61.194-27.746-34.912-21.928-6.992-50.394-6.992-50.394l29.778-34.675M64.388 96.508l.362-.821 27.236-32.805 27.945 14.21c25.326 13.107 27.742-8.263 27.742-8.263 2.334-9.803-37.597-55.686-37.597-55.686-27.462-30.75-50.853 1.542-50.853 1.542l-29.201 35.162M12.566 69.898l29.778-34.675" id="Shape" fill="#D5A529"/><path d="M88.463 142.85c-3.056 3.845-7.711 5.187-7.711 5.187-9.274 3.942-61.194-27.746-61.194-27.746-25.698-16.14-17.353-35.823-11.158-45.088" id="Shape" opacity=".37" fill="#D5A529"/><path d="M12.566 69.898l50.183-60.141 32.067 53.399-30.065 32.531-52.924-24.834" id="Shape" fill="#D5A529"/><path d="M17.688 65.629c1.977 1.55 2.571 4.094 1.326 5.683l-11.503 14.676c-1.245 1.589-3.858 1.62-5.835.07-1.977-1.55-2.571-4.094-1.326-5.683l11.503-14.676c1.245-1.589 3.858-1.62 5.835-.07zM69.694 2.306c1.977 1.55 2.571 4.094 1.326 5.683l-11.503 14.676c-1.245 1.589-3.858 1.62-5.835.07-1.977-1.55-2.571-4.094-1.326-5.683l11.503-14.676c1.245-1.589 3.857-1.62 5.835-.07z" id="Shape" fill="#D5A529"/><path d="M143.231 77.943c3.832-3.706 4.443-9.114 4.443-9.114 2.334-9.803-37.597-55.686-37.597-55.686-18.307-20.498-34.805-12.982-43.77-5.693" id="Shape" opacity=".37" fill="#D5A529"/><path d="M52.197 72.371c11.648 11.701 11.842 30.577.432 42.162-11.41 11.585-30.102 11.49-41.75-.211s-11.842-30.577-.432-42.162c11.409-11.584 30.101-11.489 41.75.211zM50.149 99.73l-8.118 10.733-29.395-22.859 8.117-10.733 29.396 22.859zM37.109 74.817l10.754 8.363-22.188 29.337-10.754-8.363 22.188-29.337zM20.867 95.016c.654-.884 2.074-1.774 3.155-1.976l2.377-.445c1.081-.202 2.067.526 2.19 1.62l.271 2.403c.123 1.093-.311 2.711-.965 3.595l-3.436 4.647c-.654.884-1.913 1.073-2.797.419l-3.812-2.819c-.884-.654-1.073-1.913-.419-2.797l3.436-4.647zM22.867 97.016c.654-.884 2.074-1.774 3.155-1.976l2.377-.445c1.081-.202 2.067.526 2.19 1.62l.271 2.403c.123 1.093-.311 2.711-.965 3.595l-3.436 4.647c-.654.884-1.913 1.073-2.797.419l-3.812-2.819c-.884-.654-1.073-1.913-.419-2.797l3.436-4.647zM32.163 99.581c-.89-.646-1.792-2.058-2.005-3.137l-.466-2.373c-.212-1.079.508-2.071 1.599-2.205l2.4-.293c1.092-.133 2.714.286 3.604.932l4.678 3.394c.89.646 1.09 1.903.444 2.793l-2.784 3.837c-.646.89-1.903 1.09-2.793.444l-4.677-3.392zM34.163 101.581c-.89-.646-1.792-2.058-2.005-3.137l-.466-2.373c-.212-1.079.508-2.071 1.599-2.205l2.4-.293c1.092-.133 2.714.286 3.604.932l4.678 3.394c.89.646 1.09 1.903.444 2.793l-2.784 3.837c-.646.89-1.903 1.09-2.793.444l-4.677-3.392zM37.202 88.281c-.654.884-2.074 1.774-3.155 1.976l-2.377.445c-1.081.202-2.067-.526-2.19-1.62l-.271-2.403c-.123-1.093.311-2.711.965-3.595l3.436-4.647c.654-.884 1.913-1.073 2.797-.419l3.812 2.819c.884.654 1.073 1.913.419 2.797l-3.436 4.647zM39.202 90.281c-.654.884-2.074 1.774-3.155 1.976l-2.377.445c-1.081.202-2.067-.526-2.19-1.62l-.271-2.403c-.123-1.093.311-2.711.965-3.595l3.436-4.647c.654-.884 1.913-1.073 2.797-.419l3.812 2.819c.884.654 1.073 1.913.419 2.797l-3.436 4.647zM25.906 83.715c.89.646 1.792 2.058 2.005 3.137l.466 2.373c.212 1.079-.508 2.071-1.6 2.205l-2.4.293c-1.092.133-2.714-.286-3.604-.932l-4.678-3.394c-.89-.646-1.09-1.903-.444-2.793l2.784-3.837c.646-.89 1.903-1.09 2.793-.444l4.678 3.392zM27.906 85.715c.89.646 1.792 2.058 2.005 3.137l.466 2.373c.212 1.079-.508 2.071-1.6 2.205l-2.4.293c-1.092.133-2.714-.286-3.604-.932l-4.678-3.394c-.89-.646-1.09-1.903-.444-2.793l2.784-3.837c.646-.89 1.903-1.09 2.793-.444l4.678 3.392z" id="Shape" fill="#D5A529"/><circle id="Oval" fill="#D5A529" cx="64.606" cy="91.606" r="13.606"/><circle id="Oval" opacity=".59" fill="#D5A529" cx="64.607" cy="91.607" r="9.607"/><path d="M106.915 8.445c11.648 11.701 11.842 30.577.432 42.162-11.41 11.584-30.102 11.49-41.75-.211s-11.842-30.577-.432-42.162c11.409-11.584 30.101-11.49 41.75.211zM104.867 35.803l-8.118 10.733-29.395-22.858 8.117-10.733 29.396 22.858zM91.827 10.891l10.755 8.363-22.189 29.336-10.754-8.363 22.188-29.336zM75.955 34.84c1.309-1.768 3.805-2.116 5.547-.773l1.612 1.243c1.742 1.343 2.097 3.89.788 5.658l-1.551 2.096c-1.309 1.768-3.805 2.116-5.547.773l-1.612-1.243c-1.742-1.343-2.097-3.89-.788-5.658l1.551-2.096zM89.539 16.369c1.309-1.768 3.805-2.116 5.547-.773l1.612 1.243c1.742 1.343 2.097 3.89.788 5.658l-1.551 2.096c-1.309 1.768-3.805 2.116-5.547.773l-1.612-1.243c-1.742-1.343-2.097-3.89-.788-5.658l1.551-2.096zM92.487 32.543c1.309-1.768 3.805-2.116 5.547-.773l1.612 1.243c1.742 1.343 2.097 3.89.788 5.658l-1.551 2.096c-1.309 1.768-3.805 2.116-5.547.773l-1.612-1.243c-1.742-1.343-2.097-3.89-.788-5.658l1.551-2.096zM73.659 18.308c1.309-1.768 3.805-2.116 5.547-.773l1.612 1.243c1.742 1.343 2.097 3.89.788 5.658l-1.551 2.096c-1.309 1.768-3.805 2.116-5.547.773l-1.612-1.243c-1.742-1.343-2.097-3.89-.788-5.658l1.551-2.096zM95.712 35.85l1.374-.297c.296-.066.507-.057.635.025s.223.27.286.563c.062.294.054.503-.026.628-.08.126-.267.221-.564.286l-1.361.294.301 1.365c.066.296.059.505-.019.628-.078.122-.265.218-.559.288-.295.07-.506.064-.634-.019-.127-.081-.224-.27-.289-.565l-.309-1.371-1.373.296c-.296.066-.508.058-.635-.024-.128-.082-.224-.272-.287-.57-.064-.298-.056-.508.022-.63.078-.123.265-.217.56-.283l1.374-.296-.314-1.363c-.065-.295-.058-.506.023-.631.08-.125.267-.221.563-.286.296-.066.507-.057.635.025.127.081.224.27.289.565l.308 1.372z" id="Shape" fill="#D5A529"/><circle id="Oval" stroke="#D5A529" cx="92.688" cy="20.688" r="2.688"/><path d="M77.488 25.341l-2.067-5.071-.769.769 5.412.835-.276-1.045-3.345 4.236c-.494.625.384 1.516.884.884l3.345-4.236c.254-.321.243-.965-.276-1.045l-5.412-.835c-.408-.063-.97.275-.769.769l2.067 5.071c.301.737 1.51.415 1.206-.332zM81.678 38.149l-2.729 3.545.855-.224-3.445-2.652.224.855 2.729-3.545-.855.224 3.445 2.652c.639.492 1.26-.595.631-1.079l-3.445-2.652c-.294-.226-.669-.018-.855.224l-2.729 3.545c-.226.294-.018.669.224.855l3.445 2.652c.294.226.669.018.855-.224l2.729-3.545c.493-.639-.594-1.26-1.079-.631zM53.535 42.372c1.068.875 1.224 2.451.349 3.519l-10.954 13.365c-.875 1.068-2.451 1.224-3.519.349s-1.224-2.451-.349-3.519l10.954-13.365c.876-1.069 2.451-1.225 3.519-.349z" id="Shape" fill="#D5A529"/><ellipse id="Oval" fill="#D5A529" transform="rotate(-28.764 66.479 68.076)" cx="66.278" cy="68.072" rx="4.299" ry="3.996"/><circle id="Oval" fill="#D5A529" cx="88.606" cy="63.606" r="13.606"/><circle id="Oval" opacity=".59" fill="#D5A529" cx="88.607" cy="63.607" r="9.607"/></g><g id="Shape"><path d="M969.1 271.294l-.749.495-27.783 32.343 18.687 25.172c17.162 22.775-3.503 28.733-3.503 28.733-9.274 3.942-61.194-27.746-61.194-27.746-34.912-21.928-6.992-50.394-6.992-50.394l29.778-34.675M939.388 306.508l.362-.821 27.236-32.805 27.945 14.21c25.326 13.107 27.742-8.263 27.742-8.263 2.334-9.803-37.597-55.686-37.597-55.686-27.462-30.75-50.853 1.542-50.853 1.542l-29.201 35.162" fill="#676767"/><path d="M887.566 279.898l29.778-34.675" fill="#807F7F"/><path d="M963.463 352.85c-3.056 3.845-7.711 5.187-7.711 5.187-9.274 3.942-61.194-27.746-61.194-27.746-25.698-16.14-17.353-35.823-11.158-45.088" opacity=".37" fill="#807F7F"/><path d="M887.566 279.898l50.183-60.141 32.067 53.399-30.065 32.531-52.924-24.834" fill="#4D4C4C"/><path d="M892.688 275.629c1.977 1.55 2.571 4.094 1.326 5.683l-11.503 14.676c-1.245 1.589-3.858 1.62-5.835.07-1.977-1.55-2.571-4.094-1.326-5.683l11.503-14.676c1.245-1.589 3.858-1.62 5.835-.07zM944.694 212.306c1.977 1.55 2.571 4.094 1.326 5.683l-11.503 14.676c-1.245 1.589-3.858 1.62-5.835.07-1.977-1.55-2.571-4.094-1.326-5.683l11.503-14.676c1.245-1.589 3.857-1.62 5.835-.07z" fill="#4D4C4C"/><path d="M1018.231 287.943c3.832-3.706 4.443-9.114 4.443-9.114 2.334-9.803-37.597-55.686-37.597-55.686-18.307-20.498-34.805-12.982-43.77-5.693" opacity=".37" fill="#807F7F"/></g><g id="Shape"><path d="M927.197 282.371c11.648 11.701 11.842 30.577.432 42.162-11.41 11.585-30.102 11.49-41.75-.211s-11.842-30.577-.432-42.162c11.409-11.584 30.101-11.489 41.75.211z" fill="#807F7F"/><path d="M925.149 309.73l-8.118 10.733-29.395-22.859 8.117-10.733 29.396 22.859zM912.109 284.817l10.754 8.363-22.188 29.337-10.754-8.363 22.188-29.337z" fill="#676767"/><g id="Group"><path d="M895.867 305.016c.654-.884 2.074-1.774 3.155-1.976l2.377-.445c1.081-.202 2.067.526 2.19 1.62l.271 2.403c.123 1.093-.311 2.711-.965 3.595l-3.436 4.647c-.654.884-1.913 1.073-2.797.419l-3.812-2.819c-.884-.654-1.073-1.913-.419-2.797l3.436-4.647z" id="Shape" fill="#DBD9D0"/><path d="M897.867 307.016c.654-.884 2.074-1.774 3.155-1.976l2.377-.445c1.081-.202 2.067.526 2.19 1.62l.271 2.403c.123 1.093-.311 2.711-.965 3.595l-3.436 4.647c-.654.884-1.913 1.073-2.797.419l-3.812-2.819c-.884-.654-1.073-1.913-.419-2.797l3.436-4.647z" id="Shape" fill="#807F7F"/></g><g id="Group"><path d="M907.163 309.581c-.89-.646-1.792-2.058-2.005-3.137l-.466-2.373c-.212-1.079.508-2.071 1.599-2.205l2.4-.293c1.092-.133 2.714.286 3.604.932l4.678 3.394c.89.646 1.09 1.903.444 2.793l-2.784 3.837c-.646.89-1.903 1.09-2.793.444l-4.677-3.392z" id="Shape" fill="#DBD9D0"/><path d="M909.163 311.581c-.89-.646-1.792-2.058-2.005-3.137l-.466-2.373c-.212-1.079.508-2.071 1.599-2.205l2.4-.293c1.092-.133 2.714.286 3.604.932l4.678 3.394c.89.646 1.09 1.903.444 2.793l-2.784 3.837c-.646.89-1.903 1.09-2.793.444l-4.677-3.392z" id="Shape" fill="#807F7F"/></g><g id="Group"><path d="M912.202 298.281c-.654.884-2.074 1.774-3.155 1.976l-2.377.445c-1.081.202-2.067-.526-2.19-1.62l-.271-2.403c-.123-1.093.311-2.711.965-3.595l3.436-4.647c.654-.884 1.913-1.073 2.797-.419l3.812 2.819c.884.654 1.073 1.913.419 2.797l-3.436 4.647z" id="Shape" fill="#DBD9D0"/><path d="M914.202 300.281c-.654.884-2.074 1.774-3.155 1.976l-2.377.445c-1.081.202-2.067-.526-2.19-1.62l-.271-2.403c-.123-1.093.311-2.711.965-3.595l3.436-4.647c.654-.884 1.913-1.073 2.797-.419l3.812 2.819c.884.654 1.073 1.913.419 2.797l-3.436 4.647z" id="Shape" fill="#807F7F"/></g><g id="Group"><path d="M900.906 293.715c.89.646 1.792 2.058 2.005 3.137l.466 2.373c.212 1.079-.508 2.071-1.6 2.205l-2.4.293c-1.092.133-2.714-.286-3.604-.932l-4.678-3.394c-.89-.646-1.09-1.903-.444-2.793l2.784-3.837c.646-.89 1.903-1.09 2.793-.444l4.678 3.392z" id="Shape" fill="#DBD9D0"/><path d="M902.906 295.715c.89.646 1.792 2.058 2.005 3.137l.466 2.373c.212 1.079-.508 2.071-1.6 2.205l-2.4.293c-1.092.133-2.714-.286-3.604-.932l-4.678-3.394c-.89-.646-1.09-1.903-.444-2.793l2.784-3.837c.646-.89 1.903-1.09 2.793-.444l4.678 3.392z" id="Shape" fill="#807F7F"/></g></g><g id="Oval" transform="translate(926 288)"><circle fill="#919090" cx="13.606" cy="13.606" r="13.606"/><circle opacity=".59" fill="#AEAEAE" cx="13.607" cy="13.607" r="9.607"/></g><g transform="translate(913 210)"><path d="M68.915 8.445c11.648 11.701 11.842 30.577.432 42.162-11.41 11.584-30.102 11.49-41.75-.211s-11.842-30.577-.432-42.162c11.409-11.584 30.101-11.49 41.75.211z" id="Shape" fill="#807F7F"/><path d="M66.867 35.803l-8.118 10.733-29.395-22.858 8.117-10.733 29.396 22.858zM53.827 10.891l10.755 8.363-22.189 29.336-10.754-8.363 22.188-29.336z" id="Shape" fill="#4D4C4C"/><path d="M37.955 34.84c1.309-1.768 3.805-2.116 5.547-.773l1.612 1.243c1.742 1.343 2.097 3.89.788 5.658l-1.551 2.096c-1.309 1.768-3.805 2.116-5.547.773l-1.612-1.243c-1.742-1.343-2.097-3.89-.788-5.658l1.551-2.096zM51.539 16.369c1.309-1.768 3.805-2.116 5.547-.773l1.612 1.243c1.742 1.343 2.097 3.89.788 5.658l-1.551 2.096c-1.309 1.768-3.805 2.116-5.547.773l-1.612-1.243c-1.742-1.343-2.097-3.89-.788-5.658l1.551-2.096zM54.487 32.543c1.309-1.768 3.805-2.116 5.547-.773l1.612 1.243c1.742 1.343 2.097 3.89.788 5.658l-1.551 2.096c-1.309 1.768-3.805 2.116-5.547.773l-1.612-1.243c-1.742-1.343-2.097-3.89-.788-5.658l1.551-2.096zM35.659 18.308c1.309-1.768 3.805-2.116 5.547-.773l1.612 1.243c1.742 1.343 2.097 3.89.788 5.658l-1.551 2.096c-1.309 1.768-3.805 2.116-5.547.773l-1.612-1.243c-1.742-1.343-2.097-3.89-.788-5.658l1.551-2.096z" id="Shape" fill="#807F7F"/><path d="M57.712 35.85l1.374-.297c.296-.066.507-.057.635.025s.223.27.286.563c.062.294.054.503-.026.628-.08.126-.267.221-.564.286l-1.361.294.301 1.365c.066.296.059.505-.019.628-.078.122-.265.218-.559.288-.295.07-.506.064-.634-.019-.127-.081-.224-.27-.289-.565l-.309-1.371-1.373.296c-.296.066-.508.058-.635-.024-.128-.082-.224-.272-.287-.57-.064-.298-.056-.508.022-.63.078-.123.265-.217.56-.283l1.374-.296-.314-1.363c-.065-.295-.058-.506.023-.631.08-.125.267-.221.563-.286.296-.066.507-.057.635.025.127.081.224.27.289.565l.308 1.372z" id="Shape" fill="#EB008B"/><circle id="Oval" stroke="#EB008B" cx="54.688" cy="20.688" r="2.688"/><path d="M39.488 25.341l-2.067-5.071-.769.769 5.412.835-.276-1.045-3.345 4.236c-.494.625.384 1.516.884.884l3.345-4.236c.254-.321.243-.965-.276-1.045l-5.412-.835c-.408-.063-.97.275-.769.769l2.067 5.071c.301.737 1.51.415 1.206-.332zM43.678 38.149l-2.729 3.545.855-.224-3.445-2.652.224.855 2.729-3.545-.855.224 3.445 2.652c.639.492 1.26-.595.631-1.079l-3.445-2.652c-.294-.226-.669-.018-.855.224l-2.729 3.545c-.226.294-.018.669.224.855l3.445 2.652c.294.226.669.018.855-.224l2.729-3.545c.493-.639-.594-1.26-1.079-.631z" id="Shape" fill="#EB008B"/><path d="M15.535 42.372c1.068.875 1.224 2.451.349 3.519l-10.954 13.365c-.875 1.068-2.451 1.224-3.519.349s-1.224-2.451-.349-3.519l10.954-13.365c.876-1.069 2.451-1.225 3.519-.349z" id="Shape" fill="#676767"/><ellipse id="Oval" fill="#676767" transform="rotate(-28.764 28.479 68.076)" cx="28.278" cy="68.072" rx="4.299" ry="3.996"/></g><g id="Oval" transform="translate(950 260)"><circle fill="#919090" cx="13.606" cy="13.606" r="13.606"/><circle opacity=".59" fill="#AEAEAE" cx="13.607" cy="13.607" r="9.607"/></g></g><g sketch:type="MSShapeGroup"><path d="M665.311 120.919c17.691 3.628 23.992 25.874 13.202 39.653-7.213 9.211-18.163 14.451-29.267 17.251-9.325 2.351-20.711.106-29.012 5.561-2.682 1.762-.18 6.094 2.524 4.317 5.35-3.515 12.029-2.834 18.143-3.348 6.337-.533 12.673-2.263 18.605-4.489 10.604-3.979 21.381-11.43 26.421-21.868 7.989-16.545-.842-38.117-19.285-41.899-3.149-.645-4.489 4.175-1.331 4.822z" id="Shape" fill="#fff"/><g id="Oval" transform="translate(404 88) translate(68 270)" fill="#D5CECE"><circle cx="8.55" cy="8.55" r="8.55"/><circle cx="34.55" cy="8.55" r="8.55"/><circle cx="59.55" cy="8.55" r="8.55"/></g><path d="M404 88h215v300h-215z" fill="#34B38B"/><g transform="translate(404 88) translate(32 97)"><path d="M3.863 118.5l75.095 83.5h103.042v-151.999l-24.028-40.578" id="Shape" opacity=".32" fill="#033"/><path d="M-.055 110.637c0 5.455 4.422 9.877 9.877 9.877h138.273c5.455 0 9.877-4.422 9.877-9.877v-101.214c0-5.455-4.422-9.877-9.877-9.877h-138.273c-5.455 0-9.877 4.422-9.877 9.877v101.214z" id="Shape" fill="#6CC396"/><path d="M30.819 23.123v55.613l13.242 16.759" id="Shape" stroke="#C5C8CF" stroke-width="2"/><path d="M35.265 85.254c-2.947 2.451-3.686 6.422-1.65 8.869l7.422 8.924c2.035 2.447 6.074 2.445 9.021-.006 2.947-2.451 3.686-6.422 1.65-8.869l-7.422-8.924c-2.035-2.447-6.074-2.445-9.021.006z" id="Shape" fill="#C5C8CF"/><path d="M24.235 23.989c0 3.636 2.948 6.584 6.584 6.584 3.636 0 6.584-2.948 6.584-6.584v-6.961c0-3.637-2.948-6.584-6.584-6.584-3.637 0-6.584 2.948-6.584 6.584v6.961z" id="Shape" fill="#3A4A4F"/><g id="Oval" transform="translate(9 43)" fill="#3A4A4F"><circle cx="5.248" cy="5.248" r="5.248"/><circle cx="5.248" cy="27.248" r="5.248"/><circle cx="5.248" cy="48.248" r="5.248"/></g><path d="M157.972 61.728v-52.304c0-5.455-4.422-9.877-9.877-9.877h-138.273c-5.455 0-9.877 4.422-9.877 9.877v53.785" id="Shape" opacity=".11" fill="#EECDE1"/><circle id="Oval" fill="#3A4A4F" cx="97.522" cy="60.522" r="39.522"/><path d="M121.435 91.159c9.234-7.234 15.168-18.489 15.168-31.129 0-21.827-17.694-39.522-39.522-39.522-10.914 0-20.794 4.424-27.946 11.576" fill="#5D717C"/><circle id="Oval" fill="#00ADEE" cx="97.334" cy="60.334" r="13.334"/><circle fill="#3A4A4F" cx="97.281" cy="60.281" r="6.281"/></g></g></g></g></svg>