<?xml version="1.0" encoding="UTF-8" standalone="no"?>
<svg
   xmlns:sketch="http://www.bohemiancoding.com/sketch/ns"
   xmlns:dc="http://purl.org/dc/elements/1.1/"
   xmlns:cc="http://creativecommons.org/ns#"
   xmlns:rdf="http://www.w3.org/1999/02/22-rdf-syntax-ns#"
   xmlns:svg="http://www.w3.org/2000/svg"
   xmlns="http://www.w3.org/2000/svg"
   xmlns:sodipodi="http://sodipodi.sourceforge.net/DTD/sodipodi-0.dtd"
   xmlns:inkscape="http://www.inkscape.org/namespaces/inkscape"
   width="1024"
   height="460"
   viewBox="0 0 1024 460"
   version="1.1"
   id="svg2"
   inkscape:version="0.48.2 r9819"
   sodipodi:docname="hand-phone.svg"
   inkscape:export-filename="/Users/secretrobotron/src/webmaker.org/public/img/appmaker/hand-phone.png"
   inkscape:export-xdpi="187.97"
   inkscape:export-ydpi="187.97">
  <metadata
     id="metadata81">
    <rdf:RDF>
      <cc:Work
         rdf:about="">
        <dc:format>image/svg+xml</dc:format>
        <dc:type
           rdf:resource="http://purl.org/dc/dcmitype/StillImage" />
        <dc:title>Untitled 2</dc:title>
      </cc:Work>
    </rdf:RDF>
  </metadata>
  <sodipodi:namedview
     pagecolor="#ffffff"
     bordercolor="#666666"
     borderopacity="1"
     objecttolerance="10"
     gridtolerance="10"
     guidetolerance="10"
     inkscape:pageopacity="0"
     inkscape:pageshadow="2"
     inkscape:window-width="1440"
     inkscape:window-height="852"
     id="namedview79"
     showgrid="false"
     inkscape:zoom="1.24"
     inkscape:cx="512"
     inkscape:cy="229"
     inkscape:window-x="0"
     inkscape:window-y="0"
     inkscape:window-maximized="1"
     inkscape:current-layer="svg2" />
  <!-- Generator: Sketch 3.0.3 (7891) - http://www.bohemiancoding.com/sketch -->
  <title
     id="title4">Untitled 2</title>
  <desc
     id="desc6">Created with Sketch.</desc>
  <defs
     id="defs8" />
  <g
     id="Page-1"
     sketch:type="MSPage"
     style="fill:none;stroke:none"
     transform="translate(0,2)">
    <g
       id="appmaker-hero-blue"
       sketch:type="MSLayerGroup">
      <g
         id="g12"
         sketch:type="MSShapeGroup">
        <g
           id="g14">
          <g
             id="Layer_3">
            <rect
               id="Rectangle-path"
               x="0"
               y="0"
               width="1024"
               height="400" />
            <g
               id="Group"
               transform="translate(343,55)">
              <g
                 transform="translate(49,0)"
                 id="g19">
                <path
                   d="M 234.374,403 3.816,403 c -2.2,0 -4,-1.8 -4,-4 l 0,-394.673 c 0,-2.2 1.8,-4 4,-4 l 230.559,0 c 2.2,0 4,1.8 4,4 l 0,394.673 c -0.001,2.2 -1.801,4 -4.001,4 z M 13,33 l 0,296.916 212.107,0 L 225.107,33 13,33 z"
                   id="Shape"
                   inkscape:connector-curvature="0"
                   style="fill:#231f20" />
                <path
                   d="m 164.409,18.417 c 0,1.018 -0.825,1.843 -1.843,1.843 l -86.941,0 c -1.018,0 -1.843,-0.825 -1.843,-1.843 l 0,0 c 0,-1.018 0.825,-1.843 1.843,-1.843 l 86.941,0 c 1.017,0 1.843,0.825 1.843,1.843 l 0,0 0,0 z"
                   id="path22"
                   inkscape:connector-curvature="0"
                   style="opacity:0.23999999;fill:#515153" />
                <circle
                   id="Oval"
                   cx="119.294"
                   cy="367.29401"
                   r="20.294001"
                   d="m 139.588,367.29401 c 0,11.20806 -9.08593,20.294 -20.294,20.294 -11.20807,0 -20.294002,-9.08594 -20.294002,-20.294 0,-11.20807 9.085932,-20.294 20.294002,-20.294 11.20807,0 20.294,9.08593 20.294,20.294 z"
                   sodipodi:cx="119.294"
                   sodipodi:cy="367.29401"
                   sodipodi:rx="20.294001"
                   sodipodi:ry="20.294001"
                   style="opacity:0.23999999;fill:#515153" />
              </g>
              <g
                 transform="translate(62,32)"
                 id="g25">
                <rect
                   id="rect27"
                   x="0"
                   y="0"
                   width="212.653"
                   height="25.424"
                   style="opacity:0.32000002;fill:#003333" />
                <g
                   id="g29"
                   transform="translate(179,5)"
                   style="fill:#6cc396">
                  <path
                     d="m 26.199,5.346 0,-5.159 -25.795,0 0,15.477 25.795,0 0,-3.439 1.72,0 0,-6.879 -1.72,0 0,0 z m -3.44,6.878 -18.916,0 0,-8.598 18.916,0 0,8.598 0,0 z"
                     id="path31"
                     inkscape:connector-curvature="0" />
                  <path
                     d="m 15.881,10.505 -10.318,0 0,-5.159 5.159,0 5.159,5.159 0,0 z"
                     id="path33"
                     inkscape:connector-curvature="0" />
                </g>
                <g
                   id="g35"
                   transform="translate(4,4)"
                   style="fill:#6cc396">
                  <rect
                     x="0"
                     y="13"
                     width="4.8839998"
                     height="4.5560002"
                     id="rect37" />
                  <rect
                     x="10"
                     y="9"
                     width="4.8839998"
                     height="9.1129999"
                     id="rect39" />
                  <rect
                     x="20"
                     y="4"
                     width="4.8839998"
                     height="13.669"
                     id="rect41" />
                  <rect
                     x="30"
                     y="0"
                     width="4.8839998"
                     height="18.225"
                     id="rect43" />
                </g>
              </g>
              <g
                 id="g45"
                 transform="translate(0,130)">
                <path
                   d="m 0.092,154.073 c 0.389,-11.175 9.762,-19.918 20.937,-19.53 l 47.019,1.634 c 11.174,0.388 19.918,9.762 19.531,20.938 l -0.14,4.069 c -0.388,11.177 -9.762,19.921 -20.938,19.531 L 19.482,179.081 C 8.305,178.689 -0.437,169.318 -0.05,158.142 l 0.142,-4.069 0,0 z"
                   id="path47"
                   inkscape:connector-curvature="0"
                   style="fill:#c3a697" />
                <path
                   d="m 68.048,136.177 -47.019,-1.634 c -5.742,-0.2 -11.001,2.082 -14.818,5.854 l 76.32,2.652 c -3.553,-4.038 -8.684,-6.673 -14.483,-6.872 l 0,0 0,0 z"
                   id="path49"
                   inkscape:connector-curvature="0"
                   style="opacity:0.2;fill:#424041" />
                <path
                   d="m 64.533,140.604 c 9.026,0.317 16.088,7.887 15.777,16.915 -0.317,9.026 -7.888,16.089 -16.913,15.777"
                   id="path51"
                   inkscape:connector-curvature="0"
                   style="opacity:0.68000016;fill:#f7dccb" />
                <path
                   d="M 1.64,109.533 C 2.03,98.36 11.405,89.615 22.578,90.001 l 47.017,1.635 c 11.176,0.39 19.919,9.763 19.532,20.939 l -0.141,4.07 c -0.389,11.174 -9.764,19.92 -20.938,19.531 L 21.029,134.542 C 9.855,134.154 1.11,124.779 1.495,113.601 l 0.145,-4.068 0,0 z"
                   id="path53"
                   inkscape:connector-curvature="0"
                   style="fill:#c3a697" />
                <path
                   d="M 69.596,91.636 22.579,90.001 c -5.745,-0.199 -11.002,2.084 -14.82,5.855 l 76.321,2.655 c -3.555,-4.04 -8.683,-6.672 -14.484,-6.875 l 0,0 0,0 z"
                   id="path55"
                   inkscape:connector-curvature="0"
                   style="opacity:0.2;fill:#424041" />
                <path
                   d="m 66.082,96.067 c 9.022,0.312 16.089,7.884 15.775,16.911 -0.314,9.024 -7.888,16.089 -16.913,15.776"
                   id="path57"
                   inkscape:connector-curvature="0"
                   style="opacity:0.68000016;fill:#f7dccb" />
                <path
                   d="M 3.187,64.995 C 3.578,53.821 12.952,45.076 24.125,45.463 l 47.02,1.636 c 11.173,0.387 19.919,9.763 19.529,20.936 l -0.14,4.069 C 90.145,83.282 80.771,92.026 69.595,91.636 L 22.578,90.001 C 11.404,89.615 2.658,80.238 3.046,69.062 l 0.141,-4.067 0,0 z"
                   id="path59"
                   inkscape:connector-curvature="0"
                   style="fill:#c3a697" />
                <path
                   d="m 71.145,47.099 -47.02,-1.636 c -5.742,-0.2 -11.001,2.084 -14.819,5.858 l 76.321,2.65 C 82.077,49.937 76.945,47.3 71.145,47.099 l 0,0 0,0 z"
                   id="path61"
                   inkscape:connector-curvature="0"
                   style="opacity:0.2;fill:#424041" />
                <path
                   d="m 67.629,51.527 c 9.024,0.316 16.089,7.884 15.773,16.912 -0.308,9.03 -7.881,16.094 -16.912,15.775"
                   id="path63"
                   inkscape:connector-curvature="0"
                   style="opacity:0.68000016;fill:#f7dccb" />
                <path
                   d="M 4.736,20.452 C 5.123,9.279 14.498,0.534 25.673,0.922 l 47.021,1.637 c 11.176,0.387 19.919,9.76 19.529,20.936 l -0.14,4.072 C 91.692,38.741 82.318,47.485 71.145,47.098 L 24.125,45.462 C 12.952,45.075 4.206,35.699 4.593,24.523 l 0.143,-4.071 0,0 z"
                   id="path65"
                   inkscape:connector-curvature="0"
                   style="fill:#c3a697" />
                <path
                   d="M 72.694,1.56 25.673,-0.077 C 19.931,-0.276 14.671,2.007 10.854,5.781 l 76.32,2.651 C 83.621,4.394 78.492,1.758 72.694,1.56 l 0,0 0,0 z"
                   id="path67"
                   inkscape:connector-curvature="0"
                   style="opacity:0.2;fill:#424041" />
                <path
                   d="m 69.177,6.989 c 9.025,0.312 16.089,7.884 15.775,16.913 -0.312,9.027 -7.883,16.09 -16.911,15.775"
                   id="path69"
                   inkscape:connector-curvature="0"
                   style="opacity:0.68000016;fill:#f7dccb" />
              </g>
              <g
                 id="g71"
                 transform="translate(212,96)">
                <path
                   d="m 125.909,31.986 c 1.639,15.953 -9.971,30.217 -25.927,31.854 l -67.14,6.883 C 16.885,72.362 2.624,60.755 0.989,44.797 L 0.391,38.983 C -1.242,23.027 10.367,8.765 26.32,7.126 L 93.458,0.241 c 15.953,-1.639 30.219,9.972 31.858,25.93 l 0.593,5.815 0,0 z"
                   id="path73"
                   inkscape:connector-curvature="0"
                   style="fill:#c3a697" />
                <path
                   d="m 32.842,70.724 67.14,-6.883 c 8.199,-0.842 15.226,-5.117 19.911,-11.227 L 10.919,63.796 c 5.84,5.041 13.646,7.782 21.923,6.928 l 0,0 0,0 z"
                   id="path75"
                   inkscape:connector-curvature="0"
                   style="opacity:0.2;fill:#7a7b7b" />
                <path
                   d="M 36.973,63.741 C 24.087,65.065 12.565,55.689 11.242,42.796 9.916,29.907 19.292,18.387 32.184,17.067"
                   id="path77"
                   inkscape:connector-curvature="0"
                   style="opacity:0.68000016;fill:#f7dccb" />
              </g>
            </g>
          </g>
        </g>
      </g>
    </g>
  </g>
</svg>
