<?xml version="1.0" encoding="utf-8"?>
<!-- Generator: Adobe Illustrator 17.0.0, SVG Export Plug-In . SVG Version: 6.00 Build 0)  -->
<!DOCTYPE svg PUBLIC "-//W3C//DTD SVG 1.1//EN" "http://www.w3.org/Graphics/SVG/1.1/DTD/svg11.dtd">
<svg version="1.1" xmlns="http://www.w3.org/2000/svg" xmlns:xlink="http://www.w3.org/1999/xlink" x="0px" y="0px" width="100px"
	 height="100px" viewBox="0 0 100 100" enable-background="new 0 0 100 100" xml:space="preserve">
<g id="Heart" display="none">
	<g id="New_Symbol_120" display="inline">
	</g>
	<g display="inline">
		<path fill="#3fb58e" d="M72.512,11.189C71.191,11.059,69.959,11,68.799,11C59.528,11,55.086,15.001,50,21.074
			C44.911,15.001,40.46,11,31.195,11c-1.156,0-2.392,0.059-3.71,0.189c-8.021,0.783-17.298,8.126-18.423,22.204v4.682
			C10.114,51.542,20.281,68.159,50,89c29.716-20.841,39.886-37.458,40.938-50.925v-4.682C89.807,19.315,80.53,11.973,72.512,11.189z
			 M66.793,63.611c-0.408,0.409-1.092,1.086-1.092,1.086s-0.684,0.681-1.096,1.087c-0.409,0.407-1.735,0.438-2.18-0.008
			c-0.44-0.44-5.554-5.588-5.554-5.588l-1.088-1.093c0,0-1.77,0.404-2.178-0.008c-0.407-0.412-0.68-0.682-0.68-0.682
			s-0.406-0.412,0.072-0.885c0.479-0.476,1.707-1.697,1.707-1.697l-4.585-4.615l-2.485,2.47c0.577,1.126,0.932,2.386,0.927,3.739
			c-0.015,4.533-3.699,8.192-8.232,8.182c-0.734-0.002-1.434-0.133-2.112-0.32l4.331-4.304l-1.007-4.785l-4.778-1.034l-4.322,4.295
			c-0.174-0.671-0.296-1.361-0.291-2.085c0.014-4.533,3.698-8.198,8.231-8.183c1.507,0.006,2.9,0.445,4.111,1.157l2.396-2.381
			l-7.466-7.514l-2.719-1.64l-2.174-2.187l-2.303-4.23l0.684-0.681l0.684-0.676l4.214,2.326l2.176,2.187l1.625,2.727l7.466,7.514
			l2.394-2.38c-0.705-1.217-1.135-2.612-1.131-4.118c0.014-4.533,3.698-8.194,8.231-8.18c0.735,0.003,1.437,0.131,2.112,0.317
			l-4.331,4.307l1.008,4.783l4.778,1.035l4.321-4.295c0.175,0.671,0.297,1.364,0.292,2.085c-0.013,4.533-3.696,8.196-8.23,8.182
			c-1.354-0.004-2.612-0.366-3.735-0.951l-2.479,2.465l4.587,4.616c0,0,1.23-1.224,1.707-1.701c0.48-0.473,0.885-0.063,0.885-0.063
			s0.274,0.272,0.681,0.685c0.407,0.408-0.007,2.178-0.007,2.178l1.085,1.093c0,0,5.115,5.143,5.557,5.589
			C67.242,61.876,67.201,63.203,66.793,63.611z"/>
	</g>
</g>
<g id="Layer_3" display="none">
	<g display="inline">
		<path fill="#3fb58e" d="M34.358,42.8c-1.141-0.032-2.092,0.864-2.125,2.008c-0.032,1.14,0.866,2.088,2.007,2.121
			c1.14,0.032,2.092-0.863,2.125-2.003C36.398,43.781,35.498,42.832,34.358,42.8z"/>
		<path fill="#3fb58e" d="M49.809,27.169c-1.794-0.051-3.288,1.356-3.339,3.153c-0.051,1.793,1.36,3.285,3.154,3.336
			c1.792,0.051,3.286-1.358,3.337-3.151C53.012,28.71,51.6,27.22,49.809,27.169z"/>
		<path fill="#3fb58e" d="M76.36,41.631c0-2.109,0-1.161,0-2.109C76.36,23.218,63.142,10,46.836,10
			c-16.302,0-29.522,13.218-29.522,29.522c0,6.886,2.378,13.204,6.326,18.222V90h37.959V79.589c6.987,0,12.652-5.664,12.652-12.652
			V60.61h6.326c1.166,0,2.109-0.943,2.109-2.109C82.685,57.953,76.36,41.631,76.36,41.631z M41.526,45.275
			c-0.013,0.461-0.394,0.819-0.852,0.806l-1.555-0.044c-0.122,0.505-0.325,0.979-0.589,1.411l1.157,1.226
			c0.311,0.332,0.301,0.857-0.031,1.169l-0.602,0.567c-0.332,0.314-0.857,0.297-1.168-0.033l-1.137-1.202
			c-0.416,0.236-0.867,0.413-1.345,0.518l-0.052,1.817c-0.013,0.456-0.394,0.816-0.849,0.803l-0.825-0.023
			c-0.457-0.013-0.815-0.395-0.802-0.851l0.052-1.817c-0.433-0.123-0.837-0.301-1.208-0.528l-1.438,1.356
			c-0.331,0.314-0.854,0.299-1.167-0.033l-0.567-0.6c-0.316-0.331-0.301-0.856,0.033-1.166l1.412-1.338
			c-0.201-0.358-0.362-0.737-0.474-1.136l-2.073-0.059c-0.458-0.013-0.814-0.396-0.805-0.851l0.023-0.826
			c0.016-0.458,0.394-0.818,0.852-0.805l1.968,0.056c0.098-0.405,0.248-0.787,0.438-1.148l-1.416-1.5
			c-0.318-0.334-0.303-0.856,0.031-1.169l0.6-0.567c0.334-0.316,0.856-0.301,1.17,0.033l1.291,1.37
			c0.365-0.243,0.766-0.427,1.185-0.563l0.055-1.941c0.013-0.456,0.394-0.815,0.849-0.802l0.826,0.023
			c0.458,0.013,0.815,0.394,0.802,0.849l-0.049,1.728c0.481,0.094,0.936,0.259,1.352,0.479l1.291-1.217
			c0.331-0.315,0.855-0.3,1.17,0.031l0.567,0.6c0.311,0.332,0.297,0.856-0.034,1.171l-1.157,1.092
			c0.279,0.424,0.493,0.891,0.629,1.394l1.661,0.047c0.458,0.013,0.818,0.393,0.805,0.849L41.526,45.275z M61.071,31.061
			c-0.02,0.719-0.619,1.284-1.338,1.263l-2.445-0.07c-0.192,0.794-0.51,1.539-0.924,2.217l1.818,1.926
			c0.49,0.524,0.472,1.348-0.048,1.84l-0.947,0.89c-0.52,0.492-1.346,0.467-1.838-0.052l-1.785-1.89
			c-0.653,0.373-1.362,0.652-2.114,0.817l-0.081,2.855c-0.02,0.716-0.619,1.284-1.334,1.263l-1.298-0.037
			c-0.719-0.021-1.28-0.621-1.26-1.337l0.081-2.855c-0.679-0.196-1.316-0.475-1.899-0.83l-2.26,2.131
			c-0.52,0.489-1.343,0.469-1.837-0.052l-0.89-0.941c-0.496-0.523-0.473-1.347,0.052-1.836l2.221-2.103
			c-0.315-0.558-0.571-1.158-0.748-1.786l-3.256-0.093c-0.719-0.02-1.284-0.62-1.264-1.336l0.037-1.297
			c0.022-0.722,0.619-1.284,1.338-1.263l3.093,0.088c0.153-0.638,0.389-1.239,0.687-1.803l-2.225-2.358
			c-0.499-0.525-0.476-1.346,0.048-1.838l0.943-0.892c0.524-0.492,1.344-0.469,1.838,0.052l2.031,2.152
			c0.573-0.378,1.202-0.672,1.862-0.885l0.087-3.05c0.02-0.717,0.619-1.283,1.334-1.263l1.3,0.037c0.717,0.021,1.28,0.62,1.26,1.337
			l-0.077,2.714c0.755,0.146,1.469,0.406,2.124,0.752l2.029-1.913c0.522-0.492,1.345-0.469,1.84,0.051l0.892,0.942
			c0.489,0.521,0.465,1.344-0.058,1.841l-1.815,1.716c0.438,0.667,0.775,1.4,0.989,2.189l2.61,0.074
			c0.719,0.02,1.285,0.617,1.264,1.333L61.071,31.061z"/>
	</g>
</g>
<g id="Layer_4">
	<g id="New_Symbol_3">
		<g>
			<g>
				<path fill="#3fb58e" d="M67.676,17.324C63.154,12.8,56.904,10,50,10s-13.154,2.8-17.676,7.324C27.798,21.846,25,28.098,25,35
					c0,4.089,0.981,7.944,2.72,11.35c1.738,3.406,4.233,6.357,7.266,8.638C34.998,55,35,58.828,35,63.132c0,0.618,0,1.24,0,1.868h15
					h15c0-1.743,0-3.472,0-5c0-2.859,0-4.993,0-4.998c3.037-2.278,5.537-5.229,7.275-8.638C74.019,42.954,75,39.092,75,35
					C75,28.098,72.202,21.846,67.676,17.324z M67.822,44.092c-1.377,2.698-3.391,5.093-5.825,6.917L60,52.502v2.5V60H39.988
					c-0.044-7.478-0.325-7.896-2.104-9.087c-2.38-1.816-4.353-4.18-5.71-6.841C30.728,41.25,30,38.201,30,35
					c0-5.342,2.078-10.366,5.862-14.136C39.636,17.078,44.656,15,50,15s10.364,2.078,14.143,5.864C67.918,24.634,70,29.658,70,35
					C70,38.206,69.268,41.257,67.822,44.092z"/>
				<polygon fill="#3fb58e" points="35,85 40,85 40,90 60,90 60,85 65,85 65,80 35,80 				"/>
				<rect x="35" y="70" fill="#3fb58e" width="30" height="5"/>
			</g>
			<rect x="35" y="65" fill="#3fb58e" width="5" height="15"/>
			<rect x="60" y="65" fill="#3fb58e" width="5" height="15"/>
		</g>
	</g>
</g>
</svg>
