<?xml version="1.0" encoding="utf-8"?>
<!-- Generator: Adobe Illustrator 16.0.0, SVG Export Plug-In . SVG Version: 6.00 Build 0)  -->
<!DOCTYPE svg PUBLIC "-//W3C//DTD SVG 1.1//EN" "http://www.w3.org/Graphics/SVG/1.1/DTD/svg11.dtd">
<svg version="1.1" id="Layer_1" xmlns="http://www.w3.org/2000/svg" xmlns:xlink="http://www.w3.org/1999/xlink" x="0px" y="0px"
	 width="113.471px" height="219px" viewBox="0 0 113.471 219" enable-background="new 0 0 113.471 219" xml:space="preserve">
<g>
	<g>
		<defs>
			<path id="SVGID_1_" d="M-15.264,13.795c-52.824,0-95.66,42.836-95.66,95.661c0,52.822,42.836,95.659,95.66,95.659
				c52.82,0,95.659-42.837,95.659-95.659C80.396,56.631,37.557,13.795-15.264,13.795z"/>
		</defs>
		<clipPath id="SVGID_2_">
			<use xlink:href="#SVGID_1_"  overflow="visible"/>
		</clipPath>
		<path opacity="0.4" clip-path="url(#SVGID_2_)" fill="#6D2F00" d="M-27.338,212.672c-3.93,5.783,2.83,14.248,10.406,14.446
			c5.984,0.157,10.768-4.972,10.895-10.733c0.951,0.613,1.982,1.17,3.109,1.639c10.814,4.502,22.034,0.011,22.034,0.011
			s-8.099-6.53-16.647-9.534c-1.469-0.515,0.445,2.315-1,2c0.334-0.036-1.322,0.541-1,0.5c3.035-0.377,5.952-9.896,8.943-10.471
			c0.003,0.063,0.008,0.106,0.008,0.106s0.025-0.004,0.062-0.009c1.61,3,6.526,10.629,15.704,12.434
			c11.496,2.255,21.594-4.385,21.594-4.385s-9.002-10.135-17.979-11.371c-1.806-0.248-3.582-0.34-5.294-0.331
			c4.426-1.4,8.759-3.059,12.975-4.997c1.312,1.588,7.765,8.725,17.325,8.246c10.752-0.539,18.287-8.703,18.287-8.703
			s-10.279-7.041-18.56-6.151c-2.788,0.3-5.413,0.966-7.749,1.752c2.882-1.697,5.694-3.534,8.422-5.54
			c1.693-1.247,3.332-2.572,4.938-3.939c1.736,1.236,9.271,6.067,17.809,3.387c9.745-3.061,14.716-12.354,14.716-12.354
			s-11.119-4.015-18.511-1.223c-2.706,1.023-5.141,2.396-7.209,3.793c3.662-3.815,7.018-7.951,10.035-12.338
			c2.303,0.627,10.737,2.41,17.674-2.838c8.114-6.134,9.66-16.517,9.66-16.517s-11.774-0.038-17.77,5.06
			c-0.908,0.771-1.75,1.587-2.533,2.417c2.056-4.064,3.85-8.264,5.35-12.563c2.775-0.075,10.105-0.871,14.76-6.879
			c5.834-7.53,4.693-17.294,4.693-17.294s-10.652,2.846-14.828,8.918c-0.297,0.434-0.582,0.873-0.849,1.314
			c0.7-3.594,1.21-7.22,1.497-10.856c2.169-0.555,9.285-2.862,12.331-9.826c3.616-8.263,0.312-16.963,0.312-16.963
			s-9.123,5.075-11.551,11.615c-0.383,1.032-0.688,2.066-0.938,3.085c-0.194-3.566-0.604-7.12-1.241-10.637
			c2.441-1.417,7.029-4.791,8.242-10.694c1.676-8.147-2.977-15.359-2.977-15.359s-7.254,6.328-8.189,12.694
			c-0.071,0.488-0.123,0.973-0.166,1.454c-0.896-2.605-1.926-5.179-3.104-7.704c-0.132-0.285-0.281-0.563-0.417-0.846
			c1.93-1.942,5.07-5.969,4.832-11.402c-0.344-7.798-6.228-13.296-6.228-13.296s-5.149,7.42-4.543,13.427
			c0.038,0.371,0.09,0.735,0.145,1.098c-1.72-2.597-3.575-5.132-5.575-7.564c1.137-1.921,2.792-5.691,1.545-9.897
			c-1.805-6.072-7.522-9.246-7.522-9.246s-2.595,6.858-0.935,11.468c0.039,0.109,0.084,0.213,0.125,0.322
			c-1.948-1.896-3.979-3.7-6.09-5.393c0.542-1.818,1.119-5.226-0.746-8.407c-2.707-4.624-8.045-6.073-8.045-6.073
			s-0.673,5.608,1.264,9.119c-2.041-1.279-4.129-2.455-6.262-3.513c-0.543-1.634-1.818-4.27-4.656-5.638
			c-4.297-2.072-9.182,0.377-9.182,0.377l0.092,0.043c-0.094,0.028-0.153,0.05-0.153,0.05s2.504,4.922,5.913,6.33
			c2.916,1.205,5.938,1.301,7.309,1.268c1.502,0.754,2.988,1.585,4.459,2.472c-4.715-0.177-7.217-4.528-7.217-4.528
			s7.875,10.609,12,11c4.044,0.381,2.857,0.263,3.885-0.118c1.73,1.409,3.562,2.296,4.998,4.694
			c-0.018-0.004-0.032-0.007-0.048-0.011c-6.157-1.474-3.335-2.565-3.335-2.565s-3.386,9.935,1.467,10.615
			c3.768,0.529,7.342-0.154,9.28-0.658c1.556,1.9,3.038,3.864,4.433,5.884c-6.554-3.292-9.68-1.841-9.68-1.841s2.748,3.636,8,6
			c4.557,2.048,6.191,7.211,8.287,7.216c1.086,2.272,2.045,4.578,2.881,6.902c-0.184-0.189-0.351-0.383-0.547-0.566
			C79.998,68.377,75.459,67.5,75.459,67.5c24.005-104.999,9.83,20.767,2.527,14.694c-4.622-3.839,10.15,5.533,12.087,6.041
			c0.458,2.83,0.771,5.695,0.95,8.577c-0.379-0.555-0.789-1.102-1.273-1.628C83.91,88.839,81.959,86,81.959,86s-0.787,10.856,4,15.5
			c3.474,3.364,2.396,6.896,4.991,7.971c-0.271,3.782-0.762,7.553-1.466,11.281c-0.187-0.587-0.408-1.177-0.677-1.768
			c-3.928-8.677-13.092-12.235-13.092-12.235s-2.467,10.748,0.948,17.278c2.695,5.143,6.746,8.955,9.045,10.855
			c-1.533,4.398-3.369,8.66-5.499,12.727c0.338-1.892,0.407-3.955-0.017-6.149c-1.852-9.542-10.107-15.237-10.107-15.237
			s-4.984,10.086-3.135,17.375c1.711,6.726,5.699,12.074,7.222,13.941c-2.405,3.443-5.031,6.707-7.859,9.773
			c0.697-1.723,1.188-3.641,1.288-5.773c0.467-10.205-6.561-18.062-6.561-18.062s-7.584,9.068-7.496,16.971
			c0.08,6.793,2.473,12.857,3.685,15.506c-4.05,3.371-8.386,6.406-12.94,9.104c1.943-2.202,3.666-5.046,4.438-8.613
			c2.27-10.524-3.658-19.92-3.658-19.92s-9.468,8.099-10.758,16.327c-1.124,7.183,0.363,14,1.151,16.891
			c-2.689,1.259-5.44,2.406-8.247,3.438c-1.729,0.636-3.461,1.196-5.194,1.71c1.882-1.611,3.632-3.661,4.946-6.264
			c5.278-10.459,1.619-21.976,1.619-21.976s-12.195,5.927-15.812,14.235c-2.825,6.498-3.363,13.261-3.419,16.943
			C5.393,198.546-1.513,208.417-5.541,209c2.247-1.213,1,2-6.5,3.5C-9.408,224.177-26.541,211.5-27.338,212.672z"/>
	</g>
	<g>
		<path fill="#FFCE36" d="M42.369,13.629c0,0,0.9-5.59-3.008-9.255s-9.438-3.543-9.438-3.543s1.029,6.116,4.209,8.774
			C37.801,12.669,42.369,13.629,42.369,13.629z"/>
		<path fill="#FFCE36" d="M42.082,14.462c0,0-3.773-4.221-9.082-3.495c-5.309,0.727-8.697,5.097-8.697,5.097s5.397,3.054,9.465,2.26
			C38.457,17.405,42.082,14.462,42.082,14.462z"/>
		<path fill="#FFCE36" d="M57.932,22.344c0,0,2.614-6.161-0.836-11.474s-9.832-6.735-9.832-6.735s-0.547,7.312,2.352,11.263
			C52.96,19.95,57.932,22.344,57.932,22.344z"/>
		<path fill="#FFCE36" d="M58.438,22.112c0,0-4.23-5.186-10.539-4.612c-6.309,0.574-10.545,5.555-10.545,5.555
			s6.214,3.896,11.061,3.173C54,25.395,58.438,22.112,58.438,22.112z"/>
		<path fill="#FFCE36" d="M73.329,36.246c0,0,4.962-6.585,2.424-13.964c-2.539-7.38-9.741-10.984-9.741-10.984
			s-2.836,8.577-0.55,14.164C68.1,31.901,73.329,36.246,73.329,36.246z"/>
		<path fill="#FFCE36" d="M73.646,36.055c0,0-3.072-7.245-10.381-8.67c-7.311-1.426-13.727,2.805-13.727,2.805
			s5.732,6.438,11.44,7.215C67.559,38.301,73.646,36.055,73.646,36.055z"/>
		<path fill="#FFCE36" d="M85.225,53.542c0,0,6.842-5.515,6.139-13.802c-0.703-8.289-7.21-13.888-7.21-13.888
			s-5.163,8.126-4.254,14.496C80.949,47.69,85.225,53.542,85.225,53.542z"/>
		<path fill="#FFCE36" d="M85.223,54.233c0,0-1.141-8.713-8.582-12.432c-7.441-3.718-15.61-1.082-15.61-1.082
			s4.247,8.641,10.156,11.184C78.002,54.833,85.223,54.233,85.223,54.233z"/>
		<path fill="#FFCE36" d="M93.387,74.15c0,0,8.504-4.303,9.629-13.251c1.125-8.949-4.511-16.356-4.511-16.356
			s-7.311,7.453-7.785,14.413C90.176,66.979,93.387,74.15,93.387,74.15z"/>
		<path fill="#FFCE36" d="M94.037,74.555c0,0-0.491-9.097-7.889-13.528c-7.399-4.429-16.051-2.349-16.051-2.349
			s3.707,9.267,9.615,12.362C86.526,74.604,94.037,74.555,94.037,74.555z"/>
		<path fill="#FFCE36" d="M94.871,99.402c0,0,9.818-2.215,13.279-11.09c3.461-8.876-0.4-17.917-0.4-17.917
			s-9.41,5.748-11.692,12.755C93.432,91.229,94.871,99.402,94.871,99.402z"/>
		<path fill="#FFCE36" d="M95.588,101.042c0,0,2.633-9.715-3.596-16.924c-6.227-7.208-16.023-8.023-16.023-8.023
			s0.682,11.006,5.809,16.3C87.689,98.493,95.588,101.042,95.588,101.042z"/>
		<path fill="#FFCE36" d="M90.367,126.04c0,0,10.738,0.454,16.779-7.73c6.041-8.185,4.582-18.579,4.582-18.579
			s-11.303,3.301-15.607,9.889C91.162,117.213,90.367,126.04,90.367,126.04z"/>
		<path fill="#FFCE36" d="M89.676,125.759c0,0,4.905-9.021,0.424-17.646c-4.479-8.626-14.01-11.747-14.01-11.747
			s-1.922,11.084,1.918,17.55C82.438,121.364,89.676,125.759,89.676,125.759z"/>
		<path fill="#FFCE36" d="M79.723,148.617c0,0,9.999,4.059,18.477-1.637c8.479-5.697,10.612-16.02,10.612-16.02
			s-11.802-0.697-18.1,4.074C83.457,140.539,79.723,148.617,79.723,148.617z"/>
		<path fill="#FFCE36" d="M78.917,148.856c0,0,7.242-8.001,4.8-17.919c-2.444-9.918-11.41-15.461-11.41-15.461
			s-4.702,10.846-2.379,18.4C72.61,142.578,78.917,148.856,78.917,148.856z"/>
		<path fill="#FFCE36" d="M62.161,168.723c0,0,9.125,6.789,19.282,3.227c10.159-3.564,15.07-13.529,15.07-13.529
			s-11.854-3.839-19.543-0.64C68.112,161.472,62.161,168.723,62.161,168.723z"/>
		<path fill="#FFCE36" d="M61.721,168.365c0,0,8.924-7.05,8.121-17.784c-0.807-10.735-9.154-18.065-9.154-18.065
			s-6.784,10.451-5.689,18.708C56.264,160.736,61.721,168.365,61.721,168.365z"/>
		<path fill="#FFCE36" d="M38.125,183.898c0,0,7.85,9.564,19.511,8.475c11.663-1.097,19.466-10.326,19.466-10.326
			s-11.506-7.168-20.465-5.811C46.314,177.807,38.125,183.898,38.125,183.898z"/>
		<path fill="#FFCE36" d="M38.994,184.926c0,0,11.331-4.971,13.434-16.492c2.098-11.525-4.678-21.533-4.678-21.533
			s-10.013,9.141-11.127,18.133C35.344,175.395,38.994,184.926,38.994,184.926z"/>
		<path fill="#FFE394" d="M42.369,13.629c0,0,0.9-5.59-3.008-9.255s-9.438-3.543-9.438-3.543L42.369,13.629z"/>
		<path fill="#FFCE36" d="M27.472,9.88c0,0-2.11-4.575-6.815-5.344c-4.707-0.769-8.732,2.067-8.732,2.067s3.797,4.007,7.467,4.392
			C23.621,11.438,27.472,9.88,27.472,9.88z"/>
		<path fill="#FFE394" d="M42.082,14.462c0,0-3.773-4.221-9.082-3.495c-5.309,0.727-8.697,5.097-8.697,5.097L42.082,14.462z"/>
		<path fill="#FFE394" d="M57.932,22.344c0,0,2.614-6.161-0.836-11.474s-9.832-6.735-9.832-6.735L57.932,22.344z"/>
		<path fill="#FFE394" d="M58.438,22.112c0,0-4.23-5.186-10.539-4.612c-6.309,0.574-10.545,5.555-10.545,5.555L58.438,22.112z"/>
		<path fill="#FFE394" d="M73.329,36.246c0,0,4.962-6.585,2.424-13.964c-2.539-7.38-9.741-10.984-9.741-10.984L73.329,36.246z"/>
		<path fill="#FFE394" d="M73.646,36.055c0,0-3.072-7.245-10.381-8.67c-7.311-1.426-13.727,2.805-13.727,2.805L73.646,36.055z"/>
		<path fill="#FFE394" d="M85.225,53.542c0,0,6.842-5.515,6.139-13.802c-0.703-8.289-7.21-13.888-7.21-13.888L85.225,53.542z"/>
		<path fill="#FFE394" d="M85.223,54.233c0,0-1.141-8.713-8.582-12.432c-7.441-3.718-15.61-1.082-15.61-1.082L85.223,54.233z"/>
		<path fill="#FFE394" d="M93.387,74.15c0,0,8.504-4.303,9.629-13.251c1.125-8.949-4.511-16.356-4.511-16.356L93.387,74.15z"/>
		<path fill="#FFE394" d="M94.037,74.555c0,0-0.491-9.097-7.889-13.528c-7.399-4.429-16.051-2.349-16.051-2.349L94.037,74.555z"/>
		<path fill="#FFE394" d="M94.871,99.402c0,0,9.818-2.215,13.279-11.09c3.461-8.876-0.4-17.917-0.4-17.917L94.871,99.402z"/>
		<path fill="#FFE394" d="M95.588,101.042c0,0,2.633-9.715-3.596-16.924c-6.227-7.208-16.023-8.023-16.023-8.023L95.588,101.042z"/>
		<path fill="#FFE394" d="M90.367,126.04c0,0,10.738,0.454,16.779-7.73c6.041-8.185,4.582-18.579,4.582-18.579L90.367,126.04z"/>
		<path fill="#FFE394" d="M89.676,125.759c0,0,4.905-9.021,0.424-17.646c-4.479-8.626-14.01-11.747-14.01-11.747L89.676,125.759z"/>
		<path fill="#FFE394" d="M79.723,148.617c0,0,9.999,4.059,18.477-1.637c8.479-5.697,10.612-16.02,10.612-16.02L79.723,148.617z"/>
		<path fill="#FFE394" d="M78.917,148.856c0,0,7.242-8.001,4.8-17.919c-2.444-9.918-11.41-15.461-11.41-15.461L78.917,148.856z"/>
		<path fill="#FFE394" d="M62.161,168.723c0,0,9.125,6.789,19.282,3.227c10.159-3.564,15.07-13.529,15.07-13.529L62.161,168.723z"/>
		<path fill="#FFE394" d="M61.721,168.365c0,0,8.924-7.05,8.121-17.784c-0.807-10.735-9.154-18.065-9.154-18.065L61.721,168.365z"/>
		<path fill="#FFE394" d="M38.125,183.898c0,0,7.85,9.564,19.511,8.475c11.663-1.097,19.466-10.326,19.466-10.326L38.125,183.898z"
			/>
		<path fill="#FFE394" d="M38.994,184.926c0,0,11.331-4.971,13.434-16.492c2.098-11.525-4.678-21.533-4.678-21.533L38.994,184.926z"
			/>
		<path fill="#FFCE36" d="M14.663,192.902c0,0,5.784,10.938,17.428,12.195c11.647,1.252,21.135-6.236,21.135-6.236
			s-9.845-9.318-18.896-9.774C23.902,188.566,14.663,192.902,14.663,192.902z"/>
		<path fill="#FFCE36" d="M15.31,194.082c0,0,12.095-2.611,16.452-13.481c4.354-10.876-0.289-22.034-0.289-22.034
			s-11.634,6.961-14.52,15.55C13.633,184.016,15.31,194.082,15.31,194.082z"/>
		<path fill="#FFE394" d="M14.663,192.902c0,0,5.784,10.938,17.428,12.195c11.647,1.252,21.135-6.236,21.135-6.236L14.663,192.902z"
			/>
		<path fill="#FFE394" d="M15.31,194.082c0,0,12.095-2.611,16.452-13.481c4.354-10.876-0.289-22.034-0.289-22.034L15.31,194.082z"/>
		<path fill="none" stroke="#FFCE36" stroke-width="4" stroke-linecap="round" stroke-miterlimit="10" d="M23.783,8.412
			c0,0,64.705,8.235,70.588,78.824c3.725,44.69-20.668,74.558-46.744,91.431c-20,12.941-39.784,14.303-39.168,27.334
			c0.471,9.941,10.743,11.986,15.412,9.235c6.338-3.735,5.776-10.922,2.338-13.735c-2.75-2.25-7.709-1.652-8.75,2.25
			c-1,3.75,2.25,4,2.25,4"/>
		<path fill="#FFE394" d="M27.472,8.88c0,0-2.11-4.575-6.815-5.344C15.949,2.768,11.959,6.5,11.959,6.5L27.472,8.88z"/>
	</g>
</g>
</svg>
